<svg width="33" height="33" viewBox="0 0 33 33" fill="none" xmlns="http://www.w3.org/2000/svg">
<ellipse cx="18.0126" cy="16.4766" rx="14.08" ry="16" fill="#6D5621"/>
<ellipse cx="14.8128" cy="16.4766" rx="14.72" ry="16" fill="#DBAA36"/>
<g clip-path="url(#clip0_226_14869)">
<path d="M17.9901 19.7409C17.5964 19.7212 17.2403 19.8888 16.8185 20.0368C16.4343 20.165 15.9282 20.2735 15.3752 20.2537C13.407 20.1748 12.8165 18.5082 12.8915 16.3484C12.9759 14.2083 13.6975 12.3444 15.4408 12.4134C15.9282 12.4332 16.5092 12.6008 16.8748 12.8375L16.9498 13.5673C17.0435 14.4056 17.5402 14.8099 18.1307 14.8296C18.768 14.8592 19.321 14.4647 19.2928 13.3996V12.8572C19.2554 11.6935 18.7586 11.013 17.9151 10.5791C17.5402 10.3917 17.0247 10.2043 16.4343 10.086V8.27138C16.4343 7.80786 16.0781 7.43311 15.6376 7.43311C15.1971 7.43311 14.841 7.80786 14.841 8.27138V9.96765C11.8231 10.1747 10.4641 13.0052 10.3328 16.1709C10.2016 19.5831 11.5606 22.4234 14.841 22.6798V24.6917C14.841 25.1552 15.1971 25.5299 15.6376 25.5299C16.0781 25.5299 16.4343 25.1552 16.4343 24.6917V22.6404C17.1841 22.5516 17.9432 22.3642 18.4212 22.0388C18.8805 21.733 19.021 21.3386 19.0304 20.9737C19.0585 20.3425 18.6743 19.7804 17.9901 19.7508V19.7409Z" fill="#694229"/>
</g>
<defs>
<clipPath id="clip0_226_14869">
<rect width="8.96" height="18.087" fill="white" transform="translate(10.333 7.43311)"/>
</clipPath>
</defs>
</svg>
