<svg width="45" height="45" viewBox="0 0 45 45" fill="none" xmlns="http://www.w3.org/2000/svg">
<path d="M22.9711 1.47663C11.558 1.4484 1.8871 10.6394 1.90826 22.4299C1.88163 33.9687 11.2456 43.4074 22.7305 43.4762C34.0959 43.5449 43.855 34.3908 43.908 22.7103C43.9617 10.9423 34.659 1.50534 22.9711 1.47663Z" fill="#5463C3" stroke="#7A3F3E" stroke-width="2"/>
<path d="M32.1881 8.96542L32.2956 9.17817V9.41655V13.6403V14.6403H31.2956C31.1439 14.6403 31.0126 14.638 30.8923 14.6359C30.669 14.6319 30.4834 14.6286 30.2747 14.6421C30.1888 14.6477 30.1038 14.6531 30.0194 14.6584C29.3552 14.7005 28.738 14.7397 28.1294 14.8285L27.985 13.839M32.1881 8.96542L27.4869 15.1023C27.7881 14.9335 27.9859 14.8496 28.1301 14.8284L27.985 13.839M32.1881 8.96542L32.1877 8.96455L31.9329 8.46053L31.3697 8.41846C31.3579 8.41758 31.3406 8.41613 31.32 8.41438C31.2592 8.40927 31.1689 8.40167 31.1015 8.39882L31.0999 8.39876C30.8658 8.38923 30.6271 8.37831 30.3855 8.36726C29.8056 8.34073 29.209 8.31344 28.6202 8.30286L28.6019 9.30269C29.1763 9.31301 29.7503 9.33928 30.3243 9.36554C30.5693 9.37675 30.8142 9.38796 31.0592 9.39793C31.1052 9.39988 31.1512 9.40378 31.2027 9.40816C31.2315 9.41061 31.262 9.4132 31.2952 9.41568L31.2956 9.41655V12.6403V13.6403H30.2956V13.6394C30.2672 13.6408 30.2387 13.6424 30.2102 13.6442C30.1255 13.6497 30.0408 13.655 29.956 13.6604C29.2969 13.7021 28.6368 13.7439 27.985 13.839M32.1881 8.96542L26.998 14.2299C27.3048 14.058 27.6427 13.8892 27.985 13.839M19.7179 18.7251C19.72 18.4688 19.7218 18.2114 19.7235 17.9531C19.7306 16.9097 19.7379 15.8521 19.7705 14.8019C19.8027 13.7659 20.0346 12.7491 20.4857 11.7912L19.7179 18.7251ZM19.7179 18.7251H16.0664H15.0804L15.0665 19.7109L15.0313 22.2138L14.9962 24.7165L14.9819 25.7306H15.9961H19.6736C19.6816 26.4381 19.6895 27.1448 19.6975 27.851C19.7331 31.0136 19.7686 34.1651 19.8044 37.3266L19.8156 38.3153H20.8043H20.805H20.8056H20.8063H20.807H20.8077H20.8083H20.809H20.8097H20.8103H20.811H20.8117H20.8123H20.813H20.8136H20.8143H20.815H20.8156H20.8163H20.8169H20.8176H20.8182H20.8189H20.8196H20.8202H20.8209H20.8215H20.8222H20.8228H20.8235H20.8241H20.8248H20.8254H20.8261H20.8267H20.8273H20.828H20.8286H20.8293H20.8299H20.8306H20.8312H20.8318H20.8325H20.8331H20.8338H20.8344H20.835H20.8357H20.8363H20.8369H20.8376H20.8382H20.8388H20.8395H20.8401H20.8407H20.8414H20.842H20.8426H20.8432H20.8439H20.8445H20.8451H20.8457H20.8464H20.847H20.8476H20.8482H20.8488H20.8495H20.8501H20.8507H20.8513H20.8519H20.8526H20.8532H20.8538H20.8544H20.855H20.8556H20.8562H20.8569H20.8575H20.8581H20.8587H20.8593H20.8599H20.8605H20.8611H20.8617H20.8623H20.8629H20.8635H20.8641H20.8647H20.8653H20.8659H20.8665H20.8671H20.8677H20.8683H20.8689H20.8695H20.8701H20.8707H20.8713H20.8719H20.8725H20.8731H20.8737H20.8743H20.8749H20.8755H20.8761H20.8767H20.8773H20.8778H20.8784H20.879H20.8796H20.8802H20.8808H20.8814H20.882H20.8825H20.8831H20.8837H20.8843H20.8849H20.8854H20.886H20.8866H20.8872H20.8878H20.8883H20.8889H20.8895H20.8901H20.8906H20.8912H20.8918H20.8924H20.8929H20.8935H20.8941H20.8947H20.8952H20.8958H20.8964H20.8969H20.8975H20.8981H20.8986H20.8992H20.8998H20.9003H20.9009H20.9015H20.902H20.9026H20.9032H20.9037H20.9043H20.9049H20.9054H20.906H20.9065H20.9071H20.9077H20.9082H20.9088H20.9093H20.9099H20.9104H20.911H20.9115H20.9121H20.9127H20.9132H20.9138H20.9143H20.9149H20.9154H20.916H20.9165H20.9171H20.9176H20.9182H20.9187H20.9193H20.9198H20.9204H20.9209H20.9214H20.922H20.9225H20.9231H20.9236H20.9242H20.9247H20.9253H20.9258H20.9263H20.9269H20.9274H20.928H20.9285H20.929H20.9296H20.9301H20.9307H20.9312H20.9317H20.9323H20.9328H20.9333H20.9339H20.9344H20.9349H20.9355H20.936H20.9365H20.9371H20.9376H20.9381H20.9387H20.9392H20.9397H20.9402H20.9408H20.9413H20.9418H20.9424H20.9429H20.9434H20.9439H20.9445H20.945H20.9455H20.946H20.9466H20.9471H20.9476H20.9481H20.9487H20.9492H20.9497H20.9502H20.9507H20.9513H20.9518H20.9523H20.9528H20.9533H20.9539H20.9544H20.9549H20.9554H20.9559H20.9564H20.957H20.9575H20.958H20.9585H20.959H20.9595H20.96H20.9606H20.9611H20.9616H20.9621H20.9626H20.9631H20.9636H20.9641H20.9646H20.9652H20.9657H20.9662H20.9667H20.9672H20.9677H20.9682H20.9687H20.9692H20.9697H20.9702H20.9707H20.9712H20.9717H20.9723H20.9728H20.9733H20.9738H20.9743H20.9748H20.9753H20.9758H20.9763H20.9768H20.9773H20.9778H20.9783H20.9788H20.9793H20.9798H20.9803H20.9808H20.9813H20.9818H20.9823H20.9828H20.9833H20.9838H20.9843H20.9848H20.9853H20.9857H20.9862H20.9867H20.9872H20.9877H20.9882H20.9887H20.9892H20.9897H20.9902H20.9907H20.9912H20.9917H20.9922H20.9927H20.9931H20.9936H20.9941H20.9946H20.9951H20.9956H20.9961H20.9966H20.9971H20.9976H20.998H20.9985H20.999H20.9995H21H21.0005H21.001H21.0015H21.0019H21.0024H21.0029H21.0034H21.0039H21.0044H21.0049H21.0053H21.0058H21.0063H21.0068H21.0073H21.0078H21.0082H21.0087H21.0092H21.0097H21.0102H21.0107H21.0111H21.0116H21.0121H21.0126H21.0131H21.0136H21.014H21.0145H21.015H21.0155H21.016H21.0164H21.0169H21.0174H21.0179H21.0183H21.0188H21.0193H21.0198H21.0203H21.0207H21.0212H21.0217H21.0222H21.0226H21.0231H21.0236H21.0241H21.0246H21.025H21.0255H21.026H21.0265H21.0269H21.0274H21.0279H21.0284H21.0288H21.0293H21.0298H21.0303H21.0307H21.0312H21.0317H21.0322H21.0326H21.0331H21.0336H21.034H21.0345H21.035H21.0355H21.0359H21.0364H21.0369H21.0374H21.0378H21.0383H21.0388H21.0392H21.0397H21.0402H21.0407H21.0411H21.0416H21.0421H21.0425H21.043H21.0435H21.0439H21.0444H21.0449H21.0454H21.0458H21.0463H21.0468H21.0472H21.0477H21.0482H21.0486H21.0491H21.0496H21.0501H21.0505H21.051H21.0515H21.0519H21.0524H21.0529H21.0533H21.0538H21.0543H21.0547H21.0552H21.0557H21.0561H21.0566H21.0571H21.0575H21.058H21.0585H21.0589H21.0594H21.0599H21.0603H21.0608H21.0613H21.0617H21.0622H21.0627H21.0631H21.0636H21.0641H21.0645H21.065H21.0655H21.0659H21.0664H21.0669H21.0673H21.0678H21.0683H21.0687H21.0692H21.0697H21.0701H21.0706H21.0711H21.0715H21.072H21.0725H21.0729H21.0734H21.0739H21.0743H21.0748H21.0753H21.0757H21.0762H21.0767H21.0771H21.0776H21.0781H21.0876H21.0971H21.1066H21.1162H21.1257H21.1352H21.1447H21.1543H21.1638H21.1733H21.1828H21.1924H21.2019H21.2114H21.2209H21.2305H21.24H21.2495H21.259H21.2686H21.2781H21.2876H21.2971H21.3067H21.3162H21.3257H21.3352H21.3447H21.3543H21.3638H21.3733H21.3828H21.3924H21.4019H21.4114H21.4209H21.4305H21.44H21.4495H21.459H21.4686H21.4781H21.4876H21.4971H21.5067H21.5162H21.5257H21.5352H21.5448H21.5543H21.5638H21.5733H21.5829H21.5924H21.6019H21.6114H21.621H21.6305H21.64H21.6495H21.6591H21.6686H21.6781H21.6876H21.6972H21.7067H21.7162H21.7257H21.7353H21.7448H21.7543H21.7638H21.7734H21.7829H21.7924H21.8019H21.8115H21.821H21.8305H21.84H21.8495H21.8591H21.8686H21.8781H21.8876H21.8972H21.9067H21.9162H21.9257H21.9353H21.9448H21.9543H21.9638H21.9734H21.9829H21.9924H22.0019H22.0115H22.021H22.0305H22.04H22.0496H22.0591H22.0686H22.0781H22.0877H22.0972H22.1067H22.1162H22.1258H22.1353H22.1448H22.1543H22.1639H22.1734H22.1829H22.1924H22.202H22.2115H22.221H22.2305H22.2401H22.2496H22.2591H22.2686H22.2782H22.2877H22.2972H22.3067H22.3163H22.3258H22.3353H22.3448H22.3544H22.3639H22.3734H22.3829H22.3925H22.402H22.4115H22.421H22.4306H22.4401H22.4496H22.4591H22.4687H22.4782H22.4877H22.4972H22.5068H22.5163H22.5258H22.5353H22.5449H22.5544H22.5639H22.5734H22.583H22.5925H22.602H22.6115H22.6211H22.6306H22.6401H22.6496H22.6592H22.6687H22.6782H22.6878H22.6973H22.7068H22.7163H22.7259H22.7354H22.7449H22.7544H22.764H22.7735H22.783H22.7925H22.8021H22.8116H22.8211H22.8306H22.8402H22.8497H22.8592H22.8687H22.8783H22.8878H22.8973H22.9068H22.9164H22.9259H22.9354H22.9449H22.9545H22.964H22.9735H22.983H22.9926H23.0021H23.0116H23.0211H23.0307H23.0402H23.0497H23.0592H23.0688H23.0783H23.0878H23.0973H23.1069H23.1164H23.1259H23.1354H23.145H23.1545H23.164H23.1735H23.1831H23.1926H23.2021H23.2116H23.2212H23.2307H23.2402H23.2497H23.2593H23.2688H23.2783H23.2878H23.2974H23.3069H23.3164H23.3259H23.3355H23.345H23.3545H23.364H23.3736H23.3831H23.3926H23.4021H23.4117H23.4212H23.4307H23.4402H23.4498H23.4593H23.4688H23.4784H23.4879H23.4974H23.5069H23.5165H23.526H23.5355H23.545H23.5546H23.5641H23.5736H23.5831H23.5927H23.6022H23.6117H23.6212H23.6308H23.6403H23.6498H23.6593H23.6689H23.6784H23.6879H23.6974H23.707H23.7165H23.726H23.7355H23.7451H23.7546H23.7641H23.7736H23.7832H23.7927H23.8022H23.8117H23.8213H23.8308H23.8403H23.8498H23.8594H23.8689H23.8784H23.8879H23.8975H23.907H23.9165H23.926H23.9356H23.9451H23.9546H23.9641H23.9737H23.9832H23.9927H24.0022H24.0118H24.0213H24.0308H24.0403H24.0499H24.0594H24.0689H24.0784H24.088H24.0975H24.107H24.1165H24.1261H24.1356H24.1451H24.1546H24.1642H24.1737H24.1832H24.1927H24.2023H24.2118H24.2213H24.2309H24.2404H24.2499H24.2594H24.269H24.2785H24.288H24.2975H24.3071H24.3166H24.3261H24.3356H24.3452H24.3547H24.3642H24.3737H24.3833H24.3928H24.4023H24.4118H24.4214H24.4309H24.4404H24.4499H24.4595H24.469H24.4785H24.488H24.4976H24.5071H24.5166H24.5261H24.5357H24.5452H24.5547H24.5642H24.5738H24.5833H24.5928H24.6023H24.6119H24.6214H24.6309H24.6404H24.65H24.6595H24.669H24.6785H24.6881H24.6976H24.7071H24.7166H24.7262H24.7357H24.7452H24.7547H24.7643H24.7738H24.7833H24.7928H24.8024H24.8119H24.8214H24.8309H24.8405H24.85H24.8595H24.869H24.8786H24.8881H24.8976H24.9071H24.9167H24.9262H24.9357H24.9452H24.9548H24.9643H24.9738H24.9833H24.9929H25.0024H25.0119H25.0214H25.031H25.0405H25.05H25.0595H25.0691H25.0786H25.0881H25.0976H25.1072H25.1167H25.1262H25.1357H25.1453H25.1548H25.1643H25.1738H25.1834H25.1929H25.2024H25.2119H25.2215H25.231H25.2405H25.25H25.2596H25.2691H25.2786H25.2881H25.2977H25.3072H25.3167H25.3262H25.3357H25.3453H25.3548H25.3643H25.3738H25.3834H25.3929H25.4024H25.4119H25.4215H25.431H25.4405H25.45H25.4596H25.4691H25.4786H25.4881H25.4977H25.5072H25.5167H25.5262H25.5358H25.5453H25.5548H25.5643H25.5739H25.5834H25.5929H25.6024H25.612H25.6215H25.631H25.6405H25.6501H25.6596H25.6691H25.6786H25.6882H25.6977H25.7072H25.7167H25.7263H25.7358H25.7453H25.7548H25.7643H25.7739H25.7834H25.7929H25.8024H25.812H25.8215H25.831H25.8405H25.8501H25.8596H25.8691H25.8786H25.8882H25.8977H25.9072H25.9167H25.9263H25.9358H25.9453L25.9548 38.3153L25.9563 38.3153C26.1994 38.3149 26.5662 38.2556 26.8681 37.9618C27.1754 37.6628 27.2427 37.2901 27.2427 37.0352V37.0119V36.9886V36.9652V36.9419V36.9186V36.8952V36.8719V36.8486V36.8252V36.8019V36.7786V36.7552V36.7319V36.7086V36.6852V36.6619V36.6386V36.6152V36.5919V36.5686V36.5452V36.5219V36.4986V36.4752V36.4519V36.4286V36.4052V36.3819V36.3586V36.3352V36.3119V36.2886V36.2652V36.2419V36.2186V36.1952V36.1719V36.1486V36.1252V36.1019V36.0786V36.0552V36.0319V36.0086V35.9852V35.9619V35.9386V35.9152V35.8919V35.8686V35.8452V35.8219V35.7986V35.7752V35.7519V35.7286V35.7052V35.6819V35.6586V35.6353V35.6119V35.5886V35.5653V35.5419V35.5186V35.4953V35.4719V35.4486V35.4253V35.4019V35.3786V35.3553V35.3319V35.3086V35.2853V35.2619V35.2386V35.2153V35.1919V35.1686V35.1453V35.1219V35.0986V35.0753V35.0519V35.0286V35.0053V34.9819V34.9586V34.9353V34.9119V34.8886V34.8653V34.8419V34.8186V34.7953V34.7719V34.7486V34.7253V34.702V34.6786V34.6553V34.632V34.6086V34.5853V34.562V34.5386V34.5153V34.492V34.4686V34.4453V34.422V34.3986V34.3753V34.352V34.3286V34.3053V34.282V34.2586V34.2353V34.212V34.1886V34.1653V34.142V34.1186V34.0953V34.072V34.0486V34.0253V34.002V33.9786V33.9553V33.932V33.9087V33.8853V33.862V33.8387V33.8153V33.792V33.7687V33.7453V33.722V33.6987V33.6753V33.652V33.6287V33.6053V33.582V33.5587V33.5353V33.512V33.4887V33.4653V33.442V33.4187V33.3953V33.372V33.3487V33.3253V33.302V33.2787V33.2554V33.232V33.2087V33.1854V33.162V33.1387V33.1154V33.092V33.0687V33.0454V33.022V32.9987V32.9754V32.952V32.9287V32.9054V32.882V32.8587V32.8354V32.812V32.7887V32.7654V32.742V32.7187V32.6954V32.672V32.6487V32.6254V32.6021V32.5787V32.5554V32.5321V32.5087V32.4854V32.4621V32.4387V32.4154V32.3921V32.3687V32.3454V32.3221V32.2987V32.2754V32.2521V32.2287V32.2054V32.1821V32.1587V32.1354V32.1121V32.0887V32.0654V32.0421V32.0188V31.9954V31.9721V31.9488V31.9254V31.9021V31.8788V31.8554V31.8321V31.8088V31.7854V31.7621V31.7388V31.7154V31.6921V31.6688V31.6454V31.6221V31.5988V31.5754V31.5521V31.5288V31.5055V31.4821V31.4588V31.4355V31.4121V31.3888V31.3655V31.3421V31.3188V31.2955V31.2721V31.2488V31.2255V31.2021V31.1788V31.1555V31.1321V31.1088V31.0855V31.0621V31.0388V31.0155V30.9921V30.9688V30.9455V30.9222V30.8988V30.8755V30.8522V30.8288V30.8055V30.7822V30.7588V30.7355V30.7122V30.6888V30.6655V30.6422V30.6188V30.5955V30.5722V30.5488V30.5255V30.5022V30.4788V30.4555V30.4322V30.4088V30.3855V30.3622V30.3389V30.3155V30.2922V30.2689V30.2455V30.2222V30.1989V30.1755V30.1522V30.1289V30.1055V30.0822V30.0589V30.0355V30.0122V29.9889V29.9655V29.9422V29.9189V29.8955V29.8722V29.8489V29.8256V29.8022V29.7789V29.7556V29.7322V29.7089V29.6856V29.6622V29.6389V29.6156V29.5922V29.5689V29.5456V29.5222V29.4989V29.4756V29.4522V29.4289V29.4056V29.3822V29.3589V29.3356V29.3122V29.2889V29.2656V29.2423V29.2189V29.1956V29.1723V29.1489V29.1256V29.1023V29.0789V29.0556V29.0323V29.0089V28.9856V28.9623V28.9389V28.9156V28.8923V28.8689V28.8456V28.8223V28.7989V28.7756V28.7523V28.7289V28.7056V28.6823V28.6589V28.6356V28.6123V28.589V28.5656V28.5423V28.519V28.4956V28.4723V28.449V28.4256V28.4023V28.379V28.3556V28.3323V28.309V28.2856V28.2623V28.239V28.2156V28.1923V28.169V28.1456V28.1223V28.099V28.0756V28.0523V28.029V28.0056V27.9823V27.959V27.9356V27.9123V27.889V27.8657V27.8423V27.819V27.7957V27.7723V27.749V27.7257V27.7023V27.679V27.6557V27.6323V27.609V27.5857V27.5623V27.539V27.5157V27.4923V27.469V27.4457V27.4223V27.399V27.3757V27.3523V27.329V27.3057V27.2823V27.259V27.2357V27.2123V27.189V27.1657V27.1423V27.119V27.0957V27.0724V27.049V27.0257V27.0024V26.979V26.9557V26.9324V26.909V26.8857V26.8624V26.839V26.8157V26.7924V26.769V26.7457V26.7224V26.699V26.6757V26.6524V26.629V26.6057V26.5824V26.559V26.5357V26.5124V26.489V26.4657V26.4424V26.419V26.3957V26.3724V26.349V26.3257V26.3024V26.279V26.2557V26.2324V26.209V26.1857V26.1624V26.139V26.1157V26.0924V26.069V26.0457V26.0224V25.9991V25.9757V25.9524V25.9291V25.9057V25.8824V25.8591V25.8357V25.8124V25.7891V25.7684C27.3185 25.7679 27.3944 25.7674 27.4702 25.767C28.3454 25.7613 29.218 25.7556 30.0913 25.754L30.092 25.754L30.0959 25.754C30.2017 25.7538 30.5521 25.753 30.872 25.5147C31.2336 25.2453 31.3188 24.8644 31.3457 24.6794C31.3786 24.4535 31.4172 24.2715 31.4616 24.0625C31.4943 23.9084 31.5301 23.7396 31.5691 23.5278M19.7179 18.7251L27.4868 15.1023C27.4662 15.1139 27.4563 15.1229 27.452 15.1274C27.4476 15.1319 27.4433 15.1374 27.4385 15.1465C27.4286 15.1653 27.4082 15.217 27.4064 15.3201L27.4064 15.3204C27.388 16.3564 27.3748 17.3916 27.3615 18.4297C27.361 18.4724 27.3604 18.5151 27.3599 18.5578M31.5691 23.5278C31.569 23.5279 31.569 23.528 31.569 23.5281L30.5855 23.3471L31.5691 23.5278ZM31.5691 23.5278C31.5906 23.4106 31.6122 23.2933 31.6339 23.1759C31.8171 22.1815 32.0015 21.1802 32.1743 20.1771M32.1743 20.1771L32.1748 20.1743C32.1881 20.0976 32.2122 19.9586 32.2145 19.82C32.2168 19.6814 32.2044 19.3494 31.953 19.0486C31.7067 18.7538 31.3891 18.6797 31.26 18.6556C31.1229 18.63 30.9806 18.6251 30.8966 18.6222L30.8959 18.6222C29.9664 18.5909 29.037 18.5775 28.1186 18.5642C28.0579 18.5633 27.9973 18.5624 27.9367 18.5615L27.9364 18.5615C27.7453 18.5588 27.5525 18.5579 27.3599 18.5578M32.1743 20.1771L31.1889 20.0073M32.1743 20.1771L32.1742 20.178L31.1889 20.0073M27.3599 18.5578C27.185 18.5577 27.0102 18.5584 26.8368 18.559C26.6762 18.5596 26.5168 18.5601 26.3598 18.5601C26.3604 18.513 26.361 18.4659 26.3616 18.4187C26.3748 17.38 26.3881 16.3413 26.4066 15.3026L26.3569 19.5601M27.3599 18.5578C27.3562 18.8478 27.3524 19.1381 27.3486 19.4287L27.3499 19.4402C27.3503 19.4444 27.3508 19.4491 27.3513 19.4541C27.3518 19.4592 27.3524 19.4647 27.3529 19.4705L26.3569 19.5601M26.3569 19.5601V19.4572V18.7833C26.354 19.0079 26.3511 19.2325 26.3481 19.4571C26.3478 19.4805 26.3506 19.5041 26.3534 19.5276C26.3547 19.5385 26.3559 19.5493 26.3569 19.5601ZM31.1889 20.0073C31.2486 19.6623 31.2293 19.6342 30.8624 19.6216L31.1889 20.0073ZM27.3454 19.4007C27.3453 19.4006 27.3453 19.4006 27.3454 19.4008L27.3454 19.4007ZM24.4042 8.68889C22.7148 9.13062 21.2923 10.0771 20.4858 11.7909L28.6199 8.30286C27.2706 8.27822 25.8355 8.31461 24.4042 8.68889Z" fill="white" stroke="#7A3F3E" stroke-width="2"/>
</svg>
