<svg width="32" height="33" viewBox="0 0 32 33" fill="none" xmlns="http://www.w3.org/2000/svg">
<path fill-rule="evenodd" clip-rule="evenodd" d="M21 11.5H18C17.4477 11.5 17 11.9477 17 12.5C17 13.0523 17.4477 13.5 18 13.5H21C22.65 13.5 24 14.85 24 16.5C24 18.15 22.65 19.5 21 19.5H18C17.4477 19.5 17 19.9477 17 20.5C17 21.0523 17.4477 21.5 18 21.5H21C23.76 21.5 26 19.26 26 16.5C26 13.74 23.76 11.5 21 11.5ZM15 20.5C15 19.9477 14.5523 19.5 14 19.5H11C9.35 19.5 8 18.15 8 16.5C8 14.85 9.35 13.5 11 13.5H14C14.5523 13.5 15 13.0523 15 12.5C15 11.9477 14.5523 11.5 14 11.5H11C8.24 11.5 6 13.74 6 16.5C6 19.26 8.24 21.5 11 21.5H14C14.5523 21.5 15 21.0523 15 20.5ZM12 16.5C12 15.9477 12.4477 15.5 13 15.5H19C19.5523 15.5 20 15.9477 20 16.5C20 17.0523 19.5523 17.5 19 17.5H13C12.4477 17.5 12 17.0523 12 16.5Z" fill="#CA5000"/>
</svg>
