<svg width="41" height="41" viewBox="0 0 41 41" fill="none" xmlns="http://www.w3.org/2000/svg">
<circle cx="20.9072" cy="20.4766" r="19" fill="#7A3F3E" stroke="#7A3F3E" stroke-width="2"/>
<path fill-rule="evenodd" clip-rule="evenodd" d="M26.4881 28.5279C25.9327 28.5279 25.4784 28.0735 25.4784 27.5181C25.4784 26.9628 25.9327 26.5084 26.4881 26.5084C27.0434 26.5084 27.4978 26.9628 27.4978 27.5181C27.4978 28.0735 27.0434 28.5279 26.4881 28.5279ZM14.3714 21.4388C13.816 21.4388 13.3617 20.9844 13.3617 20.4291C13.3617 19.8737 13.816 19.4194 14.3714 19.4194C14.9267 19.4194 15.3811 19.8737 15.3811 20.4291C15.3811 20.9844 14.9267 21.4388 14.3714 21.4388ZM26.4881 12.3515C27.0434 12.3515 27.4978 12.8059 27.4978 13.3612C27.4978 13.9166 27.0434 14.371 26.4881 14.371C25.9327 14.371 25.4784 13.9166 25.4784 13.3612C25.4784 12.8059 25.9327 12.3515 26.4881 12.3515ZM26.4879 24.5491C25.7205 24.5491 25.0338 24.8521 24.5088 25.3266L17.3093 21.1362C17.3598 20.904 17.4002 20.6717 17.4002 20.4294C17.4002 20.1871 17.3598 19.9548 17.3093 19.7226L24.428 15.5726C24.9733 16.0774 25.6902 16.3905 26.4879 16.3905C28.164 16.3905 29.5171 15.0374 29.5171 13.3612C29.5171 11.6851 28.164 10.332 26.4879 10.332C24.8117 10.332 23.4586 11.6851 23.4586 13.3612C23.4586 13.6036 23.499 13.8358 23.5495 14.0681L16.4309 18.2181C15.8856 17.7132 15.1687 17.4002 14.371 17.4002C12.6948 17.4002 11.3418 18.7532 11.3418 20.4294C11.3418 22.1056 12.6948 23.4586 14.371 23.4586C15.1687 23.4586 15.8856 23.1456 16.4309 22.6407L23.6202 26.8412C23.5697 27.0533 23.5394 27.2754 23.5394 27.4976C23.5394 29.1232 24.8622 30.446 26.4879 30.446C28.1135 30.446 29.4363 29.1232 29.4363 27.4976C29.4363 25.8719 28.1135 24.5491 26.4879 24.5491Z" fill="white"/>
</svg>
