<svg width="45" height="45" viewBox="0 0 45 45" fill="none" xmlns="http://www.w3.org/2000/svg">
<mask id="path-1-outside-1_375_10083" maskUnits="userSpaceOnUse" x="0.908203" y="0.476562" width="44" height="44" fill="black">
<rect fill="white" x="0.908203" y="0.476562" width="44" height="44"/>
<path fill-rule="evenodd" clip-rule="evenodd" d="M22.847 2.47667C11.8091 2.51349 2.87972 11.4743 2.90827 22.4875C2.93682 33.573 11.8743 42.4929 22.9354 42.4765C33.9815 42.4602 42.8442 33.5948 42.9068 22.4998C42.9693 11.4593 33.9326 2.43986 22.847 2.47667ZM27.4803 18.0897C26.7202 18.9124 25.9602 19.7351 25.1976 20.5606H25.1963C27.1394 23.1629 29.0667 25.7432 30.9991 28.3304C32.4074 30.216 33.8185 32.1053 35.2404 34.0094C35.1493 34.0201 35.0702 34.0313 34.9988 34.0414C34.8613 34.0608 34.7528 34.0762 34.6436 34.0762C34.2664 34.0769 33.8892 34.0781 33.5119 34.0793C31.8345 34.0844 30.1566 34.0896 28.4795 34.0585C28.1791 34.0516 27.7848 33.8553 27.6026 33.6166C26.0849 31.6246 24.5866 29.6177 23.0884 27.6108C22.6112 26.9716 22.1339 26.3323 21.6561 25.6936C21.5526 25.5546 21.4457 25.4189 21.2996 25.2336C21.2193 25.1317 21.1271 25.0148 21.0171 24.874C20.9621 24.9594 20.9137 25.0413 20.8677 25.119C20.7726 25.2797 20.6879 25.4227 20.578 25.5422C19.7917 26.3963 19.0023 27.2476 18.2128 28.0989C16.634 29.8013 15.0551 31.5038 13.5017 33.2293C12.9388 33.8539 12.3814 34.2248 11.5317 34.0844C11.362 34.056 11.1871 34.0616 10.957 34.0691C10.8332 34.073 10.6934 34.0776 10.5298 34.0776L10.921 33.654C14.0484 30.269 17.0719 26.9965 20.1429 23.6712C17.9695 20.7609 15.8031 17.859 13.618 14.9321C12.6281 13.6061 11.6344 12.275 10.6344 10.9357C10.7352 10.9254 10.8211 10.9145 10.8977 10.9049C11.034 10.8877 11.1405 10.8743 11.2476 10.8743C11.6248 10.8735 12.0022 10.8724 12.3795 10.8712C14.0568 10.866 15.7347 10.8609 17.4117 10.892C17.7108 10.8975 18.1023 11.102 18.2858 11.342C19.6288 13.1005 20.9514 14.8742 22.2738 16.6478C22.7225 17.2495 23.1712 17.8512 23.6206 18.4523C23.7425 18.6168 23.8679 18.7789 24.0038 18.9547C24.0741 19.0456 24.1473 19.1401 24.2242 19.2406C24.3071 19.1532 24.3854 19.0713 24.4605 18.9926C24.6023 18.8441 24.733 18.7073 24.8618 18.5683C25.4287 17.956 25.9975 17.3455 26.5661 16.7352C28.1101 15.0781 29.6535 13.4216 31.1578 11.7293C31.7424 11.072 32.3351 10.7461 33.1916 10.8675C33.3482 10.8895 33.5087 10.8853 33.7273 10.8796C33.8466 10.8765 33.9833 10.8729 34.146 10.8729C31.8798 13.3275 29.6797 15.709 27.4803 18.0897ZM14.7033 12.453C14.4221 12.4554 14.1357 12.4578 13.8422 12.4578L13.8408 12.4592C13.884 12.536 13.9182 12.6005 13.9477 12.6563C14 12.7551 14.0378 12.8265 14.0855 12.8901C18.8751 19.3035 23.6647 25.717 28.4638 32.1236C28.5848 32.2859 28.8037 32.4727 28.9832 32.4795C29.708 32.5047 30.4335 32.5016 31.229 32.4983C31.5123 32.4971 31.8045 32.4959 32.1087 32.4959C31.4235 31.5754 30.8362 30.7872 30.2489 30.0004C29.9353 29.5804 29.6218 29.1605 29.3082 28.7405C25.387 23.4889 21.4662 18.2378 17.536 12.9937C17.3729 12.7755 17.1159 12.496 16.8889 12.4823C16.1748 12.4406 15.4579 12.4467 14.7033 12.453Z"/>
</mask>
<path fill-rule="evenodd" clip-rule="evenodd" d="M22.847 2.47667C11.8091 2.51349 2.87972 11.4743 2.90827 22.4875C2.93682 33.573 11.8743 42.4929 22.9354 42.4765C33.9815 42.4602 42.8442 33.5948 42.9068 22.4998C42.9693 11.4593 33.9326 2.43986 22.847 2.47667ZM27.4803 18.0897C26.7202 18.9124 25.9602 19.7351 25.1976 20.5606H25.1963C27.1394 23.1629 29.0667 25.7432 30.9991 28.3304C32.4074 30.216 33.8185 32.1053 35.2404 34.0094C35.1493 34.0201 35.0702 34.0313 34.9988 34.0414C34.8613 34.0608 34.7528 34.0762 34.6436 34.0762C34.2664 34.0769 33.8892 34.0781 33.5119 34.0793C31.8345 34.0844 30.1566 34.0896 28.4795 34.0585C28.1791 34.0516 27.7848 33.8553 27.6026 33.6166C26.0849 31.6246 24.5866 29.6177 23.0884 27.6108C22.6112 26.9716 22.1339 26.3323 21.6561 25.6936C21.5526 25.5546 21.4457 25.4189 21.2996 25.2336C21.2193 25.1317 21.1271 25.0148 21.0171 24.874C20.9621 24.9594 20.9137 25.0413 20.8677 25.119C20.7726 25.2797 20.6879 25.4227 20.578 25.5422C19.7917 26.3963 19.0023 27.2476 18.2128 28.0989C16.634 29.8013 15.0551 31.5038 13.5017 33.2293C12.9388 33.8539 12.3814 34.2248 11.5317 34.0844C11.362 34.056 11.1871 34.0616 10.957 34.0691C10.8332 34.073 10.6934 34.0776 10.5298 34.0776L10.921 33.654C14.0484 30.269 17.0719 26.9965 20.1429 23.6712C17.9695 20.7609 15.8031 17.859 13.618 14.9321C12.6281 13.6061 11.6344 12.275 10.6344 10.9357C10.7352 10.9254 10.8211 10.9145 10.8977 10.9049C11.034 10.8877 11.1405 10.8743 11.2476 10.8743C11.6248 10.8735 12.0022 10.8724 12.3795 10.8712C14.0568 10.866 15.7347 10.8609 17.4117 10.892C17.7108 10.8975 18.1023 11.102 18.2858 11.342C19.6288 13.1005 20.9514 14.8742 22.2738 16.6478C22.7225 17.2495 23.1712 17.8512 23.6206 18.4523C23.7425 18.6168 23.8679 18.7789 24.0038 18.9547C24.0741 19.0456 24.1473 19.1401 24.2242 19.2406C24.3071 19.1532 24.3854 19.0713 24.4605 18.9926C24.6023 18.8441 24.733 18.7073 24.8618 18.5683C25.4287 17.956 25.9975 17.3455 26.5661 16.7352C28.1101 15.0781 29.6535 13.4216 31.1578 11.7293C31.7424 11.072 32.3351 10.7461 33.1916 10.8675C33.3482 10.8895 33.5087 10.8853 33.7273 10.8796C33.8466 10.8765 33.9833 10.8729 34.146 10.8729C31.8798 13.3275 29.6797 15.709 27.4803 18.0897ZM14.7033 12.453C14.4221 12.4554 14.1357 12.4578 13.8422 12.4578L13.8408 12.4592C13.884 12.536 13.9182 12.6005 13.9477 12.6563C14 12.7551 14.0378 12.8265 14.0855 12.8901C18.8751 19.3035 23.6647 25.717 28.4638 32.1236C28.5848 32.2859 28.8037 32.4727 28.9832 32.4795C29.708 32.5047 30.4335 32.5016 31.229 32.4983C31.5123 32.4971 31.8045 32.4959 32.1087 32.4959C31.4235 31.5754 30.8362 30.7872 30.2489 30.0004C29.9353 29.5804 29.6218 29.1605 29.3082 28.7405C25.387 23.4889 21.4662 18.2378 17.536 12.9937C17.3729 12.7755 17.1159 12.496 16.8889 12.4823C16.1748 12.4406 15.4579 12.4467 14.7033 12.453Z" fill="black"/>
<path d="M2.90827 22.4875L4.90826 22.4824L4.90826 22.4823L2.90827 22.4875ZM22.847 2.47667L22.8404 0.476686L22.8404 0.476686L22.847 2.47667ZM22.9354 42.4765L22.9384 44.4765H22.9384L22.9354 42.4765ZM42.9068 22.4998L40.9068 22.4885V22.4885L42.9068 22.4998ZM25.1976 20.5606V22.5606C25.7556 22.5606 26.2882 22.3276 26.6667 21.9177L25.1976 20.5606ZM27.4803 18.0897L26.0113 16.7325L26.0113 16.7325L27.4803 18.0897ZM25.1963 20.5606V18.5606C24.4395 18.5606 23.7475 18.9878 23.4084 19.6643C23.0692 20.3408 23.141 21.1509 23.5938 21.7573L25.1963 20.5606ZM30.9991 28.3304L32.6014 27.1336H32.6014L30.9991 28.3304ZM35.2404 34.0094L35.4742 35.9957C36.1841 35.9121 36.7954 35.4561 37.0778 34.7994C37.3601 34.1428 37.2706 33.3853 36.8429 32.8126L35.2404 34.0094ZM34.9988 34.0414L35.2789 36.0217H35.2789L34.9988 34.0414ZM34.6436 34.0762V32.0762L34.6396 32.0762L34.6436 34.0762ZM33.5119 34.0793L33.5181 36.0793L33.5181 36.0793L33.5119 34.0793ZM28.4795 34.0585L28.4341 36.058L28.4424 36.0581L28.4795 34.0585ZM27.6026 33.6166L26.0118 34.8287L26.0129 34.8302L27.6026 33.6166ZM23.0884 27.6108L21.4857 28.8073L23.0884 27.6108ZM21.6561 25.6936L20.0519 26.888L20.0546 26.8916L21.6561 25.6936ZM21.2996 25.2336L22.8703 23.9955L22.8703 23.9955L21.2996 25.2336ZM21.0171 24.874L22.5933 23.6428C22.1945 23.1323 21.5732 22.8466 20.9261 22.8761C20.279 22.9055 19.6862 23.2466 19.3355 23.7913L21.0171 24.874ZM20.8677 25.119L22.5889 26.1376L22.5889 26.1376L20.8677 25.119ZM20.578 25.5422L22.0495 26.8967L22.0496 26.8965L20.578 25.5422ZM18.2128 28.0989L19.6793 29.4588L18.2128 28.0989ZM13.5017 33.2293L14.9874 34.5682L14.988 34.5675L13.5017 33.2293ZM11.5317 34.0844L11.202 36.057L11.2055 36.0576L11.5317 34.0844ZM10.957 34.0691L10.8926 32.0701H10.8926L10.957 34.0691ZM10.5298 34.0776L9.06074 32.7203C8.52156 33.3039 8.37897 34.1514 8.69749 34.8793C9.016 35.6072 9.7352 36.0776 10.5298 36.0776V34.0776ZM10.921 33.654L9.45203 32.2968L10.921 33.654ZM20.1429 23.6712L21.6122 25.0281C22.266 24.3202 22.322 23.2466 21.7454 22.4745L20.1429 23.6712ZM13.618 14.9321L15.2207 13.7357V13.7357L13.618 14.9321ZM10.6344 10.9357L10.431 8.94604C9.71454 9.0193 9.0928 9.4721 8.80323 10.1315C8.51366 10.7909 8.60097 11.5551 9.03182 12.1322L10.6344 10.9357ZM10.8977 10.9049L10.6477 8.92058L10.6477 8.92058L10.8977 10.9049ZM11.2476 10.8743V12.8743L11.2516 12.8743L11.2476 10.8743ZM12.3795 10.8712L12.3733 8.87123H12.3733L12.3795 10.8712ZM17.4117 10.892L17.3745 12.8917L17.3752 12.8917L17.4117 10.892ZM18.2858 11.342L19.8753 10.1281L19.8745 10.1272L18.2858 11.342ZM22.2738 16.6478L20.6705 17.8433L20.6705 17.8433L22.2738 16.6478ZM23.6206 18.4523L25.2276 17.2617L25.2224 17.2547L23.6206 18.4523ZM24.0038 18.9547L22.4219 20.1784L22.4219 20.1784L24.0038 18.9547ZM24.2242 19.2406L22.6366 20.4569C22.9927 20.9216 23.5345 21.207 24.1191 21.2378C24.7037 21.2686 25.2725 21.0416 25.6753 20.6169L24.2242 19.2406ZM24.4605 18.9926L23.0142 17.6112L23.0142 17.6112L24.4605 18.9926ZM24.8618 18.5683L26.3288 19.9276L26.3294 19.927L24.8618 18.5683ZM26.5661 16.7352L28.0294 18.0986L28.0294 18.0986L26.5661 16.7352ZM31.1578 11.7293L29.6633 10.4002L29.663 10.4006L31.1578 11.7293ZM33.1916 10.8675L32.911 12.8477L32.9126 12.8479L33.1916 10.8675ZM33.7273 10.8796L33.675 8.88031L33.675 8.88031L33.7273 10.8796ZM34.146 10.8729L35.6155 12.2296C36.1544 11.6459 36.2967 10.7986 35.9781 10.0709C35.6596 9.34313 34.9404 8.87294 34.146 8.87294V10.8729ZM13.8422 12.4578V10.4578C13.3108 10.4578 12.8012 10.6693 12.426 11.0456L13.8422 12.4578ZM14.7033 12.453L14.7202 14.4529H14.7202L14.7033 12.453ZM13.8408 12.4592L12.4246 11.0469C11.7921 11.6812 11.6585 12.6587 12.0976 13.4395L13.8408 12.4592ZM13.9477 12.6563L15.7154 11.7208L15.7154 11.7208L13.9477 12.6563ZM14.0855 12.8901L15.688 11.6934L15.6847 11.6889L14.0855 12.8901ZM28.4638 32.1236L30.0672 30.9281L30.0645 30.9246L28.4638 32.1236ZM28.9832 32.4795L28.9072 34.4781L28.9139 34.4783L28.9832 32.4795ZM31.229 32.4983L31.2373 34.4983H31.2373L31.229 32.4983ZM32.1087 32.4959V34.4959C32.865 34.4959 33.5565 34.0694 33.896 33.3936C34.2354 32.7178 34.1646 31.9083 33.713 31.3017L32.1087 32.4959ZM30.2489 30.0004L31.8517 28.804L31.8514 28.8038L30.2489 30.0004ZM29.3082 28.7405L27.7056 29.9371L27.7056 29.9371L29.3082 28.7405ZM17.536 12.9937L15.9342 14.1914L15.9356 14.1932L17.536 12.9937ZM16.8889 12.4823L17.0088 10.4859L17.0055 10.4857L16.8889 12.4823ZM4.90826 22.4823C4.88259 12.5775 12.9153 4.50982 22.8537 4.47666L22.8404 0.476686C10.7028 0.517174 0.876855 10.3711 0.908278 22.4927L4.90826 22.4823ZM22.9324 40.4765C12.9791 40.4913 4.93398 32.4681 4.90826 22.4824L0.908278 22.4927C0.93966 34.6778 10.7696 44.4945 22.9384 44.4765L22.9324 40.4765ZM40.9068 22.4885C40.8504 32.4929 32.8712 40.4618 22.9324 40.4765L22.9384 44.4765C35.0918 44.4585 44.8381 34.6967 44.9067 22.5111L40.9068 22.4885ZM22.8537 4.47666C32.8356 4.44351 40.963 12.5675 40.9068 22.4885L44.9067 22.5111C44.9756 10.3511 35.0296 0.436201 22.8404 0.476686L22.8537 4.47666ZM26.6667 21.9177C27.4293 21.0922 28.1893 20.2696 28.9494 19.4468L26.0113 16.7325C25.2512 17.5553 24.4912 18.3779 23.7285 19.2035L26.6667 21.9177ZM25.1963 22.5606H25.1976V18.5606H25.1963V22.5606ZM32.6014 27.1336C30.6691 24.5464 28.7419 21.9661 26.7988 19.364L23.5938 21.7573C25.537 24.3596 27.4643 26.94 29.3967 29.5272L32.6014 27.1336ZM36.8429 32.8126C35.4209 30.9085 34.0098 29.0192 32.6014 27.1336L29.3967 29.5272C30.805 31.4129 32.2161 33.3021 33.638 35.2061L36.8429 32.8126ZM35.2789 36.0217C35.3511 36.0115 35.4091 36.0033 35.4742 35.9957L35.0067 32.0231C34.8896 32.0369 34.7892 32.0511 34.7186 32.0611L35.2789 36.0217ZM34.6436 36.0762C34.92 36.0762 35.1742 36.0365 35.2789 36.0217L34.7186 32.0611C34.6827 32.0662 34.6579 32.0697 34.6355 32.0727C34.6141 32.0755 34.6021 32.077 34.5955 32.0777C34.5829 32.079 34.6042 32.0762 34.6436 32.0762V36.0762ZM33.5181 36.0793C33.8955 36.0781 34.2717 36.0769 34.6476 36.0762L34.6396 32.0762C34.2611 32.0769 33.8828 32.0781 33.5057 32.0793L33.5181 36.0793ZM28.4424 36.0581C30.1447 36.0898 31.8443 36.0844 33.5181 36.0793L33.5057 32.0793C31.8247 32.0845 30.1684 32.0895 28.5167 32.0588L28.4424 36.0581ZM26.0129 34.8302C26.3395 35.2581 26.7564 35.5397 27.0993 35.7118C27.4438 35.8848 27.9103 36.0461 28.4341 36.0579L28.5249 32.059C28.6502 32.0618 28.7381 32.0822 28.7833 32.0949C28.8318 32.1086 28.8674 32.1237 28.8941 32.1371C28.9207 32.1505 28.9558 32.1708 28.9985 32.2038C29.0382 32.2346 29.1116 32.2973 29.1924 32.4031L26.0129 34.8302ZM21.4857 28.8073C22.983 30.8129 24.4871 32.8277 26.0118 34.8287L29.1935 32.4045C27.6826 30.4216 26.1903 28.4226 24.691 26.4144L21.4857 28.8073ZM20.0546 26.8916C20.5318 27.5294 21.0084 28.1679 21.4857 28.8073L24.691 26.4144C24.2139 25.7753 23.7361 25.1352 23.2575 24.4955L20.0546 26.8916ZM19.7289 26.4718C19.8793 26.6625 19.968 26.7753 20.0519 26.888L23.2603 24.4992C23.1371 24.3338 23.0121 24.1754 22.8703 23.9955L19.7289 26.4718ZM19.4409 26.1051C19.5539 26.2498 19.6486 26.3698 19.729 26.4718L22.8703 23.9955C22.79 23.8936 22.7002 23.7798 22.5933 23.6428L19.4409 26.1051ZM22.5889 26.1376C22.6369 26.0564 22.6671 26.0058 22.6987 25.9567L19.3355 23.7913C19.2572 23.9129 19.1905 24.0261 19.1464 24.1005L22.5889 26.1376ZM22.0496 26.8965C22.328 26.5941 22.5172 26.2586 22.5889 26.1376L19.1465 24.1005C19.1215 24.1426 19.1045 24.1712 19.0888 24.1971C19.0737 24.2219 19.0649 24.2357 19.06 24.2431C19.0498 24.2586 19.0662 24.2315 19.1063 24.1879L22.0496 26.8965ZM19.6793 29.4588C20.4683 28.608 21.2603 27.754 22.0495 26.8967L19.1065 24.1876C18.3232 25.0386 17.5362 25.8872 16.7464 26.7389L19.6793 29.4588ZM14.988 34.5675C16.53 32.8548 18.0988 31.1631 19.6793 29.4588L16.7464 26.7389C15.1692 28.4396 13.5803 30.1529 12.0153 31.8912L14.988 34.5675ZM11.2055 36.0576C12.0175 36.1918 12.7905 36.086 13.4971 35.7432C14.1509 35.4261 14.6349 34.9593 14.9874 34.5682L12.0159 31.8904C11.9166 32.0007 11.8457 32.0679 11.7965 32.1089C11.7492 32.1483 11.7352 32.1521 11.7514 32.1443C11.772 32.1343 11.8071 32.1219 11.8469 32.1164C11.8848 32.1112 11.8932 32.117 11.8579 32.1111L11.2055 36.0576ZM11.0215 36.068C11.0812 36.0661 11.1247 36.0647 11.1639 36.0638C11.2021 36.063 11.2258 36.0629 11.2412 36.0631C11.2712 36.0635 11.2493 36.0649 11.202 36.057L11.8615 32.1117C11.458 32.0443 11.0716 32.0643 10.8926 32.0701L11.0215 36.068ZM10.5298 36.0776C10.7292 36.0776 10.8982 36.072 11.0215 36.068L10.8926 32.0701C10.7682 32.0741 10.6576 32.0776 10.5298 32.0776V36.0776ZM9.45203 32.2968L9.06074 32.7203L11.9988 35.4348L12.3901 35.0112L9.45203 32.2968ZM18.6737 22.3143C15.6028 25.6394 12.5794 28.9118 9.45203 32.2968L12.3901 35.0112C15.5174 31.6262 18.541 28.3536 21.6122 25.0281L18.6737 22.3143ZM12.0154 16.1286C14.2004 19.0554 16.3669 21.9575 18.5405 24.8679L21.7454 22.4745C19.572 19.5643 17.4057 16.6626 15.2207 13.7357L12.0154 16.1286ZM9.03182 12.1322C10.0317 13.4715 11.0255 14.8026 12.0154 16.1286L15.2207 13.7357C14.2308 12.4097 13.237 11.0785 12.2371 9.73916L9.03182 12.1322ZM10.6477 8.92058C10.5707 8.93028 10.5058 8.93839 10.431 8.94604L10.8379 12.9253C10.9645 12.9123 11.0715 12.8988 11.1477 12.8892L10.6477 8.92058ZM11.2476 8.8743C10.9914 8.8743 10.7545 8.90712 10.6477 8.92058L11.1477 12.8892C11.1832 12.8847 11.2085 12.8816 11.2314 12.8788C11.2536 12.8762 11.2671 12.8747 11.2756 12.8739C11.292 12.8723 11.2778 12.8743 11.2476 12.8743V8.8743ZM12.3733 8.87123C11.9958 8.87239 11.6196 8.87356 11.2436 8.8743L11.2516 12.8743C11.6301 12.8735 12.0085 12.8724 12.3857 12.8712L12.3733 8.87123ZM17.4488 8.89237C15.7466 8.86073 14.047 8.86606 12.3733 8.87123L12.3857 12.8712C14.0666 12.866 15.7228 12.861 17.3745 12.8917L17.4488 8.89237ZM19.8745 10.1272C19.5577 9.71281 19.1544 9.43028 18.8108 9.25258C18.4703 9.07649 17.993 8.9023 17.4481 8.89236L17.3752 12.8917C17.2378 12.8892 17.1408 12.866 17.0911 12.8516C17.0378 12.8361 16.9999 12.8193 16.9733 12.8056C16.9467 12.7918 16.9139 12.7721 16.875 12.7414C16.8389 12.7128 16.7719 12.6548 16.6971 12.5569L19.8745 10.1272ZM23.8772 15.4523C22.5559 13.6803 21.2265 11.8973 19.8753 10.1281L16.6964 12.556C18.0312 14.3038 19.3469 16.0682 20.6705 17.8433L23.8772 15.4523ZM25.2224 17.2547C24.7738 16.6548 24.326 16.0542 23.8772 15.4523L20.6705 17.8433C21.119 18.4449 21.5685 19.0477 22.0188 19.65L25.2224 17.2547ZM25.5857 17.7309C25.4474 17.5521 25.3349 17.4066 25.2276 17.2617L22.0136 19.643C22.15 19.827 22.2883 20.0058 22.4219 20.1784L25.5857 17.7309ZM25.8118 18.0242C25.7316 17.9195 25.6557 17.8214 25.5857 17.7309L22.4219 20.1784C22.4926 20.2698 22.5629 20.3608 22.6366 20.4569L25.8118 18.0242ZM23.0142 17.6112C22.9394 17.6895 22.8587 17.774 22.7731 17.8642L25.6753 20.6169C25.7554 20.5325 25.8313 20.453 25.9067 20.374L23.0142 17.6112ZM23.3948 17.2089C23.278 17.3349 23.1581 17.4606 23.0142 17.6112L25.9067 20.374C26.0466 20.2276 26.1879 20.0798 26.3288 19.9276L23.3948 17.2089ZM25.1029 15.3718C24.5345 15.9818 23.9636 16.5945 23.3942 17.2095L26.3294 19.927C26.8938 19.3174 27.4604 18.7093 28.0294 18.0986L25.1029 15.3718ZM29.663 10.4006C28.1769 12.0724 26.6495 13.7119 25.1029 15.3718L28.0294 18.0986C29.5707 16.4444 31.1302 14.7707 32.6526 13.0581L29.663 10.4006ZM33.4722 8.88726C32.7086 8.77906 31.9582 8.86323 31.2487 9.18408C30.5725 9.48983 30.0604 9.95378 29.6633 10.4002L32.6522 13.0585C32.8398 12.8476 32.9163 12.8199 32.8968 12.8287C32.8833 12.8349 32.8643 12.8403 32.8493 12.8422C32.8367 12.8439 32.8532 12.8395 32.911 12.8477L33.4722 8.88726ZM33.675 8.88031C33.6185 8.88179 33.5763 8.88288 33.5381 8.88355C33.5008 8.88421 33.4762 8.88429 33.459 8.8841C33.4256 8.88372 33.4372 8.88233 33.4706 8.88704L32.9126 12.8479C33.2664 12.8978 33.6051 12.8835 33.7795 12.8789L33.675 8.88031ZM34.146 8.87294C33.9544 8.87294 33.7944 8.87719 33.675 8.88031L33.7795 12.8789C33.8989 12.8758 34.0121 12.8729 34.146 12.8729V8.87294ZM28.9494 19.4468C31.1487 17.0662 33.349 14.6845 35.6155 12.2296L32.6765 9.51623C30.4106 11.9705 28.2107 14.3518 26.0113 16.7325L28.9494 19.4468ZM13.8422 14.4578C14.1454 14.4578 14.4402 14.4553 14.7202 14.4529L14.6865 10.4531C14.404 10.4555 14.1259 10.4578 13.8422 10.4578V14.4578ZM15.257 13.8714L15.2584 13.87L12.426 11.0456L12.4246 11.0469L15.257 13.8714ZM15.7154 11.7208C15.6857 11.6647 15.641 11.5801 15.5841 11.4788L12.0976 13.4395C12.127 13.4919 12.1506 13.5363 12.18 13.5918L15.7154 11.7208ZM15.6847 11.6889C15.7251 11.7428 15.7484 11.7829 15.7518 11.7888C15.7532 11.7914 15.7516 11.7886 15.7448 11.7761C15.7416 11.7701 15.7377 11.7627 15.7327 11.7533C15.7276 11.7437 15.7221 11.7335 15.7154 11.7208L12.18 13.5918C12.2124 13.653 12.3251 13.8765 12.4864 14.0912L15.6847 11.6889ZM30.0645 30.9246C25.2665 24.5193 20.4777 18.107 15.688 11.6934L12.4831 14.0868C17.2725 20.5001 22.063 26.9147 26.8631 33.3227L30.0645 30.9246ZM29.0591 30.481C29.3357 30.4915 29.5404 30.5654 29.6503 30.6139C29.7657 30.6648 29.8441 30.7175 29.8863 30.7485C29.9633 30.8051 30.0171 30.8609 30.0672 30.9281L26.8605 33.3191C27.0316 33.5487 27.2554 33.779 27.5169 33.9712C27.7306 34.1284 28.2252 34.4522 28.9072 34.4781L29.0591 30.481ZM31.2206 30.4983C30.4177 30.5017 29.7317 30.5043 29.0525 30.4807L28.9139 34.4783C29.6842 34.5051 30.4493 34.5016 31.2373 34.4983L31.2206 30.4983ZM32.1087 30.4959C31.7997 30.4959 31.5034 30.4972 31.2206 30.4983L31.2373 34.4983C31.5212 34.4971 31.8093 34.4959 32.1087 34.4959V30.4959ZM28.6461 31.1967C29.2328 31.9826 29.8195 32.7701 30.5044 33.6901L33.713 31.3017C33.0275 30.3808 32.4397 29.5918 31.8517 28.804L28.6461 31.1967ZM27.7056 29.9371C28.0192 30.357 28.3328 30.777 28.6464 31.197L31.8514 28.8038C31.5379 28.3838 31.2243 27.9639 30.9108 27.5439L27.7056 29.9371ZM15.9356 14.1932C19.8645 19.4356 23.7842 24.6852 27.7056 29.9371L30.9108 27.5439C26.9897 22.2925 23.0678 17.04 19.1364 11.7943L15.9356 14.1932ZM16.769 14.4787C16.448 14.4595 16.221 14.3555 16.1146 14.2983C16.0028 14.2381 15.9377 14.1825 15.9195 14.1666C15.887 14.1382 15.8972 14.1419 15.9342 14.1914L19.1378 11.7961C19.0116 11.6274 18.8118 11.3822 18.5533 11.1561C18.362 10.9887 17.8134 10.5343 17.0088 10.4859L16.769 14.4787ZM14.7202 14.4529C15.4869 14.4465 16.1363 14.4418 16.7722 14.4789L17.0055 10.4857C16.2133 10.4395 15.4289 10.4468 14.6865 10.4531L14.7202 14.4529Z" fill="#7A3F3E" mask="url(#path-1-outside-1_375_10083)"/>
<path d="M24.3076 17.6976C23.929 17.1907 23.5505 16.6831 23.1717 16.175C21.8181 14.3594 20.4608 12.5389 19.083 10.7349L19.0827 10.7344C18.8784 10.4672 18.6048 10.2704 18.3539 10.1406C18.1046 10.0117 17.7798 9.8984 17.4327 9.892L24.3076 17.6976ZM24.3076 17.6976C24.818 17.1469 25.3283 16.599 25.8377 16.0522C27.3804 14.3961 28.9143 12.7495 30.413 11.0646C30.7577 10.677 31.161 10.3222 31.6632 10.095C32.1821 9.86038 32.7385 9.79273 33.3344 9.87717L24.3076 17.6976ZM29.2524 31.5287L29.2642 31.5198C29.2656 31.5217 29.2714 31.5289 29.2807 31.5382C29.2849 31.5424 29.2888 31.546 29.292 31.5488C29.2953 31.5517 29.2971 31.553 29.297 31.5529C29.297 31.5529 29.2937 31.5505 29.2869 31.5464C29.281 31.5429 29.2706 31.537 29.2556 31.5301L29.0142 31.711L28.985 32.4777L29.0116 31.7129L29.2524 31.5287ZM29.2524 31.5287L29.0143 31.7082L29.023 31.4785C29.1391 31.4829 29.2181 31.5135 29.2496 31.5274C29.2505 31.5278 29.2515 31.5282 29.2524 31.5287ZM33.3336 9.87706L33.2664 10.3539L28.482 34.0583L28.4634 35.0581C28.4636 35.0581 28.4637 35.0581 28.4638 35.0581C30.1526 35.0895 31.8436 35.0842 33.5214 35.0791C33.8977 35.0779 34.2733 35.0767 34.6481 35.076L34.6544 35.076C34.8319 35.0745 35.0568 35.0434 35.2222 35.0205C35.2754 35.0132 35.3224 35.0067 35.3598 35.0023C35.7147 34.9605 36.0204 34.7325 36.1616 34.4042C36.3028 34.0759 36.258 33.6972 36.0441 33.4108C34.6221 31.5067 33.211 29.6174 31.8027 27.7318C30.0355 25.3658 28.2727 23.0055 26.498 20.6289C28.1661 18.8225 29.8256 17.0261 31.5044 15.2088C32.6194 14.0018 33.743 12.7856 34.8831 11.5512C35.1526 11.2594 35.2239 10.8357 35.0646 10.4718C34.9053 10.1079 34.5457 9.87274 34.1485 9.87274C33.971 9.87274 33.8108 9.87692 33.6884 9.88011C33.6433 9.88129 33.6033 9.88233 33.5695 9.88298C33.4284 9.88569 33.3717 9.88242 33.3336 9.87706ZM29.4494 30.5967C29.6721 30.8952 29.8941 31.193 30.1213 31.498C29.8217 31.4966 29.5296 31.493 29.2382 31.4851C24.7377 25.477 20.2455 19.463 15.7534 13.4479C16.0519 13.4498 16.3442 13.4556 16.6368 13.4689C16.6414 13.4739 16.6463 13.4793 16.6512 13.4849C16.6805 13.5179 16.7097 13.5543 16.737 13.5907L16.7376 13.5915C20.4313 18.5214 24.1169 23.4564 27.8028 28.3919C28.3516 29.1269 28.9005 29.8618 29.4494 30.5967ZM18.9416 28.7861C19.638 28.0352 20.3356 27.283 21.033 26.5266L17.4324 9.89199C15.7436 9.86061 14.0525 9.86584 12.3747 9.87103C11.9985 9.87219 11.6228 9.87336 11.2481 9.8741L11.2481 9.87408L11.2419 9.87413C11.0761 9.87549 10.8645 9.90133 10.6965 9.92186C10.6356 9.92929 10.5804 9.93603 10.5352 9.94065C10.177 9.97728 9.86609 10.2037 9.72131 10.5334C9.57652 10.8631 9.62018 11.2452 9.8356 11.5337C11.2364 13.4099 12.6249 15.2697 14.0078 17.1219C15.625 19.2878 17.2344 21.4435 18.8467 23.603C15.8399 26.8574 12.8712 30.0707 9.79758 33.3989C9.52807 33.6907 9.45685 34.1144 9.61613 34.4783C9.77541 34.8422 10.135 35.0774 10.5322 35.0774C10.713 35.0774 10.8826 35.0719 11.0105 35.0678C11.058 35.0663 11.0998 35.0649 11.1342 35.0641C11.2815 35.0607 11.3366 35.065 11.3693 35.0705L11.3696 35.0705C11.9889 35.1739 12.552 35.092 13.0636 34.8436C13.5484 34.6081 13.9304 34.2499 14.247 33.8986L14.2473 33.8982C15.7961 32.178 17.3659 30.4852 18.9416 28.7861Z" fill="white" stroke="#7A3F3E" stroke-width="2" stroke-linejoin="round"/>
</svg>
