<svg width="173" height="93" viewBox="0 0 173 93" fill="none" xmlns="http://www.w3.org/2000/svg">
<path d="M3.27237 55.7947C4.45263 16.4598 50.568 3.98359 73.4781 2.66233C142.028 4.71918 147.58 31.6912 142.145 59.9616C135.109 96.553 1.79706 104.963 3.27237 55.7947Z" fill="#FFB465" stroke="#7A3F3E" stroke-width="5"/>
<path d="M39.2733 40.129C39.858 40.8445 40.4668 41.7787 41.0996 42.9314C41.7415 44.0738 42.3715 45.3344 42.9897 46.7132C43.6078 48.092 44.1745 49.5084 44.6899 50.9624C45.2144 52.406 45.6574 53.8011 46.019 55.1477C46.3806 56.4942 46.6155 57.6974 46.7235 58.757C46.7669 59.2729 46.5498 59.5463 46.0723 59.5774L42.5348 59.8075C42.0768 59.8372 41.8232 59.6238 41.7739 59.167C41.6639 58.0781 41.4023 56.7642 40.9891 55.2253L33.0079 55.7443C32.8339 57.2823 32.7642 58.6178 32.7987 59.7507C32.809 60.21 32.5754 60.4552 32.0979 60.4863L28.6335 60.7116C28.4581 60.723 28.3088 60.6838 28.1855 60.5939C28.0616 60.4943 27.9963 60.3175 27.9895 60.0635C27.9679 58.9787 28.044 57.7406 28.2177 56.3495C28.4006 54.9479 28.6582 53.4926 28.9907 51.9835C29.3231 50.4743 29.7065 48.9961 30.1408 47.5489C30.5745 46.0919 31.0356 44.7554 31.5242 43.5395C32.0127 42.3236 32.5005 41.323 32.9877 40.5378C33.2443 40.1199 33.5225 39.8082 33.8223 39.6028C34.1319 39.3967 34.5205 39.2785 34.9883 39.248L37.0932 39.1111C37.5707 39.0801 37.9763 39.1467 38.3099 39.3109C38.6436 39.4751 38.9647 39.7479 39.2733 40.129ZM36.195 43.8082C35.6184 44.8733 35.1083 46.1346 34.6649 47.5923C34.2215 49.0499 33.8536 50.5418 33.5614 52.0679L39.9055 51.6553C39.3986 50.1811 38.8309 48.7501 38.2024 47.3622C37.5738 45.9743 36.934 44.7877 36.2827 43.8025L36.195 43.8082ZM56.4453 59.2697C55.1882 59.3515 54.1248 59.3277 53.2552 59.1983C52.3856 59.0689 51.6496 58.8868 51.0471 58.652C50.4447 58.4171 49.9153 58.1776 49.459 57.9332L48.2146 38.7988C48.1994 38.565 48.2364 38.3815 48.3256 38.2485C48.7 37.6859 49.2616 37.0671 50.0104 36.3921C50.1405 36.2857 50.2591 36.2291 50.3663 36.2221C50.493 36.2139 50.618 36.2547 50.7413 36.3445C51.1812 36.6389 51.5517 36.9181 51.8527 37.1824C52.1634 37.446 52.43 37.7075 52.6524 37.9671C52.7581 38.0874 52.8185 38.2645 52.8337 38.4984L53.2948 45.5879L53.3533 45.5841C53.7108 45.0618 54.2234 44.593 54.8912 44.1776C55.5584 43.7526 56.5108 43.4998 57.7484 43.4193C59.1322 43.3293 60.2933 43.5768 61.2317 44.1616C62.1694 44.7367 62.894 45.5704 63.4054 46.6625C63.9162 47.7449 64.2185 49.0073 64.3123 50.4496C64.4137 52.0088 64.247 53.4337 63.8123 54.7244C63.3769 56.0054 62.5691 57.0512 61.3887 57.862C60.2175 58.6623 58.5697 59.1316 56.4453 59.2697ZM56.4052 55.7199C57.5356 55.6464 58.3737 55.2151 58.9193 54.4261C59.4643 53.6273 59.6912 52.5263 59.5999 51.123C59.5074 49.7002 59.1722 48.6847 58.5944 48.0764C58.0264 47.4674 57.2405 47.1956 56.2367 47.2609C55.4279 47.3135 54.8199 47.5194 54.4126 47.8786C54.0151 48.2372 53.7208 48.6772 53.5296 49.1985L53.9223 55.2355C54.1468 55.3775 54.4584 55.504 54.8571 55.6151C55.2655 55.7256 55.7815 55.7605 56.4052 55.7199ZM75.1704 58.0519C72.7146 58.2116 70.728 57.6851 69.2106 56.4725C67.6931 55.2598 66.8504 53.3623 66.6824 50.7798C66.5101 48.1292 67.122 46.1028 68.5183 44.7006C69.9238 43.288 71.869 42.501 74.3539 42.3393C76.7512 42.1834 78.7131 42.7066 80.2397 43.9089C81.7656 45.1014 82.6104 46.9548 82.7739 49.469C82.9444 52.0905 82.3532 54.1351 81.0003 55.6029C79.6474 57.0708 77.7041 57.8871 75.1704 58.0519ZM75.0865 54.5049C76.1584 54.4352 76.9457 54.0513 77.4483 53.3531C77.9503 52.6452 78.1487 51.4824 78.0435 49.8648C77.9434 48.3251 77.5953 47.2614 76.9992 46.6739C76.4123 46.0759 75.578 45.8121 74.4963 45.8825C73.4536 45.9503 72.6523 46.3449 72.0925 47.0664C71.5418 47.7775 71.3159 48.8931 71.4147 50.4133C71.518 52.0018 71.8732 53.0992 72.4803 53.7056C73.097 54.3114 73.9658 54.5778 75.0865 54.5049ZM91.659 56.9795C88.1897 57.2051 86.3185 55.2179 86.0454 51.0178L85.5478 43.593C85.5326 43.3591 85.5696 43.1757 85.6588 43.0427C86.0332 42.4801 86.5948 41.8613 87.3436 41.1862C87.4737 41.0799 87.5923 41.0233 87.6995 41.0163C87.8262 41.0081 87.9512 41.0489 88.0745 41.1387C88.5144 41.433 88.8849 41.7123 89.1859 41.9766C89.4966 42.2401 89.7632 42.5017 89.9856 42.7613C90.0913 42.8816 90.1517 43.0587 90.1669 43.2926L90.6233 50.309C90.7608 52.4237 91.6676 53.4265 93.3438 53.3175C94.1721 53.2637 94.8161 52.9331 95.2757 52.3258C95.7346 51.7088 95.9318 50.9033 95.8672 49.9093L95.4146 42.9513C95.3994 42.7174 95.4364 42.534 95.5256 42.401C95.9001 41.8384 96.4617 41.2195 97.2105 40.5445C97.3406 40.4382 97.4592 40.3816 97.5664 40.3746C97.6931 40.3663 97.8181 40.4071 97.9413 40.497C98.3813 40.7913 98.7518 41.0706 99.0527 41.3348C99.3635 41.5984 99.63 41.86 99.8524 42.1195C99.9581 42.2399 100.019 42.417 100.034 42.6509L100.859 55.3389C100.871 55.5241 100.818 55.689 100.7 55.8337C100.582 55.9686 100.425 56.0424 100.23 56.0551L98.0377 56.1977C97.8818 56.2078 97.7392 56.1975 97.61 56.1668C97.4899 56.1257 97.3721 56.0452 97.2566 55.9255L96.2743 54.8151L96.172 54.8217C96.0306 55.056 95.8038 55.3301 95.4915 55.644C95.1889 55.9572 94.7328 56.2414 94.123 56.4963C93.523 56.7506 92.7017 56.9117 91.659 56.9795ZM110.516 55.7531C107.261 55.9648 105.523 54.3799 105.303 50.9984L104.858 44.1427L103.206 44.2502C102.913 44.2692 102.705 44.224 102.58 44.1147C102.465 43.995 102.398 43.7889 102.379 43.4966L102.262 41.6986C102.243 41.4063 102.283 41.1981 102.383 41.0742C102.491 40.9399 102.692 40.8633 102.984 40.8443L104.636 40.7368L104.483 38.3834C104.468 38.1495 104.505 37.9661 104.594 37.8331C104.968 37.2705 105.53 36.6516 106.279 35.9766C106.409 35.8703 106.528 35.8137 106.635 35.8067C106.752 35.7991 106.872 35.8402 106.995 35.93C107.435 36.2244 107.806 36.5037 108.106 36.7679C108.417 37.0315 108.684 37.293 108.906 37.5526C109.012 37.6729 109.072 37.8501 109.088 38.0839L109.241 40.4374L111.828 40.2691C112.12 40.2501 112.324 40.3004 112.44 40.4201C112.564 40.5295 112.636 40.7303 112.655 41.0227L112.772 42.8206C112.791 43.113 112.746 43.3263 112.637 43.4606C112.538 43.5845 112.342 43.656 112.049 43.675L109.462 43.8433L109.856 49.8949C109.957 51.4541 110.573 52.197 111.703 52.1235C111.879 52.112 112.039 52.087 112.183 52.0482C112.327 51.9997 112.451 51.9525 112.555 51.9066C112.755 51.8153 112.894 51.7769 112.974 51.7913C113.063 51.8051 113.148 51.9072 113.228 52.0977L114.224 54.3082C114.327 54.5462 114.28 54.7254 114.082 54.8459C113.941 54.9236 113.593 55.0734 113.04 55.2953C112.497 55.5264 111.656 55.679 110.516 55.7531Z" fill="#7A3F3E"/>
<g clip-path="url(#clip0_78_114)">
<path d="M167.49 66.7135C167.49 77.1635 158.4 84.6435 147.2 84.6435C136 84.6435 126.9 77.1635 126.9 66.7135C126.9 56.2635 135.99 46.8135 147.2 46.8135C158.41 46.8135 167.49 56.2735 167.49 66.7135Z" fill="#F7931E" stroke="#7A3F3E" stroke-width="5.21" stroke-linecap="round" stroke-linejoin="round"/>
<path d="M146.18 51.9334C146.18 51.9334 147.93 30.0734 169.79 39.1034C169.79 39.1034 167.46 59.2134 146.18 51.9334Z" fill="#8CC63F" stroke="#7A3F3E" stroke-width="5.21" stroke-linecap="round" stroke-linejoin="round"/>
<path d="M146.18 51.9335L169.79 39.1035" stroke="#7A3F3E" stroke-width="2.6" stroke-linecap="round" stroke-linejoin="round"/>
<path d="M147.68 72.1334C148.006 72.1334 148.27 71.8692 148.27 71.5434C148.27 71.2175 148.006 70.9534 147.68 70.9534C147.355 70.9534 147.09 71.2175 147.09 71.5434C147.09 71.8692 147.355 72.1334 147.68 72.1334Z" stroke="#7A3F3E" stroke-width="2.6" stroke-linecap="round" stroke-linejoin="round"/>
<path d="M153.9 69.0836C154.226 69.0836 154.49 68.8194 154.49 68.4936C154.49 68.1677 154.226 67.9036 153.9 67.9036C153.575 67.9036 153.31 68.1677 153.31 68.4936C153.31 68.8194 153.575 69.0836 153.9 69.0836Z" stroke="#7A3F3E" stroke-width="2.6" stroke-linecap="round" stroke-linejoin="round"/>
<path d="M153.19 75.4234C153.516 75.4234 153.78 75.1593 153.78 74.8334C153.78 74.5076 153.516 74.2434 153.19 74.2434C152.865 74.2434 152.6 74.5076 152.6 74.8334C152.6 75.1593 152.865 75.4234 153.19 75.4234Z" stroke="#7A3F3E" stroke-width="2.6" stroke-linecap="round" stroke-linejoin="round"/>
</g>
<defs>
<clipPath id="clip0_78_114">
<rect width="48.09" height="52.94" fill="white" transform="translate(124.3 34.3135)"/>
</clipPath>
</defs>
</svg>
