<svg width="173" height="115" viewBox="0 0 173 115" fill="none" xmlns="http://www.w3.org/2000/svg">
<path d="M25.1461 8.61897C25.1461 8.61897 21.6246 -1.39657 14.7033 4.15069C14.7033 4.15069 9.3086 10.1125 14.7033 11.6364C14.7033 11.6364 19.9582 12.051 19.9582 12.7459L25.14 8.61897H25.1461Z" fill="#FFEEE2" stroke="#7A3F3E" stroke-width="4" stroke-linecap="round" stroke-linejoin="round"/>
<path d="M16.6555 6.44915C16.6555 6.44915 20.3047 4.68134 22.6949 9.70435L16.6555 6.44915Z" fill="#FFEEE2"/>
<path d="M16.6555 6.44915C16.6555 6.44915 20.3047 4.68134 22.6949 9.70435" stroke="#7A3F3E" stroke-width="4" stroke-linecap="round" stroke-linejoin="round"/>
<path d="M57.8611 10.6735C57.8611 10.6735 61.8995 4.05341 68.3829 5.15676C70.9921 5.60176 73.9297 6.80265 74.8237 9.60066C75.7178 12.3987 74.3129 15.8794 71.4482 16.9401C66.3941 18.8176 67.2517 14.9468 63.9613 17.0133" fill="#FFEEE2"/>
<path d="M57.8611 10.6735C57.8611 10.6735 61.8995 4.05341 68.3829 5.15676C70.9921 5.60176 73.9297 6.80265 74.8237 9.60066C75.7178 12.3987 74.3129 15.8794 71.4482 16.9401C66.3941 18.8176 67.2517 14.9468 63.9613 17.0133" stroke="#7A3F3E" stroke-width="4" stroke-linecap="round" stroke-linejoin="round"/>
<path d="M25.1461 8.61897C25.1461 8.61897 21.6246 -1.39657 14.7033 4.15069C14.7033 4.15069 9.3086 10.1125 14.7033 11.6364C14.7033 11.6364 19.9582 12.051 19.9582 12.7459L25.14 8.61897H25.1461Z" fill="#FFEEE2" stroke="#7A3F3E" stroke-width="4" stroke-linecap="round" stroke-linejoin="round"/>
<path fill-rule="evenodd" clip-rule="evenodd" d="M75.4882 44.0122C75.494 40.4161 74.7348 36.7688 73.5342 33.5392C66.8014 15.4466 59.6369 10.704 59.6369 10.704C46.5971 0.365339 29.2269 7.19883 29.2269 7.19883C29.2269 7.19883 17.0569 9.69205 8.75497 29.7963C8.2172 31.0977 7.60858 32.4178 6.99231 33.7544C4.06097 40.1121 0.956494 46.8454 4.47934 53.7409C7.77577 60.1904 17.3792 63.153 23.8018 64.9817C25.7819 65.5463 27.8147 66.019 29.879 66.3885C28.4837 68.8922 27.7762 71.6551 27.8019 74.757V74.7504C27.8149 76.2277 27.6369 77.8847 27.4454 79.6677C26.5664 87.8513 25.4022 98.6908 41.1065 107.009C56.0297 114.914 142.891 114.822 155.012 107.762C187.857 88.6337 172.055 18.1239 89.3312 40.2519C84.4681 41.5529 79.8482 42.7966 75.4882 44.0122Z" fill="#FFEEE2"/>
<path d="M75.4882 44.0122L73.4882 44.009C73.4871 44.6349 73.7792 45.2251 74.2774 45.6041C74.7755 45.983 75.4224 46.1068 76.0253 45.9387L75.4882 44.0122ZM73.5342 33.5392L75.4089 32.8423L75.4086 32.8416L73.5342 33.5392ZM59.6369 10.704L58.3943 12.2712C58.4391 12.3066 58.4853 12.3402 58.5329 12.3717L59.6369 10.704ZM29.2269 7.19883L29.6283 9.15814C29.7412 9.13501 29.8519 9.10217 29.9591 9.05998L29.2269 7.19883ZM8.75497 29.7963L10.6034 30.5601L10.6036 30.5596L8.75497 29.7963ZM6.99231 33.7544L5.17606 32.917H5.17606L6.99231 33.7544ZM4.47934 53.7409L2.69831 54.6508L2.69847 54.6512L4.47934 53.7409ZM23.8018 64.9817L24.3502 63.0584L24.3495 63.0582L23.8018 64.9817ZM29.879 66.3885L31.6261 67.3621C31.9407 66.7976 31.9631 66.1158 31.6863 65.5318C31.4095 64.9479 30.8675 64.5336 30.2314 64.4198L29.879 66.3885ZM27.8019 74.757L25.802 74.7735C25.8111 75.8748 26.7089 76.7615 27.8102 76.757C28.9115 76.7524 29.8019 75.8583 29.8019 74.757H27.8019ZM27.8019 74.7504L29.8018 74.7328C29.7921 73.6318 28.8942 72.7456 27.7931 72.7505C26.692 72.7553 25.8019 73.6493 25.8019 74.7504H27.8019ZM27.4454 79.6677L29.434 79.8812L27.4454 79.6677ZM41.1065 107.009L40.1703 108.777L40.1704 108.777L41.1065 107.009ZM155.012 107.762L156.019 109.491L156.019 109.491L155.012 107.762ZM89.3312 40.2519L88.8144 38.3198L88.8144 38.3199L89.3312 40.2519ZM77.4882 44.0154C77.4944 40.1472 76.6803 36.2626 75.4089 32.8423L71.6595 34.2361C72.7893 37.275 73.4935 40.6851 73.4882 44.009L77.4882 44.0154ZM75.4086 32.8416C71.981 23.6307 68.4156 17.7438 65.6502 14.1229C64.2679 12.3129 63.0877 11.0721 62.2284 10.2677C61.7989 9.86558 61.4501 9.57301 61.197 9.37322C61.0705 9.27335 60.968 9.19672 60.8913 9.14124C60.8529 9.1135 60.8211 9.09106 60.7959 9.07365C60.7833 9.06494 60.7724 9.05749 60.7632 9.05127C60.7586 9.04816 60.7545 9.04535 60.7507 9.04285C60.7489 9.0416 60.7471 9.04042 60.7455 9.03932C60.7446 9.03877 60.7435 9.038 60.7431 9.03772C60.7419 9.03697 60.7408 9.03624 59.6369 10.704C58.5329 12.3717 58.5319 12.371 58.5308 12.3703C58.5305 12.3701 58.5295 12.3694 58.5289 12.369C58.5277 12.3682 58.5266 12.3675 58.5256 12.3668C58.5236 12.3655 58.5221 12.3644 58.5209 12.3637C58.5187 12.3621 58.5182 12.3618 58.5193 12.3626C58.5217 12.3642 58.5309 12.3706 58.5467 12.382C58.5782 12.4049 58.6362 12.4478 58.7187 12.5129C58.8837 12.6432 59.1473 12.8625 59.4947 13.1877C60.1891 13.8379 61.2209 14.9135 62.4713 16.5508C64.9714 19.8243 68.3547 25.355 71.6598 34.2367L75.4086 32.8416ZM60.8794 9.13678C53.8265 3.54483 45.6567 2.64361 39.403 3.07925C36.2653 3.29782 33.5612 3.85501 31.6388 4.3577C30.6759 4.60949 29.9042 4.84889 29.3668 5.02786C29.098 5.11738 28.8874 5.19192 28.7404 5.24551C28.6668 5.27231 28.6092 5.29388 28.568 5.30949C28.5474 5.31729 28.531 5.3236 28.5188 5.32833C28.5126 5.33069 28.5076 5.33266 28.5036 5.33422C28.5016 5.335 28.4998 5.33568 28.4984 5.33626C28.4976 5.33654 28.4967 5.3369 28.4964 5.33704C28.4955 5.33737 28.4948 5.33767 29.2269 7.19883C29.9591 9.05998 29.9585 9.06023 29.9579 9.06046C29.9578 9.0605 29.9573 9.0607 29.9571 9.06078C29.9567 9.06094 29.9565 9.061 29.9567 9.06096C29.9569 9.06087 29.9581 9.06038 29.9604 9.0595C29.965 9.05774 29.9736 9.05441 29.9863 9.0496C30.0117 9.03997 30.0531 9.02444 30.11 9.00371C30.2238 8.96224 30.3991 8.90006 30.6307 8.82293C31.0942 8.66858 31.7815 8.45488 32.6507 8.22758C34.3927 7.77207 36.8461 7.26705 39.681 7.06958C45.3723 6.67312 52.4075 7.52447 58.3943 12.2712L60.8794 9.13678ZM29.2269 7.19883C28.8255 5.23952 28.8241 5.23982 28.8226 5.24012C28.8221 5.24024 28.8205 5.24055 28.8194 5.24078C28.8172 5.24125 28.8148 5.24175 28.8122 5.2423C28.807 5.2434 28.801 5.24467 28.7943 5.24612C28.7809 5.24902 28.7646 5.25265 28.7453 5.25705C28.7069 5.26587 28.6568 5.27781 28.5956 5.29336C28.4732 5.32446 28.3065 5.36998 28.0993 5.43376C27.685 5.5613 27.1091 5.76187 26.4038 6.06596C24.9924 6.67453 23.0663 7.69633 20.8853 9.37278C16.5107 12.7354 11.1835 18.6752 6.90639 29.0329L10.6036 30.5596C14.6283 20.8131 19.5372 15.4542 23.323 12.5442C25.2223 11.0843 26.8576 10.2263 27.9875 9.73908C28.5529 9.49531 28.9926 9.34403 29.2763 9.25669C29.4181 9.21303 29.5209 9.18536 29.5809 9.17011C29.6109 9.16249 29.6301 9.15798 29.6382 9.15613C29.6422 9.15521 29.6435 9.15495 29.6418 9.1553C29.641 9.15548 29.6395 9.15581 29.6373 9.15628C29.6361 9.15652 29.6348 9.15679 29.6333 9.1571C29.6326 9.15726 29.6313 9.15752 29.631 9.15759C29.6297 9.15786 29.6283 9.15814 29.2269 7.19883ZM6.90656 29.0325C6.38682 30.2903 5.79559 31.5733 5.17606 32.917L8.80855 34.5918C9.42157 33.2622 10.0476 31.9052 10.6034 30.5601L6.90656 29.0325ZM5.17606 32.917C2.33348 39.0822 -1.33616 46.7538 2.69831 54.6508L6.26037 52.831C3.24915 46.9369 5.78847 41.142 8.80855 34.5918L5.17606 32.917ZM2.69847 54.6512C4.63822 58.4463 8.32649 61.0429 12.0868 62.8893C15.88 64.7519 20.042 65.9907 23.2541 66.9053L24.3495 63.0582C21.139 62.144 17.2881 60.9871 13.8498 59.2988C10.3786 57.5944 7.61689 55.485 6.2602 52.8307L2.69847 54.6512ZM23.2534 66.9051C25.2972 67.4879 27.3955 67.9758 29.5267 68.3572L30.2314 64.4198C28.2339 64.0623 26.2665 63.6048 24.3502 63.0584L23.2534 66.9051ZM28.132 65.4149C26.5615 68.233 25.7735 71.339 25.802 74.7735L29.8018 74.7404C29.7789 71.9712 30.406 69.5515 31.6261 67.3621L28.132 65.4149ZM29.8019 74.757V74.7504H25.8019V74.757H29.8019ZM25.802 74.768C25.8137 76.1062 25.6518 77.6394 25.4568 79.4541L29.434 79.8812C29.6221 78.13 29.816 76.3493 29.8018 74.7328L25.802 74.768ZM25.4568 79.4541C25.0226 83.4971 24.4416 88.6708 26.1565 93.9101C27.9084 99.2628 31.9493 104.422 40.1703 108.777L42.0427 105.242C34.5594 101.278 31.3302 96.8583 29.958 92.6658C28.5486 88.3597 28.9892 84.0219 29.434 79.8812L25.4568 79.4541ZM40.1704 108.777C42.3117 109.911 45.5466 110.817 49.4086 111.564C53.3204 112.321 58.0535 112.946 63.306 113.445C73.8142 114.445 86.5133 114.956 99.1035 114.997C111.694 115.039 124.216 114.611 134.373 113.727C139.449 113.285 143.964 112.726 147.615 112.047C151.19 111.383 154.178 110.563 156.019 109.491L154.006 106.034C152.816 106.727 150.438 107.454 146.884 108.115C143.407 108.761 139.031 109.306 134.026 109.742C124.02 110.613 111.622 111.038 99.1167 110.997C86.6109 110.956 74.0391 110.449 63.6849 109.463C58.5062 108.971 53.9102 108.361 50.1681 107.637C46.3761 106.904 43.6321 106.084 42.0426 105.242L40.1704 108.777ZM156.019 109.491C173.565 99.2719 177.879 75.5535 167.232 57.5191C156.438 39.2363 130.716 27.1114 88.8144 38.3198L89.848 42.184C130.67 31.2644 154.21 43.3304 163.787 59.5526C173.511 76.0233 169.304 97.1242 154.006 106.034L156.019 109.491ZM88.8144 38.3199C83.9505 39.621 79.3219 40.867 74.951 42.0857L76.0253 45.9387C80.3745 44.7261 84.9857 43.4847 89.8481 42.184L88.8144 38.3199Z" fill="#7A3F3E"/>
<path d="M20.2135 48.9551C20.2135 48.9551 17.5739 49.2538 15.9683 51.6007L20.2135 48.9551Z" fill="#FFEEE2"/>
<path d="M20.2135 48.9551C20.2135 48.9551 17.5739 49.2538 15.9683 51.6007" stroke="#7A3F3E" stroke-width="4" stroke-linecap="round" stroke-linejoin="round"/>
<path d="M13.9429 53.3506V60.7144" stroke="#7A3F3E" stroke-width="4" stroke-linecap="round" stroke-linejoin="round"/>
<path d="M8.45093 48.0957C8.45093 48.0957 10.6952 48.7358 11.8203 51.2717L8.45093 48.0957Z" fill="#FFEEE2"/>
<path d="M8.45093 48.0957C8.45093 48.0957 10.6952 48.7358 11.8203 51.2717" stroke="#7A3F3E" stroke-width="4" stroke-linecap="round" stroke-linejoin="round"/>
<path d="M38.5083 33.8801C38.5083 33.8801 46.871 27.9427 52.4421 29.6922L38.5083 33.8801Z" fill="#FFEEE2"/>
<path d="M38.5083 33.8801C38.5083 33.8801 46.871 27.9427 52.4421 29.6922" stroke="#7A3F3E" stroke-width="4" stroke-linecap="round" stroke-linejoin="round"/>
<path d="M47.1408 95.9175C47.1408 95.9175 44.3552 109.883 54.4574 109.883L47.1408 95.9175Z" fill="#FFEEE2"/>
<path d="M47.1408 95.9175C47.1408 95.9175 44.3552 109.883 54.4574 109.883" stroke="#7A3F3E" stroke-width="4" stroke-linecap="round" stroke-linejoin="round"/>
<path d="M55.2231 60.7935C55.6697 61.6025 56.1006 62.6309 56.5157 63.8787C56.9417 65.1179 57.3348 66.4712 57.6949 67.9387C58.055 69.4062 58.3578 70.9014 58.6033 72.4244C58.8597 73.9388 59.0446 75.3908 59.1582 76.7804C59.2717 78.1701 59.2864 79.3958 59.2021 80.4576C59.152 80.9729 58.8893 81.2028 58.414 81.1475L54.8928 80.7377C54.4369 80.6846 54.2258 80.429 54.2594 79.9709C54.3471 78.8799 54.326 77.5404 54.1962 75.9522L46.2518 75.0276C45.8041 76.5092 45.4954 77.8104 45.3256 78.9311C45.2531 79.3848 44.9793 79.5839 44.504 79.5286L41.0555 79.1273C40.8809 79.1069 40.7411 79.0415 40.636 78.931C40.532 78.8107 40.4995 78.6251 40.5386 78.374C40.7124 77.3029 41.0098 76.0987 41.4309 74.7615C41.8628 73.4157 42.378 72.0304 42.9764 70.6057C43.5748 69.1809 44.2178 67.7958 44.9053 66.4502C45.5939 65.0949 46.2878 63.8632 46.987 62.755C47.6862 61.6467 48.3461 60.7502 48.9665 60.0654C49.2941 59.7004 49.6238 59.4438 49.9557 59.2956C50.2972 59.1486 50.7008 59.1022 51.1664 59.1564L53.2616 59.4002C53.7369 59.4555 54.1239 59.594 54.4226 59.8155C54.7212 60.0371 54.9881 60.3631 55.2231 60.7935ZM51.5334 63.8592C50.7747 64.8032 50.0461 65.9523 49.3478 67.3064C48.6495 68.6606 48.0194 70.062 47.4575 71.5106L53.7723 72.2456C53.5387 70.7043 53.2376 69.1945 52.8689 67.7162C52.5003 66.2379 52.0842 64.9556 51.6207 63.8694L51.5334 63.8592ZM71.3649 67.1848C72.5192 67.3192 73.347 67.5138 73.8482 67.7688C74.3506 68.0141 74.6635 68.198 74.7869 68.3205C74.9845 68.4811 75.129 68.6749 75.2206 68.9018C75.2761 69.0165 75.3322 69.2098 75.3891 69.4819C75.4459 69.7539 75.4756 70.0474 75.4783 70.3623C75.4986 70.6105 75.4831 70.7856 75.4319 70.8878C75.3818 70.9803 75.2464 71.0875 75.0258 71.2093C74.7749 71.3374 74.5015 71.4481 74.2055 71.5415C73.9204 71.6262 73.6877 71.6827 73.5074 71.7109C73.3574 71.7328 73.2447 71.7295 73.1694 71.7011C73.094 71.6726 72.9941 71.602 72.8696 71.4892C72.7268 71.3644 72.5221 71.2226 72.2555 71.0638C71.99 70.8953 71.6099 70.7822 71.1152 70.7246C70.4847 70.6512 69.8652 70.7365 69.2568 70.9803C68.658 71.2252 68.1431 71.6372 67.7119 72.2162C67.2905 72.7964 67.0255 73.5521 66.9172 74.4833C66.7546 75.8801 66.9925 77.004 67.6308 77.855C68.2788 78.7071 69.2188 79.2048 70.4507 79.3482C71.0812 79.4216 71.6124 79.4195 72.0442 79.3419C72.4771 79.2547 72.8227 79.1573 73.081 79.0497C73.2874 78.9656 73.4357 78.9582 73.526 79.0277C73.627 79.0887 73.6987 79.1904 73.7411 79.333L74.5239 81.8574C74.6012 82.122 74.5222 82.2947 74.2866 82.3754C73.9063 82.518 73.2903 82.6576 72.4387 82.7945C71.5871 82.9313 70.555 82.9292 69.3425 82.7881C66.9078 82.5047 65.038 81.6333 63.7331 80.1738C62.4293 78.7047 61.9276 76.68 62.2279 74.0997C62.4198 72.4507 62.9187 71.0783 63.7247 69.9825C64.5306 68.8867 65.5856 68.1 66.8898 67.6226C68.1951 67.1355 69.6868 66.9895 71.3649 67.1848ZM85.9734 68.885C87.1277 69.0194 87.9554 69.214 88.4567 69.469C88.959 69.7142 89.2719 69.8981 89.3953 70.0206C89.5929 70.1813 89.7375 70.3751 89.829 70.602C89.8845 70.7166 89.9407 70.91 89.9975 71.182C90.0543 71.4541 90.0841 71.7476 90.0867 72.0625C90.107 72.3107 90.0915 72.4858 90.0403 72.588C89.9902 72.6805 89.8549 72.7876 89.6342 72.9094C89.3834 73.0375 89.1099 73.1483 88.814 73.2416C88.5288 73.3264 88.2961 73.3829 88.1159 73.4111C87.9658 73.433 87.8532 73.4297 87.7778 73.4012C87.7025 73.3728 87.6025 73.3022 87.478 73.1894C87.3352 73.0646 87.1305 72.9228 86.8639 72.764C86.5984 72.5954 86.2183 72.4824 85.7236 72.4248C85.0931 72.3514 84.4736 72.4366 83.8652 72.6804C83.2664 72.9254 82.7515 73.3373 82.3203 73.9164C81.8989 74.4965 81.634 75.2522 81.5256 76.1835C81.363 77.5803 81.6009 78.7042 82.2392 79.5552C82.8873 80.4073 83.8272 80.905 85.0591 81.0484C85.6897 81.1218 86.2208 81.1197 86.6526 81.0421C87.0855 80.9549 87.4311 80.8574 87.6894 80.7499C87.8958 80.6657 88.0442 80.6584 88.1344 80.7279C88.2354 80.7888 88.3072 80.8906 88.3496 81.0332L89.1323 83.5576C89.2097 83.8222 89.1306 83.9949 88.8951 84.0756C88.5147 84.2181 87.8987 84.3578 87.0471 84.4947C86.1955 84.6315 85.1635 84.6294 83.9509 84.4883C81.5162 84.2049 79.6464 83.3335 78.3415 81.874C77.0378 80.4049 76.536 78.3802 76.8363 75.7999C77.0283 74.1509 77.5272 72.7785 78.3331 71.6826C79.139 70.5868 80.194 69.8002 81.4982 69.3228C82.8035 68.8356 84.2952 68.6897 85.9734 68.885ZM98.4866 86.18C96.0422 85.8955 94.1826 85.0203 92.908 83.5546C91.6333 82.0888 91.1456 80.0706 91.4448 77.5001C91.7518 74.8617 92.7182 72.9783 94.3439 71.8501C95.9805 70.7133 98.0355 70.2889 100.509 70.5767C102.895 70.8544 104.731 71.7219 106.017 73.1791C107.303 74.6266 107.801 76.6017 107.51 79.1043C107.206 81.7137 106.257 83.6187 104.662 84.8193C103.067 86.0199 101.009 86.4735 98.4866 86.18ZM99.0419 82.6757C100.109 82.7999 100.952 82.5638 101.572 81.9674C102.194 81.3613 102.598 80.2532 102.785 78.643C102.964 77.1103 102.812 76.0014 102.332 75.3163C101.862 74.6226 101.089 74.213 100.012 74.0877C98.974 73.9669 98.1148 74.211 97.4344 74.8201C96.7648 75.4205 96.3419 76.4773 96.1658 77.9906C95.9818 79.5717 96.1338 80.7151 96.6219 81.4208C97.1197 82.1276 97.9264 82.5459 99.0419 82.6757ZM114.899 88.0901C111.446 87.6882 109.963 85.3969 110.449 81.2161L111.295 73.8229C111.322 73.5901 111.391 73.4163 111.503 73.3015C111.973 72.8154 112.636 72.3077 113.494 71.7783C113.641 71.6971 113.768 71.6627 113.875 71.6751C114.001 71.6898 114.117 71.7524 114.222 71.863C114.602 72.2316 114.916 72.573 115.164 72.887C115.423 73.2022 115.638 73.5074 115.81 73.8027C115.892 73.9401 115.92 74.1252 115.893 74.358L115.08 81.3421C114.835 83.4471 115.547 84.5966 117.215 84.7908C118.04 84.8868 118.733 84.6774 119.294 84.1626C119.856 83.6382 120.195 82.8813 120.31 81.8919L121.116 74.966C121.143 74.7332 121.213 74.5594 121.325 74.4445C121.794 73.9584 122.458 73.4507 123.316 72.9214C123.463 72.8402 123.59 72.8058 123.696 72.8182C123.822 72.8329 123.938 72.8955 124.043 73.006C124.423 73.3747 124.737 73.716 124.986 74.0301C125.244 74.3452 125.459 74.6505 125.631 74.9458C125.714 75.0832 125.741 75.2683 125.714 75.5011L124.244 88.1307C124.223 88.315 124.141 88.4677 123.999 88.5888C123.859 88.7002 123.691 88.7447 123.497 88.7221L121.315 88.4681C121.159 88.45 121.021 88.4142 120.899 88.3608C120.789 88.2987 120.687 88.1984 120.595 88.0599L119.829 86.7909L119.727 86.7791C119.546 86.9841 119.273 87.2129 118.909 87.4655C118.556 87.7193 118.056 87.9167 117.41 88.0579C116.774 88.2002 115.937 88.2109 114.899 88.0901ZM143.593 81.6669L142.604 90.1642C142.57 90.4552 142.483 90.6516 142.344 90.7533C142.215 90.8465 142.005 90.8761 141.714 90.8422L138.717 90.4934C138.426 90.4595 138.223 90.3819 138.11 90.2605C138.007 90.1306 137.972 89.9201 138.006 89.6291L138.907 81.8884C139.03 80.8311 138.897 80.0339 138.507 79.497C138.117 78.9601 137.539 78.647 136.773 78.5578C136.007 78.4686 135.396 78.5647 134.94 78.8459C134.494 79.1283 134.131 79.5087 133.849 79.9872L132.797 89.0229C132.763 89.3139 132.677 89.5102 132.537 89.6119C132.408 89.7051 132.198 89.7347 131.907 89.7009L128.91 89.352C128.619 89.3182 128.416 89.2405 128.303 89.1192C128.2 88.9892 128.165 88.7787 128.199 88.4877L129.618 76.2946C129.645 76.0618 129.715 75.888 129.827 75.7732C130.062 75.5253 130.337 75.2771 130.651 75.0285C130.974 74.7811 131.363 74.5216 131.818 74.25C131.955 74.1677 132.082 74.1333 132.198 74.1469C132.305 74.1593 132.421 74.2219 132.545 74.3347C132.915 74.7022 133.229 75.0484 133.486 75.3733C133.743 75.6982 133.965 76.0288 134.152 76.3652L134.225 76.3736C134.415 76.1794 134.691 75.9608 135.054 75.7179C135.417 75.4653 135.908 75.2619 136.526 75.1076C137.153 74.9545 137.932 74.9322 138.863 75.0405C139.775 75.1467 140.622 75.432 141.404 75.8966C142.185 76.3611 142.787 77.0604 143.209 77.9944C143.641 78.9295 143.769 80.1537 143.593 81.6669ZM152.002 92.4083C148.762 92.0312 147.338 90.1597 147.73 86.7938L148.524 79.9697L146.88 79.7784C146.589 79.7445 146.392 79.6626 146.289 79.5326C146.197 79.3941 146.168 79.1794 146.202 78.8884L146.41 77.0987C146.444 76.8077 146.521 76.6102 146.642 76.5062C146.773 76.3936 146.984 76.3543 147.275 76.3882L148.919 76.5795L149.192 74.2369C149.219 74.0041 149.288 73.8303 149.4 73.7155C149.869 73.2294 150.533 72.7217 151.391 72.1923C151.538 72.1111 151.665 72.0767 151.772 72.0892C151.888 72.1027 151.999 72.1647 152.104 72.2753C152.484 72.6439 152.798 72.9853 153.047 73.2993C153.305 73.6145 153.52 73.9198 153.692 74.2151C153.774 74.3525 153.802 74.5376 153.775 74.7704L153.502 77.1129L156.078 77.4127C156.369 77.4465 156.56 77.5327 156.652 77.6713C156.755 77.8012 156.79 78.0117 156.756 78.3027L156.547 80.0924C156.514 80.3834 156.431 80.5851 156.3 80.6977C156.18 80.8017 155.974 80.8367 155.683 80.8029L153.108 80.5031L152.407 86.5269C152.226 88.079 152.698 88.9205 153.824 89.0514C153.998 89.0717 154.16 89.0758 154.309 89.0636C154.459 89.0418 154.589 89.0177 154.701 88.9913C154.913 88.9374 155.057 88.9246 155.133 88.9531C155.218 88.9826 155.283 89.0984 155.328 89.3003L155.91 91.6538C155.969 91.9064 155.89 92.0743 155.674 92.1573C155.521 92.2082 155.152 92.2931 154.568 92.412C153.992 92.5416 153.137 92.5404 152.002 92.4083Z" fill="#7A3F3E"/>
</svg>
