<svg width="253" height="77" viewBox="0 0 253 77" fill="none" xmlns="http://www.w3.org/2000/svg">
<rect x="14.5651" y="13.7517" width="238.245" height="53.332" rx="8" transform="rotate(2.23196 14.5651 13.7517)" fill="#7A3F3E"/>
<rect x="2.142" y="-0.00537109" width="239" height="55" rx="8" transform="rotate(2.23196 2.142 -0.00537109)" fill="#F18137"/>
<path d="M31.026 20.2862C31.5334 21.0585 32.042 22.0507 32.5518 23.2629C33.0718 24.4657 33.5677 25.7848 34.0395 27.2203C34.5113 28.6558 34.9281 30.1233 35.2899 31.6229C35.6618 33.1132 35.9578 34.5467 36.1777 35.9235C36.3977 37.3003 36.5065 38.5213 36.5041 39.5864C36.4937 40.104 36.2494 40.3535 35.7713 40.3348L32.229 40.1968C31.7704 40.1789 31.5402 39.9403 31.5386 39.4809C31.5422 38.3864 31.4182 37.0525 31.1668 35.479L23.1749 35.1675C22.8423 36.6791 22.6344 38.0001 22.5513 39.1306C22.5139 39.5885 22.2561 39.8081 21.778 39.7894L18.3089 39.6542C18.1333 39.6474 17.9888 39.5929 17.8755 39.4907C17.7626 39.3788 17.716 39.1962 17.7356 38.9429C17.8266 37.8616 18.0307 36.6382 18.3478 35.2725C18.675 33.8975 19.0822 32.4768 19.5694 31.0102C20.0565 29.5437 20.5912 28.1133 21.1733 26.7189C21.7557 25.3147 22.353 24.0333 22.965 22.8746C23.577 21.7159 24.166 20.7713 24.7319 20.0409C25.0305 19.6518 25.3396 19.3707 25.659 19.1974C25.9883 19.0246 26.3871 18.9473 26.8555 18.9655L28.9633 19.0477C29.4414 19.0663 29.8379 19.1746 30.1527 19.3726C30.4675 19.5705 30.7586 19.8751 31.026 20.2862ZM27.5828 23.6263C26.8988 24.6258 26.2607 25.8274 25.6684 27.2312C25.0762 28.635 24.5556 30.0807 24.1068 31.5682L30.4593 31.8158C30.1081 30.2971 29.6918 28.8149 29.2107 27.3693C28.7295 25.9237 28.2161 24.6771 27.6706 23.6297L27.5828 23.6263ZM44.8321 41.0545C43.5343 41.0039 42.4391 40.6436 41.5465 39.9735C40.6641 39.2941 40.0057 38.384 39.5713 37.2432C39.147 36.093 38.9636 34.7811 39.021 33.3076C39.0967 31.3657 39.4995 29.808 40.2293 28.6343C40.9693 27.4513 41.9749 26.6012 43.246 26.0839C44.5269 25.567 46.0211 25.3418 47.7288 25.4083C48.3143 25.4311 48.7962 25.4792 49.1745 25.5526C49.5625 25.6264 49.8386 25.6909 50.0026 25.7462L50.2153 20.2864C50.2245 20.0522 50.2803 19.8736 50.3828 19.7506C50.8136 19.2298 51.4363 18.6726 52.2511 18.0789C52.3915 17.9866 52.5154 17.9426 52.6227 17.9468C52.7496 17.9517 52.8697 18.0053 52.983 18.1074C53.39 18.4458 53.7295 18.762 54.0015 19.056C54.2832 19.3504 54.5212 19.6382 54.7155 19.9194C54.8081 20.0501 54.8499 20.2325 54.8407 20.4667L54.0649 40.3735C54.0577 40.5589 53.9879 40.7174 53.8558 40.8491C53.724 40.971 53.5605 41.0282 53.3653 41.0205L51.1844 40.9355C51.0282 40.9295 50.8875 40.9044 50.7622 40.8605C50.647 40.8071 50.5382 40.7149 50.4358 40.5839L49.5739 39.3775L49.4714 39.3735C49.337 39.5637 49.0979 39.8036 48.7544 40.0932C48.4209 40.3734 47.9376 40.6135 47.3043 40.8136C46.6808 41.0141 45.8567 41.0944 44.8321 41.0545ZM46.398 37.3626C47.2762 37.3969 47.9707 37.2578 48.4813 36.9454C49.0016 36.6334 49.379 36.2279 49.6135 35.7288L49.8525 29.5958C49.7002 29.4921 49.4462 29.3649 49.0904 29.2142C48.7347 29.0636 48.2299 28.9755 47.5761 28.95C46.3661 28.9028 45.4432 29.2627 44.8074 30.0295C44.1716 30.7963 43.8276 31.8482 43.7755 33.1851C43.7215 34.5707 43.9353 35.6052 44.4168 36.2886C44.8984 36.9719 45.5588 37.3299 46.398 37.3626ZM63.1288 41.7676C61.8309 41.717 60.7357 41.3567 59.8432 40.6866C58.9608 40.0072 58.3024 39.0971 57.868 37.9563C57.4437 36.8061 57.2603 35.4942 57.3177 34.0207C57.3934 32.0788 57.7961 30.5211 58.526 29.3474C59.266 28.1644 60.2715 27.3143 61.5426 26.797C62.8235 26.2801 64.3178 26.0549 66.0255 26.1214C66.611 26.1443 67.0929 26.1924 67.4712 26.2657C67.8592 26.3395 68.1352 26.404 68.2992 26.4593L68.512 20.9995C68.5211 20.7653 68.577 20.5867 68.6795 20.4637C69.1102 19.9429 69.733 19.3857 70.5478 18.792C70.6882 18.6997 70.8121 18.6557 70.9194 18.6599C71.0463 18.6648 71.1663 18.7184 71.2796 18.8205C71.6867 19.1589 72.0262 19.4751 72.2981 19.7691C72.5799 20.0635 72.8179 20.3513 73.0121 20.6325C73.1048 20.7632 73.1465 20.9456 73.1374 21.1798L72.3615 41.0866C72.3543 41.272 72.2846 41.4305 72.1524 41.5622C72.0206 41.6841 71.8571 41.7413 71.662 41.7337L69.481 41.6487C69.3249 41.6426 69.1841 41.6175 69.0588 41.5736C68.9436 41.5202 68.8348 41.428 68.7324 41.297L67.8705 40.0906L67.7681 40.0866C67.6336 40.2768 67.3946 40.5167 67.051 40.8063C66.7176 41.0865 66.2343 41.3267 65.601 41.5267C64.9775 41.7272 64.1534 41.8075 63.1288 41.7676ZM64.6947 38.0757C65.5729 38.11 66.2673 37.9709 66.7779 37.6585C67.2983 37.3465 67.6757 36.941 67.9101 36.4419L68.1492 30.3089C67.9968 30.2052 67.7428 30.078 67.3871 29.9274C67.0314 29.7767 66.5266 29.6886 65.8728 29.6631C64.6628 29.6159 63.7399 29.9758 63.104 30.7426C62.4682 31.5094 62.1243 32.5613 62.0722 33.8982C62.0182 35.2838 62.2319 36.3183 62.7135 37.0017C63.1951 37.685 63.8554 38.043 64.6947 38.0757ZM93.8895 39.0084C94.6018 39.0361 95.1609 38.9846 95.5667 38.8539C95.9822 38.7235 96.3064 38.5553 96.5392 38.3494C96.772 38.1434 96.9755 37.9363 97.1498 37.7281C97.3135 37.5391 97.4461 37.3976 97.5475 37.3038C97.6586 37.2104 97.8077 37.1478 97.9946 37.116C98.1526 37.0733 98.4026 37.0538 98.7445 37.0573C99.0966 37.0515 99.4434 37.0552 99.7849 37.0685C100.136 37.0822 100.38 37.1015 100.516 37.1263C100.72 37.1441 100.86 37.1886 100.936 37.26C101.011 37.3313 101.054 37.4796 101.065 37.7048C101.082 38.0182 101.082 38.3896 101.065 38.819C101.058 39.2487 101.039 39.6193 101.007 39.9308C100.994 40.028 100.971 40.1102 100.939 40.1774C100.917 40.2449 100.864 40.3455 100.781 40.479C100.677 40.6314 100.478 40.8533 100.183 41.1448C99.8887 41.4265 99.462 41.7177 98.903 42.0184C98.3444 42.3094 97.6264 42.5502 96.7492 42.7407C95.8817 42.9317 94.8186 43.0027 93.5598 42.9536C92.2132 42.9011 90.961 42.6813 89.8033 42.2941C88.646 41.8972 87.6394 41.2716 86.7833 40.4173C85.937 39.5633 85.2922 38.429 84.8489 37.0142C84.4154 35.5997 84.2394 33.8484 84.3207 31.7601C84.4113 29.4376 84.8882 27.4821 85.7515 25.8934C86.6249 24.2954 87.8198 23.1007 89.3362 22.3096C90.8525 21.5184 92.6255 21.1624 94.6552 21.2415C96.0799 21.297 97.2159 21.4879 98.0632 21.8141C98.9203 22.1407 99.5655 22.5128 99.9988 22.9304C100.432 23.3382 100.736 23.6921 100.91 23.9921C100.974 24.1021 101.019 24.2016 101.045 24.2905C101.071 24.3697 101.086 24.4974 101.089 24.6734C101.109 24.9087 101.101 25.2505 101.064 25.6986C101.036 26.1471 100.987 26.541 100.915 26.8802C100.868 27.0934 100.799 27.2324 100.708 27.2973C100.668 27.3348 100.598 27.3663 100.499 27.3917C100.401 27.4172 100.254 27.4262 100.058 27.4185C99.7461 27.4064 99.3952 27.3829 99.0057 27.3482C98.6165 27.3037 98.3249 27.263 98.1308 27.2261C97.8982 27.178 97.7295 27.1177 97.6248 27.0452C97.5205 26.9629 97.4177 26.8416 97.3165 26.6813C97.1507 26.4208 96.8596 26.1162 96.4432 25.7677C96.0268 25.4192 95.3258 25.2257 94.3402 25.1873C92.9545 25.1333 91.7919 25.6255 90.8523 26.6639C89.9131 27.6926 89.3969 29.4023 89.3037 31.7931C89.2109 34.1741 89.6105 35.9586 90.5024 37.1465C91.404 38.3349 92.5331 38.9555 93.8895 39.0084ZM110.949 43.6313C108.49 43.5355 106.569 42.8058 105.185 41.4423C103.802 40.0788 103.16 38.1041 103.261 35.5182C103.364 32.8639 104.183 30.9119 105.718 29.6621C107.262 28.403 109.278 27.8219 111.767 27.9188C114.167 28.0124 116.064 28.7363 117.458 30.0904C118.852 31.4348 119.5 33.3658 119.402 35.8834C119.299 38.5083 118.499 40.4806 117.001 41.8002C115.504 43.1199 113.486 43.7302 110.949 43.6313ZM111.233 40.0948C112.307 40.1367 113.13 39.8364 113.702 39.1942C114.275 38.5422 114.593 37.4062 114.656 35.7864C114.716 34.2446 114.48 33.1506 113.948 32.5044C113.426 31.8488 112.624 31.4999 111.541 31.4577C110.497 31.417 109.659 31.7264 109.027 32.3859C108.406 33.036 108.065 34.1222 108.006 35.6445C107.944 37.235 108.183 38.3634 108.724 39.0295C109.275 39.696 110.111 40.0511 111.233 40.0948ZM136.181 30.7761C136.559 30.3511 137.132 29.9483 137.899 29.5677C138.676 29.1778 139.753 29.0096 141.129 29.0632C143.081 29.1393 144.471 29.6968 145.3 30.7358C146.13 31.7747 146.505 33.2993 146.427 35.3095L146.094 43.8577C146.082 44.1504 146.011 44.3529 145.879 44.465C145.758 44.5678 145.551 44.6135 145.258 44.6021L142.243 44.4845C141.95 44.4731 141.743 44.4113 141.62 44.299C141.507 44.1773 141.457 43.9701 141.468 43.6774L141.772 35.8903C141.814 34.7974 141.645 34.009 141.263 33.525C140.882 33.0312 140.291 32.7688 139.491 32.7376C138.778 32.7098 138.206 32.8488 137.774 33.1544C137.352 33.4507 137.042 33.8638 136.846 34.3936L136.492 43.4834C136.48 43.7762 136.409 43.9786 136.277 44.0908C136.156 44.1936 135.949 44.2392 135.656 44.2278L132.641 44.1103C132.348 44.0989 132.141 44.037 132.018 43.9248C131.905 43.8031 131.855 43.5959 131.866 43.3032L132.17 35.5161C132.211 34.4524 132.022 33.6681 131.602 33.1631C131.182 32.6581 130.615 32.3917 129.903 32.3639C129.23 32.3377 128.682 32.4824 128.259 32.7982C127.836 33.1141 127.503 33.5213 127.258 34.02L126.904 43.1098C126.893 43.4025 126.821 43.605 126.69 43.7171C126.569 43.8199 126.362 43.8656 126.069 43.8542L123.054 43.7366C122.761 43.7252 122.553 43.6634 122.43 43.5511C122.318 43.4294 122.267 43.2222 122.279 42.9295L122.757 30.6634C122.766 30.4292 122.822 30.2506 122.924 30.1275C123.14 29.8623 123.395 29.5937 123.689 29.3217C123.993 29.0501 124.36 28.7615 124.793 28.4559C124.923 28.3632 125.047 28.3192 125.164 28.3237C125.272 28.3279 125.392 28.3815 125.524 28.4844C125.922 28.8224 126.261 29.1435 126.542 29.4476C126.824 29.7518 127.071 30.0643 127.283 30.3854L127.356 30.3882C127.704 29.9815 128.238 29.587 128.956 29.2045C129.675 28.822 130.688 28.6563 131.995 28.7073C133.244 28.7559 134.164 28.9824 134.754 29.3865C135.345 29.7809 135.82 30.2441 136.181 30.7761ZM163.962 31.8589C164.34 31.4339 164.913 31.0311 165.681 30.6505C166.458 30.2606 167.535 30.0924 168.911 30.146C170.862 30.2221 172.253 30.7796 173.082 31.8185C173.911 32.8575 174.287 34.3821 174.209 36.3923L173.875 44.9404C173.864 45.2332 173.793 45.4356 173.661 45.5478C173.54 45.6506 173.333 45.6963 173.04 45.6849L170.025 45.5673C169.732 45.5559 169.524 45.4941 169.402 45.3818C169.289 45.2601 169.239 45.0529 169.25 44.7602L169.553 36.9731C169.596 35.8802 169.426 35.0917 169.045 34.6078C168.663 34.114 168.072 33.8515 167.272 33.8204C166.56 33.7926 165.988 33.9315 165.555 34.2372C165.133 34.5335 164.824 34.9466 164.628 35.4764L164.273 44.5662C164.262 44.859 164.19 45.0614 164.059 45.1736C163.938 45.2763 163.731 45.322 163.438 45.3106L160.423 45.1931C160.13 45.1817 159.922 45.1198 159.8 45.0075C159.687 44.8859 159.636 44.6787 159.648 44.3859L159.951 36.5989C159.993 35.5352 159.804 34.7509 159.383 34.2459C158.963 33.7408 158.397 33.4745 157.685 33.4467C157.011 33.4204 156.463 33.5652 156.041 33.881C155.618 34.1968 155.284 34.6041 155.04 35.1028L154.686 44.1925C154.674 44.4853 154.603 44.6877 154.472 44.7999C154.35 44.9027 154.143 44.9484 153.851 44.9369L150.835 44.8194C150.543 44.808 150.335 44.7462 150.212 44.6339C150.1 44.5122 150.049 44.305 150.06 44.0123L150.539 31.7462C150.548 31.512 150.603 31.3334 150.706 31.2103C150.922 30.9451 151.176 30.6765 151.47 30.4045C151.774 30.1329 152.142 29.8443 152.574 29.5386C152.705 29.446 152.829 29.402 152.946 29.4065C153.053 29.4107 153.173 29.4643 153.306 29.5672C153.703 29.9052 154.043 30.2262 154.324 30.5304C154.605 30.8345 154.852 31.1471 155.064 31.4681L155.138 31.471C155.486 31.0643 156.019 30.6698 156.738 30.2873C157.456 29.9048 158.469 29.7391 159.777 29.79C161.026 29.8387 161.946 30.0651 162.536 30.4693C163.126 30.8637 163.602 31.3269 163.962 31.8589ZM185.146 46.5231C183.496 46.4589 182.072 46.1395 180.873 45.565C179.674 44.9808 178.76 44.1144 178.13 42.966C177.501 41.8176 177.221 40.3553 177.29 38.5793C177.394 35.9153 178.155 33.9269 179.575 32.614C180.994 31.3011 182.836 30.6888 185.1 30.777C186.573 30.8344 187.807 31.1464 188.801 31.7129C189.805 32.2798 190.553 33.037 191.044 33.9845C191.544 34.9325 191.771 36.0017 191.725 37.1922C191.68 38.3535 191.35 39.1518 190.737 39.5872C190.124 40.0227 189.247 40.2181 188.105 40.1736L181.826 39.9289C181.864 40.937 182.201 41.7173 182.834 42.2697C183.477 42.8225 184.364 43.121 185.496 43.1651C186.394 43.2001 187.116 43.0963 187.663 42.8538C188.22 42.6018 188.609 42.402 188.83 42.2542C189.021 42.1248 189.233 42.0696 189.467 42.0885C189.652 42.0957 189.914 42.145 190.253 42.2364C190.602 42.3184 190.943 42.4636 191.277 42.6721C191.516 42.8085 191.631 42.9889 191.622 43.2133C191.617 43.3402 191.586 43.5197 191.528 43.752C191.493 43.8875 191.437 44.0856 191.358 44.3465C191.28 44.5975 191.183 44.8332 191.067 45.0534C191.004 45.1585 190.907 45.2573 190.777 45.35C190.576 45.479 190.252 45.6471 189.804 45.8545C189.366 46.0622 188.768 46.2343 188.01 46.3709C187.252 46.5173 186.297 46.568 185.146 46.5231ZM181.913 36.9271L186.685 37.1131C187.183 37.1325 187.44 36.9129 187.458 36.4542C187.485 35.7614 187.288 35.1722 186.868 34.6867C186.457 34.1918 185.817 33.9274 184.949 33.8936C184.002 33.8567 183.293 34.132 182.82 34.7195C182.358 35.3074 182.055 36.0433 181.913 36.9271ZM209.441 37.7654L209.107 46.3136C209.096 46.6064 209.025 46.8088 208.893 46.921C208.772 47.0237 208.565 47.0694 208.272 47.058L205.257 46.9405C204.964 46.9291 204.756 46.8672 204.634 46.755C204.521 46.6333 204.471 46.4261 204.482 46.1333L204.786 38.3463C204.827 37.2826 204.633 36.4981 204.203 35.9927C203.773 35.4873 203.173 35.2196 202.402 35.1895C201.631 35.1595 201.029 35.3022 200.597 35.6176C200.174 35.9334 199.84 36.3406 199.596 36.8393L199.242 45.9291C199.23 46.2219 199.159 46.4243 199.028 46.5365C198.906 46.6392 198.699 46.6849 198.407 46.6735L195.391 46.556C195.099 46.5446 194.891 46.4827 194.768 46.3704C194.656 46.2488 194.605 46.0416 194.616 45.7488L195.095 33.4828C195.104 33.2486 195.159 33.0699 195.262 32.9469C195.478 32.6816 195.732 32.413 196.026 32.1411C196.33 31.8695 196.698 31.5809 197.13 31.2752C197.261 31.1826 197.385 31.1385 197.502 31.1431C197.609 31.1473 197.729 31.2008 197.862 31.3037C198.259 31.6417 198.599 31.9628 198.88 32.267C199.161 32.5711 199.408 32.8837 199.621 33.2047L199.694 33.2076C199.868 32.9993 200.126 32.7602 200.469 32.4901C200.812 32.2103 201.286 31.9698 201.89 31.7686C202.504 31.5677 203.279 31.4855 204.216 31.522C205.133 31.5578 205.999 31.7772 206.814 32.1804C207.629 32.5835 208.283 33.2345 208.776 34.1333C209.278 35.0324 209.5 36.2431 209.441 37.7654ZM218.65 47.829C215.391 47.702 213.827 45.9454 213.959 42.5593L214.227 35.6944L212.573 35.6299C212.28 35.6185 212.078 35.552 211.965 35.4303C211.863 35.2993 211.817 35.0874 211.829 34.7946L211.899 32.9942C211.91 32.7015 211.972 32.4987 212.084 32.3858C212.206 32.2635 212.413 32.208 212.706 32.2194L214.36 32.2839L214.452 29.9273C214.461 29.6931 214.517 29.5145 214.619 29.3914C215.05 28.8707 215.673 28.3135 216.488 27.7197C216.628 27.6275 216.752 27.5834 216.859 27.5876C216.976 27.5922 217.091 27.6455 217.205 27.7477C217.612 28.0861 217.951 28.4023 218.223 28.6963C218.505 28.9907 218.743 29.2785 218.937 29.5597C219.03 29.6904 219.072 29.8728 219.063 30.107L218.971 32.4636L221.561 32.5646C221.854 32.576 222.052 32.6472 222.154 32.7783C222.267 32.8999 222.317 33.1071 222.306 33.3999L222.236 35.2003C222.224 35.493 222.158 35.7005 222.036 35.8228C221.924 35.9357 221.721 35.9865 221.429 35.9751L218.838 35.8741L218.602 41.9339C218.541 43.4953 219.076 44.298 220.208 44.3421C220.384 44.3489 220.545 44.3406 220.693 44.317C220.841 44.2837 220.969 44.2496 221.078 44.2147C221.286 44.1447 221.429 44.1209 221.506 44.1435C221.593 44.1664 221.667 44.2768 221.728 44.4746L222.488 46.7765C222.567 47.0239 222.501 47.1972 222.292 47.2966C222.143 47.3592 221.782 47.4722 221.209 47.6355C220.645 47.809 219.792 47.8735 218.65 47.829Z" fill="white"/>
</svg>
