<svg width="46" height="48" viewBox="0 0 46 48" fill="none" xmlns="http://www.w3.org/2000/svg">
<path d="M42.57 23.676C41.11 19.196 41.21 14.426 38.02 10.246C34.55 5.70598 29.13 2.87598 23.39 2.87598C16.91 2.87598 11.09 6.43598 7.77998 11.946C6.11998 14.706 5.10998 17.846 4.79998 21.046C4.59998 23.136 4.54998 23.796 3.48998 25.626C2.49998 27.346 1.91998 29.286 1.91998 31.276C1.91998 39.586 11.53 46.326 23.38 46.326C35.23 46.326 44.84 39.586 44.84 31.276C44.84 29.576 44.44 27.796 43.65 26.286C43.2 25.426 42.85 24.556 42.57 23.666V23.676Z" fill="#FFC199" stroke="#7A3F3E" stroke-width="2.29" stroke-linecap="round" stroke-linejoin="round"/>
<g style="mix-blend-mode:multiply" opacity="0.3">
<path d="M33.45 29.016C36.89 37.316 28.86 43.206 20.65 41.806C15.18 41.026 10.45 36.966 11.66 31.326C12.72 26.486 17.31 21.756 22.57 21.536C27.33 21.396 31.63 24.906 33.43 28.966L33.45 29.006V29.016Z" fill="#75778F"/>
</g>
<path d="M18.2 27.5859C18.2 27.5859 19.83 28.0459 20.65 29.8959" stroke="#7A3F3E" stroke-width="1.53" stroke-miterlimit="10" stroke-linecap="round"/>
<path d="M26.63 27.5859C26.63 27.5859 25 28.0459 24.18 29.8959" stroke="#7A3F3E" stroke-width="1.53" stroke-miterlimit="10" stroke-linecap="round"/>
<path d="M18.25 36.106C18.25 36.106 21.88 39.176 22.36 32.616" stroke="#7A3F3E" stroke-width="1.53" stroke-miterlimit="10" stroke-linecap="round"/>
<path d="M26.75 36.106C26.75 36.106 22.5 38.796 22.64 32.616" stroke="#7A3F3E" stroke-width="1.53" stroke-miterlimit="10" stroke-linecap="round"/>
<path d="M13.11 6.27599C13.11 6.27599 10.71 -0.524008 6.00996 3.24599C6.00996 3.24599 2.33996 7.29599 6.00996 8.32599C6.00996 8.32599 9.58996 8.60599 9.58996 9.07599L13.12 6.27599H13.11Z" fill="#A3836F" stroke="#7A3F3E" stroke-width="2.29" stroke-miterlimit="10" stroke-linecap="round"/>
<path d="M13.28 6.42603C13.28 6.42603 10.73 -0.80397 5.72998 3.20603C5.72998 3.20603 1.82998 7.50603 5.72998 8.60603C5.72998 8.60603 9.52998 8.90603 9.52998 9.40603L13.28 6.42603Z" fill="#876A58"/>
<path d="M13.11 6.27599C13.11 6.27599 10.71 -0.524008 6.00996 3.24599C6.00996 3.24599 2.33996 7.29599 6.00996 8.32599C6.00996 8.32599 9.58996 8.60599 9.58996 9.07599L13.12 6.27599H13.11Z" stroke="#7A3F3E" stroke-width="2.29" stroke-miterlimit="10" stroke-linecap="round"/>
<path d="M34.71 6.27599C34.71 6.27599 37.11 -0.524008 41.81 3.24599C41.81 3.24599 45.48 7.29599 41.81 8.32599C41.81 8.32599 38.23 8.60599 38.23 9.07599L34.7 6.27599H34.71Z" fill="#A3836F" stroke="#7A3F3E" stroke-width="2.29" stroke-miterlimit="10" stroke-linecap="round"/>
<path d="M34.54 6.42603C34.54 6.42603 37.09 -0.80397 42.09 3.20603C42.09 3.20603 45.99 7.50603 42.09 8.60603C42.09 8.60603 38.29 8.90603 38.29 9.40603L34.54 6.42603Z" fill="#876A58"/>
<path d="M34.71 6.27599C34.71 6.27599 37.11 -0.524008 41.81 3.24599C41.81 3.24599 45.48 7.29599 41.81 8.32599C41.81 8.32599 38.23 8.60599 38.23 9.07599L34.7 6.27599H34.71Z" stroke="#7A3F3E" stroke-width="2.29" stroke-miterlimit="10" stroke-linecap="round"/>
<path d="M9.88998 19.2261H16.39" stroke="#7A3F3E" stroke-width="2.29" stroke-linecap="round" stroke-linejoin="round"/>
<path d="M30.06 19.2261H36.56" stroke="#7A3F3E" stroke-width="2.29" stroke-linecap="round" stroke-linejoin="round"/>
<path d="M20.25 36.8459L20.48 39.7159L23.98 39.8259L24.67 36.7759L22.34 35.8359L20.25 36.8459Z" fill="white" stroke="#7A3F3E" stroke-width="1.53" stroke-miterlimit="10" stroke-linecap="round"/>
</svg>
