<svg width="466" height="123" viewBox="0 0 466 123" fill="none" xmlns="http://www.w3.org/2000/svg">
<path d="M42.632 34.8151C42.632 34.8151 38.6887 23.6282 30.9554 29.8213C30.9554 29.8213 24.9236 36.4817 30.9554 38.1853C30.9554 38.1853 36.8337 38.6527 36.8337 39.4276L42.632 34.8151Z" fill="#E59057"/>
<path d="M34.7944 43.6527V40.7376C33.83 40.5469 32.2637 40.3378 30.7896 40.221L30.593 40.2087L30.4026 40.1533C27.7307 39.3969 26.7663 37.8225 26.4224 36.6355C25.415 33.13 28.7626 29.2063 29.4444 28.456L29.684 28.2346C32.276 26.1559 34.862 25.4671 37.368 26.1867C42.1099 27.5458 44.3212 33.4683 44.5607 34.1386L45.046 35.5101L34.8067 43.6588L34.7944 43.6527ZM31.3301 36.1743C33.6335 36.3588 35.3902 36.5863 36.6248 36.9861L40.1321 34.194C39.352 32.6503 37.9639 30.5962 36.2317 30.1042C35.0892 29.7783 33.8178 30.1719 32.3559 31.3158C31.1888 32.6565 30.0894 34.6675 30.335 35.5101C30.4272 35.8299 30.9739 36.0574 31.3301 36.1743Z" fill="#7A3F3E"/>
<g style="mix-blend-mode:multiply" opacity="0.3">
<path d="M42.9023 35.0611C42.9023 35.0611 38.7132 23.1609 30.4825 29.7537C30.4825 29.7537 24.0637 36.8385 30.4825 38.6466C30.4825 38.6466 36.7354 39.1386 36.7354 39.9627L42.9023 35.0611Z" fill="#E59057"/>
</g>
<path d="M39.8925 37.3613C39.395 37.3613 38.9221 37.0845 38.6948 36.6048C36.6862 32.3982 34.002 33.4622 33.701 33.5975C33.0377 33.8988 32.2515 33.6098 31.9443 32.9517C31.6372 32.2937 31.9075 31.5126 32.5586 31.1928C32.7551 31.0944 34.5548 30.2765 36.7415 31.0452C38.5351 31.6725 39.997 33.1608 41.0964 35.4548C41.4097 36.119 41.1333 36.9123 40.4699 37.226C40.2857 37.3121 40.0891 37.3551 39.8987 37.3551L39.8925 37.3613Z" fill="#7A3F3E"/>
<path d="M79.222 37.109C79.222 37.109 83.7367 29.7105 90.9908 30.9467C93.9084 31.4448 97.1946 32.7855 98.1958 35.9159C99.197 39.0462 97.6245 42.933 94.4244 44.12C88.7673 46.2171 89.7255 41.8937 86.0462 44.1999" fill="#E59057"/>
<path d="M75.7455 34.9811C75.1558 35.9405 75.4629 37.2012 76.4211 37.7855C77.3794 38.3759 78.6385 38.0684 79.2221 37.109C79.2221 37.109 83.7367 29.7105 90.9908 30.9467C93.9084 31.4448 97.1946 32.7855 98.1958 35.9159C99.2154 39.1077 97.6246 42.933 94.4244 44.12C91.4638 45.2208 90.3152 44.5566 89.3631 44.0093C89.2095 43.9232 89.0621 43.8371 88.9147 43.7633L87.0904 47.4102C87.1703 47.4471 87.244 47.4963 87.3238 47.5394C89.2771 48.6648 91.6542 49.4951 95.8371 47.9453C101.003 46.0265 103.804 40.0733 102.078 34.6736C100.776 30.5961 97.084 27.8471 91.6726 26.9246C83.7981 25.5839 77.9567 31.3587 75.7455 34.9811ZM88.4909 47.4963L86.9491 43.7202C86.6789 43.8309 86.3779 43.9908 86.0401 44.1999C85.088 44.7965 84.7993 46.0572 85.3951 47.0105C85.9909 47.9637 87.2501 48.2528 88.2022 47.6562C88.3987 47.5332 88.4847 47.4963 88.4909 47.4963ZM87.9381 43.4988C87.6555 43.4988 87.3361 43.5603 86.9553 43.7202L87.8459 45.8973L88.9147 43.7571C88.6137 43.6095 88.3066 43.4988 87.9381 43.4988ZM87.8398 45.8973L87.0843 47.4041C87.3238 47.5209 87.6494 47.5763 87.9442 47.5763C88.1592 47.5763 88.3619 47.5455 88.4909 47.4902L87.8398 45.8912V45.8973Z" fill="#7A3F3E"/>
<path d="M81.7896 40.6946C81.5869 40.6946 81.378 40.6454 81.1815 40.547C80.5304 40.2088 80.2724 39.4093 80.6102 38.7574C82.1028 35.8484 86.4516 30.8854 92.1947 32.9026C92.8888 33.1424 93.2512 33.905 93.0116 34.6C92.7659 35.2949 92.0104 35.6578 91.3164 35.4118C86.3226 33.659 83.104 39.7106 82.9689 39.9751C82.7293 40.4302 82.2687 40.6946 81.7896 40.6946Z" fill="#7A3F3E"/>
<g style="mix-blend-mode:multiply" opacity="0.3">
<path d="M79.222 37.109C79.222 37.109 83.7367 29.7105 90.9908 30.9467C93.9084 31.4448 97.1946 32.7855 98.1958 35.9159C99.197 39.0462 97.6245 42.933 94.4244 44.12C88.7673 46.2171 89.7255 41.8937 86.0462 44.1999" fill="#E59057"/>
</g>
<path d="M34.7944 43.6527V40.7376C33.83 40.5469 32.2637 40.3378 30.7896 40.221L30.593 40.2087L30.4026 40.1533C27.7307 39.3969 26.7663 37.8225 26.4224 36.6355C25.415 33.13 28.7626 29.2063 29.4444 28.456L29.684 28.2346C32.276 26.1559 34.862 25.4671 37.368 26.1867C42.1099 27.5458 44.3212 33.4683 44.5607 34.1386L45.046 35.5101L34.8067 43.6588L34.7944 43.6527ZM31.3301 36.1743C33.6335 36.3588 35.3902 36.5863 36.6248 36.9861L40.1321 34.194C39.352 32.6503 37.9639 30.5962 36.2317 30.1042C35.0892 29.7783 33.8178 30.1719 32.3559 31.3158C31.1888 32.6565 30.0894 34.6675 30.335 35.5101C30.4272 35.8299 30.9739 36.0574 31.3301 36.1743Z" fill="#7A3F3E"/>
<path d="M98.0299 81.0876C99.7559 75.1529 98.8653 68.3325 96.7584 62.6622C89.2279 42.441 81.2121 37.1459 81.2121 37.1459C66.6241 25.59 47.1958 33.2283 47.1958 33.2283C47.1958 33.2283 33.5843 36.0143 24.2971 58.4741C20.8389 66.8442 14.7457 75.9032 19.5183 85.2327C23.2037 92.4405 33.9529 95.7492 41.1333 97.7972C52.1834 100.946 64.7015 101.543 75.727 97.994C83.7674 95.4048 92.2929 92.7419 96.5435 84.7776C97.17 83.603 97.6614 82.3668 98.0299 81.0938V81.0876Z" fill="#E59057"/>
<path d="M59.4375 102.459C53.2829 102.459 46.8948 101.561 40.5743 99.7591C34.0634 97.9018 21.9446 94.4516 17.7064 86.1676C13.3146 77.5822 17.1167 69.335 20.4766 62.0596C21.1768 60.5467 21.834 59.1199 22.4175 57.6992C31.5266 35.6576 44.788 31.7155 46.6 31.2727C48.6147 30.5101 67.6191 23.825 82.4222 35.5039C83.3988 36.1927 91.3225 42.232 98.6687 61.9489C101.187 68.7016 101.666 75.8848 99.9893 81.6535C99.5716 83.0926 99.0188 84.464 98.3432 85.7248C93.7548 94.3286 84.658 97.256 76.63 99.8329L76.3474 99.9251C71.1141 101.61 65.3833 102.453 59.4375 102.453V102.459ZM61.6058 32.8225C54.0077 32.8225 48.0434 35.0918 47.939 35.1287C47.8346 35.1718 47.7179 35.2025 47.6073 35.2271C47.5889 35.2271 44.4256 35.9528 40.2365 39.2308C36.3423 42.2812 30.7404 48.2344 26.1828 59.2552C25.5624 60.7496 24.8561 62.281 24.1743 63.7631C20.9188 70.8172 17.8415 77.4776 21.3303 84.298C24.7639 91.0015 35.771 94.1441 41.6861 95.8292C53.3443 99.1502 65.2113 99.224 75.1005 96.0445L75.3831 95.9522C83.0303 93.4922 90.9355 90.9523 94.7438 83.806C95.2843 82.7912 95.7327 81.6842 96.0705 80.5157C97.5078 75.5711 97.0594 69.3227 94.842 63.3757C87.7108 44.2246 80.1434 38.8925 80.0697 38.8433C80.0328 38.8187 79.9775 38.7818 79.9407 38.7511C74.1177 34.1386 67.3857 32.8225 61.5996 32.8225H61.6058Z" fill="#7A3F3E"/>
<path d="M32.362 84.2734C32.0856 84.2734 31.8031 84.1935 31.5574 84.0213C30.9063 83.5785 30.7466 82.6867 31.1888 82.041C33.3325 78.9168 36.8029 78.4924 36.9504 78.474C37.7366 78.3817 38.4368 78.9475 38.5228 79.7286C38.6088 80.5096 38.056 81.2107 37.2759 81.303C37.2145 81.3091 34.9111 81.6412 33.5352 83.6523C33.2588 84.052 32.8104 84.2734 32.362 84.2734Z" fill="#7A3F3E"/>
<path d="M30.1016 94.3594C29.3707 94.3594 28.7749 93.7628 28.7749 93.031V84.8023C28.7749 84.0643 29.3707 83.4739 30.1016 83.4739C30.8326 83.4739 31.4284 84.0704 31.4284 84.8023V93.031C31.4284 93.769 30.8326 94.3594 30.1016 94.3594Z" fill="#7A3F3E"/>
<path d="M17.9766 79.1505C17.7739 79.1505 17.5712 79.1074 17.3808 79.009L11.6193 76.1247C10.9621 75.7987 10.6979 74.9992 11.0235 74.3412C11.349 73.6831 12.1475 73.4187 12.8048 73.7446L18.5663 76.629C19.2235 76.9549 19.4877 77.7544 19.1621 78.4125C18.9287 78.8799 18.4619 79.1505 17.9705 79.1505H17.9766Z" fill="#7A3F3E"/>
<path d="M17.7555 82.0347H11.5517C10.8208 82.0347 10.225 81.4382 10.225 80.7063C10.225 79.9745 10.8208 79.3779 11.5517 79.3779H17.7555C18.4864 79.3779 19.0823 79.9745 19.0823 80.7063C19.0823 81.4382 18.4864 82.0347 17.7555 82.0347Z" fill="#7A3F3E"/>
<path d="M12.2151 87.8036C11.7114 87.8036 11.2385 87.5207 11.0112 87.0349C10.6979 86.3707 10.9866 85.5773 11.6562 85.2637L18.3022 82.1579C18.9717 81.8504 19.7579 82.1333 20.0712 82.8037C20.3844 83.4679 20.0958 84.2612 19.4262 84.5749L12.7802 87.6806C12.5959 87.7667 12.4055 87.8036 12.2213 87.8036H12.2151Z" fill="#7A3F3E"/>
<path d="M52.0544 80.0853C51.5692 80.0853 51.0962 79.8147 50.8628 79.3473C50.5372 78.6893 50.8014 77.8898 51.4586 77.5638L57.2201 74.6795C57.8774 74.3474 58.6759 74.618 59.0014 75.276C59.327 75.9341 59.0628 76.7336 58.4056 77.0595L52.6441 79.9439C52.4537 80.0423 52.251 80.0853 52.0483 80.0853H52.0544Z" fill="#7A3F3E"/>
<path d="M58.4793 82.9695H52.2755C51.5446 82.9695 50.9488 82.373 50.9488 81.6411C50.9488 80.9093 51.5446 80.3127 52.2755 80.3127H58.4793C59.2103 80.3127 59.8061 80.9093 59.8061 81.6411C59.8061 82.373 59.2103 82.9695 58.4793 82.9695Z" fill="#7A3F3E"/>
<path d="M57.8159 88.7384C57.6255 88.7384 57.4351 88.6953 57.257 88.6154L50.611 85.5096C49.9476 85.196 49.6589 84.4088 49.966 83.7384C50.2793 83.0742 51.0655 82.7852 51.735 83.0927L58.381 86.1984C59.0444 86.5121 59.3331 87.2993 59.026 87.9696C58.7987 88.4555 58.3196 88.7384 57.8221 88.7384H57.8159Z" fill="#7A3F3E"/>
<path d="M63.8109 66.7336C66.121 66.7336 67.9938 64.6162 67.9938 62.0043C67.9938 59.3923 66.121 57.2749 63.8109 57.2749C61.5007 57.2749 59.6279 59.3923 59.6279 62.0043C59.6279 64.6162 61.5007 66.7336 63.8109 66.7336Z" fill="#7A3F3E"/>
<path d="M69.8734 63.1173C69.468 63.1173 69.1179 62.8098 69.0749 62.3978C68.7616 59.2797 67.2567 58.511 65.0946 58.3203C62.7237 58.0989 61.3908 60.2453 61.3355 60.3375C61.1021 60.7127 60.6107 60.8295 60.236 60.602C59.8613 60.3744 59.7385 59.8824 59.9658 59.5073C60.0395 59.3843 61.8576 56.4323 65.2359 56.7213C67.3489 56.912 70.2112 57.6869 70.6657 62.2379C70.7087 62.6807 70.3893 63.0743 69.9471 63.1173C69.9225 63.1173 69.8918 63.1173 69.8672 63.1173H69.8734Z" fill="#7A3F3E"/>
<path d="M61.8883 60.8972C61.4891 60.8972 61.0837 60.7558 60.7643 60.4667L57.8835 57.853C57.1956 57.2318 57.1464 56.174 57.7668 55.4852C58.3872 54.7964 59.4437 54.7472 60.1316 55.3684L63.0124 57.9821C63.7003 58.6033 63.7495 59.6611 63.1291 60.3499C62.7974 60.7127 62.3429 60.9034 61.8883 60.9034V60.8972Z" fill="#7A3F3E"/>
<path d="M23.2652 60.8972C22.8659 60.8972 22.4606 60.7558 22.1412 60.4667L19.2604 57.853C18.5724 57.2318 18.5233 56.174 19.1437 55.4852C19.7641 54.7964 20.8205 54.7472 21.5085 55.3684L24.3893 57.9821C25.0772 58.6033 25.1263 59.6611 24.506 60.3499C24.1743 60.7127 23.7197 60.9034 23.2652 60.9034V60.8972Z" fill="#7A3F3E"/>
<path d="M62.7851 61.752C63.3177 61.752 63.7495 61.2289 63.7495 60.5835C63.7495 59.9382 63.3177 59.415 62.7851 59.415C62.2525 59.415 61.8208 59.9382 61.8208 60.5835C61.8208 61.2289 62.2525 61.752 62.7851 61.752Z" fill="white"/>
<path d="M27.7245 83.8061C27.2147 83.8061 26.7295 83.5109 26.5084 83.0127C25.5379 80.8172 23.6583 80.2206 23.5785 80.2022C22.8844 79.9869 22.479 79.2489 22.6878 78.554C22.8967 77.8529 23.6153 77.447 24.3217 77.6499C24.4507 77.6868 27.4481 78.5725 28.9407 81.9427C29.2356 82.613 28.9407 83.4002 28.2651 83.6954C28.0869 83.7753 27.9088 83.8122 27.7245 83.8122V83.8061Z" fill="#7A3F3E"/>
<path d="M127.771 51.1863C121.954 52.2872 120.898 58.6955 122.182 65.4974C123.465 72.2993 126.641 77.1332 133.207 75.8909C135.05 75.5403 136.641 74.8208 137.826 74.1197C139.11 73.3386 140.154 72.5453 141.475 72.2931C143.778 71.8565 145.43 73.3386 145.811 75.3558C146.026 76.512 145.867 77.8527 144.564 79.175C142.365 81.4443 137.267 83.1848 133.932 83.8121C122.47 85.983 115.708 77.945 113.619 66.875C111.531 55.805 114.498 45.6329 125.959 43.4619C129.239 42.8408 132.501 43.0622 134.626 43.5542C137.746 44.2799 139.866 46.0265 140.793 49.6734L141.235 51.3831C142.095 54.6857 140.56 56.3462 138.434 56.7521C136.475 57.1211 134.522 56.2416 133.619 53.6648L132.839 51.4262C131.444 50.9711 129.399 50.885 127.784 51.1863H127.771Z" fill="#7A3F3E"/>
<path d="M155.596 51.2724C156.628 46.008 158.931 43.9846 163.311 43.6218C168.041 43.2282 170.289 44.8026 172.18 49.8886L182.291 77.3607C182.512 77.9326 182.536 78.2217 182.567 78.5722C182.764 80.9092 181.001 83.0617 178.605 83.2585C176.621 83.4246 174.822 82.2807 174.201 80.5095L172.021 74.095L159.699 75.1221L158.612 81.8071C158.299 83.6583 156.708 85.0851 154.724 85.2511C152.328 85.4541 150.234 83.6214 150.043 81.2844C150.013 80.9338 149.988 80.6386 150.117 80.0421L155.596 51.2662V51.2724ZM160.928 67.902L169.687 67.1701L164.251 51.3154L163.667 51.3646L160.928 67.902Z" fill="#7A3F3E"/>
<path d="M190.067 48.5479C190.257 46.2109 192.346 44.3782 194.741 44.575L203.5 45.2946C212.204 46.008 218.543 51.8874 217.83 60.5958C217.198 68.314 209.913 74.0151 201.209 73.3017L196.83 72.945L196.185 80.8416C195.994 83.1786 193.906 85.0113 191.449 84.8083C188.992 84.6054 187.291 82.4652 187.481 80.1282L190.061 48.5479H190.067ZM201.725 65.6388C205.871 65.977 208.863 63.2218 209.133 59.8885C209.471 55.7373 206.903 53.3511 202.757 53.0067L198.494 52.6561L197.462 65.2882L201.725 65.6388Z" fill="#7A3F3E"/>
<path d="M231.921 68.966L220.576 50.1962C220.048 49.3475 219.876 48.4803 219.845 48.0683C219.685 45.6083 221.676 43.7694 224.071 43.6157C225.883 43.4927 227.541 44.5628 228.414 46.211L235.858 60.2391L241.392 45.35C242.044 43.6034 243.192 42.3488 245.004 42.2319C247.4 42.072 249.617 43.6341 249.783 46.088C249.808 46.5 249.752 47.3856 249.341 48.2897L240.569 68.394L241.27 78.9905C241.423 81.3336 239.623 83.4492 237.228 83.6091C234.832 83.769 232.769 81.9056 232.615 79.5624L231.915 68.966H231.921Z" fill="#7A3F3E"/>
<path d="M263.616 51.3462L257.08 50.7128C254.979 50.5098 253.401 48.591 253.604 46.4877C253.806 44.3844 255.723 42.8039 257.823 43.0068L279.58 45.1101C281.68 45.3131 283.259 47.2319 283.056 49.3352C282.853 51.4385 280.937 53.019 278.836 52.8161L272.301 52.1826L269.586 80.3312C269.353 82.785 267.301 84.4701 264.795 84.2303C262.289 83.9904 260.661 81.9425 260.894 79.4948L263.609 51.3462H263.616Z" fill="#7A3F3E"/>
<path d="M286.293 50.6636C285.888 48.2897 287.466 46.0573 289.837 45.6514C292.202 45.2455 294.438 46.826 294.843 49.1938L298.48 70.4174C299.112 74.1197 301.538 77.1517 305.924 76.4014C310.254 75.6572 311.587 71.9795 310.955 68.2772L307.318 47.0536C306.913 44.6797 308.492 42.4472 310.863 42.0413C313.234 41.6354 315.463 43.216 315.869 45.5837L319.486 66.6905C320.856 74.6732 317.201 82.5022 307.263 84.2057C297.331 85.9093 291.281 79.747 289.911 71.7704L286.293 50.6636Z" fill="#7A3F3E"/>
<path d="M324.99 47.8962C324.849 45.5531 326.655 43.4436 329.05 43.296L340.69 42.5826C347.532 42.1644 353.828 46.2419 354.234 52.8039C354.449 56.3156 352.864 59.2368 349.873 61.1864C354.221 63.2097 356.199 66.6722 356.414 70.2453C356.807 76.6844 351.611 81.9426 344.123 82.4039L331.489 83.1788C329.093 83.3264 327.042 81.5121 326.894 79.1136L324.978 47.9024L324.99 47.8962ZM341.574 58.8678C344.087 58.7141 345.77 56.4324 345.628 54.1508C345.487 51.8691 343.54 49.7535 341.022 49.9073L333.884 50.3439L334.431 59.3045L341.568 58.8678H341.574ZM343.091 75.0546C346.193 74.864 347.821 72.7053 347.668 70.19C347.514 67.6746 345.628 65.6144 342.526 65.805L334.867 66.2786L335.432 75.5282L343.091 75.0546Z" fill="#7A3F3E"/>
<path d="M364.676 46.3157C364.94 43.868 367.004 42.2013 369.448 42.4658L387.28 44.3846C389.374 44.6121 390.934 46.5494 390.713 48.6465C390.492 50.7437 388.551 52.3058 386.456 52.0844L372.999 50.633L372.157 58.4496L382.12 59.5197C384.221 59.7473 385.781 61.623 385.56 63.7263C385.339 65.8296 383.398 67.3856 381.303 67.1642L371.34 66.0941L370.388 74.9624L383.846 76.4138C385.941 76.6413 387.501 78.5786 387.28 80.6757C387.058 82.7729 385.117 84.335 383.023 84.1136L365.192 82.1948C362.747 81.9303 361.082 79.8639 361.347 77.4162L364.688 46.3218L364.676 46.3157Z" fill="#7A3F3E"/>
<path d="M398.551 79.7715C399.804 79.7715 400.83 80.7678 400.83 82.0224C400.83 83.277 399.81 84.2733 398.551 84.2733C397.292 84.2733 396.303 83.277 396.303 82.0224C396.303 80.7678 397.322 79.7715 398.551 79.7715Z" fill="#7A3F3E"/>
<path d="M406.947 66.1248C407.863 66.1248 408.415 66.7029 408.778 67.3794L411.579 71.7274L414.116 67.3794C414.509 66.6967 415.086 66.1248 415.946 66.1248C417.045 66.1248 417.881 66.8874 417.881 67.9821C417.881 68.1666 417.832 68.5295 417.568 68.9784L413.827 75.2637L417.832 81.4691C418.04 81.8073 418.096 82.2808 418.096 82.4653C418.096 83.5662 417.23 84.3227 416.161 84.3227C415.246 84.3227 414.724 83.7199 414.331 83.1172L411.296 78.3756L408.495 83.1172C408.127 83.7445 407.525 84.3227 406.61 84.3227C405.535 84.3227 404.804 83.5109 404.804 82.5392C404.804 82.3055 404.859 81.8319 405.092 81.4383L409.017 74.864L405.252 68.9723C405.019 68.6033 404.988 68.1605 404.988 67.976C404.988 66.8751 405.903 66.1187 406.947 66.1187V66.1248Z" fill="#7A3F3E"/>
<path d="M426.179 77.6499L421.677 68.9538C421.468 68.5602 421.413 68.1666 421.413 67.9821C421.413 66.8812 422.352 66.1248 423.427 66.1248C424.238 66.1248 424.945 66.6475 425.282 67.4101L428.188 73.8799L431.093 67.4101C431.431 66.6537 431.984 66.1248 432.794 66.1248C433.869 66.1248 434.809 66.8874 434.809 67.9821C434.809 68.1666 434.754 68.5602 434.545 68.9538L430.043 77.6499V82.3915C430.043 83.437 429.177 84.3288 428.108 84.3288C427.039 84.3288 426.173 83.437 426.173 82.3915V77.6499H426.179Z" fill="#7A3F3E"/>
<path d="M442.088 70.5282C441.928 71.6291 441.277 72.281 440.306 72.281C439.336 72.281 438.452 71.6783 438.556 70.1592L438.66 68.6402C438.765 67.1211 439.422 66.3093 441.197 66.3093H448.494C449.962 66.3093 451.135 67.3548 451.135 68.8493C451.135 69.4274 450.871 70.2146 450.325 70.9464L443.077 80.688H449.305C450.245 80.688 451.031 81.4199 451.031 82.3916C451.031 83.3633 450.245 84.1443 449.305 84.1443H440.958C439.49 84.1443 438.316 83.0988 438.316 81.6044C438.316 81.0263 438.581 80.2391 439.127 79.5072L446.504 69.7656H442.186L442.082 70.5221L442.088 70.5282Z" fill="#7A3F3E"/>
</svg>
