<svg width="46" height="48" viewBox="0 0 46 48" fill="none" xmlns="http://www.w3.org/2000/svg">
<path d="M42.41 23.676C40.95 19.196 41.05 14.426 37.86 10.246C34.39 5.70598 28.97 2.87598 23.23 2.87598C16.75 2.87598 10.93 6.43598 7.62 11.946C5.96 14.706 4.95 17.846 4.64 21.046C4.44 23.136 4.39 23.796 3.33 25.626C2.34 27.346 1.76001 29.286 1.76001 31.276C1.76001 39.586 11.37 46.326 23.22 46.326C35.07 46.326 44.68 39.586 44.68 31.276C44.68 29.576 44.28 27.796 43.49 26.286C43.04 25.426 42.69 24.556 42.41 23.666V23.676Z" fill="url(#paint0_linear_78_785)" stroke="#7A3F3E" stroke-width="2.29" stroke-linecap="round" stroke-linejoin="round"/>
<g style="mix-blend-mode:multiply" opacity="0.3">
<path d="M33.29 29.016C36.73 37.316 28.7 43.206 20.49 41.806C15.02 41.026 10.29 36.966 11.5 31.326C12.56 26.486 17.15 21.756 22.41 21.536C27.17 21.396 31.47 24.906 33.27 28.966L33.29 29.006V29.016Z" fill="#75778F"/>
</g>
<path d="M18.05 27.5859C18.05 27.5859 19.68 28.0459 20.5 29.8959" stroke="#7A3F3E" stroke-width="1.53" stroke-miterlimit="10" stroke-linecap="round"/>
<path d="M26.48 27.5859C26.48 27.5859 24.85 28.0459 24.03 29.8959" stroke="#7A3F3E" stroke-width="1.53" stroke-miterlimit="10" stroke-linecap="round"/>
<path d="M18.1 40.686C18.1 40.686 22.44 41.216 22.21 32.616" stroke="#7A3F3E" stroke-width="1.53" stroke-miterlimit="10" stroke-linecap="round"/>
<path d="M26.59 40.686C26.59 40.686 22.25 41.216 22.48 32.616" stroke="#7A3F3E" stroke-width="1.53" stroke-miterlimit="10" stroke-linecap="round"/>
<path d="M12.96 6.27599C12.96 6.27599 10.56 -0.524008 5.85999 3.24599C5.85999 3.24599 2.18999 7.29599 5.85999 8.32599C5.85999 8.32599 9.43999 8.60599 9.43999 9.07599L12.97 6.27599H12.96Z" fill="#A3836F" stroke="#7A3F3E" stroke-width="2.29" stroke-miterlimit="10" stroke-linecap="round"/>
<path d="M13.12 6.42603C13.12 6.42603 10.57 -0.80397 5.57 3.20603C5.57 3.20603 1.67 7.50603 5.57 8.60603C5.57 8.60603 9.36999 8.90603 9.36999 9.40603L13.12 6.42603Z" fill="#876A58"/>
<path d="M12.96 6.27599C12.96 6.27599 10.56 -0.524008 5.85999 3.24599C5.85999 3.24599 2.18999 7.29599 5.85999 8.32599C5.85999 8.32599 9.43999 8.60599 9.43999 9.07599L12.97 6.27599H12.96Z" stroke="#7A3F3E" stroke-width="2.29" stroke-miterlimit="10" stroke-linecap="round"/>
<path d="M34.55 6.27599C34.55 6.27599 36.95 -0.524008 41.65 3.24599C41.65 3.24599 45.32 7.29599 41.65 8.32599C41.65 8.32599 38.07 8.60599 38.07 9.07599L34.54 6.27599H34.55Z" fill="#A3836F" stroke="#7A3F3E" stroke-width="2.29" stroke-miterlimit="10" stroke-linecap="round"/>
<path d="M34.39 6.42603C34.39 6.42603 36.94 -0.80397 41.94 3.20603C41.94 3.20603 45.84 7.50603 41.94 8.60603C41.94 8.60603 38.14 8.90603 38.14 9.40603L34.39 6.42603Z" fill="#876A58"/>
<path d="M34.55 6.27599C34.55 6.27599 36.95 -0.524008 41.65 3.24599C41.65 3.24599 45.32 7.29599 41.65 8.32599C41.65 8.32599 38.07 8.60599 38.07 9.07599L34.54 6.27599H34.55Z" stroke="#7A3F3E" stroke-width="2.29" stroke-miterlimit="10" stroke-linecap="round"/>
<path d="M10.01 18.0161L16.47 20.7861" stroke="#7A3F3E" stroke-width="2.29" stroke-linecap="round" stroke-linejoin="round"/>
<path d="M35.4 18.0161L28.94 20.7861" stroke="#7A3F3E" stroke-width="2.29" stroke-linecap="round" stroke-linejoin="round"/>
<path d="M15.58 23.5059C16.5686 23.5059 17.37 22.5747 17.37 21.4259C17.37 20.2772 16.5686 19.3459 15.58 19.3459C14.5914 19.3459 13.79 20.2772 13.79 21.4259C13.79 22.5747 14.5914 23.5059 15.58 23.5059Z" fill="#7A3F3E"/>
<path d="M29.85 23.5059C30.8386 23.5059 31.64 22.5747 31.64 21.4259C31.64 20.2772 30.8386 19.3459 29.85 19.3459C28.8614 19.3459 28.06 20.2772 28.06 21.4259C28.06 22.5747 28.8614 23.5059 29.85 23.5059Z" fill="#7A3F3E"/>
<defs>
<linearGradient id="paint0_linear_78_785" x1="23.23" y1="46.326" x2="23.23" y2="2.87598" gradientUnits="userSpaceOnUse">
<stop stop-color="#FFCA95"/>
<stop offset="1" stop-color="#C93C00"/>
</linearGradient>
</defs>
</svg>
