<svg width="160" height="161" viewBox="0 0 160 161" fill="none" xmlns="http://www.w3.org/2000/svg">
<g clip-path="url(#clip0_209_1401)">
<path d="M80.0001 149.76C118.022 149.76 148.845 118.937 148.845 80.9146C148.845 42.8924 118.022 12.0693 80.0001 12.0693C41.9779 12.0693 11.1548 42.8924 11.1548 80.9146C11.1548 118.937 41.9779 149.76 80.0001 149.76Z" fill="#FCC749"/>
<path d="M80 160.915C35.8934 160.915 0 125.022 0 80.915C0 36.8084 35.8934 0.915039 80 0.915039C124.107 0.915039 160 36.8084 160 80.915C160 125.022 124.107 160.915 80 160.915ZM80 13.4579C42.8011 13.4579 12.5429 43.7161 12.5429 80.915C12.5429 118.114 42.8011 148.372 80 148.372C117.199 148.372 147.457 118.114 147.457 80.915C147.457 43.7161 117.199 13.4579 80 13.4579Z" fill="#CDA24B"/>
<path d="M40.256 32.8426C39.1653 33.7515 39.6942 35.2223 40.7683 36.4948C41.8425 37.7837 43.0654 38.3952 44.3048 37.3706C44.6518 37.0731 44.8997 36.7426 45.065 36.4617C45.2467 36.1477 45.3624 35.8668 45.6103 35.652C46.04 35.2884 46.5522 35.4041 46.8828 35.7842C47.0645 35.999 47.1802 36.2964 47.0645 36.7261C46.8662 37.4532 46.0069 38.4282 45.3789 38.9405C43.2306 40.7418 40.884 39.866 39.1323 37.7837C37.4632 35.7842 36.8187 33.2392 38.967 31.4379C39.5785 30.9257 40.2891 30.5786 40.7848 30.4464C41.5285 30.2316 42.173 30.3473 42.801 30.9918L43.0984 31.2892C43.6603 31.8841 43.5446 32.413 43.148 32.7435C42.7844 33.0574 42.2721 33.0905 41.7764 32.6608L41.3467 32.2807C40.9997 32.3468 40.57 32.5782 40.256 32.8261V32.8426Z" fill="#694229"/>
<path d="M48.1387 27.0254C47.8578 25.7695 48.1553 25.1085 49.0807 24.5962C50.0722 24.0508 50.7333 24.1665 51.6422 25.1085L56.5502 30.1322C56.6494 30.2314 56.6824 30.2975 56.732 30.3636C56.9964 30.8593 56.8312 31.5038 56.3189 31.7848C55.9057 32.0161 55.3935 31.9335 55.0795 31.6195L53.9723 30.4297L51.3778 31.8674L51.7909 33.4373C51.9066 33.867 51.6917 34.3462 51.2786 34.5776C50.7663 34.8585 50.1383 34.6602 49.8574 34.1644C49.8244 34.0983 49.7748 34.0322 49.7583 33.8835L48.1553 27.042L48.1387 27.0254ZM50.9316 30.1487L52.7824 29.1242L50.0392 26.1826L49.9235 26.2487L50.9316 30.1322V30.1487Z" fill="#694229"/>
<path d="M57.988 21.6879C57.8227 21.1591 58.1202 20.5477 58.6655 20.3824L60.6816 19.7545C62.6812 19.1265 64.6147 19.8536 65.2592 21.8532C65.821 23.6214 64.7138 25.5549 62.7143 26.1829L61.7062 26.4969L62.2846 28.3147C62.4498 28.8435 62.1524 29.4549 61.5905 29.6202C61.0452 29.7854 60.4503 29.4715 60.285 28.9426L58.0045 21.7045L57.988 21.6879ZM62.1193 24.4146C63.0778 24.1172 63.4909 23.2248 63.2431 22.4646C62.9456 21.5062 62.1524 21.2087 61.2104 21.5227L60.2354 21.8367L61.1443 24.7286L62.1193 24.4146Z" fill="#694229"/>
<path d="M71.9353 23.4065L68.9773 19.0603C68.8451 18.862 68.779 18.6636 68.779 18.5645C68.7129 17.9861 69.1591 17.5069 69.7374 17.4408C70.1671 17.3912 70.5802 17.6225 70.8116 18.0026L72.7781 21.2582L73.9184 17.6225C74.0506 17.1929 74.315 16.8789 74.7447 16.8293C75.3231 16.7632 75.8684 17.1102 75.9345 17.6886C75.9345 17.7878 75.9345 18.0026 75.8519 18.2175L74.0176 23.1421L74.315 25.6705C74.3811 26.2323 73.9845 26.7611 73.4061 26.8273C72.8277 26.8934 72.3154 26.4802 72.2493 25.9183L71.9353 23.3899V23.4065Z" fill="#694229"/>
<path d="M84.5114 18.6801C83.0902 18.5974 82.4623 20.0186 82.3631 21.6712C82.2639 23.3403 82.7101 24.6458 84.3131 24.7449C84.7593 24.778 85.1724 24.6954 85.4864 24.6127C85.8335 24.5136 86.1144 24.3814 86.4449 24.3979C87.0068 24.431 87.3042 24.8771 87.2712 25.3729C87.2547 25.6538 87.139 25.9513 86.7589 26.1827C86.1144 26.5793 84.8254 26.6784 84.0157 26.6288C81.2228 26.4471 80.1156 24.1831 80.2974 21.4894C80.4627 18.8949 81.7682 16.5979 84.561 16.7796C85.3542 16.8292 86.1144 17.0771 86.5771 17.3085C87.2546 17.6555 87.6513 18.2008 87.6513 19.0932V19.5229C87.6513 20.3491 87.2051 20.6301 86.6763 20.597C86.197 20.564 85.8004 20.25 85.7343 19.589L85.6847 19.0271C85.3873 18.8453 84.908 18.6966 84.5279 18.6801H84.5114Z" fill="#694229"/>
<path d="M91.8156 22.6133C92.4932 20.1345 94.1953 18.1514 96.9881 18.9116C99.7975 19.6718 100.26 22.2498 99.5826 24.7286C98.9051 27.2074 97.203 29.174 94.3936 28.4138C91.6008 27.6536 91.1381 25.0922 91.8156 22.6133ZM97.583 24.1832C97.9301 22.9108 97.9631 21.1426 96.4924 20.7459C95.0381 20.3493 94.1623 21.8862 93.8152 23.1587C93.4021 24.646 93.5178 26.2159 94.8894 26.5794C96.2775 26.9595 97.1699 25.6705 97.5665 24.1832H97.583Z" fill="#694229"/>
<path d="M103.036 29.3722L103.764 29.7193L106.342 24.4476L105.614 24.1006C105.152 23.8858 104.97 23.3074 105.185 22.8612C105.4 22.3985 105.978 22.2167 106.424 22.4315L109.746 24.051C110.208 24.2658 110.39 24.8442 110.175 25.2904C109.961 25.7531 109.382 25.9349 108.936 25.7201L108.209 25.3731L105.631 30.6447L106.358 30.9917C106.821 31.2066 107.003 31.785 106.788 32.2311C106.573 32.6939 105.994 32.8756 105.548 32.6608L102.227 31.0413C101.764 30.8265 101.582 30.2481 101.797 29.8019C102.012 29.3392 102.59 29.1574 103.036 29.3722Z" fill="#694229"/>
<path d="M114.753 28.0008C115.083 27.5546 115.728 27.439 116.29 27.8521C116.686 28.1496 116.852 28.5792 116.802 29.0419L116.191 34.7598L116.24 34.7928L118.967 31.1407C119.297 30.6945 119.975 30.5953 120.421 30.9258C120.867 31.2564 120.983 31.9174 120.636 32.3801L116.042 38.5606C115.728 38.9903 115.083 39.139 114.505 38.7094C114.108 38.4119 113.927 37.9822 113.976 37.503L114.522 31.9174L114.472 31.8843L111.828 35.4373C111.497 35.8835 110.836 35.9992 110.357 35.6356C109.894 35.2886 109.812 34.6276 110.142 34.1814L114.736 28.0008H114.753Z" fill="#694229"/>
<path d="M103.384 53.4336C102.987 53.7476 102.607 54.1111 102.276 54.4747C102.243 54.4416 102.21 54.4251 102.194 54.4086C102.541 54.0781 102.937 53.7311 103.384 53.4336Z" fill="#F0C09C"/>
<path d="M103.384 53.4336C102.987 53.7476 102.607 54.1111 102.276 54.4747C102.243 54.4416 102.21 54.4251 102.194 54.4086C102.541 54.0781 102.937 53.7311 103.384 53.4336Z" fill="#694229"/>
<path d="M65.3913 56.6064L62.4663 58.9365C63.0282 58.4243 63.5735 57.9781 64.0693 57.598C64.532 57.2344 64.9617 56.9039 65.3913 56.6064Z" fill="#F0C09C"/>
<path d="M106.292 65.0006C106.292 65.0006 106.21 64.9345 106.177 64.918C106.193 64.9345 106.243 64.9345 106.276 64.951C106.276 64.9675 106.292 64.9841 106.292 65.0006Z" fill="#F0C09C"/>
<path d="M106.276 64.9517C106.276 64.9517 106.193 64.9352 106.177 64.9186V64.8525C106.177 64.8525 106.243 64.9186 106.276 64.9517Z" fill="#F0C09C"/>
<path d="M61.6898 54.8875L60.8305 55.565C60.8305 55.565 60.7809 55.5485 60.7644 55.5485C61.0453 55.3006 61.3428 55.0527 61.6403 54.8379L61.6898 54.8875Z" fill="#694229"/>
<path d="M111.2 66.0916C112.043 66.0089 112.952 65.8106 114.026 65.414C118.67 63.6788 121.182 58.3411 119.628 53.4826C118.471 49.8305 115.15 47.3516 110.291 46.5419C104.739 45.5999 100.326 48.591 97.7154 51.483C85.2717 44.972 71.4068 49.8305 69.7873 50.4419C69.4072 50.5411 68.4983 50.7889 67.2259 51.3673C66.2839 49.5165 64.4165 46.7071 61.475 45.8809C59.2275 45.2364 56.8974 45.8478 54.5838 47.7152L54.369 47.9135C53.741 48.591 50.7499 52.111 51.6588 55.2673C51.9563 56.325 52.8321 57.7462 55.2283 58.4072L55.4101 58.4568H55.5754C56.2364 58.5394 56.9139 58.6055 57.5254 58.6716C54.4682 62.0263 51.2787 66.703 48.4694 73.181L47.2465 72.0738C46.6185 71.5119 45.6766 71.545 45.1147 72.1729C44.5529 72.7844 44.6024 73.7429 45.2139 74.2882L47.2135 76.106C46.916 76.7505 46.6185 77.4115 46.3211 78.0726C44.5859 81.7908 42.7516 85.7734 42.2062 89.9544L39.43 88.5663C38.835 88.2688 38.1244 88.5002 37.8104 89.0951C37.513 89.69 37.7609 90.4006 38.3558 90.698L42.041 92.5324C42.041 92.8959 42.0575 93.2595 42.0906 93.6065H38.2897C37.6287 93.6065 37.0999 94.1519 37.0999 94.8129C37.0999 95.4739 37.6287 96.0027 38.2897 96.0027H42.4706C42.5367 96.2837 42.6028 96.5977 42.6855 96.8951L38.3888 98.8947C37.7774 99.1756 37.513 99.9028 37.7939 100.481C38.0088 100.927 38.4384 101.175 38.8846 101.175C39.0499 101.175 39.2316 101.142 39.3969 101.076L43.5613 99.1261C43.644 99.3244 43.7266 99.5227 43.8257 99.7044C47.6266 107.141 58.5169 110.248 64.3669 111.9C70.0517 113.52 75.7861 114.346 81.3221 114.346C86.8582 114.346 91.8158 113.569 96.5256 112.066L96.7735 111.983C103.979 109.669 112.159 107.042 116.29 99.3244C116.885 98.1841 117.381 96.9612 117.761 95.6557C118.356 93.6231 118.653 91.3921 118.653 89.0785C118.653 85.476 117.959 81.6586 116.588 77.9734C114.77 73.148 112.935 69.2479 111.2 66.0916ZM101.301 53.0695C101.698 52.6894 102.161 52.2928 102.673 51.9292C103.185 51.5822 103.731 51.2351 104.342 50.9377C104.623 50.7889 104.954 50.6567 105.268 50.5411C106.573 50.0783 108.044 49.8635 109.68 50.1444C110.655 50.3262 111.679 50.5906 112.638 51.0038C113.266 51.3012 113.861 51.6483 114.39 52.0779C115.183 52.7224 115.811 53.5652 116.158 54.6063C116.257 54.9699 116.34 55.3335 116.389 55.697C116.422 55.9118 116.422 56.1101 116.422 56.325C116.422 56.4737 116.422 56.6555 116.406 56.8208C116.323 57.928 115.96 59.0186 115.332 59.9275C114.72 60.8364 113.844 61.5636 112.754 61.9767C112.423 62.0924 112.142 62.1915 111.861 62.2742C111.762 62.2907 111.663 62.3072 111.58 62.3237C111.399 62.3568 111.233 62.4064 111.085 62.4394C110.985 62.4394 110.886 62.4394 110.804 62.4559C110.671 62.4725 110.539 62.489 110.407 62.5055C110.324 62.5055 110.242 62.489 110.176 62.489C110.06 62.489 109.961 62.489 109.845 62.4725C109.779 62.4559 109.696 62.4394 109.63 62.4394C109.548 62.4229 109.449 62.4064 109.366 62.3898C109.3 62.3733 109.234 62.3403 109.168 62.3237C109.102 62.3237 109.035 62.2742 108.953 62.2411C108.92 62.2411 108.903 62.2246 108.87 62.2081C106.953 59.2996 105.284 57.333 104.061 56.0771C105.284 54.9038 107.185 53.6313 109.25 53.9784C109.482 54.0114 109.729 54.0775 109.961 54.1601C110.605 54.375 111.266 54.0445 111.498 53.433C111.713 52.805 111.382 52.1275 110.754 51.9127C110.589 51.8466 110.391 51.7805 110.209 51.7474C107.548 51.0038 105.251 51.9292 103.483 53.3339C103.45 53.3834 103.417 53.4 103.384 53.433C102.987 53.747 102.607 54.1106 102.276 54.4741C102.243 54.4411 102.21 54.4245 102.194 54.408C102.111 54.3419 102.029 54.2758 101.979 54.2428C101.632 53.9784 101.268 53.714 100.921 53.4661C101.037 53.3339 101.153 53.2017 101.301 53.0695ZM56.0711 54.8377C55.7406 54.7385 55.2614 54.5237 55.1788 54.2428C54.9474 53.4826 55.9389 51.6813 56.9966 50.475C58.3021 49.4504 59.4423 49.1033 60.4669 49.4008C62.0368 49.8305 63.2763 51.6813 63.9869 53.0695L63.3919 53.5322H63.3754C62.6979 52.7224 61.9212 52.1275 61.0288 51.8135C59.211 51.1855 57.7402 51.8631 57.575 51.9292C57.0296 52.1936 56.8148 52.8381 57.0627 53.3834C57.3106 53.9453 57.9716 54.1767 58.5169 53.9288C58.7152 53.8462 60.2025 53.2512 61.6402 54.8377L61.6898 54.8873L60.8305 55.5648C60.8305 55.5648 60.7809 55.5483 60.7644 55.5483C59.6572 55.2013 58.1038 55.0029 56.0711 54.8377ZM114.241 94.6476C113.943 95.6888 113.547 96.6803 113.051 97.5892C109.63 104.018 102.524 106.282 95.6497 108.496L95.3853 108.579C86.5111 111.438 75.8522 111.355 65.375 108.38C62.9127 107.686 59.4589 106.695 56.1538 105.24V98.4816C56.1538 97.8205 55.6249 97.2917 54.9639 97.2917C54.3029 97.2917 53.7576 97.8205 53.7576 98.4816V104.084C50.8987 102.53 48.3868 100.58 47.0813 98.0354C43.9414 91.9209 46.7177 85.9387 49.6262 79.6094C50.2376 78.2874 50.8821 76.8992 51.4275 75.5607C54.9474 67.0831 59.1449 61.9437 62.4665 58.936C63.0284 58.4237 63.5737 57.9775 64.0695 57.5974C64.5322 57.2339 64.9619 56.9034 65.3915 56.6059C68.4653 54.5072 70.6632 53.9949 70.6797 53.9949C70.7954 53.9784 70.8945 53.9453 70.9937 53.8957C71.0763 53.8627 76.4306 51.83 83.2721 51.83C87.1887 51.83 91.5679 52.5076 95.7324 54.5898C96.6743 55.069 97.5998 55.6474 98.5087 56.2589C98.9218 56.5563 99.3349 56.8373 99.7481 57.1513C99.7976 57.1843 99.8307 57.2174 99.8637 57.2339C99.8803 57.2339 100.012 57.3496 100.244 57.5313C100.558 57.7792 101.021 58.2089 101.648 58.8699C102.442 59.7127 103.499 60.9356 104.673 62.5882C105.168 63.2657 105.664 64.0093 106.193 64.8521C106.226 64.8852 106.243 64.9182 106.276 64.9513C106.276 64.9678 106.292 64.9843 106.292 65.0009C106.375 65.1166 106.441 65.2653 106.54 65.3975C108.573 68.7026 110.87 73.1975 113.15 79.2459C115.15 84.6001 115.546 90.2023 114.241 94.6476Z" fill="#694229"/>
<path d="M113.15 79.2459C110.87 73.1976 108.573 68.7026 106.54 65.3975C106.441 65.2653 106.375 65.1166 106.292 65.0009C106.259 64.9679 106.209 64.9348 106.176 64.9183V64.8522C105.664 64.0094 105.168 63.2657 104.673 62.5882C103.499 60.9356 102.442 59.7127 101.648 58.8699C101.02 58.2089 100.558 57.7793 100.244 57.5314C100.012 57.3496 99.8802 57.2339 99.8637 57.2339C99.8307 57.2174 99.7976 57.1843 99.748 57.1513C99.3349 56.8373 98.9217 56.5564 98.5086 56.2589C97.5997 55.6475 96.6743 55.0691 95.7323 54.5898C91.5679 52.5076 87.1886 51.8301 83.2721 51.8301C76.4305 51.8301 71.0763 53.8627 70.9936 53.8958C70.8945 53.9453 70.7953 53.9784 70.6797 53.9949C70.6797 53.9949 68.4652 54.5072 65.3915 56.606L62.4665 58.936C59.1448 61.9437 54.9474 67.0831 51.4274 75.5607C50.8821 76.8993 50.2376 78.2874 49.6262 79.6095C46.7177 85.9387 43.9414 91.921 47.0812 98.0354C48.3867 100.58 50.8986 102.53 53.7575 104.084V98.4816C53.7575 97.8206 54.3029 97.2918 54.9639 97.2918C55.6249 97.2918 56.1537 97.8206 56.1537 98.4816V105.241C59.4588 106.695 62.9127 107.686 65.375 108.38C75.8521 111.355 86.5111 111.438 95.3853 108.579L95.6497 108.496C102.524 106.282 109.63 104.018 113.051 97.5892C113.547 96.6803 113.943 95.6888 114.241 94.6477C115.546 90.2023 115.15 84.6002 113.15 79.2459ZM53.3113 97.4901C53.1461 97.5727 52.9808 97.5892 52.8321 97.5892C52.3694 97.5892 51.9232 97.3248 51.7249 96.8786C50.8656 94.9121 49.18 94.3833 49.0973 94.3502C48.4694 94.1684 48.1223 93.5074 48.2876 92.8794C48.4859 92.235 49.1304 91.8879 49.7584 92.0697C49.874 92.1027 52.5842 92.896 53.9063 95.9036C54.1872 96.5316 53.9063 97.2257 53.3113 97.4901ZM61.4088 95.3583C61.4088 95.3583 59.2936 95.6392 58.0376 97.4405C57.7898 97.8206 57.3931 98.0024 56.9965 98.0024C56.7486 98.0024 56.4842 97.9363 56.2694 97.7875C55.691 97.3909 55.5423 96.5812 55.9389 96.0028C57.8559 93.1934 60.9792 92.8133 61.1114 92.7968C61.822 92.7307 62.4499 93.2265 62.5326 93.9206C62.5987 94.6311 62.1029 95.2591 61.4088 95.3583ZM74.1665 91.9871L79.339 89.3926C79.9174 89.1116 80.6445 89.343 80.942 89.9214C81.2229 90.5328 80.9916 91.2434 80.3967 91.5409L75.2242 94.1189C75.0589 94.2015 74.8606 94.2511 74.6954 94.2511C74.2492 94.2511 73.8195 94.0032 73.6212 93.59C73.3237 93.0117 73.5551 92.2845 74.1665 91.9871ZM80.942 101.324C80.7437 101.754 80.314 102.018 79.8678 102.018C79.6861 102.018 79.5208 101.985 79.3721 101.902L73.3898 99.1261C72.7784 98.8452 72.5305 98.118 72.8114 97.5231C73.0924 96.9282 73.7864 96.6638 74.3979 96.9447L80.3636 99.7375C80.9585 100.018 81.2229 100.729 80.942 101.324ZM80.4627 96.829H74.8937C74.2326 96.829 73.6873 96.3002 73.6873 95.6392C73.6873 94.9782 74.2326 94.4494 74.8937 94.4494H80.4627C81.1238 94.4494 81.6526 94.9782 81.6526 95.6392C81.6526 96.3002 81.1238 96.829 80.4627 96.829ZM90.7747 79.0145C90.7747 79.0145 90.7086 79.0311 90.692 79.0311C90.3285 79.0311 90.031 78.7501 89.9814 78.37C89.7831 76.387 89.023 75.4616 87.9323 75.0484C88.5933 75.8086 89.0064 76.8662 89.0064 78.023C89.0064 80.3696 87.3208 82.2701 85.2386 82.2701C83.1564 82.2701 81.4873 80.3696 81.4873 78.023C81.4873 77.4611 81.5865 76.9323 81.7683 76.4366C81.7022 76.2713 81.6856 76.1061 81.7352 75.9408L79.9174 74.2882C79.306 73.7429 79.2564 72.7844 79.8183 72.173C80.3801 71.545 81.3386 71.512 81.9501 72.0738L83.9166 73.8421C84.6107 73.462 85.4865 73.1976 86.5276 73.2802C88.4281 73.462 91.006 74.156 91.4192 78.2378C91.4522 78.6345 91.1713 78.9815 90.7747 79.0145Z" fill="#CF8952"/>
<path d="M62.5325 93.9207C62.5986 94.6313 62.1028 95.2592 61.4087 95.3584C61.3592 95.3584 59.2935 95.6393 58.0375 97.4406C57.7897 97.8207 57.393 98.0025 56.9964 98.0025C56.7486 98.0025 56.4841 97.9364 56.2693 97.7876C55.6909 97.391 55.5422 96.5813 55.9388 96.0029C57.8558 93.1935 60.9791 92.8134 61.1113 92.7969C61.8219 92.7308 62.4499 93.2266 62.5325 93.9207Z" fill="#694229"/>
<path d="M63.9868 53.0691L63.3918 53.5318H63.3753C62.6978 52.722 61.9211 52.1271 61.0287 51.8131C59.2109 51.1852 57.7401 51.8627 57.5749 51.9288C57.0295 52.1932 56.8147 52.8377 57.0626 53.3831C57.3104 53.9449 57.9715 54.1763 58.5168 53.9284C58.7151 53.8458 60.2024 53.2509 61.6401 54.8373C61.3427 55.0521 61.0452 55.3 60.7643 55.5479C59.6571 55.2009 58.1037 55.0026 56.071 54.8373C55.7405 54.7382 55.2613 54.5233 55.1787 54.2424C54.9473 53.4822 55.9388 51.6809 56.9965 50.4746C58.302 49.45 59.4422 49.103 60.4668 49.4004C62.0367 49.8301 63.2762 51.6809 63.9868 53.0691Z" fill="#CF8952"/>
<path d="M116.422 56.3248C116.422 56.4736 116.422 56.6553 116.406 56.8206C116.323 57.9278 115.96 59.0185 115.332 59.9274C114.72 60.8363 113.844 61.5634 112.754 61.9766C112.423 62.0922 112.142 62.1914 111.861 62.274C111.762 62.2905 111.663 62.3071 111.58 62.3236C111.399 62.3566 111.233 62.4062 111.085 62.4393C110.985 62.4393 110.886 62.4393 110.804 62.4558C110.671 62.4723 110.539 62.4888 110.407 62.5054C110.324 62.5054 110.242 62.4888 110.176 62.4888C110.06 62.4888 109.961 62.4888 109.845 62.4723C109.779 62.4558 109.696 62.4393 109.63 62.4393C109.548 62.4227 109.449 62.4062 109.366 62.3897C109.3 62.3732 109.234 62.3401 109.168 62.3236C109.102 62.3236 109.035 62.274 108.953 62.241C108.92 62.241 108.903 62.2244 108.87 62.2079C106.953 59.2994 105.284 57.3329 104.061 56.0769C105.284 54.9036 107.185 53.6312 109.25 53.9782C109.482 54.0113 109.729 54.0774 109.961 54.16C110.605 54.3748 111.266 54.0443 111.498 53.4329C111.713 52.8049 111.382 52.1274 110.754 51.9125C110.589 51.8464 110.391 51.7803 110.209 51.7473C107.548 51.0036 105.251 51.929 103.483 53.3337C103.45 53.3833 103.417 53.3998 103.384 53.4329C102.938 53.7303 102.541 54.0774 102.194 54.4079C102.111 54.3418 102.029 54.2757 101.979 54.2426C101.632 53.9782 101.268 53.7138 100.921 53.4659C101.037 53.3337 101.153 53.2015 101.301 53.0693C101.698 52.6892 102.161 52.2926 102.673 51.929C103.185 51.582 103.731 51.235 104.342 50.9375C104.623 50.7888 104.954 50.6566 105.268 50.5409C106.573 50.0782 108.044 49.8634 109.68 50.1443C110.655 50.3261 111.68 50.5905 112.638 51.0036C113.266 51.3011 113.861 51.6481 114.39 52.0778C115.183 52.7223 115.811 53.5651 116.158 54.6062C116.257 54.9697 116.34 55.3333 116.389 55.6969C116.422 55.9117 116.422 56.11 116.422 56.3248Z" fill="#CF8952"/>
<path d="M80.3967 91.541L75.2242 94.1189C75.0589 94.2016 74.8606 94.2511 74.6954 94.2511C74.2492 94.2511 73.8195 94.0033 73.6212 93.5901C73.3237 93.0117 73.5551 92.2846 74.1665 91.9871L79.339 89.3926C79.9174 89.1117 80.6445 89.3431 80.942 89.9215C81.2229 90.5329 80.9916 91.2435 80.3967 91.541Z" fill="#694229"/>
<path d="M81.6526 95.6391C81.6526 96.3001 81.1237 96.8289 80.4627 96.8289H74.8936C74.2326 96.8289 73.6873 96.3001 73.6873 95.6391C73.6873 94.978 74.2326 94.4492 74.8936 94.4492H80.4627C81.1237 94.4492 81.6526 94.978 81.6526 95.6391Z" fill="#694229"/>
<path d="M80.9418 101.324C80.7435 101.753 80.3139 102.018 79.8677 102.018C79.6859 102.018 79.5206 101.985 79.3719 101.902L73.3897 99.1259C72.7782 98.845 72.5304 98.1179 72.8113 97.5229C73.0922 96.928 73.7863 96.6636 74.3977 96.9446L80.3634 99.7374C80.9584 100.018 81.2228 100.729 80.9418 101.324Z" fill="#694229"/>
<path d="M86.5276 73.2801C85.4865 73.1975 84.6106 73.4619 83.9165 73.842L81.95 72.0738C81.3386 71.5119 80.3801 71.545 79.8182 72.1729C79.2563 72.7844 79.3059 73.7428 79.9174 74.2882L81.7352 75.9407L81.9169 76.106C81.8508 76.2217 81.8178 76.3208 81.7682 76.4365C81.5864 76.9323 81.4873 77.4611 81.4873 78.023C81.4873 80.3696 83.1729 82.27 85.2386 82.27C87.3043 82.27 89.0064 80.3696 89.0064 78.023C89.0064 76.8662 88.5933 75.8085 87.9322 75.0484C89.0229 75.4615 89.7831 76.3869 89.9814 78.37C90.031 78.7501 90.3284 79.031 90.692 79.031C90.7085 79.031 90.7416 79.0145 90.7746 79.0145C91.1712 78.9814 91.4522 78.6344 91.4191 78.2378C91.006 74.156 88.428 73.4619 86.5276 73.2801ZM84.3297 77.7916C83.9331 77.7916 83.6191 77.4776 83.5199 77.0149C83.4869 76.9323 83.4703 76.8496 83.4703 76.7505C83.4703 76.1721 83.8504 75.7094 84.3297 75.7094C84.5776 75.7094 84.7924 75.8251 84.9576 76.0068C85.1064 76.2051 85.2055 76.4696 85.2055 76.7505C85.2055 77.3289 84.8089 77.7916 84.3297 77.7916Z" fill="#694229"/>
<path d="M81.9169 76.1057C81.8508 76.2214 81.8178 76.3205 81.7682 76.4362C81.7021 76.2709 81.6855 76.1057 81.7351 75.9404L81.9169 76.1057Z" fill="#694229"/>
<path d="M84.9576 76.0073C84.7923 75.809 84.5775 75.6934 84.3461 75.6934C83.8669 75.6934 83.4868 76.1561 83.4868 76.7345C83.4868 76.8336 83.4868 76.9328 83.5364 77.0154C83.6355 77.4781 83.9661 77.7921 84.3627 77.7921C84.8254 77.7921 85.222 77.3294 85.222 76.7345C85.222 76.4535 85.1228 76.1891 84.9741 76.0073H84.9576Z" fill="#FCC749"/>
<path d="M53.3113 97.49C53.1461 97.5726 52.9808 97.5891 52.8321 97.5891C52.3694 97.5891 51.9232 97.3247 51.7249 96.8785C50.8656 94.912 49.18 94.3832 49.0973 94.3501C48.4694 94.1683 48.1223 93.5073 48.2876 92.8793C48.4859 92.2349 49.1304 91.8878 49.7584 92.0696C49.874 92.1026 52.5842 92.8959 53.9063 95.9035C54.1872 96.5315 53.9063 97.2256 53.3113 97.49Z" fill="#694229"/>
<path d="M83.2391 137.928C82.6277 137.911 82.0658 138.143 81.4213 138.374C80.8264 138.572 80.0332 138.721 79.1738 138.688C76.1166 138.572 75.1747 136.11 75.3069 132.904C75.4391 129.731 76.5628 126.971 79.273 127.087C80.0332 127.12 80.9255 127.368 81.5039 127.715L81.6196 128.789C81.7518 130.029 82.545 130.623 83.4539 130.657C84.4455 130.69 85.3048 130.111 85.2552 128.541V127.732C85.1891 126.013 84.429 125.005 83.1069 124.36C82.5285 124.079 81.7188 123.815 80.8099 123.633V120.923C80.8099 120.245 80.248 119.684 79.5705 119.684C78.8929 119.684 78.331 120.245 78.331 120.923V123.435C73.6213 123.732 71.506 127.93 71.3242 132.607C71.1259 137.663 73.2412 141.861 78.331 142.241V145.216C78.331 145.893 78.8929 146.455 79.5705 146.455C80.248 146.455 80.8099 145.893 80.8099 145.216V142.175C81.9832 142.043 83.1565 141.762 83.9001 141.282C84.6107 140.82 84.8256 140.241 84.8586 139.696C84.8917 138.754 84.3133 137.928 83.2391 137.878V137.928Z" fill="#694229"/>
</g>
<defs>
<clipPath id="clip0_209_1401">
<rect width="160" height="160" fill="white" transform="translate(0 0.915039)"/>
</clipPath>
</defs>
</svg>
