<svg width="47" height="48" viewBox="0 0 47 48" fill="none" xmlns="http://www.w3.org/2000/svg">
<path d="M42.65 23.676C41.19 19.196 41.29 14.426 38.1 10.246C34.63 5.70598 29.21 2.87598 23.47 2.87598C16.99 2.87598 11.17 6.43598 7.86 11.946C6.2 14.706 5.19 17.846 4.88 21.046C4.68 23.136 4.63 23.796 3.57 25.626C2.58 27.346 2 29.286 2 31.276C2 39.586 11.61 46.326 23.46 46.326C35.31 46.326 44.92 39.586 44.92 31.276C44.92 29.576 44.52 27.796 43.73 26.286C43.28 25.426 42.93 24.556 42.65 23.666V23.676Z" fill="#FFC199" stroke="#7A3F3E" stroke-width="2.29" stroke-linecap="round" stroke-linejoin="round"/>
<g style="mix-blend-mode:multiply" opacity="0.3">
<path d="M33.53 29.016C36.97 37.316 28.94 43.206 20.73 41.806C15.26 41.026 10.53 36.966 11.74 31.326C12.8 26.486 17.39 21.756 22.65 21.536C27.41 21.396 31.71 24.906 33.51 28.966L33.53 29.006V29.016Z" fill="#75778F"/>
</g>
<path d="M18.29 27.5859C18.29 27.5859 19.92 28.0459 20.74 29.8959" stroke="#7A3F3E" stroke-width="1.53" stroke-miterlimit="10" stroke-linecap="round"/>
<path d="M26.72 27.5859C26.72 27.5859 25.09 28.0459 24.27 29.8959" stroke="#7A3F3E" stroke-width="1.53" stroke-miterlimit="10" stroke-linecap="round"/>
<path d="M18.34 40.686C18.34 40.686 22.68 41.216 22.45 32.616" stroke="#7A3F3E" stroke-width="1.53" stroke-miterlimit="10" stroke-linecap="round"/>
<path d="M26.83 40.686C26.83 40.686 22.49 41.216 22.72 32.616" stroke="#7A3F3E" stroke-width="1.53" stroke-miterlimit="10" stroke-linecap="round"/>
<path d="M13.2 6.27599C13.2 6.27599 10.8 -0.524008 6.09998 3.24599C6.09998 3.24599 2.42998 7.29599 6.09998 8.32599C6.09998 8.32599 9.67998 8.60599 9.67998 9.07599L13.21 6.27599H13.2Z" fill="#A3836F" stroke="#7A3F3E" stroke-width="2.29" stroke-miterlimit="10" stroke-linecap="round"/>
<path d="M13.36 6.42603C13.36 6.42603 10.81 -0.80397 5.80999 3.20603C5.80999 3.20603 1.90999 7.50603 5.80999 8.60603C5.80999 8.60603 9.60999 8.90603 9.60999 9.40603L13.36 6.42603Z" fill="#876A58"/>
<path d="M13.2 6.27599C13.2 6.27599 10.8 -0.524008 6.09998 3.24599C6.09998 3.24599 2.42998 7.29599 6.09998 8.32599C6.09998 8.32599 9.67998 8.60599 9.67998 9.07599L13.21 6.27599H13.2Z" stroke="#7A3F3E" stroke-width="2.29" stroke-miterlimit="10" stroke-linecap="round"/>
<path d="M34.79 6.27599C34.79 6.27599 37.19 -0.524008 41.89 3.24599C41.89 3.24599 45.56 7.29599 41.89 8.32599C41.89 8.32599 38.31 8.60599 38.31 9.07599L34.78 6.27599H34.79Z" fill="#A3836F" stroke="#7A3F3E" stroke-width="2.29" stroke-miterlimit="10" stroke-linecap="round"/>
<path d="M34.63 6.42603C34.63 6.42603 37.18 -0.80397 42.18 3.20603C42.18 3.20603 46.08 7.50603 42.18 8.60603C42.18 8.60603 38.38 8.90603 38.38 9.40603L34.63 6.42603Z" fill="#876A58"/>
<path d="M34.79 6.27599C34.79 6.27599 37.19 -0.524008 41.89 3.24599C41.89 3.24599 45.56 7.29599 41.89 8.32599C41.89 8.32599 38.31 8.60599 38.31 9.07599L34.78 6.27599H34.79Z" stroke="#7A3F3E" stroke-width="2.29" stroke-miterlimit="10" stroke-linecap="round"/>
<path d="M35.35 16.9059C34 16.2259 32.47 17.2459 31.78 18.5559C31.01 17.0759 29.4 16.0959 27.86 17.1459C26.21 18.2659 26.57 20.1359 27.51 21.6159C28.2 22.6959 29.15 23.6759 30.15 24.4759C31.43 25.4959 32.43 24.9659 33.63 24.1459C35.52 22.8459 38.18 19.5659 35.99 17.3859C35.79 17.1859 35.57 17.0259 35.36 16.9159L35.35 16.9059Z" fill="#FF0000" stroke="#7A3F3E" stroke-width="2.29" stroke-linecap="round" stroke-linejoin="round"/>
<path d="M18.07 16.9059C16.72 16.2259 15.19 17.2459 14.5 18.5559C13.73 17.0759 12.12 16.0959 10.58 17.1459C8.93 18.2659 9.29 20.1359 10.23 21.6159C10.92 22.6959 11.87 23.6759 12.87 24.4759C14.15 25.4959 15.15 24.9659 16.35 24.1459C18.24 22.8459 20.9 19.5659 18.71 17.3859C18.51 17.1859 18.29 17.0259 18.08 16.9159L18.07 16.9059Z" fill="#FF0000" stroke="#7A3F3E" stroke-width="2.29" stroke-linecap="round" stroke-linejoin="round"/>
</svg>
