<svg width="46" height="48" viewBox="0 0 46 48" fill="none" xmlns="http://www.w3.org/2000/svg">
<path d="M42.49 23.676C41.03 19.196 41.13 14.426 37.94 10.246C34.47 5.70598 29.05 2.87598 23.31 2.87598C16.83 2.87598 11.01 6.43598 7.7 11.946C6.04 14.706 5.03 17.846 4.72 21.046C4.52 23.136 4.47 23.796 3.41 25.626C2.42 27.346 1.84 29.286 1.84 31.276C1.84 39.586 11.45 46.326 23.3 46.326C35.15 46.326 44.76 39.586 44.76 31.276C44.76 29.576 44.36 27.796 43.57 26.286C43.12 25.426 42.77 24.556 42.49 23.666V23.676Z" fill="#FFC199" stroke="#7A3F3E" stroke-width="2.29" stroke-linecap="round" stroke-linejoin="round"/>
<g style="mix-blend-mode:multiply" opacity="0.3">
<path d="M33.37 29.016C36.81 37.316 28.78 43.206 20.57 41.806C15.1 41.026 10.37 36.966 11.58 31.326C12.64 26.486 17.23 21.756 22.49 21.536C27.25 21.396 31.55 24.906 33.35 28.966L33.37 29.006V29.016Z" fill="#75778F"/>
</g>
<path d="M18.12 27.5859C18.12 27.5859 19.75 28.0459 20.57 29.8959" stroke="#7A3F3E" stroke-width="1.53" stroke-miterlimit="10" stroke-linecap="round"/>
<path d="M26.55 27.5859C26.55 27.5859 24.92 28.0459 24.1 29.8959" stroke="#7A3F3E" stroke-width="1.53" stroke-miterlimit="10" stroke-linecap="round"/>
<path d="M18.17 40.686C18.17 40.686 22.51 41.216 22.28 32.616" stroke="#7A3F3E" stroke-width="1.53" stroke-miterlimit="10" stroke-linecap="round"/>
<path d="M26.67 40.686C26.67 40.686 22.33 41.216 22.56 32.616" stroke="#7A3F3E" stroke-width="1.53" stroke-miterlimit="10" stroke-linecap="round"/>
<path d="M13.03 6.27599C13.03 6.27599 10.63 -0.524008 5.93 3.24599C5.93 3.24599 2.26 7.29599 5.93 8.32599C5.93 8.32599 9.51 8.60599 9.51 9.07599L13.04 6.27599H13.03Z" fill="#A3836F" stroke="#7A3F3E" stroke-width="2.29" stroke-miterlimit="10" stroke-linecap="round"/>
<path d="M13.2 6.42603C13.2 6.42603 10.65 -0.80397 5.65001 3.20603C5.65001 3.20603 1.75001 7.50603 5.65001 8.60603C5.65001 8.60603 9.44999 8.90603 9.44999 9.40603L13.2 6.42603Z" fill="#876A58"/>
<path d="M13.03 6.27599C13.03 6.27599 10.63 -0.524008 5.93 3.24599C5.93 3.24599 2.26 7.29599 5.93 8.32599C5.93 8.32599 9.51 8.60599 9.51 9.07599L13.04 6.27599H13.03Z" stroke="#7A3F3E" stroke-width="2.29" stroke-miterlimit="10" stroke-linecap="round"/>
<path d="M34.63 6.27599C34.63 6.27599 37.03 -0.524008 41.73 3.24599C41.73 3.24599 45.4 7.29599 41.73 8.32599C41.73 8.32599 38.15 8.60599 38.15 9.07599L34.62 6.27599H34.63Z" fill="#A3836F" stroke="#7A3F3E" stroke-width="2.29" stroke-miterlimit="10" stroke-linecap="round"/>
<path d="M34.46 6.42603C34.46 6.42603 37.01 -0.80397 42.01 3.20603C42.01 3.20603 45.91 7.50603 42.01 8.60603C42.01 8.60603 38.21 8.90603 38.21 9.40603L34.46 6.42603Z" fill="#876A58"/>
<path d="M34.63 6.27599C34.63 6.27599 37.03 -0.524008 41.73 3.24599C41.73 3.24599 45.4 7.29599 41.73 8.32599C41.73 8.32599 38.15 8.60599 38.15 9.07599L34.62 6.27599H34.63Z" stroke="#7A3F3E" stroke-width="2.29" stroke-miterlimit="10" stroke-linecap="round"/>
<path d="M14.68 24.4361C16.7345 24.4361 18.4 22.7706 18.4 20.7161C18.4 18.6616 16.7345 16.9961 14.68 16.9961C12.6255 16.9961 10.96 18.6616 10.96 20.7161C10.96 22.7706 12.6255 24.4361 14.68 24.4361Z" fill="white" stroke="#7A3F3E" stroke-width="1.53" stroke-linecap="round" stroke-linejoin="round"/>
<path d="M31.8 24.4361C33.8545 24.4361 35.52 22.7706 35.52 20.7161C35.52 18.6616 33.8545 16.9961 31.8 16.9961C29.7455 16.9961 28.08 18.6616 28.08 20.7161C28.08 22.7706 29.7455 24.4361 31.8 24.4361Z" fill="white" stroke="#7A3F3E" stroke-width="1.53" stroke-linecap="round" stroke-linejoin="round"/>
</svg>
