<svg width="134" height="93" viewBox="0 0 134 93" fill="none" xmlns="http://www.w3.org/2000/svg">
<path d="M22.0324 58.4154C22.0877 65.4154 17.5904 77.1729 32.1845 85.7606C43.5717 92.4609 109.851 92.3831 119.101 86.3989C144.163 70.1839 132.105 10.4141 68.9825 29.1716C39.656 37.887 21.9216 43.5715 22.0324 58.4209V58.4154Z" fill="#E59057" stroke="#7A3F3E" stroke-width="4" stroke-linecap="round" stroke-linejoin="round"/>
<path d="M27.6263 7.74957C27.6263 7.74957 24.4194 -1.37105 18.1166 3.68054C18.1166 3.68054 13.2039 9.10961 18.1166 10.4974C18.1166 10.4974 22.9019 10.8749 22.9019 11.5077L27.6207 7.74957H27.6263Z" fill="#E59057" stroke="#7A3F3E" stroke-width="4" stroke-linecap="round" stroke-linejoin="round"/>
<path d="M19.8945 5.77327C19.8945 5.77327 23.2176 4.16342 25.3942 8.7376L19.8945 5.77327Z" fill="#E59057"/>
<path d="M19.8945 5.77327C19.8945 5.77327 23.2176 4.16342 25.3942 8.7376" stroke="#7A3F3E" stroke-width="4" stroke-linecap="round" stroke-linejoin="round"/>
<path d="M57.4181 9.62019C57.4181 9.62019 61.0956 3.59159 66.9997 4.59636C69.3758 5.0016 72.0509 6.09518 72.865 8.64318C73.6792 11.1912 72.3998 14.3609 69.7911 15.3268C65.1886 17.0366 65.9696 13.5116 62.9732 15.3934" fill="#E59057"/>
<path d="M57.4181 9.62019C57.4181 9.62019 61.0956 3.59159 66.9997 4.59636C69.3758 5.0016 72.0509 6.09518 72.865 8.64318C73.6792 11.1912 72.3998 14.3609 69.7911 15.3268C65.1886 17.0366 65.9696 13.5116 62.9732 15.3934" stroke="#7A3F3E" stroke-width="4" stroke-linecap="round" stroke-linejoin="round"/>
<path d="M27.6263 7.74957C27.6263 7.74957 24.4194 -1.37105 18.1166 3.68054C18.1166 3.68054 13.2039 9.10961 18.1166 10.4974C18.1166 10.4974 22.9019 10.8749 22.9019 11.5077L27.6207 7.74957H27.6263Z" fill="#E59057" stroke="#7A3F3E" stroke-width="4" stroke-linecap="round" stroke-linejoin="round"/>
<path d="M72.7266 45.4587C74.1334 40.6181 73.4078 35.0613 71.6909 30.4427C65.5597 13.9668 59.0353 9.64793 59.0353 9.64793C47.1607 0.233102 31.3426 6.45599 31.3426 6.45599C31.3426 6.45599 20.26 8.72643 12.6999 27.0343C9.88079 33.8567 4.92379 41.2398 8.80631 48.8394C11.8082 54.7126 20.5535 57.4104 26.4022 59.0758C35.3968 61.6404 45.5877 62.1234 54.5657 59.2368C61.1123 57.1273 68.0521 54.9568 71.5136 48.4619C72.0232 47.5071 72.422 46.4968 72.7266 45.4587Z" fill="#E59057" stroke="#7A3F3E" stroke-width="4" stroke-linecap="round" stroke-linejoin="round"/>
<path d="M23.1345 44.4819C23.1345 44.4819 20.7308 44.7539 19.2686 46.8912L23.1345 44.4819Z" fill="#B56A3A"/>
<path d="M23.1345 44.4819C23.1345 44.4819 20.7308 44.7539 19.2686 46.8912" stroke="#7A3F3E" stroke-width="4" stroke-linecap="round" stroke-linejoin="round"/>
<path d="M17.4243 48.4844V55.1902" stroke="#7A3F3E" stroke-width="4" stroke-linecap="round" stroke-linejoin="round"/>
<path d="M2.86345 40.4404L7.5546 42.7941" stroke="#7A3F3E" stroke-width="4" stroke-linecap="round" stroke-linejoin="round"/>
<path d="M2.32068 45.1423H7.37183" stroke="#7A3F3E" stroke-width="4" stroke-linecap="round" stroke-linejoin="round"/>
<path d="M2.86345 49.8441L8.27461 47.3127" stroke="#7A3F3E" stroke-width="4" stroke-linecap="round" stroke-linejoin="round"/>
<path d="M39.9883 41.2065L35.2971 43.5547" stroke="#7A3F3E" stroke-width="4" stroke-linecap="round" stroke-linejoin="round"/>
<path d="M40.5311 45.9028H35.4799" stroke="#7A3F3E" stroke-width="4" stroke-linecap="round" stroke-linejoin="round"/>
<path d="M39.9883 50.6046L34.5771 48.0732" stroke="#7A3F3E" stroke-width="4" stroke-linecap="round" stroke-linejoin="round"/>
<path d="M12.423 43.6992C12.423 43.6992 14.4667 44.2821 15.4913 46.5914L12.423 43.6992Z" fill="#B56A3A"/>
<path d="M12.423 43.6992C12.423 43.6992 14.4667 44.2821 15.4913 46.5914" stroke="#7A3F3E" stroke-width="4" stroke-linecap="round" stroke-linejoin="round"/>
<path d="M39.7944 30.7537C39.7944 30.7537 47.4099 25.3468 52.4832 26.94L39.7944 30.7537Z" fill="#B56A3A"/>
<path d="M39.7944 30.7537C39.7944 30.7537 47.4099 25.3468 52.4832 26.94" stroke="#7A3F3E" stroke-width="4" stroke-linecap="round" stroke-linejoin="round"/>
<path d="M41.3784 76.8508C41.3784 76.8508 38.8418 89.5686 48.0413 89.5686" stroke="#7A3F3E" stroke-width="4" stroke-linecap="round" stroke-linejoin="round"/>
</svg>
