<svg width="46" height="48" viewBox="0 0 46 48" fill="none" xmlns="http://www.w3.org/2000/svg">
<path d="M42.33 23.676C40.87 19.196 40.97 14.426 37.78 10.246C34.31 5.70598 28.89 2.87598 23.15 2.87598C16.67 2.87598 10.85 6.43598 7.53998 11.946C5.87998 14.706 4.87 17.846 4.56 21.046C4.36 23.136 4.31 23.796 3.25 25.626C2.26 27.346 1.67999 29.286 1.67999 31.276C1.67999 39.586 11.29 46.326 23.14 46.326C34.99 46.326 44.6 39.586 44.6 31.276C44.6 29.576 44.2 27.796 43.41 26.286C42.96 25.426 42.61 24.556 42.33 23.666V23.676Z" fill="#FFC199" stroke="#7A3F3E" stroke-width="2.29" stroke-linecap="round" stroke-linejoin="round"/>
<g style="mix-blend-mode:multiply" opacity="0.3">
<path d="M33.21 29.016C36.65 37.316 28.62 43.206 20.41 41.806C14.94 41.026 10.21 36.966 11.42 31.326C12.48 26.486 17.07 21.756 22.33 21.536C27.09 21.396 31.39 24.906 33.19 28.966L33.21 29.006V29.016Z" fill="#75778F"/>
</g>
<path d="M17.96 23.0061C17.96 23.0061 19.59 23.4661 20.41 25.3161" stroke="#7A3F3E" stroke-width="1.53" stroke-miterlimit="10" stroke-linecap="round"/>
<path d="M26.39 23.0061C26.39 23.0061 24.76 23.4661 23.94 25.3161" stroke="#7A3F3E" stroke-width="1.53" stroke-miterlimit="10" stroke-linecap="round"/>
<path d="M12.87 6.27599C12.87 6.27599 10.47 -0.524008 5.77 3.24599C5.77 3.24599 2.1 7.29599 5.77 8.32599C5.77 8.32599 9.34998 8.60599 9.34998 9.07599L12.88 6.27599H12.87Z" fill="#A3836F" stroke="#7A3F3E" stroke-width="2.29" stroke-miterlimit="10" stroke-linecap="round"/>
<path d="M13.04 6.42603C13.04 6.42603 10.49 -0.80397 5.48999 3.20603C5.48999 3.20603 1.58999 7.50603 5.48999 8.60603C5.48999 8.60603 9.28997 8.90603 9.28997 9.40603L13.04 6.42603Z" fill="#876A58"/>
<path d="M12.87 6.27599C12.87 6.27599 10.47 -0.524008 5.77 3.24599C5.77 3.24599 2.1 7.29599 5.77 8.32599C5.77 8.32599 9.34998 8.60599 9.34998 9.07599L12.88 6.27599H12.87Z" stroke="#7A3F3E" stroke-width="2.29" stroke-miterlimit="10" stroke-linecap="round"/>
<path d="M34.47 6.27599C34.47 6.27599 36.87 -0.524008 41.57 3.24599C41.57 3.24599 45.24 7.29599 41.57 8.32599C41.57 8.32599 37.99 8.60599 37.99 9.07599L34.46 6.27599H34.47Z" fill="#A3836F" stroke="#7A3F3E" stroke-width="2.29" stroke-miterlimit="10" stroke-linecap="round"/>
<path d="M34.3 6.42603C34.3 6.42603 36.85 -0.80397 41.85 3.20603C41.85 3.20603 45.75 7.50603 41.85 8.60603C41.85 8.60603 38.05 8.90603 38.05 9.40603L34.3 6.42603Z" fill="#876A58"/>
<path d="M34.47 6.27599C34.47 6.27599 36.87 -0.524008 41.57 3.24599C41.57 3.24599 45.24 7.29599 41.57 8.32599C41.57 8.32599 37.99 8.60599 37.99 9.07599L34.46 6.27599H34.47Z" stroke="#7A3F3E" stroke-width="2.29" stroke-miterlimit="10" stroke-linecap="round"/>
<path d="M14.5 21.916C15.6543 21.916 16.59 20.5729 16.59 18.916C16.59 17.2592 15.6543 15.916 14.5 15.916C13.3457 15.916 12.41 17.2592 12.41 18.916C12.41 20.5729 13.3457 21.916 14.5 21.916Z" fill="#7A3F3E"/>
<path d="M14.31 32.7861C14.57 36.1461 17.03 39.3861 20.36 40.2061C23.69 41.0261 27.76 39.1961 29.14 36.0061C29.55 35.0561 29.71 34.0161 29.71 32.9961" fill="#FF9478"/>
<path d="M14.31 32.7861C14.57 36.1461 17.03 39.3861 20.36 40.2061C23.69 41.0261 27.76 39.1961 29.14 36.0061C29.55 35.0561 29.71 34.0161 29.71 32.9961" stroke="#7A3F3E" stroke-width="1.53" stroke-miterlimit="10" stroke-linecap="round"/>
<path d="M30.71 21.916C31.8643 21.916 32.8 20.5729 32.8 18.916C32.8 17.2592 31.8643 15.916 30.71 15.916C29.5557 15.916 28.62 17.2592 28.62 18.916C28.62 20.5729 29.5557 21.916 30.71 21.916Z" fill="#7A3F3E"/>
<path d="M12.55 31.366C12.55 31.366 20.42 37.606 22.12 27.196" stroke="#7A3F3E" stroke-width="1.53" stroke-miterlimit="10" stroke-linecap="round"/>
<path d="M32.01 31.706C32.01 31.706 23.6 37.196 22.4 27.196" stroke="#7A3F3E" stroke-width="1.53" stroke-miterlimit="10" stroke-linecap="round"/>
<path d="M19.9899 32.376L20.3099 36.486H23.7999L24.4099 32.296L22.1799 29.196L19.9899 32.376Z" fill="white" stroke="#7A3F3E" stroke-width="1.53" stroke-miterlimit="10" stroke-linecap="round"/>
</svg>
