<svg width="267" height="89" viewBox="0 0 267 89" fill="none" xmlns="http://www.w3.org/2000/svg">
<rect x="16.4043" y="14.5708" width="250.576" height="53.332" rx="8" transform="rotate(4.81112 16.4043 14.5708)" fill="#7A3F3E"/>
<rect x="4.61285" y="0.268799" width="252" height="55" rx="8" transform="rotate(4.81112 4.61285 0.268799)" fill="#60A571"/>
<path d="M28.7093 37.8333C29.4197 37.893 29.9805 37.8667 30.3917 37.7544C30.8127 37.6428 31.1442 37.4894 31.386 37.2941C31.6278 37.0989 31.8405 36.9012 32.0239 36.701C32.196 36.5195 32.3348 36.3842 32.4403 36.2951C32.5555 36.2068 32.7072 36.1509 32.8954 36.1276C33.0552 36.092 33.3058 36.0837 33.6472 36.1026C33.9992 36.1127 34.3455 36.132 34.686 36.1607C35.0364 36.1902 35.2788 36.2204 35.4134 36.2513C35.617 36.2782 35.7548 36.329 35.8269 36.4037C35.899 36.4784 35.9354 36.6284 35.936 36.8539C35.939 37.1677 35.9225 37.5388 35.8864 37.9669C35.8601 38.3959 35.8241 38.7653 35.7785 39.0751C35.7605 39.1716 35.7341 39.2526 35.6992 39.3183C35.674 39.3848 35.6167 39.4829 35.5274 39.6125C35.417 39.76 35.208 39.9728 34.9004 40.2507C34.5936 40.5189 34.1543 40.7906 33.5823 41.0658C33.0111 41.3314 32.2831 41.5396 31.3982 41.6905C30.523 41.8423 29.4577 41.8653 28.2024 41.7597C26.8595 41.6466 25.6185 41.3707 24.4794 40.9318C23.3412 40.4832 22.3637 39.8129 21.5469 38.9209C20.7399 38.0298 20.1468 36.8676 19.7677 35.4342C19.3982 34.0017 19.3011 32.2442 19.4764 30.1617C19.6713 27.8457 20.2358 25.9136 21.1697 24.3654C22.1142 22.8082 23.3616 21.6686 24.912 20.9465C26.4624 20.2244 28.2497 19.9485 30.2738 20.1188C31.6945 20.2384 32.8208 20.4802 33.6526 20.8442C34.4941 21.2091 35.1218 21.6098 35.5359 22.0465C35.9508 22.4734 36.2384 22.8406 36.3987 23.1481C36.4578 23.2609 36.4983 23.3623 36.5201 23.4523C36.5427 23.5326 36.5515 23.6608 36.5465 23.8368C36.5561 24.0728 36.5323 24.4138 36.4751 24.8598C36.4277 25.3066 36.3605 25.6978 36.2734 26.0335C36.2165 26.2443 36.1414 26.3801 36.048 26.4408C36.0058 26.4765 35.9349 26.5048 35.8351 26.5258C35.7353 26.5468 35.5881 26.5491 35.3935 26.5328C35.0821 26.5066 34.7326 26.4673 34.345 26.4151C33.9582 26.3532 33.6687 26.2994 33.4765 26.2538C33.2463 26.1952 33.0805 26.1274 32.9792 26.0502C32.8787 25.9634 32.7815 25.8376 32.6875 25.6729C32.5337 25.4051 32.2566 25.0878 31.8562 24.7209C31.4559 24.354 30.7643 24.1292 29.7815 24.0465C28.3996 23.9302 27.216 24.3696 26.2307 25.3646C25.2461 26.35 24.6535 28.0347 24.4528 30.4189C24.253 32.7933 24.5718 34.594 25.4094 35.8209C26.2567 37.0486 27.3566 37.7194 28.7093 37.8333ZM45.5434 43.2192C43.0912 43.0128 41.2047 42.1974 39.8839 40.773C38.5632 39.3486 38.0113 37.3471 38.2284 34.7683C38.4512 32.1214 39.357 30.2082 40.9459 29.0287C42.5454 27.8403 44.5858 27.3506 47.0673 27.5594C49.4612 27.7609 51.3237 28.5694 52.655 29.9849C53.9871 31.3906 54.5475 33.3488 54.3362 35.8594C54.1159 38.4771 53.2279 40.4114 51.6722 41.6623C50.1165 42.9132 48.0735 43.4322 45.5434 43.2192ZM45.9867 39.6991C47.0571 39.7892 47.8927 39.5263 48.4933 38.9104C49.0948 38.2848 49.4635 37.1643 49.5995 35.549C49.7289 34.0114 49.5425 32.9079 49.0402 32.2384C48.5485 31.56 47.7625 31.1754 46.6824 31.0845C45.6411 30.9968 44.7902 31.2682 44.1295 31.8986C43.4794 32.5201 43.0904 33.5899 42.9627 35.108C42.8292 36.6942 43.0176 37.8321 43.5279 38.5219C44.048 39.2125 44.8676 39.6049 45.9867 39.6991ZM72.0618 35.7196L71.3443 44.2442C71.3197 44.5361 71.2392 44.7352 71.1029 44.8413C70.9771 44.9385 70.7683 44.9748 70.4763 44.9502L67.4694 44.6972C67.1774 44.6726 66.9727 44.6015 66.8552 44.4838C66.7483 44.3572 66.7071 44.1479 66.7317 43.856L67.3853 36.0904C67.4745 35.0297 67.3158 34.2373 66.9092 33.713C66.5025 33.1888 65.9148 32.8943 65.146 32.8296C64.3772 32.7649 63.7697 32.8804 63.3234 33.176C62.8868 33.4725 62.5354 33.8643 62.269 34.3515L61.506 43.4161C61.4814 43.7081 61.401 43.9071 61.2646 44.0132C61.1389 44.1104 60.93 44.1468 60.6381 44.1222L57.6311 43.8691C57.3392 43.8445 57.1345 43.7734 57.017 43.6557C56.91 43.5291 56.8688 43.3198 56.8934 43.0279L57.923 30.7958C57.9426 30.5622 58.0064 30.3863 58.1144 30.268C58.3417 30.0127 58.6083 29.7558 58.9143 29.4974C59.2299 29.2397 59.6105 28.968 60.056 28.682C60.1907 28.5954 60.3164 28.557 60.4332 28.5668C60.5402 28.5758 60.6578 28.6347 60.7858 28.7435C61.1675 29.099 61.492 29.435 61.7594 29.7515C62.0268 30.068 62.2593 30.3914 62.4569 30.7217L62.5298 30.7278C62.7133 30.5276 62.9823 30.3004 63.3369 30.046C63.6924 29.7819 64.1763 29.563 64.7888 29.3891C65.4109 29.2161 66.1891 29.1689 67.1233 29.2475C68.038 29.3245 68.8934 29.5827 69.6895 30.0221C70.4855 30.4615 71.1094 31.1412 71.5612 32.0612C72.0227 32.9821 72.1895 34.2016 72.0618 35.7196ZM90.4538 37.2677L89.7363 45.7922C89.7117 46.0841 89.6312 46.2832 89.4949 46.3893C89.3691 46.4865 89.1603 46.5228 88.8683 46.4983L85.8614 46.2452C85.5694 46.2206 85.3647 46.1495 85.2472 46.0318C85.1403 45.9052 85.0991 45.6959 85.1237 45.404L85.7773 37.6385C85.8665 36.5778 85.7078 35.7853 85.3012 35.261C84.8945 34.7368 84.3068 34.4423 83.538 34.3776C82.7692 34.3129 82.1617 34.4284 81.7154 34.724C81.2788 35.0205 80.9274 35.4123 80.661 35.8995L79.898 44.9641C79.8734 45.2561 79.793 45.4551 79.6566 45.5612C79.5309 45.6584 79.322 45.6948 79.0301 45.6702L76.0231 45.4171C75.7312 45.3925 75.5265 45.3214 75.409 45.2037C75.302 45.0771 75.2608 44.8678 75.2854 44.5759L76.315 32.3438C76.3346 32.1102 76.3984 31.9343 76.5064 31.816C76.7337 31.5607 77.0003 31.3038 77.3063 31.0454C77.6219 30.7877 78.0025 30.516 78.448 30.2301C78.5827 30.1434 78.7084 30.105 78.8252 30.1148C78.9322 30.1238 79.0498 30.1827 79.1778 30.2915C79.5595 30.647 79.884 30.983 80.1514 31.2995C80.4188 31.6161 80.6513 31.9394 80.8489 32.2697L80.9218 32.2758C81.1053 32.0756 81.3743 31.8484 81.7289 31.594C82.0844 31.3299 82.5683 31.111 83.1808 30.9371C83.8029 30.7641 84.5811 30.7169 85.5153 30.7955C86.43 30.8725 87.2854 31.1307 88.0815 31.5701C88.8775 32.0095 89.5014 32.6892 89.9532 33.6093C90.4147 34.5301 90.5815 35.7496 90.4538 37.2677ZM100.909 47.8792C99.2646 47.7408 97.8562 47.3577 96.6841 46.7298C95.5127 46.0922 94.6384 45.1856 94.0611 44.01C93.4839 42.8344 93.2698 41.361 93.4188 39.59C93.6424 36.9333 94.4928 34.9812 95.9698 33.7335C97.4468 32.4858 99.3142 31.9569 101.572 32.1469C103.041 32.2706 104.26 32.6378 105.228 33.2485C106.205 33.8599 106.918 34.65 107.366 35.6187C107.823 36.5882 108.002 37.6666 107.902 38.8538C107.804 40.0118 107.439 40.7945 106.807 41.2019C106.175 41.6093 105.29 41.7651 104.151 41.6693L97.8894 41.1422C97.8828 42.1511 98.1835 42.9457 98.7912 43.5261C99.4087 44.1073 100.282 44.4454 101.411 44.5404C102.306 44.6157 103.032 44.5446 103.59 44.3269C104.157 44.1003 104.555 43.9181 104.782 43.7804C104.979 43.6598 105.193 43.6141 105.426 43.6435C105.611 43.6591 105.87 43.7201 106.204 43.8266C106.549 43.9242 106.883 44.0847 107.207 44.308C107.44 44.4549 107.547 44.6403 107.528 44.8642C107.518 44.9907 107.478 45.1686 107.41 45.3981C107.369 45.5319 107.304 45.7273 107.213 45.9843C107.124 46.2316 107.016 46.4626 106.89 46.6774C106.823 46.7795 106.722 46.8739 106.587 46.9606C106.381 47.0805 106.05 47.2339 105.593 47.4208C105.146 47.6086 104.541 47.7537 103.778 47.856C103.014 47.9681 102.057 47.9759 100.909 47.8792ZM98.112 38.1474L102.871 38.548C103.367 38.5897 103.634 38.3819 103.673 37.9246C103.731 37.2336 103.561 36.6362 103.162 36.1323C102.774 35.6194 102.147 35.3265 101.281 35.2536C100.337 35.1742 99.6158 35.4173 99.1174 35.9829C98.6287 36.5494 98.2936 37.2709 98.112 38.1474ZM119.073 33.62C120.231 33.7175 121.065 33.8856 121.574 34.1245C122.084 34.3536 122.403 34.5274 122.53 34.6459C122.732 34.8002 122.883 34.9893 122.982 35.2132C123.041 35.326 123.103 35.5174 123.169 35.7875C123.234 36.0576 123.273 36.35 123.286 36.6647C123.314 36.9121 123.304 37.0877 123.256 37.1914C123.209 37.2855 123.077 37.3969 122.861 37.5256C122.614 37.6617 122.344 37.7811 122.051 37.8838C121.769 37.9777 121.538 38.0415 121.359 38.0755C121.21 38.1021 121.097 38.1024 121.021 38.0764C120.945 38.0504 120.843 37.983 120.715 37.8742C120.568 37.7541 120.359 37.6189 120.087 37.4686C119.816 37.3086 119.433 37.2077 118.937 37.166C118.304 37.1127 117.688 37.2176 117.087 37.4807C116.497 37.7446 115.995 38.1728 115.583 38.7653C115.18 39.3586 114.939 40.1224 114.861 41.0566C114.743 42.4578 115.016 43.5736 115.681 44.4038C116.356 45.2348 117.312 45.7023 118.548 45.8063C119.18 45.8596 119.711 45.8406 120.14 45.7493C120.57 45.6483 120.912 45.5399 121.167 45.4241C121.371 45.3334 121.519 45.3214 121.611 45.388C121.714 45.4456 121.789 45.545 121.836 45.6862L122.699 48.1844C122.784 48.4464 122.711 48.6215 122.478 48.7097C122.102 48.8643 121.491 49.0235 120.644 49.1875C119.798 49.3514 118.766 49.3822 117.55 49.2798C115.107 49.0742 113.21 48.2629 111.86 46.8458C110.51 45.4189 109.944 43.4112 110.162 40.8227C110.301 39.1684 110.756 37.7808 111.526 36.6598C112.297 35.5389 113.326 34.719 114.615 34.2002C115.904 33.6717 117.39 33.4783 119.073 33.62ZM131.168 50.4261C127.918 50.1525 126.435 48.3274 126.719 44.9506L127.296 38.1047L125.646 37.9659C125.354 37.9413 125.155 37.8657 125.048 37.7391C124.951 37.6036 124.916 37.3899 124.94 37.0979L125.091 35.3025C125.116 35.0106 125.186 34.8107 125.303 34.703C125.431 34.5863 125.64 34.5402 125.932 34.5648L127.582 34.7037L127.78 32.3536C127.799 32.12 127.863 31.9441 127.971 31.8258C128.425 31.3249 129.072 30.7963 129.913 30.2399C130.057 30.154 130.183 30.1156 130.29 30.1246C130.407 30.1344 130.519 30.1929 130.628 30.3001C131.019 30.6564 131.344 30.9876 131.603 31.2935C131.871 31.6003 132.096 31.8985 132.277 32.1882C132.364 32.3229 132.397 32.507 132.378 32.7406L132.18 35.0907L134.763 35.3081C135.055 35.3327 135.25 35.4127 135.346 35.5482C135.453 35.6748 135.494 35.8841 135.47 36.1761L135.318 37.9715C135.294 38.2634 135.218 38.4677 135.09 38.5844C134.974 38.6921 134.769 38.7337 134.477 38.7092L131.894 38.4917L131.385 44.5348C131.254 46.0918 131.753 46.9178 132.882 47.0128C133.057 47.0275 133.219 47.0265 133.367 47.0096C133.516 46.9829 133.646 46.9546 133.756 46.9247C133.967 46.8641 134.111 46.8468 134.187 46.8728C134.273 46.8996 134.342 47.0132 134.394 47.2136L135.05 49.5473C135.117 49.798 135.044 49.9682 134.83 50.0581C134.679 50.1139 134.313 50.2105 133.733 50.3479C133.162 50.4958 132.307 50.5219 131.168 50.4261ZM149.326 50.2197C148.974 49.3963 148.63 48.3628 148.293 47.1192C147.958 45.866 147.649 44.5268 147.367 43.1016C147.085 41.6765 146.846 40.2745 146.648 38.8956C146.451 37.5071 146.307 36.2503 146.216 35.1254C146.134 34.0013 146.119 33.1278 146.172 32.505C146.193 32.252 146.263 32.0571 146.383 31.9201C146.633 31.6275 146.932 31.3293 147.281 31.0255C147.641 30.7128 148.06 30.3903 148.538 30.0582C148.694 29.9537 148.835 29.9068 148.962 29.9175C149.088 29.9281 149.21 29.9971 149.327 30.1246C149.753 30.5328 150.112 30.9208 150.405 31.2884C150.698 31.6463 150.943 31.9904 151.141 32.3206C151.236 32.4756 151.271 32.6942 151.248 32.9764L151.253 32.918C151.198 33.5603 151.208 34.4382 151.281 35.5517C151.364 36.6564 151.487 37.8721 151.65 39.199C151.823 40.5171 152.017 41.8221 152.232 43.1142C152.457 44.3974 152.689 45.5439 152.927 46.5538L153.015 46.5611C153.65 45.3014 154.261 43.9269 154.847 42.4376C155.433 40.9482 155.992 39.4224 156.526 37.8601C157.059 36.2977 157.564 34.7772 158.041 33.2983C158.185 32.8694 158.391 32.5829 158.658 32.4388C158.935 32.2857 159.351 32.2325 159.906 32.2792L161.658 32.4266C162.154 32.4684 162.517 32.5725 162.748 32.739C162.979 32.9054 163.128 33.2364 163.194 33.732C163.352 34.8821 163.539 36.0983 163.754 37.3807C163.97 38.6631 164.195 39.9414 164.431 41.2156C164.677 42.481 164.93 43.6685 165.19 44.7781C165.459 45.8886 165.721 46.8466 165.977 47.6521L166.064 47.6595C166.551 46.7694 167.008 45.7102 167.434 44.4819C167.871 43.2545 168.256 41.9982 168.59 40.713C168.934 39.419 169.211 38.2173 169.422 37.108C169.643 35.9996 169.78 35.1242 169.834 34.482L169.829 34.5404C169.853 34.2582 169.92 34.0482 170.029 33.9104C170.551 33.3074 171.25 32.6852 172.127 32.0436C172.292 31.9399 172.434 31.893 172.55 31.9028C172.657 31.9119 172.779 31.9809 172.915 32.11C173.322 32.5166 173.667 32.9033 173.949 33.2701C174.233 33.6272 174.474 33.9708 174.671 34.3011C174.755 34.465 174.786 34.6783 174.764 34.941C174.696 35.7585 174.52 36.7335 174.239 37.8662C173.957 38.999 173.601 40.2038 173.17 41.4808C172.75 42.7488 172.286 44.0132 171.778 45.2738C171.28 46.5353 170.764 47.712 170.231 48.804C169.709 49.8871 169.206 50.8002 168.722 51.5435C168.316 52.166 167.963 52.5822 167.661 52.792C167.37 52.9928 166.966 53.0716 166.45 53.0282L164.655 52.8771C164.217 52.8402 163.856 52.7118 163.57 52.4917C163.295 52.2726 163.019 51.8818 162.743 51.3196C162.534 50.8904 162.3 50.2925 162.041 49.5259C161.792 48.7601 161.543 47.9307 161.295 47.0376C161.057 46.1355 160.846 45.2652 160.662 44.4265C160.478 43.5877 160.351 42.8813 160.282 42.307C160.2 41.6533 160.135 41.0255 160.088 40.4237C160.051 39.813 160.037 39.3366 160.046 38.9943L159.93 38.9845C159.881 39.3235 159.778 39.7901 159.621 40.3844C159.473 40.9698 159.3 41.5775 159.1 42.2075C158.9 42.8375 158.643 43.5558 158.33 44.3625C158.017 45.1692 157.68 45.9787 157.317 46.791C156.955 47.6033 156.598 48.3523 156.246 49.0382C155.894 49.724 155.575 50.2654 155.286 50.6626C154.964 51.1157 154.623 51.4446 154.262 51.6495C153.912 51.8552 153.44 51.9331 152.846 51.8831L151.197 51.7443C150.681 51.7009 150.3 51.5757 150.052 51.3687C149.805 51.1617 149.563 50.7787 149.326 50.2197ZM174.768 34.8972L174.763 34.9556L174.764 34.941C174.766 34.9216 174.767 34.907 174.768 34.8972ZM146.173 32.4905L146.172 32.505L146.168 32.5488L146.173 32.4905ZM178.871 54.4411C177.44 54.3207 176.335 53.8259 175.556 52.9566C174.787 52.0785 174.462 50.9339 174.581 49.5229C174.642 48.7931 174.83 48.1278 175.146 47.5271C175.471 46.9175 175.985 46.4022 176.687 45.981C177.399 45.551 178.366 45.2404 179.588 45.0492C180.819 44.8588 182.371 44.8179 184.243 44.9265C184.318 44.041 184.148 43.3847 183.733 42.9578C183.328 42.5317 182.682 42.2814 181.797 42.2069C180.999 42.1397 180.335 42.2211 179.807 42.4509C179.278 42.6808 178.946 42.8391 178.811 42.9258C178.665 43.0311 178.496 43.0609 178.304 43.0154C178.044 42.9543 177.768 42.8624 177.474 42.7397C177.191 42.6179 176.884 42.4793 176.554 42.3242C176.507 42.3006 176.456 42.2669 176.401 42.2231C176.346 42.1695 176.318 42.0985 176.316 42.0101C176.32 41.9615 176.329 41.9035 176.345 41.8362C176.361 41.7591 176.397 41.625 176.452 41.4336C176.508 41.2423 176.586 41.0088 176.688 40.7331C176.79 40.4477 176.882 40.23 176.963 40.0801C177.065 39.922 177.224 39.7786 177.44 39.6498C177.617 39.5275 178.137 39.3508 178.999 39.1195C179.861 38.8883 181.086 38.8394 182.672 38.9729C187.041 39.3407 189.047 41.6508 188.689 45.9034L187.993 54.1652C187.978 54.3501 187.911 54.5061 187.792 54.6334C187.684 54.7517 187.509 54.8006 187.266 54.7801L185.076 54.5958C184.92 54.5827 184.781 54.5514 184.658 54.5018C184.545 54.4433 184.44 54.3463 184.344 54.2108L183.537 52.9669L183.435 52.9583C182.933 53.5726 182.29 53.9938 181.506 54.2219C180.732 54.4507 179.854 54.5238 178.871 54.4411ZM180.762 51.1898C181.657 51.2651 182.352 51.0933 182.848 50.6745C183.344 50.2556 183.676 49.8082 183.843 49.3323L183.98 47.712C182.627 47.5982 181.601 47.6197 180.902 47.7764C180.213 47.9242 179.743 48.159 179.49 48.4808C179.238 48.7928 179.096 49.1435 179.063 49.5327C179.016 50.0971 179.158 50.506 179.489 50.7593C179.822 51.0029 180.246 51.1463 180.762 51.1898ZM193.619 55.6236C193.407 55.6939 193.257 55.7254 193.17 55.7181C193.082 55.7107 192.992 55.6689 192.901 55.5925C192.69 55.418 192.464 55.0168 192.223 54.3889C191.992 53.7521 191.93 52.8011 192.037 51.5361L193.46 34.6329C193.479 34.3994 193.543 34.2235 193.651 34.1051C194.105 33.6043 194.752 33.0757 195.593 32.5192C195.737 32.4334 195.863 32.395 195.97 32.404C196.096 32.4146 196.214 32.4735 196.322 32.5807C196.714 32.937 197.039 33.2682 197.297 33.5741C197.565 33.8809 197.79 34.1791 197.972 34.4688C198.058 34.6035 198.092 34.7876 198.072 35.0212L196.724 51.0339C196.67 51.6761 196.678 52.2305 196.746 52.6968C196.815 53.1535 196.912 53.5242 197.035 53.809C197.173 54.144 197.091 54.3674 196.787 54.479L193.619 55.6236ZM202.231 56.3484C202.019 56.4188 201.869 56.4503 201.782 56.4429C201.694 56.4356 201.605 56.3937 201.513 56.3174C201.302 56.1429 201.076 55.7416 200.835 55.1137C200.605 54.4769 200.542 53.526 200.649 52.2609L202.072 35.3578C202.091 35.1243 202.155 34.9483 202.263 34.83C202.717 34.3292 203.364 33.8006 204.205 33.2441C204.349 33.1583 204.475 33.1198 204.582 33.1288C204.708 33.1395 204.826 33.1984 204.935 33.3055C205.326 33.6619 205.651 33.993 205.909 34.299C206.178 34.6058 206.402 34.904 206.584 35.1937C206.67 35.3284 206.704 35.5125 206.684 35.746L205.337 51.7587C205.282 52.401 205.29 52.9553 205.358 53.4217C205.428 53.8784 205.524 54.2491 205.647 54.5338C205.785 54.8689 205.703 55.0922 205.399 55.2039L202.231 56.3484ZM216.253 57.5875C214.609 57.449 213.2 57.0659 212.028 56.438C210.857 55.8004 209.983 54.8938 209.405 53.7182C208.828 52.5426 208.614 51.0693 208.763 49.2982C208.987 46.6416 209.837 44.6894 211.314 43.4417C212.791 42.194 214.658 41.6652 216.916 41.8552C218.385 41.9789 219.604 42.346 220.572 42.9567C221.549 43.5682 222.262 44.3583 222.71 45.327C223.167 46.2965 223.346 47.3749 223.246 48.5621C223.148 49.7201 222.784 50.5028 222.151 50.9102C221.519 51.3176 220.634 51.4734 219.496 51.3776L213.233 50.8505C213.227 51.8594 213.528 52.654 214.135 53.2343C214.753 53.8155 215.626 54.1536 216.755 54.2486C217.65 54.324 218.376 54.2528 218.934 54.0351C219.502 53.8085 219.899 53.6264 220.126 53.4887C220.323 53.368 220.537 53.3224 220.77 53.3518C220.955 53.3673 221.214 53.4284 221.548 53.5349C221.893 53.6325 222.227 53.7929 222.552 54.0162C222.784 54.1632 222.891 54.3486 222.872 54.5724C222.862 54.6989 222.822 54.8769 222.754 55.1064C222.713 55.2401 222.648 55.4355 222.557 55.6925C222.468 55.9398 222.36 56.1709 222.235 56.3857C222.167 56.4878 222.066 56.5822 221.931 56.6689C221.725 56.7887 221.394 56.9421 220.937 57.1291C220.49 57.3169 219.885 57.4619 219.122 57.5643C218.358 57.6764 217.402 57.6841 216.253 57.5875ZM213.456 47.8557L218.215 48.2562C218.711 48.298 218.978 48.0902 219.017 47.6328C219.075 46.9419 218.905 46.3445 218.506 45.8405C218.118 45.3276 217.491 45.0348 216.625 44.9619C215.681 44.8824 214.96 45.1255 214.462 45.6912C213.973 46.2577 213.638 46.9792 213.456 47.8557ZM231.419 58.864C228.169 58.5904 226.686 56.7653 226.97 53.3885L227.547 46.5426L225.897 46.4038C225.605 46.3792 225.406 46.3036 225.299 46.177C225.202 46.0415 225.167 45.8278 225.191 45.5358L225.342 43.7404C225.367 43.4485 225.437 43.2486 225.554 43.1409C225.682 43.0242 225.891 42.9781 226.183 43.0027L227.833 43.1415L228.031 40.7915C228.05 40.5579 228.114 40.382 228.222 40.2637C228.676 39.7628 229.323 39.2342 230.164 38.6778C230.308 38.5919 230.434 38.5535 230.541 38.5625C230.658 38.5723 230.77 38.6308 230.879 38.738C231.27 39.0943 231.595 39.4255 231.854 39.7314C232.122 40.0382 232.347 40.3364 232.528 40.6261C232.615 40.7608 232.648 40.9449 232.629 41.1785L232.431 43.5286L235.014 43.746C235.306 43.7706 235.501 43.8506 235.597 43.9861C235.704 44.1127 235.745 44.322 235.721 44.614L235.569 46.4094C235.545 46.7013 235.469 46.9056 235.341 47.0223C235.225 47.13 235.02 47.1716 234.728 47.1471L232.145 46.9296L231.636 52.9727C231.505 54.5297 232.004 55.3557 233.133 55.4507C233.308 55.4654 233.47 55.4644 233.618 55.4475C233.767 55.4208 233.897 55.3925 234.007 55.3626C234.218 55.302 234.362 55.2847 234.438 55.3107C234.524 55.3375 234.593 55.4511 234.645 55.6515L235.301 57.9852C235.368 58.2359 235.295 58.4061 235.081 58.496C234.93 58.5518 234.564 58.6484 233.984 58.7858C233.413 58.9337 232.558 58.9598 231.419 58.864Z" fill="white"/>
</svg>
