<?xml version="1.0" encoding="UTF-8"?>
<svg id="Layer_2" xmlns="http://www.w3.org/2000/svg" viewBox="0 0 894.04 804.38">
  <defs>
    <style>
      .cls-1 {
        fill: #fff;
      }
    </style>
  </defs>
  <g id="Layer_1-2" data-name="Layer_1">
    <g>
      <path d="M893.19,778.52c.12.31.12.56,0,.81.06-.31.06-.56,0-.81Z"/>
      <path d="M893.19,779.33s.06,0,0,.06c-.06.44-.37.81-.93.81-.5,0-1.12.06-1.49.25-.5.19-.56.68-1.12.75h-8.03c-1.12.12-1.06-.31-1.25-1.18-.75-1.56-.75,1-1.43,1.12-.81.19-2.05.06-2.99.06-1.18.06-1.25-.5-2.18-.87-1-.19-1.25-.62-1.18-1.68-.06-1.37,0-2.24,1.06-2.93,1-.37,1.87-1.06,2.86-1.31.81.06,1,.68,1.87.81.5.12,1.25.06,1.87.06.81,0,1.06-.5,1.68-.87.87-.25,3.42-.06,4.48-.06.81,0,.81.5,1.37.75s1.31.19,1.81.31c.93.5,2.12,1,2.86,1.56l.12.12c.31.25.5.75.62,1.31,0,0,.06.06,0,.12.06.25.06.5,0,.81Z"/>
      <path d="M891.2,763.89c.19.5.06,1.43-.31,1.56-.56.25-.5.87-1.12,1-.62.06-1.74-.06-2.12.12-.06.06-.19.25-.25.31,0,1.06-2.8.44-3.55.62-.44.06-.37.5-.68.75-.25.31-.62-.06-.75-.37-.12-.75-2.55-.25-2.8-.44l-.12-.12c-.06-.5.06-1.37-.25-1.62-.25-.31-.68-.19-.75-.62.06-1.18-.19-3.42.12-4.55.44-.06,5.29,0,7.53-.06.56.06.93-.06,1.06.12s.06.62.5.81c.31.12.87,0,1.25.19.25.12.31.31.44.5.37.37.81.75,1.12,1.18.25.19.5.25.68.62Z"/>
      <path d="M877.44,762.02c.06.68.19,2.37-.12,3.11-.31.44-.68.81-1.25,1.12-.56.25-1.43.31-1.62.87l-.06.12c-.62.37-2.24.12-2.99.19-1-.12-.62-.93-1.49-1-.87-.12-3.05.19-3.92-.19-.25-.12-.31-.31-.56-.5-.37-.37-1.37-.19-1.56-.68-.19-.62-.25-1.74,0-2.18.56-.87,1.31-1.31,2.37-1.56.44-.19.5-.56,1.06-.75.68-.06,2.05,0,2.24-.5.19-.25.31-.56,1-.56,1.12,0,3.49,0,4.36.06.62.12.81.68,1.37,1.18.5.5.93.68,1.18,1.25Z"/>
      <path d="M866.79,776.22c1.74.19,1.99-.44,1.81,1.74-.06.37-.56.25-.81.37,0,.12-.12.37-.12.5-.06.68.06,1.37-.19,1.37-.25.06-1,0-1.81,0-.75,0-1.56.06-1.81,0-.25-.12,0-.81-.44-.93-.31-.12-1.49.19-1.68-.25,0-.31-.06-2.37.06-2.68.12-.19,2.18,0,2.68-.12.37-.12,0-1,.81-.93.81,0,1.43-.19,1.37.81l.12.12Z"/>
      <path d="M732.92,371.36c55.29,56.23,87.8,136.12,81.57,215.07.06,10.15-.56,20.3-3.11,30.2-.19.68,0,1.74.56,1.93.75.5.19,1.49,0,2.37-.81,4.98-1.56,9.9-4.05,14.32-2.43,10.77-4.86,21.54-9.15,31.88-7.72,18.99-18.12,36.86-30.51,53.05-.19.87,1.68.37.56,1.56-2.43,2.8-5.29,5.54-8.16,7.85l-.25.19c-14.82,14.38-29.51,29.39-47.63,39.6-24.78,11.27-51.25,17.56-78.33,19.74-3.8-.06-9.03,0-12.83,1-2.55.12-7.78-.12-10.21.37-2.86,1.25-7.04.31-10.03.68-3.61.56-6.91,1.56-10.46,1.31-10.65.75-21.92,1.37-32.75,2.43-7.16.25-14.01,1.43-21.05,1.93-2.12.25-4.55.19-6.72.25-2.62.25-2.3,1-4.67.93-3.24-.06-9.28.06-14.2.06-2.24,0-4.23,0-5.6-.12-3.61-.5-7.29-3.42-9.03-6.72-1.12-2.49-3.42-.44-5.42-.31-7.16,2.18-14.57,4.73-22.11,3.36-6.72.44-10.34-3.24-12.14-9.03-2.24-2.37-3.49-5.6-3.42-8.66-6.79-.56-23.79-.19-33.13-.25-3.74.06-3.8.12-6.04-.81-2.24-.25-6.1-.25-8.78-.06-1.68.44-3.18-.37-4.79.06-.87.56-2.05,1.49-3.24,2.12-15.63,13.95-34.81,23.85-55.79,26.21-.06-.06-.12-.06-.25,0-2.55-.06-5.17-.06-7.78,0-5.29-.75-10.03-3.3-12.14-8.84-2.68-3.05-8.09,1.99-11.58,2.3-8.47,2.55-21.11,6.23-26.34-3.42-4.73-8.9,2.05-17.81,1.49-26.65,5.98-9.09,7.66-21.23,9.15-32.01-1.87-6.41-3.61,14.88-4.86,15.63-4.67,17.56-17.75,30.88-35.12,36.12-6.6,2.12-13.95,2.93-20.55.25-2.99-1.18-3.67-5.11-5.85-6.79-7.16,4.98-24.28,11.33-29.58.93-.62-1.12-1.31-1.56-2.49-1.18-3.18-.19-5.48-3.67-5.92-6.72-2.37-12.14,4.98-22.91,8.66-33.94-2.12-10.34-9.34-19.86-13.2-29.89-8.53-20.36-16.25-41.1-23.16-62.08-15.82-49.32-25.53-100.62-30.95-151.81-.75-11.89-2.12-24.66-2.12-36.61-2.05-8.59-.25-23.91-1-31.26-45.83-24.04-74.35-63.14-83.5-111.46-1.68-8.97-2.68-18.24-3.05-27.77-.06-.62-.06-1.25-.06-1.87-3.74-84.56,52.74-159.53,121.86-202.93,1.37-1.68-.5-4.48-.75-6.41-.75-2.93-1.43-7.29-1.87-9.84-1.06-17.31-.62-35.74,8.34-51.31,5.73-10.52,13.51-15.01,21.48-15.01,9.03,0,18.37,5.73,25.47,15.13,7.04,8.78,12.02,19.05,17.25,29.02,1.06,2.3,2.55,5.6,5.6,5.11,49.19-18.87,40.1,3.99,20.86-28.89-5.29-10.9,3.42-14.38,14.26-14.38,9.34,0,20.24,2.62,24.91,5.42,10.77,5.73,19.61,14.7,30.08,20.67,1.87-1.87.5-6.6,2.74-8.28,9.09-8.41,17.93,12.58,24.53,17.87,18.93,3.42,38.23,7.22,56.23,14.57,4.86,2.8,6.16-4.79,8.72-7.29,7.91-10.9,17.19-20.86,28.27-28.52,12.76-9.53,29.95-16.75,46.2-16.75,12.58,0,24.53,4.36,33.5,15.26,28.89,36.74,17.5,101.06-27.34,119.55-1.74.93-6.1,1.43-4.48,4.17,3.86,6.16,7.41,12.52,11.02,18.8,10.46,22.54,23.66,44.46,30.01,68.56,1.49,10.77-4.48,4.11-7.35-.81-.62-.56-.93-.56-.68.44,2.8,7.78,5.67,15.69,7.78,23.66.75,3.49.25,7.6,2.43,10.52,12.45,5.48,25.41,10.4,38.29,15.19,16.31,6.79,33.06,12.64,50.31,16.19,9.09,1.37,18,3.74,26.96,5.98,4.48,2.24,12.14,1.62,14.76,6.29-2.62,6.85-17.75.06-23.1,2.49,21.92,10.09,42.84,23.72,65.57,32.75,4.23,2.8,39.91,17.62,31.07,23.6-8.09-.37-15.5-6.97-23.41-8.16-.44.12-.5.68,0,1.25,3.61,3.8,7.22,7.6,11.58,10.65ZM755.83,712.65c36.43-45.95,48.32-106.73,43.77-164.08-4.92-102.62-77.65-191.47-168.93-233.88-28.77-11.77-57.78-25.41-86.61-35.8-2.3,3.24.19,10.46.68,14.01-.19,16.75,1.62,38.23-2.8,54.98-2.8,8.72-1.93-4.92-2.05-8.97-2.99-22.79-3.11-45.89-9.03-68.43-5.23-20.98-10.27-42.22-18.37-62.39-.25-1.49-1.93-3.67-.87-4.98.75-.06,2.43.56,2.18-.81-8.53-19.8-17.75-39.85-30.64-57.35-3.55-3.05-9.59-1.49-13.76-3.74-2.99-.31-17.43-9.96-12.7-9.96.56,0,1.31.12,2.43.44,30.45,7.66,64.63-11.77,71.73-42.84,5.23-23.16,2.68-44.15-6.1-57.78-11.89-18.56-35.24-23.54-66.38-2.18-21.05,15.01-38.11,36.61-48.63,59.96-1.18-.37-.31-4.98-1.81-4.73-2.37-3.92,1.43-10.59,2.49-14.38-9.09-7.78-25.84-8.66-37.67-12.64-4.17-.12-8.78-3.49-12.64-1.31-8.47-2.18-13.33-17.5-21.61-22.54-.93-.62-1.74-.31-2.24.68-2.43,7.53,5.04,13.51,6.23,20.11-16.07-9.22-32.5-26.65-51.74-33.75-33.81-10.03-21.36,2.74-5.11,17.56,7.04,5.36,15.26,9.34,22.11,14.94,1,.75.81,1.49-.5,1.43-11.89-1.87-23.85-5.85-35.87-3.61-22.91-1.49-12.2,7.1,1.62,9.4,7.04,1.81,39.73,3.74,13.76,6.04-8.34.56-18.49,1.12-26.71-.68-5.36-.68-8.78-5.79-14.32-4.42-53.24,14.38-102.24,43.9-138.98,84.81-49.25,52.55-67.93,128.27-42.16,196.27,9.09,21.48,42.78,82.19,70.49,58.28,8.47-8.41-12.14-24.72-13.39-35.62-8.66-21.3-13.39-43.84-15.82-66.63.68-7.41-2.8-16.44-.12-23.23,2.18,3.42,1.68,8.09,2.18,12.2,5.67,42.03,13.57,100.94,62.08,113.02,37.05,9.53,85.12-17.87,85.12-58.53-12.27-13.51,14.57,1.49,18.06,5.54-1.37,5.6-9.22-3.67-10.83.12-3.8,29.58-25.78,55.36-55.17,62.21-20.11,5.98-42.28,2.93-59.34-8.53-5.98,5.79-12.45,13.08-22.35,11.58-1.12.06-.25.75.5,1.12,40.91,24.72,89.04,28.33,135.49,27.77,3.74-1.31,10.03-.37,13.7-.81,2.86-.37,4.92-2.86,7.66-2.8,13.14-.81,30.45,1.12,43.03.75l.5,1.74v.06c-12.95,3.36-26.03,6.35-38.92,9.65-32.19,3.36-66.13,4.79-98.26-1.12-53.8-8.09-49.57-33.81-48.94,14.45,2.74,6.29-2.62,49.07,10.34,28.08,1.06,4.92-2.49,9.09-4.86,12.64,1.25,19.18,4.42,38.29,8.03,57.1,8.09,36.68,17.81,73.16,30.76,108.41,5.54,17.25,11.4,34.31,18.74,50.81,4.79,13.01,9.03,21.23-.75,33.06-1.99,4.61-5.23,10.52-4.73,15.69,4.05-8.41,7.53-20.49,16.19-26.09-1.43,14.2-23.6,48.38,10.21,27.46,4.23-1.56,15.01-29.02,16.44-20.24.5,9.84-4.42,16.19-2.68,25.9,10.71,9.46,28.08-6.79,35.62-15.63,2.62-4.92,6.72-10.83,5.98-16.63,0-.56.19-.68.62-.93,2.43-.87.56-4.23,2.3-6.16,1-2.55-2.12-3.99,1.06-5.85,2.68-6.54-2.86-12.2-7.72-16.19-13.14-11.33-25.16-23.91-36.18-37.3-25.09-30.14-52.37-65.82-53.67-106.48,14.2,41.47,40.1,79.27,71.55,110.59,12.45,12.08,24.6,25.41,38.36,35.74,2.68-9.96,1.81-21.86,3.18-32.32,3.86-40.41,4.36-83.44,23.91-120.3,5.11-7.6-4.11,20.98-3.3,23.16-6.79,44.96-7.66,89.98-12.76,135.06-1.06,11.46-3.55,22.04-6.29,32.82,1.49.06,6.79-10.71,7.66-6.23-3.99,12.76-19.3,24.72-15.94,39.04,9.09,3.92,20.98-3.3,29.14-7.72,1.74-2.74,22.48-30.82,20.36-21.23-3.67,5.73-17.19,30.45-7.97,33.62,19.74.56,38.98-9.22,52.93-22.54,41.97-42.72,70.05-97.26,90.85-152.99,2.8-7.1,20.36-53.43,12.89-22.23-4.73,30.45-14.2,59.9-27.52,87.74-13.89,27.09-29.83,53.43-50.13,76.15-4.11,3.67,14.76,3.99,16.81,4.36,7.85-.25,16.13.06,23.91.12,4.42,1.12,5.79-6.04,8.72-8.47,15.32-21.17,41.41-28.77,66-32.44,30.82,2.3-35.68-19.99-12.27-118.99,15.38-61.89,68.25-124.04,136.18-122.85,8.59,1.62-5.92,4.67-10.9,5.67-106.29,19.49-172.3,186.99-67.93,249.69,21.17,12.7,46.51,17.43,68.87,26.4-10.27,1.81-21.79-2.62-32.38-3.55-14.07-4.36-28.52-7.35-41.53-14.82-9.15-6.6-16.63-9.96-25.72-10.59-4.48-.31-9.4.06-15.13,1.06-14.76-5.73-86.86,53.86-50.81,49.38,26.65-2.86,37.92-34.75,65.32-36.99-12.2,9.28-30.2,20.11-35.74,37.17-2.74,7.35,23.91.87,27.9,1,21.05-2.12,42.09-4.92,63.14-6.6,16.75-1.49,32.13-2.8,46.39-4.73,43.46-6.04,77.03-18.49,111.96-61.27l.19-.19ZM506.45,739.3c1.74-.37,4.92-1.49,1.06-1.62-1.43.06-2.37.5-3.55.75-2.43.31-4.48.68-6.29,1.56-2.86.62-5.42,1.93-7.78,3.67-4.67,2.12-8.97,4.92-12.39,8.78-1.06.87-2.3,1.56-3.42,2.37-.75.81-1.31,1.81-2.12,2.55-2.62,3.05-5.36,5.92-7.41,9.4-.37.62-2.62,5.04-.44,2.74l.12-.19c5.67-8.72,13.7-15.69,22.6-20.98,5.85-4.3,12.89-6.66,19.61-9.03ZM230.6,52.05c.25-1.25-2.05-3.49-3.55-3.55-1.93-.62-3.61-3.36-4.86-5.04-.62-1.31-.19-3.11-1.31-4.42-3.3-5.17-7.41-9.65-10.9-14.63-7.91-7.6-16.75-19.86-28.89-13.08l-.12.12c-.37.37-.5.87-.5,1.43,0,2.62-.12,9.53,0,11.89.25,1.37,1.06,1.87.93,3.49.06,3.05,0,9.71.06,12.2.12,1.37.81,1.93.93,3.3.12,3.11-.25,7.47.56,10.46.06.81.56,1.81.75,2.68.25,1.74-.06,3.36.37,5.04.56,1.68,1.12,3.36.87,5.11,0,1.12-.87,3.24.19,4.17.19.06.37.06.5-.06.56-.31,1.12-1.68,1.74-1.31.56.31.93-.44,1.31-.87.44-.68,1.87,1.18,1.99-.19.19-.31,0-1,.44-1.06.5-.12,1.37.62,2.24.44.56-.06,1.12-.37,1.68-.62,6.29-2.8,12.7-5.6,19.05-8.41.56-.19,1.12-.37,1.62-.68.93-.5,1.25-1.37,1.93-1.56.44,0,.68.12,1.12.12.75,0,1.56-.81,2.43-.75,2.18-.5,4.86-1.25,6.91-2.37.68-.81,2.05-1.25,2.49-1.87ZM224.94,45.01v-1h-1v1h1ZM183.59,72.59v-3.99h-1v3.99h1ZM181.54,73.53c.25-.93,0-3.8.06-4.86v-.06h-1.74c-.31,0-.19.12-.19.5v5.23c-.06.25.06.19.62.19.56.12.25-.68.44-.87.12-.19.68-.06.81-.12ZM181.6,67.67v-1h-.93v1h.93ZM179.67,63.69v-2.93h-1v2.93h1ZM175.31,77.26c2.3-1.12,3.8-1.18,3.49-4.3-.12-2.12.31-6.16-.44-7.78s-.5-4.11-.93-5.92c-.06-.5.06-.81.31-1.18.81-1.18.5-3.61-.31-4.79-.5-.75.19-2.49-.12-3.42-.19-.31-1.25.81-1.31-.19.19-1.62,1.49-2.12,1.18-4.17.06-1.18-.68-1.62-.75-2.62,0-.62.75-1.49.87-2.3.06-.87.12-1.56.06-2.24-.12-1-1-1.49-.62-2.3.5-.87-.5-1.49.12-2.37.12-.25,0-.56-.12-.81-.31-.44.06-.93.19-1.43,0-.25-.19-.5-.25-.75-.25-.56.44-1.06.5-2.05,0-.87.12-1.99-.19-2.86-.37-.75-1.74-1.99-1.81-.62,0,2.05-2.24,3.86-2.05,5.98.06.44.12,1.06.19,1.49.12.75-.87.62-1,1.12-.06.62-.06,1.49,0,2.18-.25,1.25,0,2.24-.19,3.42.06.68.19,1.31,0,1.99,0,1.12-.93,2.05-1,3.18-.12,1.37.06,1.93-.25,3.36-.31,1.37-.12,4.36-.5,5.67-.44,2.86-.56,6.6-.25,9.59l.06.12c.44,4.61,1.25,8.22,2.49,12.83.37,1.49,1.18,1.99,2.62,1.18ZM177.68,24.34v-3.92h-1v3.92h1Z"/>
      <path class="cls-1" d="M799.61,548.57c4.55,57.35-7.35,118.12-43.77,164.08l-.19.19c-34.93,42.78-68.49,55.23-111.96,61.27l-1.43-11.33c-22.35-8.97-47.7-13.7-68.87-26.4-104.36-62.7-38.36-230.2,67.93-249.69,4.98-1,19.49-4.05,10.9-5.67-67.93-1.18-120.8,60.96-136.18,122.85-23.41,99.01,43.09,121.3,12.27,118.99-24.6,3.67-50.69,11.27-66,32.44-2.93,2.43-4.3,9.59-8.72,8.47-7.78-.06-16.07-.37-23.91-.12-2.05-.37-20.92-.68-16.81-4.36,20.3-22.73,36.24-49.07,50.13-76.15,13.33-27.83,22.79-57.29,27.52-87.74,7.47-31.2-10.09,15.13-12.89,22.23-20.8,55.73-48.88,110.28-90.85,152.99-13.95,13.33-33.19,23.1-52.93,22.54-9.22-3.18,4.3-27.9,7.97-33.62,2.12-9.59-18.62,18.49-20.36,21.23-8.16,4.42-20.05,11.64-29.14,7.72-3.36-14.32,11.96-26.28,15.94-39.04-.87-4.48-6.16,6.29-7.66,6.23,2.74-10.77,5.23-21.36,6.29-32.82,5.11-45.08,5.98-90.1,12.76-135.06-.81-2.18,8.41-30.76,3.3-23.16-19.55,36.86-20.05,79.89-23.91,120.3-1.37,10.46-.5,22.35-3.18,32.32-13.76-10.34-25.9-23.66-38.36-35.74-31.45-31.32-57.35-69.12-71.55-110.59,1.31,40.66,28.58,76.34,53.67,106.48,11.02,13.39,23.04,25.97,36.18,37.3,4.86,3.99,10.4,9.65,7.72,16.19-3.18,1.87-.06,3.3-1.06,5.85-1.74,1.93.12,5.29-2.3,6.16-.44.25-.62.37-.62.93.75,5.79-3.36,11.71-5.98,16.63-7.53,8.84-24.91,25.09-35.62,15.63-1.74-9.71,3.18-16.07,2.68-25.9-1.43-8.78-12.2,18.68-16.44,20.24-33.81,20.92-11.64-13.26-10.21-27.46-8.66,5.6-12.14,17.68-16.19,26.09-.5-5.17,2.74-11.08,4.73-15.69,9.78-11.83,5.54-20.05.75-33.06-7.35-16.5-13.2-33.56-18.74-50.81-12.95-35.24-22.67-71.73-30.76-108.41-3.61-18.8-6.79-37.92-8.03-57.1,2.37-3.55,5.92-7.72,4.86-12.64-12.95,20.98-7.6-21.79-10.34-28.08-.62-48.26-4.86-22.54,48.94-14.45,32.13,5.92,66.07,4.48,98.26,1.12,12.89-3.3,25.97-6.29,38.92-9.65v-.06c17.25-4.48,34.25-9.71,50.31-17.5,6.54-4.67,16.19-6.91,21.17-12.95-9.09,1.06-25.53,1.68-33.56,1.37-2.68,2.93,10.83,1.31,12.27,2.49,0,6.04-28.33,8.66-34.99,11.64-14.38,3.18-31.57,3.74-45.7,3.74,3.8,3.99,13.39,4.86,19.37,6.91,2.49.93,10.4.87,10.65,2.55-12.58.37-29.89-1.56-43.03-.75-2.74-.06-4.79,2.43-7.66,2.8-3.67.44-9.96-.5-13.7.81-46.45.56-94.58-3.05-135.49-27.77-.75-.37-1.62-1.06-.5-1.12,9.9,1.49,16.38-5.79,22.35-11.58,17.06,11.46,39.23,14.51,59.34,8.53,29.39-6.85,51.37-32.63,55.17-62.21,1.62-3.8,9.46,5.48,10.83-.12-3.49-4.05-30.32-19.05-18.06-5.54,0,40.66-48.07,68.06-85.12,58.53-48.51-12.08-56.41-70.99-62.08-113.02-.5-4.11,0-8.78-2.18-12.2-2.68,6.79.81,15.82.12,23.23,2.43,22.79,7.16,45.33,15.82,66.63,1.25,10.9,21.86,27.21,13.39,35.62-27.71,23.91-61.4-36.8-70.49-58.28-25.78-68-7.1-143.71,42.16-196.27,36.74-40.91,85.74-70.42,138.98-84.81,5.54-1.37,8.97,3.74,14.32,4.42,8.22,1.81,18.37,1.25,26.71.68,25.97-2.3-6.72-4.23-13.76-6.04-13.82-2.3-24.53-10.9-1.62-9.4,12.02-2.24,23.97,1.74,35.87,3.61,1.31.06,1.49-.68.5-1.43-6.85-5.6-15.07-9.59-22.11-14.94-16.25-14.82-28.71-27.58,5.11-17.56,19.24,7.1,35.68,24.53,51.74,33.75-1.18-6.6-8.66-12.58-6.23-20.11.5-1,1.31-1.31,2.24-.68,8.28,5.04,13.14,20.36,21.61,22.54,3.86-2.18,8.47,1.18,12.64,1.31,11.83,3.99,28.58,4.86,37.67,12.64-1.06,3.8-4.86,10.46-2.49,14.38,1.49-.25.62,4.36,1.81,4.73,10.52-23.35,27.58-44.96,48.63-59.96,31.13-21.36,54.48-16.38,66.38,2.18l-7.04.12c-.44-.25-1.25-.56-2.62-1-3.55-.37-10.46-.06-14.07-.12-1.62,0-1.87.44-3.3.75-1.81.37-3.92.56-5.6,1.37-7.1,2.86-13.82,6.23-19.8,11.02-9.84,9.09-18.49,19.05-25.53,30.45-4.48,6.23-7.47,13.39-11.64,19.8-.5,2.12-8.22,12.52-4.48,12.33h.19l3.74,4.23c-.31.37-.56.68-.81,1.06-.19.25-.19.5,0,.68.75.68,3.24.37,4.48-.19,1.18-.37,2.49-.37,3.8-.37,2.68.12,3.3-.37,5.48-.93v5.6c-.93-.06-1,.19-1.43.68-.62.5-1.81.12-2.37.44-.37.19-.44.5-.87.68-.37.19-1,.19-1.25.44-.68.93.44.68,1.56.75,3.24,0,9.15-.12,10.9.06.62,1.31,1.31.81,3.05.87,1.25-.06,1,.75,1.81.93l-2.24,10.52c-4.73,0,9.71,9.65,12.7,9.96,4.17,2.24,10.21.68,13.76,3.74,12.89,17.5,22.11,37.55,30.64,57.35.25,1.37-1.43.75-2.18.81-1.06,1.31.62,3.49.87,4.98,8.09,20.17,13.14,41.41,18.37,62.39,5.92,22.54,6.04,45.64,9.03,68.43.12,4.05-.75,17.68,2.05,8.97,4.42-16.75,2.62-38.23,2.8-54.98-.5-3.55-2.99-10.77-.68-14.01,28.83,10.4,57.85,24.04,86.61,35.8,91.28,42.4,164.01,131.26,168.93,233.88ZM733.79,497.39c.06-.25-.12-.5-.37-.56-.62-.25-.44-.37-.75-.87-.12-.06-.31-.12-.44-.19-.44-.12-.31-.56-.56-.81-.19-.19-.5-.12-.68-.31s-.12-.5-.31-.68c-.25-.19-.68-.12-.81-.5-.06-.25-.06-.5-.31-.62-.37,0-1.62-.25-1.68.37-.06.5.44.62.81.62l.12.12c.06.19,0,.5.19.68s.5.12.68.31.12.5.31.68.5.12.68.31c.31.44.12.68.81.87.5.06.25.81.62.87s1.62.31,1.68-.31ZM529.11,377.83c-.12-3.05.31-11.52-.12-15.5-1.06-1.62-.75-4.17-1.49-5.92-.5-1.43-1-3.05-1.81-4.42-.62-2.05-1.37-3.86-2.37-5.73-.56-1-1.43-2.74-2.55-2.86-1.06.62-.19,2.49.44,3.11l.12.19c.87,1.56,1.37,3.67,2.3,5.23.44,1.87.87,3.55,1.37,5.23.19,1.06,0,2.86.31,3.74.31,1.37.87,1.12.81,2.49v19.8c.06,1.49-.25,3.18.68,2.24,1.06-.68,1.31-3.74,1.56-5.54.25-.87.68-1.18.75-2.05ZM522.7,392.03c.68-1.06,1.56-1.93,1.49-3.36-.31-2.3-1.18-4.55-2.24-6.6-.56-2.12-1.56-3.86-2.8-5.6-2.18-5.17-4.98-8.97-8.16-13.39l-.12-.19c-.5-.93-1.37-1.31-1.93-2.24-.44-.68-1.37-1.99-1.93-1.49-.81.5-.5,2.05-.06,2.86.93,1.68,1.74,3.61,2.68,5.23.75,2.49,1.68,4.79,2.99,7.04,1.06,2.8,1.87,5.79,2.93,8.47,1,2.99,1.74,5.98,2.55,9.03.19,2.05.68,3.92,1.18,5.92.12.75.62,2.3,1.43,1.43,1.12-2.18,1.18-4.67,1.99-7.1ZM510.99,246.76c.5-.25.37-1.18,0-1.62-.37-.5-.5-1.25-.75-1.81l-.12-.19c-.19-.44-.75-.62-1.12-1.06-.68-1.31-1.31-2.68-1.99-4.11-.31-.56-1-.68-1.25-1.37-.31-.62-.5-1.31-.87-1.87-.68-.62-1.43-1.25-1.99-1.99-.31-.5-.44-1.12-.81-1.62-.5-.44-1.25-.5-1.74-.93-.37-.31-.68-.93-1.18-1.06-.81-.25-.68,1.12-.25,1.56.31.62,1,.75,1.25,1.43.5,1.43.81,1.87,1.87,2.86,1,.68,1.37,1.74,1.87,2.86.31.56,1,.68,1.25,1.37.25.56.44,1.18.75,1.68.56.68,1.31,1.37,1.99,1.99.62.93.81,2.3,1.81,2.93.31.31.87,1.06,1.31.93ZM509.69,230.82c.68.37.93-.37.68-.93-.37-.93-.87-1.81-1.37-2.74-3.92-3.42-7.04-8.16-11.64-10.65-1.31-1-2.3-2.99-3.99-3.3-.68.06-.81.56-.31,1l.12.19c2.05,2.18,4.67,4.05,5.85,6.91,2.49,2.43,4.98,4.92,7.47,7.41.68.44,1.49.75,2.18,1.18.37.31.62.75,1,.93ZM510.43,408.84c-.06-2.24.31-4.23-.31-6.04-.68-1-.62-3.92-1-4.98l-.06-.25c-.81-2.62-1.31-5.42-2.37-7.85-1.25-2.24-1.68-4.79-2.99-7.04-1.06-2.24-2.43-4.23-3.8-6.29-.25-.37-.68-.87-1.06-.44-.75,1.68.81,3.67,1.12,5.42,1.18,3.36,2.3,6.91,3.11,10.34.62,2.74,1.31,5.23,1.62,7.91.56,1.93,1.06,4.23,1.62,6.16.25,1,.06,2.8.31,3.74.25,1.06.62,1.37.75,2.68.12,1.37-.06,3.86.12,5.04.12.75.31,1.06.87.81,1.25-.62.93-3.49,1.31-4.67.62-1.62.87-2.05.75-4.55ZM508.38,259.96c.81,1.06,1.37-.06,1.12-1.06-.5-1.49-.81-3.49-1.31-5.17-.87-1.62-1.68-3.24-2.49-4.86-1.93-3.11-4.3-5.73-6.23-8.72-2.99-2.86-5.92-5.92-8.9-8.72-.56-.44-1.49-.68-2.05-.56-.93.19-.68.93-.06,1.49l.19.12c1.06.87,1.74,2.37,2.68,3.61,3.05,2.86,5.11,6.72,7.47,10.15,3.05,4.67,6.54,9.03,9.59,13.7ZM498.48,423.97c.37-.56.31-2.8.31-4.17s.12-2.74-.62-3.8c-1-1.99.12-5.54-.75-7.6l-.06-.19c-.62-.81-.68-2.99-1.12-3.99-.87-2.86-1-4.23-2.18-7.29-1.06-1.43-1.43-3.92-3.18-4.55-.68-.12-1,0-.93.56.25,1.25.93,2.68,1.25,3.99.31,1.37.5,2.62,1,3.67.44,1.12.19,3.05.62,3.99,1,1.49.56,4.11.93,5.67.19.93.62,1.12.81,2.3.12,1.25-.06,3.55.12,4.61.25,1.18.81,1.18.93,2.68.31,2.12-.81,5.92,1.18,6.91.44.12.62-.19.81-.62.31-.75.56-1.62.87-2.18ZM429.17,234.24c3.05,1.68,4.36.12,3.24-2.93-1.18-1.68-2.86-2.93-4.67-3.86-1-.93-2.24-1.56-3.55-2.12-1.56-.93-3.42-1.56-4.98-2.55-1.06-.62-2.55-.56-3.67-.81-1.37-.75-2.43-.93-4.17-.81-1.62-.06-3.18.12-1.43,1.68l.12.12c.81,1.06,2.24,1.06,3.42,1.49,1.25.93,2.43,1.87,3.92,2.37,1.31.62,2.24,1.62,3.3,2.62,1.06.62,2.18,1.12,2.99,1.99,1.74,1.06,3.74,1.74,5.48,2.8ZM431.04,395.52c.56-.06.81-.62.56-1.18s-.93-.81-1.43-1.06l-.19-.12c-1.43-.75-3.18-1.68-4.73-2.43-1.12-.25-2.18-.56-3.24-1.12-1.12-.12-1.99-.5-2.99-1-1.31-.19-2.55-.68-3.61-1.43-2.3-.75-3.8-2.49-5.42-4.23-.37-.25-.68-.25-.87.06-.44,1.31,1.12,1.87,1.49,2.99.31.5.56,1.06.81,1.56.44.44,1,.75,1.18,1.49.37.56.56,1.25,1,1.74.93.68,2.43,1.06,3.11,2.12.87.68,2.43.62,3.24,1.18.87.37,1.62.93,2.37,1.37,2.18.25,7.04.06,8.72.06ZM419.34,238.91c1.68.25,1.87-1.56,1.25-2.68-.25-.62-.81-.81-1.18-1.37-1-.81-1.68-1.87-2.8-2.49-1.62-.62-1.99-1.49-3.24-2.12-1.06-.44-1.68-.93-2.49-1.74-1.68-.56-3.18-.81-4.73-1.87-.93-.68-1.99-.56-3.3-.56-1.68-.06-2.12.56-.75,1.68l.19.12c.87,1,1.87,1.87,3.11,2.37.56.19.93.62,1.31,1,.68.56,1.62.87,2.37,1.37,1.06,1.06,2.12,2.12,3.55,2.68.62.25.81.75,1.25,1.06,1.81.87,3.49,2.05,5.48,2.55ZM414.23,404.92c1.12-.56,2.3-1,.81-2.24l-.19-.06c-.62-.5-2.86-.12-3.42-.62-.25-.19-.5-.31-.68-.5-1-.44-2.74-.06-3.8-.31-.56-.12-.75-.37-1.18-.62s-1.31-.37-1.87-.5c-.81-.31-1.25-.75-2.18-.87-1.25-.19-1.68-.75-2.62-1-.68-.19-1.81-.06-2.37-.25-.75-.31-.93-.75-1.99-.87-.93-.06-1.99,0-2.74-.5-.75-.62-1.12.56-.56,1.06.68.68,1.81.87,2.3,1.81.56.44,1.31.75,1.93,1.12.68.25.93.93,1.49,1.31,2.18,1.12,4.48,2.43,6.6,3.49.68.25,1.99.06,2.62.31.5.19.75.44,1.18.62.5.31,1.56.31,2.24.31.62,0,1.56.68,1.93.62.87-.19,1.68-1.74,2.49-2.3ZM406.82,240.65c.37-.31-.44-.93-.56-1.49-.37-1.18-.93-1.49-1.68-2.3-.56-.75-1.81-.93-2.55-1.49-.68-.93-1.37-1.25-2.55-1.56l-.19-.12c-.37-.19-.56-.62-.81-.93-.56-.81-2.12-.62-2.86-.93-1.06-.62-2.05-1.12-3.18-1.68-.75-.12-1.87-.19-2.12.37-.44.93.06,2.24.68,2.99.25.56.44,1.18.75,1.62.44.37.93.81,1.31,1.25,2.18,1.18,4.42,2.12,6.54,3.3.56.31,1.56.12,2.12.44.5.25.56.62,1.25.75.81,0,3.05.19,3.86-.19ZM400.1,181.06c-.12-3.49.62-9.65-.75-13.2-.31-2.43-.44-4.98-1.56-7.29-2.3-6.48-5.98-12.27-10.34-17.56-.5-.56-.37-1.12.37-1.49,3.3-1.37,7.1-2.68,7.97-6.6.25-2.74-1.18-4.61-4.55-4.3-4.05-.12-9.15.19-12.95-.12-2.55-.93-5.92-1.99-8.66-2.62-9.65-1.31-19.43,2.24-26.78,8.34l-.12.19c-5.29,4.79-10.15,10.77-12.39,17.62-2.55,5.17-4.73,11.21-5.04,17-.06,1.49-.31,2.43-.56,2.99-.81,2.62-.25,6.91-.44,9.78-.12,2.86.25,4.17.93,6.91.68,4.36,2.18,8.53,4.79,11.96,2.99,4.48,6.85,8.84,11.58,11.4,4.61,2.68,9.22,4.05,14.51,5.04,4.86.68,11.21-.68,15.94-1.99,15.94-4.48,25.53-20.36,28.02-36.05ZM329.3,479.08c.31-.81.06-2.62-1-1.56l-.19.12c-1.49,1.93-1.68,4.61-2.99,6.66-1.06,2.37-2.62,4.48-3.11,7.04-.56.87-.75,2.05-1,3.05-.25.56-.56.75-.68,1.37-.25.93.12,2.93-.37,3.8-.31.62-.62,1,.06,1.18,1.37.12,1.62-1.93,2.24-2.8.87-1.68,1.93-3.3,2.24-5.23.5-1.06.87-1.87,1-3.05.31-.81.81-1.31.93-2.43.19-1.12.87-1.68,1-2.99.19-1.06.81-1.62,1-2.74.12-1.12.56-1.62.87-2.43ZM319.33,479.27c.19-.37.19-.62-.06-.93l-.12-.12c-1.99-.75-3.67,2.68-4.36,4.23-.75,1.31-1.37,2.68-1.99,4.05-.93,1.43-1.62,3.3-2.55,4.79-1,2.3-1.56,4.92-2.55,7.1-.31.81-.19,1.93-.44,2.74-.19.87-1.12,1.74-.19,2.37,1.74.68,2.55-1.99,3.18-3.24,1.25-1.99,2.12-4.23,2.86-6.54,1.31-1.99,1.62-4.67,2.93-6.72,1.56-3.05,2.24-4.42,3.3-7.72ZM298.72,436.55c.06-.31.06-.87-.12-.81-2.74.06-8.09-.06-10.65.06v.12c0,.25-.06.68.06.75.37,0,10.09.31,10.71-.12ZM281.16,653.93c.87.75,2.3,0,1.62-1.18l-.12-.19c-1.99-2.24-4.48-4.79-7.16-6.48-1.56-1.99-3.05-4.05-4.98-5.79-9.15-11.27-16.13-24.04-22.54-37.17-2.37-3.11-1.18,1.43-.56,2.62.31,1.37.87,2.49,1.31,3.8,3.86,7.22,6.91,15.01,11.46,21.92.62,1.06,1.37,1.99,2.18,2.86,1,1.31,1.81,2.93,3.05,3.99,1.31,1.12,2.05,2.74,3.11,4.05,3.74,4.36,8.53,7.66,12.64,11.58ZM263.17,648.01v-.12c-4.3-5.42-10.65-9.65-14.45-15.57-6.66-8.16-11.15-18-15.13-27.58-1.87-3.18-2.3-.5-1.49,1.49,2.93,8.41,5.79,17.12,11.15,24.47,3.36,4.86,6.79,10.03,11.89,13.33,1.56.93,6.66,6.1,8.03,3.99ZM178.17,532.13c1-.75-.5-3.05-.62-4.11l-.12-.25c-1.56-4.23-2.99-8.97-3.86-13.45-.75-1.56-.75-3.24-.93-4.86-.25-.93-.62-1.25-.75-2.24-.25-1.06,0-3.05-.31-3.92-.44-1.37-.81-2.74-1.49-4.05-2.62-3.42-2.62.25-2.18,2.37,1.31,2.05.68,5.79.81,8.34.12,1.25.62,1.37.87,2.49.19.75.12,1.87.25,2.68.68,1.93.93,3.92,1.56,5.79,1.31,3.86,3.24,8.03,5.98,11.15.25.19.56.25.81.06ZM175.68,253.17c.06-1.68.12-4.48-.06-6.23-.25-1.43-.81-2.43-1.18-3.8l-.06-.25c-.93-2.55-3.05-4.42-5.67-5.04-9.4-4.67-19.8,7.91-21.42,16.31-.12,1.43-.19,3.55.12,4.86.31,1.25,1.18,2.24,1.62,3.42,1.68,3.3,5.23,5.42,8.9,5.73,1.93.12,3.99-.5,5.92-1,3.61-1.37,6.1-4.05,8.66-6.72.68-.81,1.25-1.68,1.68-2.62.44-1.74,1.25-2.99,1.49-4.67ZM168.4,527.09c.87-.37-.25-2.3-.62-2.86l-.12-.25c-1.93-5.6-4.17-11.33-4.86-17.19-.37-1.37-.87-2.86-.93-4.48-.12-1.31-.68-1.87-.87-3.36-.12-1.49.12-4.17-.19-5.29-.25-1.31-.87-1.18-.87-2.86v-11.46c0-1.62-.44-1.74-1.25-1-1.87,1-1.68,4.23-2.68,5.73-.37,4.36,0,12.27-.12,16.5-.12,1.62.31,1.56.75,2.93.31,3.05,1.31,6.04,2.37,8.84,1.49,4.61,3.18,9.59,6.97,12.83.75.62,1.43,1.87,2.43,1.93ZM81.35,259.09c0-1.81,1.25-3.42.5-5.17-.56-1.18-.37-3.36-.81-4.86l-.12-.19c-1.12-3.99-2.05-9.15-5.17-12.27-1-.75-2.37-1.74-3.61-1.56-2.24.12-4.05,1.68-5.11,3.55-.56.93-.62,2.18-.87,3.18-.37,1.25-.87,1.37-.75,3.3v8.59c-.06,1.62.44,1.81.75,2.99.31,3.3,2.18,5.92,4.61,7.97,4.48,4.42,10.46-.06,10.59-5.54Z"/>
      <path d="M733.42,496.82c.25.06.44.31.37.56-.06.62-1.31.37-1.68.31s-.12-.81-.62-.87c-.68-.19-.5-.44-.81-.87-.19-.19-.5-.12-.68-.31s-.12-.5-.31-.68-.5-.12-.68-.31-.12-.5-.19-.68l-.12-.12c-.37,0-.87-.12-.81-.62.06-.62,1.31-.37,1.68-.37.25.12.25.37.31.62.12.37.56.31.81.5.19.19.12.5.31.68s.5.12.68.31c.25.25.12.68.56.81.12.06.31.12.44.19.31.5.12.62.75.87Z"/>
      <path class="cls-1" d="M642.26,762.77l1.43,11.33c-14.26,1.93-29.64,3.24-46.39,4.73-21.05,1.68-42.09,4.48-63.14,6.6-3.99-.12-30.64,6.35-27.9-1,5.54-17.06,23.54-27.9,35.74-37.17l.62-13.45c9.09.62,16.56,3.99,25.72,10.59,13.01,7.47,27.46,10.46,41.53,14.82,10.59.93,22.11,5.36,32.38,3.55Z"/>
      <path class="cls-1" d="M542.63,733.82l-.62,13.45c-27.4,2.24-38.67,34.12-65.32,36.99-36.05,4.48,36.05-55.11,50.81-49.38,5.73-1,10.65-1.37,15.13-1.06Z"/>
      <path class="cls-1" d="M524.76,31.06c8.78,13.64,11.33,34.62,6.1,57.78-7.1,31.07-41.28,50.5-71.73,42.84-1.12-.31-1.87-.44-2.43-.44l2.24-10.52c.12.06.37.06.62.06,2.18.06,1.62-.5.62-1.68l-.12-.12c-.31-.31-1.87,0-2.37-.31-.56-.44-.93-.81-1.68-.87-.81-.19-.68-.87-1.56-.93-.75-.06-2.05.06-2.62-.06-.68-.19-.44-.87-1.25-.93h-3.05v-5.6c1.68-.19,4.42-.25,6.23.19,1.49.25,3.42-.06,4.86.25,2.12-.31,4.48.62,6.66.87,1.31.19,1.56.19,3.24.56,2.12.19,4.61.06,6.72.06,1-.06,2.3-.31,1.06-.75-1.43-.44-3.36-.87-4.98-1.31-2.49-.68-3.8-.25-5.92-1.18-1.81-.81-3.24,0-4.73-.93-.37-.12-.68-.31-1.06-.31-.87-.06-1.99.37-2.99-.12-1.25-.44-.75-1.56.37-1.87.68-.12,1.25-.19,1.74-.31,1.62-.25,3.49-.37,5.17-.56,1.25-.25,2.05-.5,2.8-.44,1.87.06,3.18-.56,5.17-.44,1.43-.06,3.11.06,4.3.37.44,0,.68-.06.75-.25.25-1.81-2.55-2.24-3.92-2.86-3.8-1.93-7.91-3.05-12.2-3.11-1.25-.37-2.74,0-4.05.06-.87.12-1.81-.68-2.55-.75-1.18.19-1.87.87-2.93,1.37-.75.62-1.74.5-2.55.81-.5.31-.81,1.43-1.18,1.43-.44,0-1.25-.93-2.18-.31-.25.19-.5.37-.68.56l-.19.19c-.5.5-.93,1.31-1.37,1.62-.5.44-1.25-.5-1.56-.31-.62.56-.75,1.74-1.37,2.37-.81.81-1.87,1.25-2.74,1.99-.93,1-1.99,1.87-2.86,2.86l-3.74-4.23c7.66-4.79,12.95-12.39,18.18-19.61,1.74-1.87,2.99-4.17,4.48-6.16.87-1,1.74-1.49,2.12-2.68.37-2.99,3.49-4.73,4.42-7.66,1.87-3.05,5.11-4.86,6.97-7.91,2.49-3.49,6.04-5.98,8.28-9.65,5.48-4.17,10.77-8.53,16.69-12.14,6.04-2.86,12.02-6.04,18.56-7.85,1.74-.25,9.34.31,7.16-.93l7.04-.12ZM465.48,83.37c.87.12.56-.93.56-1.62-.06-.37-.56-.25-.81-.5-.19-.12-.12-.44-.31-.62-.25-.25-.68-.12-.75-.5-.12-.31,0-1.06-.12-1.37-.06-.37-.5-.19-.75-.44-.19-.19-.12-.5-.31-.68s-.5-.12-.68-.31-.12-.5-.31-.68c-.12-.06-.37-.12-.44-.19-.5-.12-.31-.81-.75-.93-.12.06-.37.06-.5.06-.25.19-.12,1.56-.12,1.81l.12.06c.19.06.5,0,.68.19s.12.5.31.68c.5.31.68.12.87.75.12.5.81.25.93.68.06.31-.06,1.06.06,1.37.06.37.56.25.75.5.19.19.19.44.37.62.06.06.31.19.44.25.44.06.25.75.75.87ZM462.92,87.35c.25,0,.19-.31.19-.68l-.31-.31c-.87.06-.62-.19-.68-.81v-1.74c.12-.44-.06-.44-.62-.44-.5.12-.31-.62-.31-.87l-.12-.06c-.12-.06-.68.06-.81-.12-.19-.12,0-.68-.12-.81-.25-.12-1.06-.12-.93.12,0,.37-.06,1.25.06,1.74.12.06.75-.06.87.12.12.12-.06.68.12.81.12.12.68,0,.81.12.19.06.06.31.12.75,0,.87-.06,2.12,0,2.12.06.06,1.31.06,1.74.06Z"/>
      <path d="M528.99,362.33c.44,3.99,0,12.45.12,15.5-.06.87-.5,1.18-.75,2.05-.25,1.81-.5,4.86-1.56,5.54-.93.93-.62-.75-.68-2.24v-19.8c.06-1.37-.5-1.12-.81-2.49-.31-.87-.12-2.68-.31-3.74-.5-1.68-.93-3.36-1.37-5.23-.93-1.56-1.43-3.67-2.3-5.23l-.12-.19c-.62-.62-1.49-2.49-.44-3.11,1.12.12,1.99,1.87,2.55,2.86,1,1.87,1.74,3.67,2.37,5.73.81,1.37,1.31,2.99,1.81,4.42.75,1.74.44,4.3,1.49,5.92Z"/>
      <path d="M524.2,388.67c.06,1.43-.81,2.3-1.49,3.36-.81,2.43-.87,4.92-1.99,7.1-.81.87-1.31-.68-1.43-1.43-.5-1.99-1-3.86-1.18-5.92-.81-3.05-1.56-6.04-2.55-9.03-1.06-2.68-1.87-5.67-2.93-8.47-1.31-2.24-2.24-4.55-2.99-7.04-.93-1.62-1.74-3.55-2.68-5.23-.44-.81-.75-2.37.06-2.86.56-.5,1.49.81,1.93,1.49.56.93,1.43,1.31,1.93,2.24l.12.19c3.18,4.42,5.98,8.22,8.16,13.39,1.25,1.74,2.24,3.49,2.8,5.6,1.06,2.05,1.93,4.3,2.24,6.6Z"/>
      <path d="M517.72,31.19c2.18,1.25-5.42.68-7.16.93-6.54,1.81-12.52,4.98-18.56,7.85-5.92,3.61-11.21,7.97-16.69,12.14-2.24,3.67-5.79,6.16-8.28,9.65-1.87,3.05-5.11,4.86-6.97,7.91-.93,2.93-4.05,4.67-4.42,7.66-.37,1.18-1.25,1.68-2.12,2.68-1.49,1.99-2.74,4.3-4.48,6.16-5.23,7.22-10.52,14.82-18.18,19.61h-.19c-3.74.19,3.99-10.21,4.48-12.33,4.17-6.41,7.16-13.57,11.64-19.8,7.04-11.4,15.69-21.36,25.53-30.45,5.98-4.79,12.7-8.16,19.8-11.02,1.68-.81,3.8-1,5.6-1.37,1.43-.31,1.68-.75,3.3-.75,3.61.06,10.52-.25,14.07.12,1.37.44,2.18.75,2.62,1Z"/>
      <path d="M510.99,245.14c.37.44.5,1.37,0,1.62-.44.12-1-.62-1.31-.93-1-.62-1.18-1.99-1.81-2.93-.68-.62-1.43-1.31-1.99-1.99-.31-.5-.5-1.12-.75-1.68-.25-.68-.93-.81-1.25-1.37-.5-1.12-.87-2.18-1.87-2.86-1.06-1-1.37-1.43-1.87-2.86-.25-.68-.93-.81-1.25-1.43-.44-.44-.56-1.81.25-1.56.5.12.81.75,1.18,1.06.5.44,1.25.5,1.74.93.37.5.5,1.12.81,1.62.56.75,1.31,1.37,1.99,1.99.37.56.56,1.25.87,1.87.25.68.93.81,1.25,1.37.68,1.43,1.31,2.8,1.99,4.11.37.44.93.62,1.12,1.06l.12.19c.25.56.37,1.31.75,1.81Z"/>
      <path d="M510.37,229.88c.25.56,0,1.31-.68.93-.37-.19-.62-.62-1-.93-.68-.44-1.49-.75-2.18-1.18-2.49-2.49-4.98-4.98-7.47-7.41-1.18-2.86-3.8-4.73-5.85-6.91l-.12-.19c-.5-.44-.37-.93.31-1,1.68.31,2.68,2.3,3.99,3.3,4.61,2.49,7.72,7.22,11.64,10.65.5.93,1,1.81,1.37,2.74Z"/>
      <path d="M510.12,402.8c.62,1.81.25,3.8.31,6.04.12,2.49-.12,2.93-.75,4.55-.37,1.18-.06,4.05-1.31,4.67-.56.25-.75-.06-.87-.81-.19-1.18,0-3.67-.12-5.04-.12-1.31-.5-1.62-.75-2.68-.25-.93-.06-2.74-.31-3.74-.56-1.93-1.06-4.23-1.62-6.16-.31-2.68-1-5.17-1.62-7.91-.81-3.42-1.93-6.97-3.11-10.34-.31-1.74-1.87-3.74-1.12-5.42.37-.44.81.06,1.06.44,1.37,2.05,2.74,4.05,3.8,6.29,1.31,2.24,1.74,4.79,2.99,7.04,1.06,2.43,1.56,5.23,2.37,7.85l.06.25c.37,1.06.31,3.99,1,4.98Z"/>
      <path d="M509.5,258.9c.25,1-.31,2.12-1.12,1.06-3.05-4.67-6.54-9.03-9.59-13.7-2.37-3.42-4.42-7.29-7.47-10.15-.93-1.25-1.62-2.74-2.68-3.61l-.19-.12c-.62-.56-.87-1.31.06-1.49.56-.12,1.49.12,2.05.56,2.99,2.8,5.92,5.85,8.9,8.72,1.93,2.99,4.3,5.6,6.23,8.72.81,1.62,1.62,3.24,2.49,4.86.5,1.68.81,3.67,1.31,5.17Z"/>
      <path d="M498.79,419.8c0,1.37.06,3.61-.31,4.17-.31.56-.56,1.43-.87,2.18-.19.44-.37.75-.81.62-1.99-1-.87-4.79-1.18-6.91-.12-1.49-.68-1.49-.93-2.68-.19-1.06,0-3.36-.12-4.61-.19-1.18-.62-1.37-.81-2.3-.37-1.56.06-4.17-.93-5.67-.44-.93-.19-2.86-.62-3.99-.5-1.06-.68-2.3-1-3.67-.31-1.31-1-2.74-1.25-3.99-.06-.56.25-.68.93-.56,1.74.62,2.12,3.11,3.18,4.55,1.18,3.05,1.31,4.42,2.18,7.29.44,1,.5,3.18,1.12,3.99l.06.19c.87,2.05-.25,5.6.75,7.6.75,1.06.62,2.49.62,3.8Z"/>
      <path d="M473.01,101.24c1.37.62,4.17,1.06,3.92,2.86-.06.19-.31.25-.75.25-1.18-.31-2.86-.44-4.3-.37-1.99-.12-3.3.5-5.17.44-.75-.06-1.56.19-2.8.44-1.68.19-3.55.31-5.17.56-.5.12-1.06.19-1.74.31-1.12.31-1.62,1.43-.37,1.87,1,.5,2.12.06,2.99.12.37,0,.68.19,1.06.31,1.49.93,2.93.12,4.73.93,2.12.93,3.42.5,5.92,1.18,1.62.44,3.55.87,4.98,1.31,1.25.44-.06.68-1.06.75-2.12,0-4.61.12-6.72-.06-1.68-.37-1.93-.37-3.24-.56-2.18-.25-4.55-1.18-6.66-.87-1.43-.31-3.36,0-4.86-.25-1.81-.44-4.55-.37-6.23-.19-2.18.56-2.8,1.06-5.48.93-1.31,0-2.62,0-3.8.37-1.25.56-3.74.87-4.48.19-.19-.19-.19-.44,0-.68.25-.37.5-.68.81-1.06.87-1,1.93-1.87,2.86-2.86.87-.75,1.93-1.18,2.74-1.99.62-.62.75-1.81,1.37-2.37.31-.19,1.06.75,1.56.31.44-.31.87-1.12,1.37-1.62l.19-.19c.19-.19.44-.37.68-.56.93-.62,1.74.31,2.18.31.37,0,.68-1.12,1.18-1.43.81-.31,1.81-.19,2.55-.81,1.06-.5,1.74-1.18,2.93-1.37.75.06,1.68.87,2.55.75,1.31-.06,2.8-.44,4.05-.06,4.3.06,8.41,1.18,12.2,3.11ZM453.27,108.02v-1h-1.93v1h1.93Z"/>
      <path d="M466.04,81.75c0,.68.31,1.74-.56,1.62-.5-.12-.31-.81-.75-.87-.12-.06-.37-.19-.44-.25-.19-.19-.19-.44-.37-.62-.19-.25-.68-.12-.75-.5-.12-.31,0-1.06-.06-1.37-.12-.44-.81-.19-.93-.68-.19-.62-.37-.44-.87-.75-.19-.19-.12-.5-.31-.68s-.5-.12-.68-.19l-.12-.06c0-.25-.12-1.62.12-1.81.12,0,.37,0,.5-.06.44.12.25.81.75.93.06.06.31.12.44.19.19.19.12.5.31.68s.5.12.68.31.12.5.31.68c.25.25.68.06.75.44.12.31,0,1.06.12,1.37.06.37.5.25.75.5.19.19.12.5.31.62.25.25.75.12.81.5Z"/>
      <path d="M463.11,86.67c0,.37.06.68-.19.68-.44,0-1.68,0-1.74-.06-.06,0,0-1.25,0-2.12-.06-.44.06-.68-.12-.75-.12-.12-.68,0-.81-.12-.19-.12,0-.68-.12-.81-.12-.19-.75-.06-.87-.12-.12-.5-.06-1.37-.06-1.74-.12-.25.68-.25.93-.12.12.12-.06.68.12.81.12.19.68.06.81.12l.12.06c0,.25-.19,1,.31.87.56,0,.75,0,.62.44v1.74c.06.62-.19.87.68.81l.31.31Z"/>
      <path d="M460.18,119.11c1,1.18,1.56,1.74-.62,1.68-.25,0-.5,0-.62-.06-.81-.19-.56-1-1.81-.93-1.74-.06-2.43.44-3.05-.87-1.74-.19-7.66-.06-10.9-.06-1.12-.06-2.24.19-1.56-.75.25-.25.87-.25,1.25-.44.44-.19.5-.5.87-.68.56-.31,1.74.06,2.37-.44.44-.5.5-.75,1.43-.68h3.05c.81.06.56.75,1.25.93.56.12,1.87,0,2.62.06.87.06.75.75,1.56.93.75.06,1.12.44,1.68.87.5.31,2.05,0,2.37.31l.12.12Z"/>
      <path d="M432.41,231.31c1.12,3.05-.19,4.61-3.24,2.93-1.74-1.06-3.74-1.74-5.48-2.8-.81-.87-1.93-1.37-2.99-1.99-1.06-1-1.99-1.99-3.3-2.62-1.49-.5-2.68-1.43-3.92-2.37-1.18-.44-2.62-.44-3.42-1.49l-.12-.12c-1.74-1.56-.19-1.74,1.43-1.68,1.74-.12,2.8.06,4.17.81,1.12.25,2.62.19,3.67.81,1.56,1,3.42,1.62,4.98,2.55,1.31.56,2.55,1.18,3.55,2.12,1.81.93,3.49,2.18,4.67,3.86Z"/>
      <path d="M431.6,394.33c.25.56,0,1.12-.56,1.18-1.68,0-6.54.19-8.72-.06-.75-.44-1.49-1-2.37-1.37-.81-.56-2.37-.5-3.24-1.18-.68-1.06-2.18-1.43-3.11-2.12-.44-.5-.62-1.18-1-1.74-.19-.75-.75-1.06-1.18-1.49-.25-.5-.5-1.06-.81-1.56-.37-1.12-1.93-1.68-1.49-2.99.19-.31.5-.31.87-.06,1.62,1.74,3.11,3.49,5.42,4.23,1.06.75,2.3,1.25,3.61,1.43,1,.5,1.87.87,2.99,1,1.06.56,2.12.87,3.24,1.12,1.56.75,3.3,1.68,4.73,2.43l.19.12c.5.25,1.18.5,1.43,1.06Z"/>
      <path d="M420.58,236.23c.62,1.12.44,2.93-1.25,2.68-1.99-.5-3.67-1.68-5.48-2.55-.44-.31-.62-.81-1.25-1.06-1.43-.56-2.49-1.62-3.55-2.68-.75-.5-1.68-.81-2.37-1.37-.37-.37-.75-.81-1.31-1-1.25-.5-2.24-1.37-3.11-2.37l-.19-.12c-1.37-1.12-.93-1.74.75-1.68,1.31,0,2.37-.12,3.3.56,1.56,1.06,3.05,1.31,4.73,1.87.81.81,1.43,1.31,2.49,1.74,1.25.62,1.62,1.49,3.24,2.12,1.12.62,1.81,1.68,2.8,2.49.37.56.93.75,1.18,1.37Z"/>
      <path d="M415.04,402.68c1.49,1.25.31,1.68-.81,2.24-.81.56-1.62,2.12-2.49,2.3-.37.06-1.31-.62-1.93-.62-.68,0-1.74,0-2.24-.31-.44-.19-.68-.44-1.18-.62-.62-.25-1.93-.06-2.62-.31-2.12-1.06-4.42-2.37-6.6-3.49-.56-.37-.81-1.06-1.49-1.31-.62-.37-1.37-.68-1.93-1.12-.5-.93-1.62-1.12-2.3-1.81-.56-.5-.19-1.68.56-1.06.75.5,1.81.44,2.74.5,1.06.12,1.25.56,1.99.87.56.19,1.68.06,2.37.25.93.25,1.37.81,2.62,1,.93.12,1.37.56,2.18.87.56.12,1.43.25,1.87.5s.62.5,1.18.62c1.06.25,2.8-.12,3.8.31.19.19.44.31.68.5.56.5,2.8.12,3.42.62l.19.06Z"/>
      <path d="M406.26,239.16c.12.56.93,1.18.56,1.49-.81.37-3.05.19-3.86.19-.68-.12-.75-.5-1.25-.75-.56-.31-1.56-.12-2.12-.44-2.12-1.18-4.36-2.12-6.54-3.3-.37-.44-.87-.87-1.31-1.25-.31-.44-.5-1.06-.75-1.62-.62-.75-1.12-2.05-.68-2.99.25-.56,1.37-.5,2.12-.37,1.12.56,2.12,1.06,3.18,1.68.75.31,2.3.12,2.86.93.25.31.44.75.81.93l.19.12c1.18.31,1.87.62,2.55,1.56.75.56,1.99.75,2.55,1.49.75.81,1.31,1.12,1.68,2.3Z"/>
      <path d="M399.35,167.86c1.37,3.55.62,9.71.75,13.2-2.49,15.69-12.08,31.57-28.02,36.05-4.73,1.31-11.08,2.68-15.94,1.99-5.29-1-9.9-2.37-14.51-5.04-4.73-2.55-8.59-6.91-11.58-11.4-2.62-3.42-4.11-7.6-4.79-11.96-.68-2.74-1.06-4.05-.93-6.91.19-2.86-.37-7.16.44-9.78.25-.56.5-1.49.56-2.99.31-5.79,2.49-11.83,5.04-17,2.24-6.85,7.1-12.83,12.39-17.62l.12-.19c7.35-6.1,17.12-9.65,26.78-8.34,2.74.62,6.1,1.68,8.66,2.62,3.8.31,8.9,0,12.95.12,3.36-.31,4.79,1.56,4.55,4.3-.87,3.92-4.67,5.23-7.97,6.6-.75.37-.87.93-.37,1.49,4.36,5.29,8.03,11.08,10.34,17.56,1.12,2.3,1.25,4.86,1.56,7.29ZM382.29,174.53c.31-.75.25-2.3-.56-2.8-1-.81-1.74-1.81-2.68-2.62-.44-.44-.56-.93-1.25-1.06-1,.06-3.18-.25-4.11.12l-.06.12c-.37.87-1.93,1.62-2.05,2.3v4.67c.25.87,1.25,1.12,1.74,1.87.75.5.93,1.49,1.93,1.74.93-.06,2.93.19,3.92-.19.5-.5,1.25-1.31,1.87-1.87.31-.31.37-.93.56-1.43.19-.44.5-.5.68-.87ZM377.43,154.6c.06-2.43.5-5.6-1.18-7.66-1.31-3.18-4.05-5.92-7.16-7.22-1.99-.44-4.98-.25-7.1-.12-2.68.5-5.11,2.05-7.22,3.61l-.19.12c-.93.87-1.99,1.81-2.86,2.8-.81,1.43-1.31,2.86-1.68,4.42-.19,1.74-.12,4.55-.06,6.16,1,3.99,4.17,8.78,8.53,9.34,1.81,0,5.04.12,7.04-.06,2.24-.68,4.86-1.49,6.66-2.99,1.74-1.62,3.3-3.3,4.17-5.6.62-.87.93-1.68,1.06-2.8Z"/>
      <path class="cls-1" d="M381.73,171.72c.81.5.87,2.05.56,2.8-.19.37-.5.44-.68.87-.19.5-.25,1.12-.56,1.43-.62.56-1.37,1.37-1.87,1.87-1,.37-2.99.12-3.92.19-1-.25-1.18-1.25-1.93-1.74-.5-.75-1.49-1-1.74-1.87v-4.67c.12-.68,1.68-1.43,2.05-2.3l.06-.12c.93-.37,3.11-.06,4.11-.12.68.12.81.62,1.25,1.06.93.81,1.68,1.81,2.68,2.62Z"/>
      <path d="M397.85,409.77c-4.98,6.04-14.63,8.28-21.17,12.95-16.07,7.78-33.06,13.01-50.31,17.5l-.5-1.74c-.25-1.68-8.16-1.62-10.65-2.55-5.98-2.05-15.57-2.93-19.37-6.91,14.13,0,31.32-.56,45.7-3.74,6.66-2.99,34.99-5.6,34.99-11.64-1.43-1.18-14.94.44-12.27-2.49,8.03.31,24.47-.31,33.56-1.37Z"/>
      <path class="cls-1" d="M376.25,146.94c1.68,2.05,1.25,5.23,1.18,7.66-.12,1.12-.44,1.93-1.06,2.8-.87,2.3-2.43,3.99-4.17,5.6-1.81,1.49-4.42,2.3-6.66,2.99-1.99.19-5.23.06-7.04.06-4.36-.56-7.53-5.36-8.53-9.34-.06-1.62-.12-4.42.06-6.16.37-1.56.87-2.99,1.68-4.42.87-1,1.93-1.93,2.86-2.8l.19-.12c2.12-1.56,4.55-3.11,7.22-3.61,2.12-.12,5.11-.31,7.1.12,3.11,1.31,5.85,4.05,7.16,7.22Z"/>
      <path d="M333.97,803.87c2.62-.06,5.23-.06,7.78,0-2.62.31-5.23.37-7.78,0Z"/>
      <path d="M328.3,477.52c1.06-1.06,1.31.75,1,1.56s-.75,1.31-.87,2.43c-.19,1.12-.81,1.68-1,2.74-.12,1.31-.81,1.87-1,2.99-.12,1.12-.62,1.62-.93,2.43-.12,1.18-.5,1.99-1,3.05-.31,1.93-1.37,3.55-2.24,5.23-.62.87-.87,2.93-2.24,2.8-.68-.19-.37-.56-.06-1.18.5-.87.12-2.86.37-3.8.12-.62.44-.81.68-1.37.25-1,.44-2.18,1-3.05.5-2.55,2.05-4.67,3.11-7.04,1.31-2.05,1.49-4.73,2.99-6.66l.19-.12Z"/>
      <path d="M319.27,478.33c.25.31.25.56.06.93-1.06,3.3-1.74,4.67-3.3,7.72-1.31,2.05-1.62,4.73-2.93,6.72-.75,2.3-1.62,4.55-2.86,6.54-.62,1.25-1.43,3.92-3.18,3.24-.93-.62,0-1.49.19-2.37.25-.81.12-1.93.44-2.74,1-2.18,1.56-4.79,2.55-7.1.93-1.49,1.62-3.36,2.55-4.79.62-1.37,1.25-2.74,1.99-4.05.68-1.56,2.37-4.98,4.36-4.23l.12.12Z"/>
      <path d="M298.6,435.74c.19-.06.19.5.12.81-.62.44-10.34.12-10.71.12-.12-.06-.06-.5-.06-.75v-.12c2.55-.12,7.91,0,10.65-.06Z"/>
      <path d="M282.78,652.74c.68,1.18-.75,1.93-1.62,1.18-4.11-3.92-8.9-7.22-12.64-11.58-1.06-1.31-1.81-2.93-3.11-4.05-1.25-1.06-2.05-2.68-3.05-3.99-.81-.87-1.56-1.81-2.18-2.86-4.55-6.91-7.6-14.7-11.46-21.92-.44-1.31-1-2.43-1.31-3.8-.62-1.18-1.81-5.73.56-2.62,6.41,13.14,13.39,25.9,22.54,37.17,1.93,1.74,3.42,3.8,4.98,5.79,2.68,1.68,5.17,4.23,7.16,6.48l.12.19Z"/>
      <path d="M263.17,647.89v.12c-1.37,2.12-6.48-3.05-8.03-3.99-5.11-3.3-8.53-8.47-11.89-13.33-5.36-7.35-8.22-16.07-11.15-24.47-.81-1.99-.37-4.67,1.49-1.49,3.99,9.59,8.47,19.43,15.13,27.58,3.8,5.92,10.15,10.15,14.45,15.57Z"/>
      <path class="cls-1" d="M227.05,48.5c1.49.06,3.8,2.3,3.55,3.55-.44.62-1.81,1.06-2.49,1.87-2.05,1.12-4.73,1.87-6.91,2.37-.87-.06-1.68.75-2.43.75-.44,0-.68-.12-1.12-.12-.68.19-1,1.06-1.93,1.56-.5.31-1.06.5-1.62.68-6.35,2.8-12.76,5.6-19.05,8.41-.56.25-1.12.56-1.68.62-.87.19-1.74-.56-2.24-.44-.44.06-.25.75-.44,1.06-.12,1.37-1.56-.5-1.99.19-.37.44-.75,1.18-1.31.87-.62-.37-1.18,1-1.74,1.31-.12.12-.31.12-.5.06-1.06-.93-.19-3.05-.19-4.17.25-1.74-.31-3.42-.87-5.11-.44-1.68-.12-3.3-.37-5.04-.19-.87-.68-1.87-.75-2.68-.81-2.99-.44-7.35-.56-10.46-.12-1.37-.81-1.93-.93-3.3-.06-2.49,0-9.15-.06-12.2.12-1.62-.68-2.12-.93-3.49-.12-2.37,0-9.28,0-11.89,0-.56.12-1.06.5-1.43l.12-.12c12.14-6.79,20.98,5.48,28.89,13.08,3.49,4.98,7.6,9.46,10.9,14.63,1.12,1.31.68,3.11,1.31,4.42,1.25,1.68,2.93,4.42,4.86,5.04ZM214.29,46.19c.31-.25.87-.06.81-.81.06-.75,0-1.74-.81-1.18-.25.25-.19.68-.56.81-.5.12-.62-.5-.75-.81-.25-.25-.75-.19-.81-.56-.06-.25-.12-.5-.44-.56-.44-.06-.62-.5-.75-.87-.25-.25-.68-.19-.81-.56-.06-.5-.37-.62-.81-.5-.25.19-.25,1.62,0,1.81.12.12.44.06.62.25s.12.5.19.68l.12.12c.19.06.5,0,.68.19s.12.5.31.68.5.12.68.31c.31.44.12.68.75.87.5.12.31.81.75.87.5.19.62-.44.81-.75Z"/>
      <path d="M215.1,45.38c.06.75-.5.56-.81.81-.19.31-.31.93-.81.75-.44-.06-.25-.75-.75-.87-.62-.19-.44-.44-.75-.87-.19-.19-.5-.12-.68-.31s-.12-.5-.31-.68-.5-.12-.68-.19l-.12-.12c-.06-.19,0-.5-.19-.68s-.5-.12-.62-.25c-.25-.19-.25-1.62,0-1.81.44-.12.75,0,.81.5.12.37.56.31.81.56.12.37.31.81.75.87.31.06.37.31.44.56.06.37.56.31.81.56.12.31.25.93.75.81.37-.12.31-.56.56-.81.81-.56.87.44.81,1.18Z"/>
      <path class="cls-1" d="M178.8,72.97c.31,3.11-1.18,3.18-3.49,4.3-1.43.81-2.24.31-2.62-1.18-1.25-4.61-2.05-8.22-2.49-12.83l-.06-.12c-.31-2.99-.19-6.72.25-9.59.37-1.31.19-4.3.5-5.67.31-1.43.12-1.99.25-3.36.06-1.12,1-2.05,1-3.18.19-.68.06-1.31,0-1.99.19-1.18-.06-2.18.19-3.42-.06-.68-.06-1.56,0-2.18.12-.5,1.12-.37,1-1.12-.06-.44-.12-1.06-.19-1.49-.19-2.12,2.05-3.92,2.05-5.98.06-1.37,1.43-.12,1.81.62.31.87.19,1.99.19,2.86-.06,1-.75,1.49-.5,2.05.06.25.25.5.25.75-.12.5-.5,1-.19,1.43.12.25.25.56.12.81-.62.87.37,1.49-.12,2.37-.37.81.5,1.31.62,2.3.06.68,0,1.37-.06,2.24-.12.81-.87,1.68-.87,2.3.06,1,.81,1.43.75,2.62.31,2.05-1,2.55-1.18,4.17.06,1,1.12-.12,1.31.19.31.93-.37,2.68.12,3.42.81,1.18,1.12,3.61.31,4.79-.25.37-.37.68-.31,1.18.44,1.81.19,4.3.93,5.92s.31,5.67.44,7.78Z"/>
      <path d="M177.55,528.02c.12,1.06,1.62,3.36.62,4.11-.25.19-.56.12-.81-.06-2.74-3.11-4.67-7.29-5.98-11.15-.62-1.87-.87-3.86-1.56-5.79-.12-.81-.06-1.93-.25-2.68-.25-1.12-.75-1.25-.87-2.49-.12-2.55.5-6.29-.81-8.34-.44-2.12-.44-5.79,2.18-2.37.68,1.31,1.06,2.68,1.49,4.05.31.87.06,2.86.31,3.92.12,1,.5,1.31.75,2.24.19,1.62.19,3.3.93,4.86.87,4.48,2.3,9.22,3.86,13.45l.12.25Z"/>
      <path d="M175.62,246.94c.19,1.74.12,4.55.06,6.23-.25,1.68-1.06,2.93-1.49,4.67-.44.93-1,1.81-1.68,2.62-2.55,2.68-5.04,5.36-8.66,6.72-1.93.5-3.99,1.12-5.92,1-3.67-.31-7.22-2.43-8.9-5.73-.44-1.18-1.31-2.18-1.62-3.42-.31-1.31-.25-3.42-.12-4.86,1.62-8.41,12.02-20.98,21.42-16.31,2.62.62,4.73,2.49,5.67,5.04l.06.25c.37,1.37.93,2.37,1.18,3.8Z"/>
      <path d="M167.77,524.22c.37.56,1.49,2.49.62,2.86-1-.06-1.68-1.31-2.43-1.93-3.8-3.24-5.48-8.22-6.97-12.83-1.06-2.8-2.05-5.79-2.37-8.84-.44-1.37-.87-1.31-.75-2.93.12-4.23-.25-12.14.12-16.5,1-1.49.81-4.73,2.68-5.73.81-.75,1.25-.62,1.25,1v11.46c0,1.68.62,1.56.87,2.86.31,1.12.06,3.8.19,5.29.19,1.49.75,2.05.87,3.36.06,1.62.56,3.11.93,4.48.68,5.85,2.93,11.58,4.86,17.19l.12.25Z"/>
      <path d="M123.56,747.95c.25.87,1.31.87,1,2.12-.06.5-.44.56-.75.87-.19.19-.25.5-.62.62-.31.19-.87.06-1.18.19-.25.12-.31.31-.44.5-.19.62-1.74.19-1.87.81-.12.25-.19.5-.5.56-.62.06-2.05,0-2.8.06-.87.06-.62-.62-1.06-.93-.62-.12-1.56-.06-2.12-.12-.5-.06-.5-.44-.81-.68-.19-.31-.75-.5-.62-.81.12-.37.62-.44.81-.81.12-.44,0-1.18.31-1.43.68-.5,1.49-1.18,1.87-2.05,1.12-.25,4.48,0,5.79-.06.68,0,.93-.12,1.12.56.19.62,1.43.31,1.74.5l.12.12Z"/>
      <path d="M109.06,748.57c.25.19.75.44.68.75-.19.31-.62.37-.81.75s0,.93-.19,1.25c-.31.5-.81.5-1,1.25-1.49.19-8.03.19-9.71,0-.12-.37-.5-.81-.87-1-.44-.44-.19-1.74-.25-2.3.12-.56.68-.5.93-.93.12-.19.19-.37.44-.5.5-.19,1.18.06,1.56-.5.06-.19.12-.37.31-.56.68,0,7.1-.12,8.66.06v.12c.06.5-.06,1.31.25,1.62Z"/>
      <path d="M84.15,775.6c.06.31.06,1.06,0,1.37-.06.37-.56.25-.81.44-.06.25-.19.56-.25.81-.5.12-4.92,0-6.54.06-.25,0-.19-.31-.25-.62-.12-.5-.81-.25-.93-.68-.06-.31-.06-1.06,0-1.37.12-.44.81-.12.93-.56v-1.43c0-.44.44-.19,1.31-.25h3.05c.31,0,.44-.06.5.12s.06.5.19.68c.19.31,1.56.06,1.74.19l.06.12c.06.19,0,.5.19.68.25.25.75.06.81.44Z"/>
      <path d="M81.85,253.92c.75,1.74-.5,3.36-.5,5.17-.12,5.48-6.1,9.96-10.59,5.54-2.43-2.05-4.3-4.67-4.61-7.97-.31-1.18-.81-1.37-.75-2.99v-8.59c-.12-1.93.37-2.05.75-3.3.25-1,.31-2.24.87-3.18,1.06-1.87,2.86-3.42,5.11-3.55,1.25-.19,2.62.81,3.61,1.56,3.11,3.11,4.05,8.28,5.17,12.27l.12.19c.44,1.49.25,3.67.81,4.86Z"/>
      <path d="M74.31,775.6c0,.68.12,1.37-.19,1.56-.44.19-.75.68-1.12,1-.44.19-1.18,0-1.43.31-.31.37-.19.81-.81.81-1-.06-3.24,0-3.92-.06-.37-.06-.31-.44-.56-.75-.25-.37-1.31-.06-1.62-.31-.12-.12-.19-.37-.19-.75.06-.81-.25-1.87.62-2.18.37-.44.87-.87,1.31-1.31.12-.25.12-.5.37-.56.68.06,5.36-.19,6.54.06v.12c0,.68.93.68,1,1.31v.75Z"/>
      <path d="M36.89,316.56c0,.25-.19.56-.62.93-.75.44-1.56.87-2.12,1.49-1.43.68-2.49,1.68-3.86,2.49-.87.56-2.05.93-3.05,1.56-1.06.93-2.24,1.74-3.67,2.24-1.74.93-3.05,2.37-4.98,2.99-1,.62-2.24,1.12-3.24,1.68-.81.31-1.99.81-2.68.06-.25-.31-.37-.68-.37-1,0-1.06.87-2.12,1.68-2.74,1.06-1.43,2.93-1.87,4.11-3.11,1.74-1.06,3.74-1.74,5.48-2.8,2.05-1,4.17-1.99,6.16-3.11,1.12-.5,2.74-.75,3.49-1.25l.19-.06c.81-.5,3.49-.37,3.49.62Z"/>
      <path d="M35.83,287.04c0,.19,0,.31-.06.44-.31.44-1.12.56-1.68.62-1.06.12-1.74.44-2.24.68-1.62.68-5.48.12-7.47.37-.68.06-1.06.37-1.62.62-1.12.62-5.6-.12-6.66.93l-.19.06c-.75.37-2.12.25-2.99.31-1.49.19-1.87.81-3.11.93-.75.06-1.56,0-2.24,0-1.62.06-2.05.5-2.99.81-.93.25-2.93.37-3.61-.12-.19-.12-.31-.37-.44-.62.06-.12.06-.19,0-.25.06-.56.06-1.12,0-1.68.06-.19.12-.31.19-.44.87-.87,2.37-.87,3.55-1.37,1.43-.5,2.8-1.18,4.36-1.25,1.74.12,2.8-.68,4.36-.93.37-.06.81-.12,1.18-.19,1.12-.25,1.18-.68,1.87-.81.44-.06,1.18,0,2.12,0,4.11,0,13.82-.06,16.19,0,.81.12,1.49,1.06,1.49,1.87Z"/>
      <path d="M.52,290.16c.06.56.06,1.12,0,1.68-.19-.5-.19-1.18,0-1.68Z"/>
    </g>
  </g>
</svg>