<svg width="52" height="52" viewBox="0 0 52 52" fill="none" xmlns="http://www.w3.org/2000/svg">
<path d="M28.8449 11.2743C30.2386 16.0301 28.4759 22.4394 24.3441 23.6674C20.2123 24.8954 15.2697 20.4632 13.8832 15.7137C12.4894 10.9579 15.1717 7.6788 19.304 6.45758C23.4362 5.23635 27.4583 6.52488 28.8516 11.2739L28.8449 11.2743Z" fill="white" stroke="#7A3F3E" stroke-width="3" stroke-linecap="round" stroke-linejoin="round"/>
<path d="M12.6777 19.8761C17.5947 19.7585 23.2867 23.1375 23.3929 27.4761C23.499 31.8147 17.9859 35.47 13.0694 35.5944C8.15244 35.712 5.69998 32.2573 5.5934 27.9119C5.48729 23.5733 7.76079 19.9937 12.6777 19.8761Z" fill="white" stroke="#7A3F3E" stroke-width="3" stroke-linecap="round" stroke-linejoin="round"/>
<path d="M15.8426 37.4091C16.9955 32.5917 21.7036 27.9302 25.8908 28.9535C30.078 29.9769 32.166 36.295 31.0131 41.1124C29.8602 45.9298 25.9094 47.4125 21.7227 46.396C17.536 45.3795 14.6901 42.2333 15.8431 37.4159L15.8426 37.4091Z" fill="white" stroke="#7A3F3E" stroke-width="3" stroke-linecap="round" stroke-linejoin="round"/>
<path d="M35.4649 40.4729C31.1426 38.1017 27.8868 32.3039 29.9468 28.4925C32.0069 24.6811 38.5989 24.2955 42.9212 26.6667C47.2435 29.0378 47.648 33.2664 45.5885 37.0847C43.529 40.9029 39.7804 42.8445 35.4649 40.4729Z" fill="white" stroke="#7A3F3E" stroke-width="3" stroke-linecap="round" stroke-linejoin="round"/>
<path d="M42.3996 22.61C39.0111 26.199 32.617 27.8594 29.4959 24.8627C26.3748 21.866 27.7015 15.3502 31.09 11.7612C34.4785 8.17224 38.6365 8.87545 41.7644 11.8717C44.8855 14.8684 45.7881 19.021 42.4064 22.6095L42.3996 22.61Z" fill="white" stroke="#7A3F3E" stroke-width="3" stroke-linecap="round" stroke-linejoin="round"/>
<path d="M26.9077 32.9887C30.0819 32.7667 32.4738 29.9939 32.2501 26.7953C32.0265 23.5968 29.272 21.1838 26.0977 21.4057C22.9235 21.6277 20.5317 24.4006 20.7553 27.5991C20.979 30.7977 23.7335 33.2107 26.9077 32.9887Z" fill="#FCBB21" stroke="#7A3F3E" stroke-width="3" stroke-linecap="round" stroke-linejoin="round"/>
</svg>
