<svg width="99" height="81" viewBox="0 0 99 81" fill="none" xmlns="http://www.w3.org/2000/svg">
<g clip-path="url(#clip0_209_1508)">
<path d="M34.7653 9.89894C34.7653 9.89894 30.6616 -1.74266 22.614 4.70214C22.614 4.70214 16.337 11.6333 22.614 13.4061C22.614 13.4061 28.7312 13.8925 28.7312 14.6989L34.7653 9.89894Z" fill="#E59057"/>
<path d="M26.6089 19.0961V16.0625C25.6054 15.8641 23.9754 15.6465 22.4413 15.5249L22.2367 15.5121L22.0386 15.4545C19.258 14.6673 18.2545 13.0289 17.8965 11.7937C16.8482 8.14566 20.3319 4.06246 21.0414 3.28166L21.2907 3.05126C23.9882 0.888063 26.6792 0.171265 29.2872 0.920065C34.2218 2.33446 36.523 8.49766 36.7723 9.19526L37.2772 10.6225L26.6217 19.1025L26.6089 19.0961ZM23.0038 11.3137C25.4008 11.5057 27.2289 11.7425 28.5137 12.1585L32.1636 9.25286C31.3518 7.64646 29.9072 5.50886 28.1046 4.99686C26.9157 4.65766 25.5926 5.06726 24.0713 6.25766C22.8568 7.65286 21.7126 9.74567 21.9683 10.6225C22.0642 10.9553 22.633 11.1921 23.0038 11.3137Z" fill="#7A3F3E"/>
<g style="mix-blend-mode:multiply" opacity="0.3">
<path d="M35.0463 10.1556C35.0463 10.1556 30.6869 -2.22836 22.1216 4.63244C22.1216 4.63244 15.4419 12.0052 22.1216 13.8868C22.1216 13.8868 28.6287 14.3988 28.6287 15.2564L35.0463 10.1556Z" fill="#E59057"/>
</g>
<path d="M31.9142 12.549C31.3964 12.549 30.9042 12.261 30.6677 11.7618C28.5775 7.38422 25.7842 8.49142 25.471 8.63222C24.7807 8.94582 23.9625 8.64502 23.6429 7.96022C23.3233 7.27542 23.6045 6.46262 24.2821 6.12982C24.4866 6.02742 26.3595 5.17622 28.6351 5.97622C30.5015 6.62902 32.0228 8.17782 33.167 10.565C33.493 11.2562 33.2054 12.0818 32.515 12.4082C32.3233 12.4978 32.1187 12.5426 31.9206 12.5426L31.9142 12.549Z" fill="#7A3F3E"/>
<path d="M72.8425 12.2872C72.8425 12.2872 77.5407 4.58804 85.0897 5.87444C88.1259 6.39284 91.5457 7.78804 92.5876 11.0456C93.6295 14.3032 91.9931 18.348 88.6628 19.5832C82.7758 21.7656 83.7729 17.2664 79.9441 19.6664" fill="#E59057"/>
<path d="M69.2247 10.0725C68.6111 11.0709 68.9307 12.3829 69.9279 12.9909C70.925 13.6053 72.2354 13.2853 72.8426 12.2869C72.8426 12.2869 77.5408 4.5877 85.0898 5.8741C88.126 6.3925 91.5457 7.7877 92.5877 11.0453C93.6487 14.3669 91.9932 18.3477 88.6629 19.5829C85.582 20.7285 84.3867 20.0373 83.3959 19.4677C83.2361 19.3781 83.0827 19.2885 82.9293 19.2117L81.0308 23.0069C81.1139 23.0453 81.1906 23.0965 81.2737 23.1413C83.3064 24.3125 85.7801 25.1765 90.1331 23.5637C95.5088 21.5669 98.4236 15.3717 96.6274 9.7525C95.2723 5.5093 91.4307 2.6485 85.7993 1.6885C77.6047 0.293296 71.5259 6.3029 69.2247 10.0725ZM82.4882 23.0965L80.8838 19.1669C80.6026 19.2821 80.2894 19.4485 79.9378 19.6661C78.947 20.2869 78.6466 21.5989 79.2666 22.5909C79.8867 23.5829 81.197 23.8837 82.1878 23.2629C82.3923 23.1349 82.4818 23.0965 82.4882 23.0965ZM81.9129 18.9365C81.6189 18.9365 81.2865 19.0005 80.8902 19.1669L81.8171 21.4325L82.9293 19.2053C82.6161 19.0517 82.2965 18.9365 81.9129 18.9365ZM81.8107 21.4325L81.0244 23.0005C81.2737 23.1221 81.6125 23.1797 81.9193 23.1797C82.1431 23.1797 82.354 23.1477 82.4882 23.0901L81.8107 21.4261V21.4325Z" fill="#7A3F3E"/>
<path d="M75.5145 16.018C75.3036 16.018 75.0863 15.9668 74.8817 15.8644C74.2042 15.5124 73.9357 14.6804 74.2873 14.002C75.8405 10.9748 80.3661 5.80998 86.3427 7.90918C87.065 8.15878 87.4421 8.95238 87.1928 9.67558C86.9371 10.3988 86.1509 10.7764 85.4286 10.5204C80.2319 8.69638 76.8824 14.994 76.7418 15.2692C76.4925 15.7428 76.0131 16.018 75.5145 16.018Z" fill="#7A3F3E"/>
<g style="mix-blend-mode:multiply" opacity="0.3">
<path d="M72.8425 12.2863C72.8425 12.2863 77.5407 4.58706 85.0897 5.87346C88.1259 6.39186 91.5457 7.78707 92.5876 11.0447C93.6295 14.3023 91.9931 18.3471 88.6628 19.5823C82.7758 21.7647 83.7729 17.2655 79.9441 19.6655" fill="#E59057"/>
</g>
<path d="M26.6089 19.0961V16.0625C25.6054 15.8641 23.9754 15.6465 22.4413 15.5249L22.2367 15.5121L22.0386 15.4545C19.258 14.6673 18.2545 13.0289 17.8965 11.7937C16.8482 8.14566 20.3319 4.06246 21.0414 3.28166L21.2907 3.05126C23.9882 0.888063 26.6792 0.171265 29.2872 0.920065C34.2218 2.33446 36.523 8.49766 36.7723 9.19526L37.2772 10.6225L26.6217 19.1025L26.6089 19.0961ZM23.0038 11.3137C25.4008 11.5057 27.2289 11.7425 28.5137 12.1585L32.1636 9.25286C31.3518 7.64646 29.9072 5.50886 28.1046 4.99686C26.9157 4.65766 25.5926 5.06726 24.0713 6.25766C22.8568 7.65286 21.7126 9.74567 21.9683 10.6225C22.0642 10.9553 22.633 11.1921 23.0038 11.3137Z" fill="#7A3F3E"/>
<path d="M92.4148 58.0532C94.2109 51.8772 93.2841 44.7796 91.0916 38.8788C83.255 17.8356 74.9134 12.3252 74.9134 12.3252C59.7322 0.2996 39.5142 8.2484 39.5142 8.2484C39.5142 8.2484 25.3494 11.1476 15.6847 34.5204C12.0859 43.2308 5.74503 52.658 10.7117 62.3668C14.5469 69.8676 25.733 73.3108 33.2053 75.442C44.7045 78.7188 57.7315 79.3396 69.2052 75.6468C77.5724 72.9524 86.4446 70.1812 90.8679 61.8932C91.5199 60.6708 92.0312 59.3844 92.4148 58.0596V58.0532Z" fill="#E59057"/>
<path d="M52.2536 80.2928C45.8488 80.2928 39.2011 79.3584 32.6237 77.4832C25.8481 75.5504 13.2366 71.96 8.82608 63.3392C4.25577 54.4048 8.21244 45.8224 11.7089 38.2512C12.4376 36.6768 13.1215 35.192 13.7288 33.7136C23.2082 10.776 37.0086 6.6736 38.8943 6.2128C40.9908 5.4192 60.7678 -1.5376 76.1727 10.616C77.189 11.3328 85.4347 17.6176 93.0796 38.136C95.7003 45.1632 96.1989 52.6384 94.4539 58.6416C94.0192 60.1392 93.444 61.5664 92.7408 62.8784C87.966 71.832 78.4994 74.8784 70.145 77.56L69.8509 77.656C64.4049 79.4096 58.4411 80.2864 52.2536 80.2864V80.2928ZM54.51 7.8256C46.6031 7.8256 40.3964 10.1872 40.2877 10.2256C40.1791 10.2704 40.0576 10.3024 39.9425 10.328C39.9234 10.328 36.6315 11.0832 32.2721 14.4944C28.2195 17.6688 22.39 23.864 17.6471 35.3328C17.0015 36.888 16.2664 38.4816 15.5569 40.024C12.1691 47.3648 8.9667 54.296 12.5974 61.3936C16.1705 68.3696 27.6251 71.64 33.7806 73.3936C45.9127 76.8496 58.2622 76.9264 68.5533 73.6176L68.8474 73.5216C76.8055 70.9616 85.032 68.3184 88.9951 60.8816C89.5576 59.8256 90.0242 58.6736 90.3758 57.4576C91.8715 52.312 91.4049 45.8096 89.0974 39.6208C81.6762 19.6912 73.8012 14.1424 73.7245 14.0912C73.6862 14.0656 73.6286 14.0272 73.5903 13.9952C67.5306 9.1952 60.5249 7.8256 54.5036 7.8256H54.51Z" fill="#7A3F3E"/>
<path d="M24.0777 61.3687C23.79 61.3687 23.496 61.2855 23.2403 61.1063C22.5627 60.6455 22.3965 59.7175 22.8568 59.0455C25.0876 55.7943 28.6991 55.3527 28.8525 55.3335C29.6707 55.2375 30.3994 55.8263 30.4889 56.6391C30.5784 57.4519 30.0031 58.1815 29.1913 58.2775C29.1274 58.2839 26.7304 58.6295 25.2985 60.7223C25.0109 61.1383 24.5443 61.3687 24.0777 61.3687Z" fill="#7A3F3E"/>
<path d="M21.7252 71.8641C20.9645 71.8641 20.3445 71.2433 20.3445 70.4817V61.9185C20.3445 61.1505 20.9645 60.5361 21.7252 60.5361C22.4858 60.5361 23.1058 61.1569 23.1058 61.9185V70.4817C23.1058 71.2497 22.4858 71.8641 21.7252 71.8641Z" fill="#7A3F3E"/>
<path d="M9.10726 56.0373C8.89632 56.0373 8.68539 55.9925 8.48724 55.8901L2.4915 52.8885C1.80755 52.5493 1.53269 51.7173 1.87147 51.0325C2.21025 50.3477 3.04121 50.0725 3.72516 50.4117L9.7209 53.4133C10.4048 53.7525 10.6797 54.5845 10.3409 55.2693C10.098 55.7557 9.61223 56.0373 9.10087 56.0373H9.10726Z" fill="#7A3F3E"/>
<path d="M8.87718 59.0392H2.42121C1.66056 59.0392 1.04053 58.4184 1.04053 57.6568C1.04053 56.8952 1.66056 56.2744 2.42121 56.2744H8.87718C9.63783 56.2744 10.2579 56.8952 10.2579 57.6568C10.2579 58.4184 9.63783 59.0392 8.87718 59.0392Z" fill="#7A3F3E"/>
<path d="M3.11151 65.0423C2.58736 65.0423 2.09517 64.7479 1.85866 64.2423C1.53267 63.5511 1.8331 62.7255 2.52983 62.3991L9.44602 59.1671C10.1428 58.8471 10.9609 59.1415 11.2869 59.8391C11.6129 60.5303 11.3125 61.3559 10.6158 61.6823L3.69957 64.9143C3.50781 65.0039 3.30966 65.0423 3.1179 65.0423H3.11151Z" fill="#7A3F3E"/>
<path d="M44.5703 57.0098C44.0653 57.0098 43.5731 56.7282 43.3302 56.2418C42.9914 55.557 43.2663 54.725 43.9502 54.3858L49.946 51.3842C50.6299 51.0386 51.4609 51.3202 51.7997 52.005C52.1384 52.6898 51.8636 53.5218 51.1796 53.861L45.1839 56.8626C44.9857 56.965 44.7748 57.0098 44.5639 57.0098H44.5703Z" fill="#7A3F3E"/>
<path d="M51.2563 60.0119H44.8004C44.0397 60.0119 43.4197 59.3911 43.4197 58.6295C43.4197 57.8679 44.0397 57.2471 44.8004 57.2471H51.2563C52.017 57.2471 52.637 57.8679 52.637 58.6295C52.637 59.3911 52.017 60.0119 51.2563 60.0119Z" fill="#7A3F3E"/>
<path d="M50.5661 66.0149C50.368 66.0149 50.1698 65.9701 49.9845 65.8869L43.0683 62.6549C42.3779 62.3285 42.0775 61.5093 42.3971 60.8117C42.7231 60.1205 43.5413 59.8197 44.238 60.1397L51.1542 63.3717C51.8445 63.6981 52.145 64.5173 51.8254 65.2149C51.5889 65.7205 51.0903 66.0149 50.5725 66.0149H50.5661Z" fill="#7A3F3E"/>
<path d="M56.8046 43.1157C59.2087 43.1157 61.1576 40.9122 61.1576 38.1941C61.1576 35.4759 59.2087 33.2725 56.8046 33.2725C54.4006 33.2725 52.4517 35.4759 52.4517 38.1941C52.4517 40.9122 54.4006 43.1157 56.8046 43.1157Z" fill="#7A3F3E"/>
<path d="M63.1136 39.3525C62.6917 39.3525 62.3274 39.0325 62.2826 38.6037C61.9566 35.3589 60.3906 34.5589 58.1406 34.3605C55.6733 34.1301 54.2862 36.3637 54.2287 36.4597C53.9858 36.8501 53.4744 36.9717 53.0845 36.7349C52.6946 36.4981 52.5667 35.9861 52.8032 35.5957C52.8799 35.4677 54.772 32.3957 58.2876 32.6965C60.4865 32.8949 63.4652 33.7013 63.9382 38.4373C63.9829 38.8981 63.6505 39.3077 63.1903 39.3525C63.1647 39.3525 63.1328 39.3525 63.1072 39.3525H63.1136Z" fill="#7A3F3E"/>
<path d="M54.8039 37.042C54.3885 37.042 53.9666 36.8948 53.6342 36.594L50.6363 33.874C49.9204 33.2276 49.8693 32.1268 50.5149 31.41C51.1605 30.6932 52.2599 30.642 52.9758 31.2884L55.9737 34.0084C56.6896 34.6548 56.7407 35.7556 56.0951 36.4724C55.75 36.85 55.277 37.0484 54.8039 37.0484V37.042Z" fill="#7A3F3E"/>
<path d="M14.6108 37.042C14.1953 37.042 13.7735 36.8948 13.4411 36.594L10.4432 33.874C9.7273 33.2276 9.67617 32.1268 10.3218 31.41C10.9674 30.6932 12.0668 30.642 12.7827 31.2884L15.7806 34.0084C16.4965 34.6548 16.5476 35.7556 15.902 36.4724C15.5568 36.85 15.0838 37.0484 14.6108 37.0484V37.042Z" fill="#7A3F3E"/>
<path d="M55.7372 37.932C56.2914 37.932 56.7407 37.3876 56.7407 36.716C56.7407 36.0444 56.2914 35.5 55.7372 35.5C55.1829 35.5 54.7336 36.0444 54.7336 36.716C54.7336 37.3876 55.1829 37.932 55.7372 37.932Z" fill="white"/>
<path d="M19.2516 60.8817C18.721 60.8817 18.2161 60.5745 17.9859 60.0561C16.976 57.7713 15.02 57.1505 14.9369 57.1313C14.2146 56.9073 13.7928 56.1393 14.0101 55.4161C14.2274 54.6865 14.9753 54.2641 15.7104 54.4753C15.8446 54.5137 18.9639 55.4353 20.5172 58.9425C20.824 59.6401 20.5172 60.4593 19.8141 60.7665C19.6287 60.8497 19.4433 60.8881 19.2516 60.8881V60.8817Z" fill="#7A3F3E"/>
</g>
<defs>
<clipPath id="clip0_209_1508">
<rect width="98.1333" height="80" fill="white" transform="translate(0 0.335938)"/>
</clipPath>
</defs>
</svg>
