<svg width="50" height="53" viewBox="0 0 50 53" fill="none" xmlns="http://www.w3.org/2000/svg">
<g clip-path="url(#clip0_209_1438)">
<path d="M41.2896 32.7377C40.504 41.7173 31.9441 47.4489 22.0795 46.5859C12.215 45.7229 4.77857 38.5917 5.56419 29.6121C6.34981 20.6324 15.0581 13.2055 24.9226 14.0686C34.7871 14.9316 42.0734 23.7579 41.2877 32.7375L41.2896 32.7377Z" fill="#F7931E" stroke="#7A3F3E" stroke-width="3" stroke-linecap="round" stroke-linejoin="round"/>
<path d="M23.642 18.3886C23.642 18.3886 26.8243 -0.265746 45.3882 9.18371C45.3882 9.18371 41.8239 26.2908 23.642 18.3886Z" fill="#60A571" stroke="#7A3F3E" stroke-width="3" stroke-linecap="round" stroke-linejoin="round"/>
<path d="M23.6421 18.3883L45.3882 9.18341" stroke="#7A3F3E" stroke-width="3" stroke-linecap="round" stroke-linejoin="round"/>
<path d="M27.6938 37.6509C27.6649 37.981 27.3739 38.2252 27.0438 38.1963C26.7137 38.1674 26.4695 37.8764 26.4983 37.5463C26.5272 37.2162 26.8182 36.972 27.1484 37.0009C27.4785 37.0298 27.7227 37.3208 27.6938 37.6509Z" fill="#7A3F3E" stroke="#7A3F3E" stroke-width="2" stroke-linecap="round" stroke-linejoin="round"/>
<path d="M23.1909 34.0454C23.162 34.3755 22.8709 34.6197 22.5408 34.5908C22.2107 34.562 21.9665 34.2709 21.9954 33.9408C22.0243 33.6107 22.3153 33.3665 22.6454 33.3954C22.9755 33.4243 23.2197 33.7153 23.1909 34.0454Z" fill="#7A3F3E" stroke="#7A3F3E" stroke-width="2" stroke-linecap="round" stroke-linejoin="round"/>
<path d="M29.8454 31.4155C29.8165 31.7456 29.5255 31.9898 29.1954 31.961C28.8653 31.9321 28.6211 31.6411 28.65 31.311C28.6788 30.9808 28.9699 30.7366 29.3 30.7655C29.6301 30.7944 29.8743 31.0854 29.8454 31.4155Z" fill="#7A3F3E" stroke="#7A3F3E" stroke-width="2" stroke-linecap="round" stroke-linejoin="round"/>
</g>
<defs>
<clipPath id="clip0_209_1438">
<rect width="44.8" height="48" fill="white" transform="translate(4.66138 0.301758) rotate(5)"/>
</clipPath>
</defs>
</svg>
