<svg width="173" height="99" viewBox="0 0 173 99" fill="none" xmlns="http://www.w3.org/2000/svg">
<path d="M2.97172 62.1819C4.15197 22.847 50.2673 10.3708 73.1774 9.04953C141.727 11.1064 147.28 38.0784 141.844 66.3488C134.809 102.94 1.4964 111.351 2.97172 62.1819Z" fill="#FFB465" stroke="#7A3F3E" stroke-width="5"/>
<path d="M41.1691 47.5624C41.1507 47.2798 41.1855 47.0622 41.2734 46.9097C41.6701 46.238 42.24 45.5208 42.9831 44.7581C43.1217 44.6316 43.2446 44.5649 43.3517 44.558C43.4687 44.5504 43.5943 44.6009 43.7286 44.7096C44.1815 45.052 44.5652 45.3843 44.8797 45.7063C45.1936 46.0186 45.4679 46.3238 45.7026 46.6217C45.8101 46.7712 45.8728 46.9825 45.8906 47.2553L47.0514 65.1034C47.0704 65.3957 47.0203 65.6045 46.9013 65.7297C46.7913 65.8445 46.5901 65.9114 46.2978 65.9304L43.1842 66.1329C42.8919 66.1519 42.6789 66.1119 42.5452 66.013C42.4207 65.9036 42.3489 65.7028 42.3299 65.4104L41.8251 57.6485L33.1422 58.2132L33.6471 65.9751C33.6661 66.2675 33.616 66.4763 33.497 66.6014C33.387 66.7162 33.1858 66.7831 32.8935 66.8022L29.7799 67.0047C29.4876 67.0237 29.2746 66.9837 29.1409 66.8847C29.0164 66.7754 28.9446 66.5746 28.9256 66.2822L27.6631 46.8701C27.6441 46.5778 27.6895 46.3742 27.7995 46.2594C27.9186 46.1342 28.1243 46.0621 28.4166 46.0431L31.5302 45.8406C31.8225 45.8216 32.031 45.8667 32.1555 45.9761C32.2892 46.075 32.3655 46.2707 32.3845 46.563L32.8779 54.1495L41.5608 53.5848L41.1691 47.5624ZM58.1764 65.5248C55.7206 65.6845 53.734 65.158 52.2166 63.9454C50.6991 62.7327 49.8564 60.8352 49.6885 58.2527C49.5161 55.6021 50.128 53.5757 51.5244 52.1735C52.9298 50.7609 54.875 49.9739 57.36 49.8122C59.7573 49.6563 61.7192 50.1795 63.2457 51.3818C64.7717 52.5743 65.6164 54.4277 65.7799 56.9419C65.9504 59.5634 65.3592 61.608 64.0063 63.0758C62.6534 64.5437 60.7101 65.36 58.1764 65.5248ZM58.0925 61.9778C59.1644 61.9081 59.9517 61.5242 60.4544 60.826C60.9563 60.1181 61.1547 58.9553 61.0495 57.3377C60.9494 55.798 60.6013 54.7343 60.0053 54.1468C59.4184 53.5488 58.584 53.285 57.5023 53.3554C56.4596 53.4232 55.6584 53.8178 55.0985 54.5393C54.5478 55.2504 54.3219 56.366 54.4208 57.8862C54.5241 59.4747 54.8792 60.5721 55.4863 61.1785C56.1031 61.7843 56.9718 62.0507 58.0925 61.9778ZM81.9387 50.122C82.2708 49.66 82.7987 49.2 83.5224 48.7419C84.2553 48.2734 85.3087 47.9945 86.6828 47.9051C88.6318 47.7784 90.0726 48.1887 91.0052 49.136C91.9378 50.0833 92.4694 51.5607 92.5999 53.5682L93.1551 62.1049C93.1741 62.3972 93.1241 62.606 93.005 62.7312C92.8951 62.846 92.6939 62.9129 92.4015 62.9319L89.3903 63.1277C89.098 63.1467 88.885 63.1068 88.7513 63.0078C88.6268 62.8985 88.555 62.6976 88.536 62.4053L88.0302 54.6287C87.9592 53.5373 87.7087 52.7707 87.2788 52.3289C86.8482 51.8774 86.2333 51.6776 85.4342 51.7296C84.7228 51.7759 84.1681 51.9734 83.77 52.3222C83.381 52.6607 83.1162 53.1036 82.9756 53.651L83.566 62.7285C83.585 63.0209 83.535 63.2296 83.4159 63.3548C83.3059 63.4696 83.1048 63.5365 82.8124 63.5555L79.8012 63.7514C79.5089 63.7704 79.2959 63.7304 79.1622 63.6315C79.0377 63.5221 78.9659 63.3213 78.9469 63.0289L78.4411 55.2524C78.372 54.1902 78.1024 53.4297 77.6321 52.971C77.1619 52.5123 76.5711 52.306 75.8597 52.3523C75.1873 52.396 74.6573 52.5969 74.2695 52.9548C73.8818 53.3128 73.5923 53.7524 73.4011 54.2737L73.9915 63.3512C74.0105 63.6436 73.9605 63.8523 73.8414 63.9775C73.7314 64.0923 73.5303 64.1592 73.2379 64.1782L70.2267 64.3741C69.9344 64.3931 69.7214 64.3531 69.5877 64.2542C69.4632 64.1448 69.3914 63.944 69.3724 63.6516L68.5757 51.4021C68.5605 51.1683 68.5975 50.9848 68.6867 50.8518C68.8736 50.5656 69.0991 50.272 69.3634 49.971C69.6373 49.6694 69.9734 49.3442 70.3715 48.9954C70.4919 48.8897 70.6105 48.833 70.7274 48.8254C70.8346 48.8184 70.9596 48.8592 71.1024 48.9478C71.5326 49.2428 71.9034 49.5269 72.2147 49.8003C72.5261 50.0736 72.804 50.3589 73.0484 50.6562L73.1215 50.6514C73.4256 50.2108 73.9151 49.7631 74.5902 49.3082C75.2652 48.8532 76.2556 48.5833 77.5614 48.4984C78.8088 48.4172 79.7469 48.5471 80.3759 48.8878C81.0041 49.2188 81.5251 49.6302 81.9387 50.122ZM104.529 62.5101C102.882 62.6173 101.432 62.4473 100.18 62.0003C98.9268 61.5435 97.9276 60.7767 97.1823 59.6998C96.437 58.6228 96.0067 57.1975 95.8914 55.4239C95.7183 52.7635 96.2696 50.7068 97.5452 49.2538C98.8208 47.8008 100.589 47.0007 102.85 46.8537C104.321 46.758 105.581 46.9403 106.629 47.4006C107.686 47.8603 108.508 48.5359 109.094 49.4274C109.691 50.3184 110.027 51.3583 110.105 52.5472C110.18 53.7068 109.936 54.535 109.371 55.0317C108.806 55.5284 107.954 55.8138 106.814 55.8879L100.543 56.2958C100.686 57.2944 101.101 58.0357 101.788 58.5194C102.485 59.0026 103.399 59.2074 104.529 59.1338C105.426 59.0755 106.133 58.8974 106.652 58.5994C107.18 58.2911 107.546 58.052 107.751 57.8821C107.927 57.7336 108.132 57.6567 108.367 57.6512C108.552 57.6391 108.818 57.661 109.164 57.7168C109.519 57.7622 109.874 57.8712 110.227 58.044C110.479 58.1548 110.612 58.3223 110.627 58.5464C110.635 58.6731 110.623 58.855 110.589 59.092C110.569 59.2304 110.533 59.4333 110.482 59.7009C110.43 59.9587 110.358 60.2031 110.265 60.4342C110.214 60.5452 110.128 60.6536 110.008 60.7593C109.822 60.9084 109.517 61.1093 109.093 61.3619C108.678 61.6139 108.102 61.8472 107.362 62.0616C106.623 62.2859 105.679 62.4354 104.529 62.5101ZM100.319 53.3011L105.084 52.9911C105.581 52.9588 105.815 52.7137 105.785 52.2556C105.74 51.5637 105.483 50.9982 105.014 50.5589C104.554 50.1093 103.89 49.9127 103.023 49.9691C102.078 50.0306 101.401 50.378 100.992 51.0114C100.592 51.6441 100.368 52.4073 100.319 53.3011Z" fill="#7A3F3E"/>
<g clip-path="url(#clip0_215_9696)">
<path d="M167.19 33.1007C167.19 43.5507 158.1 51.0307 146.9 51.0307C135.7 51.0307 126.6 43.5507 126.6 33.1007C126.6 22.6507 135.69 13.2007 146.9 13.2007C158.11 13.2007 167.19 22.6607 167.19 33.1007Z" fill="#F7931E" stroke="#7A3F3E" stroke-width="5.21" stroke-linecap="round" stroke-linejoin="round"/>
<path d="M145.88 18.3206C145.88 18.3206 147.63 -3.53941 169.49 5.49059C169.49 5.49059 167.16 25.6006 145.88 18.3206Z" fill="#8CC63F" stroke="#7A3F3E" stroke-width="5.21" stroke-linecap="round" stroke-linejoin="round"/>
<path d="M145.88 18.3207L169.49 5.49072" stroke="#7A3F3E" stroke-width="2.6" stroke-linecap="round" stroke-linejoin="round"/>
<path d="M147.38 38.5208C147.706 38.5208 147.97 38.2567 147.97 37.9308C147.97 37.605 147.706 37.3408 147.38 37.3408C147.054 37.3408 146.79 37.605 146.79 37.9308C146.79 38.2567 147.054 38.5208 147.38 38.5208Z" stroke="#7A3F3E" stroke-width="2.6" stroke-linecap="round" stroke-linejoin="round"/>
<path d="M153.6 35.4705C153.926 35.4705 154.19 35.2064 154.19 34.8805C154.19 34.5547 153.926 34.2905 153.6 34.2905C153.274 34.2905 153.01 34.5547 153.01 34.8805C153.01 35.2064 153.274 35.4705 153.6 35.4705Z" stroke="#7A3F3E" stroke-width="2.6" stroke-linecap="round" stroke-linejoin="round"/>
<path d="M152.89 41.8109C153.216 41.8109 153.48 41.5467 153.48 41.2209C153.48 40.895 153.216 40.6309 152.89 40.6309C152.564 40.6309 152.3 40.895 152.3 41.2209C152.3 41.5467 152.564 41.8109 152.89 41.8109Z" stroke="#7A3F3E" stroke-width="2.6" stroke-linecap="round" stroke-linejoin="round"/>
</g>
<defs>
<clipPath id="clip0_215_9696">
<rect width="48.09" height="52.94" fill="white" transform="translate(124 0.700684)"/>
</clipPath>
</defs>
</svg>
