<svg width="170" height="115" viewBox="0 0 170 115" fill="none" xmlns="http://www.w3.org/2000/svg">
<path d="M3 79.7439C3 40.3913 48.7204 26.5376 71.5806 24.5298C140.161 24.5298 146.52 51.3231 141.935 79.7439C136 116.53 3 128.935 3 79.7439Z" fill="#F18137" stroke="#7A3F3E" stroke-width="5"/>
<path d="M48.2306 63.504C48.2037 63.2221 48.232 63.0036 48.3153 62.8485C48.6917 62.1652 49.2398 61.4312 49.9597 60.6466C50.0944 60.516 50.2152 60.4456 50.3221 60.4355C50.4388 60.4244 50.5659 60.4711 50.7034 60.5757C51.1663 60.9044 51.5598 61.225 51.8838 61.5375C52.207 61.8403 52.4903 62.137 52.7338 62.4277C52.8458 62.574 52.9148 62.7833 52.9407 63.0555L54.6363 80.8607C54.6641 81.1523 54.6203 81.3625 54.505 81.4912C54.3986 81.6092 54.1995 81.6821 53.9078 81.7099L50.8018 82.0057C50.5101 82.0335 50.296 81.9999 50.1595 81.905C50.0317 81.7994 49.9539 81.6008 49.9261 81.3092L49.1888 73.5659L40.5268 74.3908L41.2642 82.1341C41.2919 82.4257 41.2482 82.6359 41.1329 82.7646C41.0264 82.8826 40.8274 82.9555 40.5357 82.9833L37.4297 83.2791C37.138 83.3069 36.9239 83.2733 36.7873 83.1784C36.6596 83.0729 36.5818 82.8743 36.554 82.5826L34.7099 63.2171C34.6821 62.9254 34.7214 62.7206 34.8279 62.6026C34.9432 62.4739 35.1466 62.3956 35.4383 62.3679L38.5444 62.0721C38.836 62.0443 39.0457 62.0832 39.1735 62.1887C39.3101 62.2836 39.3922 62.4769 39.42 62.7686L40.1407 70.3369L48.8027 69.512L48.2306 63.504ZM65.7689 80.9483C63.3191 81.1815 61.3176 80.7149 59.7645 79.5483C58.2113 78.3817 57.3121 76.5102 57.0667 73.934C56.8149 71.2897 57.3658 69.2459 58.7195 67.8025C60.0819 66.3484 62.0026 65.5033 64.4817 65.2672C66.8732 65.0395 68.8499 65.5036 70.4118 66.6596C71.9728 67.8058 72.8728 69.633 73.1116 72.1412C73.3607 74.7563 72.831 76.8178 71.5228 78.3255C70.2145 79.8333 68.2966 80.7075 65.7689 80.9483ZM65.5787 77.4054C66.6481 77.3036 67.4235 76.8962 67.905 76.1833C68.3855 75.4606 68.5489 74.2924 68.3952 72.6786C68.249 71.1426 67.8691 70.0899 67.2558 69.5205C66.6512 68.9404 65.8093 68.7018 64.7302 68.8045C63.69 68.9036 62.9009 69.3221 62.363 70.06C61.8339 70.7873 61.6415 71.9092 61.7859 73.4258C61.9368 75.0104 62.3247 76.0967 62.9497 76.6846C63.5844 77.2716 64.4607 77.5119 65.5787 77.4054ZM89.0587 64.8397C89.3767 64.368 89.8906 63.8923 90.6002 63.4127C91.3187 62.9225 92.3633 62.6121 93.7341 62.4816C95.6784 62.2964 97.1309 62.6633 98.0915 63.5822C99.052 64.5012 99.6277 65.962 99.8184 67.9646L100.629 76.4808C100.657 76.7724 100.613 76.9826 100.498 77.1113C100.392 77.2293 100.193 77.3023 99.9009 77.33L96.897 77.6161C96.6053 77.6439 96.3912 77.6103 96.2546 77.5154C96.1269 77.4098 96.0491 77.2112 96.0213 76.9196L95.2825 69.1617C95.1789 68.0729 94.9055 67.3142 94.4625 66.8855C94.0185 66.4471 93.398 66.2658 92.6008 66.3417C91.8911 66.4093 91.3425 66.6234 90.955 66.984C90.5764 67.334 90.325 67.7847 90.2009 68.336L91.0633 77.3917C91.0911 77.6834 91.0473 77.8936 90.932 78.0223C90.8256 78.1403 90.6265 78.2132 90.3348 78.241L87.3309 78.5271C87.0392 78.5548 86.8251 78.5213 86.6885 78.4264C86.5608 78.3208 86.483 78.1222 86.4552 77.8306L85.7164 70.0727C85.6155 69.013 85.3232 68.261 84.8394 67.8166C84.3557 67.3722 83.7589 67.1837 83.0493 67.2513C82.3785 67.3152 81.8547 67.5318 81.4778 67.9013C81.101 68.2707 80.8249 68.7188 80.6494 69.2456L81.5118 78.3013C81.5395 78.593 81.4958 78.8032 81.3805 78.9318C81.274 79.0499 81.075 79.1228 80.7833 79.1506L77.7793 79.4366C77.4877 79.4644 77.2736 79.4309 77.137 79.336C77.0092 79.2304 76.9315 79.0318 76.9037 78.7402L75.74 66.52C75.7178 66.2867 75.7493 66.1022 75.8344 65.9666C76.0127 65.675 76.2293 65.3747 76.4844 65.066C76.7492 64.7563 77.0753 64.4211 77.4628 64.0605C77.58 63.9512 77.6968 63.8911 77.8135 63.8799C77.9204 63.8698 78.0466 63.9068 78.192 63.9911C78.6308 64.273 79.01 64.5459 79.3294 64.8098C79.6488 65.0736 79.9351 65.3505 80.1883 65.6403L80.2613 65.6333C80.552 65.1838 81.0279 64.7216 81.689 64.2466C82.35 63.7717 83.3319 63.4721 84.6346 63.3481C85.879 63.2296 86.8206 63.3312 87.4595 63.653C88.0974 63.965 88.6304 64.3606 89.0587 64.8397ZM112.01 76.5448C110.367 76.7012 108.913 76.5748 107.648 76.1656C106.382 75.7466 105.36 75.0101 104.583 73.956C103.805 72.9019 103.332 71.4901 103.164 69.7208C102.911 67.0668 103.401 64.9945 104.632 63.5038C105.863 62.0132 107.607 61.1605 109.862 60.9457C111.33 60.8059 112.595 60.9503 113.656 61.379C114.727 61.8068 115.568 62.4575 116.181 63.331C116.804 64.2037 117.172 65.233 117.285 66.419C117.395 67.5759 117.175 68.411 116.626 68.9244C116.076 69.4378 115.233 69.7487 114.095 69.857L107.839 70.4527C108.013 71.4467 108.45 72.1751 109.151 72.638C109.862 73.1 110.782 73.2774 111.909 73.17C112.804 73.0848 113.506 72.8855 114.015 72.5721C114.534 72.2481 114.893 71.9981 115.092 71.8222C115.263 71.6685 115.466 71.5854 115.701 71.5729C115.885 71.5553 116.152 71.5692 116.499 71.6145C116.856 71.6493 117.213 71.7476 117.572 71.9097C117.827 72.0129 117.965 72.1763 117.987 72.3999C117.999 72.5263 117.992 72.7085 117.965 72.9464C117.949 73.0853 117.919 73.2892 117.876 73.5582C117.832 73.8174 117.767 74.0639 117.682 74.2977C117.634 74.4102 117.551 74.5211 117.434 74.6303C117.252 74.785 116.954 74.9949 116.537 75.2602C116.131 75.5245 115.561 75.7749 114.829 76.0115C114.097 76.2578 113.157 76.4355 112.01 76.5448ZM107.526 67.4661L112.279 67.0134C112.775 66.9662 113.001 66.7141 112.958 66.2572C112.892 65.567 112.618 65.0094 112.136 64.5844C111.663 64.1488 110.994 63.9721 110.129 64.0545C109.186 64.1443 108.52 64.5119 108.13 65.1572C107.75 65.8016 107.548 66.5713 107.526 67.4661Z" fill="#7A3F3E"/>
<g clip-path="url(#clip0_78_76)">
<path d="M144.933 11.1256C146.382 17.6429 143.364 26.0842 137.605 27.3453C131.847 28.6064 125.522 22.1903 124.083 15.6822C122.634 9.16487 126.609 5.01329 132.367 3.76137C138.125 2.50945 143.494 4.61746 144.942 11.1256H144.933Z" fill="white" stroke="#7A3F3E" stroke-width="5.57" stroke-linecap="round" stroke-linejoin="round"/>
<path d="M122.04 21.1593C128.764 21.463 136.212 26.5351 135.943 32.3713C135.674 38.2074 127.798 42.5984 121.074 42.3038C114.35 42 111.331 37.1304 111.6 31.2851C111.87 25.4489 115.315 20.8555 122.04 21.1593Z" fill="white" stroke="#7A3F3E" stroke-width="5.57" stroke-linecap="round" stroke-linejoin="round"/>
<path d="M124.686 45.001C126.72 38.6401 133.593 32.8224 139.212 34.5898C144.831 36.3572 147.079 45.0378 145.045 51.3987C143.011 57.7595 137.475 59.3796 131.856 57.6214C126.238 55.8632 122.653 51.371 124.686 45.0102V45.001Z" fill="white" stroke="#7A3F3E" stroke-width="5.57" stroke-linecap="round" stroke-linejoin="round"/>
<path d="M151.184 50.9567C145.509 47.3666 141.618 39.2752 144.794 34.3504C147.97 29.4255 157.007 29.5268 162.681 33.1169C168.356 36.7069 168.505 42.4234 165.328 47.3574C162.152 52.2915 156.849 54.5468 151.184 50.9567Z" fill="white" stroke="#7A3F3E" stroke-width="5.57" stroke-linecap="round" stroke-linejoin="round"/>
<path d="M162.356 27.6215C157.388 32.1229 148.5 33.7522 144.525 29.435C140.549 25.1177 142.983 16.4923 147.952 11.991C152.92 7.48957 158.53 8.82434 162.514 13.1416C166.489 17.4589 167.325 23.1201 162.366 27.6215H162.356Z" fill="white" stroke="#7A3F3E" stroke-width="5.57" stroke-linecap="round" stroke-linejoin="round"/>
<path d="M140.215 40.1037C144.57 40.1037 148.1 36.6047 148.1 32.2884C148.1 27.9722 144.57 24.4731 140.215 24.4731C135.86 24.4731 132.33 27.9722 132.33 32.2884C132.33 36.6047 135.86 40.1037 140.215 40.1037Z" fill="#FCBB21" stroke="#7A3F3E" stroke-width="4.18" stroke-linecap="round" stroke-linejoin="round"/>
</g>
<defs>
<clipPath id="clip0_78_76">
<rect width="61" height="60" fill="white" transform="translate(109 0.843262)"/>
</clipPath>
</defs>
</svg>
