<svg width="267" height="89" viewBox="0 0 267 89" fill="none" xmlns="http://www.w3.org/2000/svg">
<rect x="16.4043" y="14.5708" width="250.576" height="53.332" rx="8" transform="rotate(4.81112 16.4043 14.5708)" fill="#7A3F3E"/>
<rect x="4.61285" y="0.268799" width="250" height="55" rx="8" transform="rotate(4.81112 4.61285 0.268799)" fill="#60A571"/>
<path d="M23.2264 40.9733C22.2241 40.889 21.4708 40.6982 20.9666 40.4009C20.4722 40.1045 20.1567 39.6614 20.0201 39.0717C19.8933 38.4828 19.87 37.7116 19.9502 36.7579L21.1862 22.0735C21.2099 21.7913 21.2766 21.5813 21.3862 21.4435C21.8782 20.8381 22.5482 20.2134 23.3962 19.5694C23.552 19.4649 23.6834 19.4172 23.7905 19.4262C23.9072 19.436 24.024 19.5046 24.1406 19.632C24.5377 20.0379 24.8678 20.4234 25.1311 20.7885C25.3952 21.144 25.6212 21.4864 25.8091 21.8158C25.8933 21.9797 25.9239 22.1979 25.901 22.4703L24.8112 35.4177C24.7563 36.0697 24.8338 36.5466 25.0436 36.8485C25.2534 37.1504 25.6794 37.3283 26.3217 37.3824L30.8041 37.745C31.0377 37.7646 31.2096 37.8183 31.3198 37.906C31.5581 38.1024 31.8032 38.3338 32.0552 38.6C32.3072 38.8662 32.5697 39.1823 32.8427 39.5483C32.9294 39.683 32.9694 39.7892 32.9629 39.8671C32.9555 39.9547 32.8986 40.0479 32.7923 40.1467C32.462 40.4619 32.1503 40.7297 31.8574 40.9501C31.5644 41.1704 31.2841 41.3575 31.0163 41.5114C30.8735 41.5778 30.6951 41.602 30.481 41.5839L23.2264 40.9733ZM41.6315 42.8899C39.1792 42.6835 37.2927 41.8682 35.972 40.4438C34.6512 39.0194 34.0994 37.0178 34.3164 34.439C34.5392 31.7921 35.4451 29.879 37.034 28.6995C38.6334 27.5111 40.6739 27.0213 43.1553 27.2302C45.5492 27.4316 47.4118 28.2401 48.7431 29.6556C50.0752 31.0613 50.6356 33.0195 50.4243 35.5302C50.2039 38.1479 49.3159 40.0822 47.7602 41.3331C46.2045 42.5839 44.1616 43.1029 41.6315 42.8899ZM42.0748 39.3698C43.1452 39.4599 43.9807 39.197 44.5814 38.5812C45.1828 37.9556 45.5516 36.8351 45.6875 35.2197C45.8169 33.6822 45.6305 32.5787 45.1282 31.9092C44.6365 31.2308 43.8506 30.8461 42.7704 30.7552C41.7292 30.6676 40.8782 30.939 40.2176 31.5694C39.5674 32.1909 39.1785 33.2606 39.0507 34.7787C38.9172 36.3649 39.1056 37.5029 39.616 38.1926C40.1361 38.8832 40.9557 39.2756 42.0748 39.3698ZM68.5073 31.1427L67.5109 42.9807C67.2718 45.8222 66.277 47.919 64.5266 49.2711C62.7859 50.6241 60.5045 51.1817 57.6824 50.9442C56.5147 50.8459 55.5976 50.6805 54.9311 50.4481C54.2639 50.2253 53.7616 50.0213 53.4244 49.8361C53.2096 49.7102 53.0731 49.586 53.0148 49.4635C52.9306 49.2997 52.8379 49.0615 52.7368 48.7492C52.6454 48.4377 52.5613 48.0975 52.4846 47.7284C52.4669 47.5897 52.4706 47.4871 52.4958 47.4206C52.5429 47.3266 52.6245 47.2306 52.7406 47.1325C52.9305 46.9721 53.1958 46.7886 53.5366 46.5821C53.8871 46.3764 54.1528 46.2469 54.3337 46.1935C54.5244 46.1409 54.6938 46.165 54.8422 46.2657C55.0837 46.4232 55.4311 46.6044 55.8842 46.8091C56.3463 47.0244 57.0055 47.1681 57.8619 47.2402C59.2243 47.3548 60.3631 47.0979 61.2784 46.4693C62.1937 45.8407 62.7128 44.7966 62.8357 43.3369L62.8799 42.8114L62.8215 42.8065C62.5845 43.061 62.2838 43.315 61.9195 43.5685C61.5551 43.8221 61.0923 44.0232 60.531 44.172C59.9794 44.3215 59.2803 44.3607 58.4336 44.2894C56.9642 44.1658 55.7842 43.7479 54.8935 43.036C54.0134 42.3151 53.3966 41.3762 53.0431 40.2195C52.6994 39.0635 52.5877 37.7703 52.7081 36.3398C52.84 34.7731 53.2162 33.3886 53.8368 32.1865C54.4574 30.9843 55.4062 30.0743 56.6832 29.4566C57.9611 28.8291 59.6558 28.6043 61.7675 28.782C63.0326 28.8885 64.0855 29.0702 64.9263 29.3272C65.7768 29.585 66.4825 29.8747 67.0435 30.1963C67.6044 30.5179 68.0924 30.8334 68.5073 31.1427ZM61.3096 32.3009C60.1808 32.2059 59.2876 32.5129 58.6302 33.222C57.9727 33.9311 57.5768 35.0836 57.4424 36.6795C57.2319 39.1804 58.1582 40.5177 60.2212 40.6913C61.0289 40.7593 61.6608 40.6459 62.1168 40.3511C62.5728 40.0563 62.9292 39.6648 63.1858 39.1768L63.6932 33.1484C63.4923 32.9746 63.2029 32.8033 62.8251 32.6343C62.4473 32.4653 61.9422 32.3542 61.3096 32.3009ZM72.3078 25.1121C72.3184 24.9856 72.3667 24.8769 72.4528 24.7862C72.5388 24.6954 72.6517 24.5775 72.7913 24.4325C73.09 24.144 73.4337 23.8446 73.8224 23.5343C74.2119 23.2143 74.6051 22.9093 75.0019 22.6193C75.251 22.4541 75.434 22.3764 75.5507 22.3862C75.6675 22.396 75.8398 22.5036 76.0675 22.709C76.7984 23.4565 77.4141 24.1747 77.9148 24.8637C78.029 25.0203 78.1205 25.1554 78.1893 25.269C78.2687 25.3737 78.3031 25.4893 78.2925 25.6158C78.2818 25.7423 78.2286 25.8505 78.1328 25.9405C78.0468 26.0312 77.9287 26.1536 77.7785 26.3076C77.4904 26.5871 77.1564 26.8873 76.7766 27.2081C76.3976 27.5192 76.0101 27.8149 75.6141 28.0952C75.4681 28.2005 75.3545 28.2694 75.2733 28.3017C75.193 28.3244 75.1188 28.3328 75.0507 28.3271C74.9826 28.3214 74.9108 28.3006 74.8354 28.2649C74.7706 28.2202 74.6652 28.1329 74.5194 28.0031C74.1563 27.6589 73.8188 27.3022 73.5069 26.9329C73.1958 26.5539 72.9175 26.1924 72.6721 25.8484C72.5587 25.682 72.4668 25.5518 72.3963 25.4576C72.3266 25.3538 72.2971 25.2386 72.3078 25.1121ZM75.9861 44.6349C75.9615 44.9268 75.881 45.1258 75.7447 45.232C75.6189 45.3292 75.41 45.3655 75.1181 45.3409L72.1112 45.0878C71.8192 45.0633 71.6145 44.9921 71.497 44.8745C71.3901 44.7478 71.3489 44.5386 71.3735 44.2466L72.5013 30.8468C72.5259 30.5548 72.601 30.3602 72.7268 30.263C72.8632 30.1569 73.0773 30.1161 73.3692 30.1407L76.3762 30.3938C76.6681 30.4184 76.8676 30.4939 76.9745 30.6205C77.092 30.7382 77.1385 30.9431 77.1139 31.235L75.9861 44.6349ZM95.1247 37.6608L94.4072 46.1853C94.3827 46.4773 94.3022 46.6763 94.1659 46.7824C94.0401 46.8797 93.8312 46.916 93.5393 46.8914L90.5324 46.6383C90.2404 46.6137 90.0357 46.5426 89.9182 46.4249C89.8113 46.2983 89.7701 46.089 89.7946 45.7971L90.4483 38.0316C90.5375 36.9709 90.3788 36.1784 89.9721 35.6542C89.5655 35.13 88.9777 34.8355 88.209 34.7708C87.4402 34.7061 86.8327 34.8215 86.3864 35.1172C85.9498 35.4136 85.5983 35.8055 85.3319 36.2927L84.569 45.3573C84.5444 45.6492 84.464 45.8482 84.3276 45.9544C84.2018 46.0516 83.993 46.0879 83.701 46.0633L80.6941 45.8103C80.4022 45.7857 80.1974 45.7145 80.08 45.5969C79.973 45.4703 79.9318 45.261 79.9564 44.969L80.9859 32.7369C81.0056 32.5034 81.0694 32.3274 81.1774 32.2091C81.4047 31.9538 81.6713 31.697 81.9772 31.4385C82.2929 31.1809 82.6735 30.9091 83.119 30.6232C83.2537 30.5365 83.3794 30.4981 83.4962 30.508C83.6032 30.517 83.7208 30.5759 83.8488 30.6846C84.2305 31.0402 84.555 31.3762 84.8224 31.6927C85.0898 32.0092 85.3222 32.3326 85.5198 32.6628L85.5928 32.669C85.7763 32.4688 86.0453 32.2415 86.3999 31.9872C86.7554 31.7231 87.2393 31.5041 87.8517 31.3303C88.4739 31.1572 89.2521 31.11 90.1863 31.1886C91.101 31.2656 91.9564 31.5238 92.7524 31.9632C93.5485 32.4026 94.1724 33.0824 94.6241 34.0024C95.0856 34.9233 95.2525 36.1427 95.1247 37.6608ZM104.611 50.5281C104.263 50.3519 104.178 50.085 104.355 49.7275L115.847 27.586C116.025 27.2285 116.296 27.1436 116.663 27.3312L119 28.5569C119.15 28.6382 119.248 28.7542 119.294 28.9051C119.34 29.056 119.322 29.2064 119.241 29.3564L107.738 51.4528C107.657 51.6028 107.541 51.7008 107.39 51.7469C107.248 51.8036 107.102 51.7913 106.952 51.7101L104.611 50.5281ZM134.06 50.6547C132.824 50.5507 131.807 50.3524 131.008 50.0598C130.219 49.768 129.591 49.4358 129.122 49.0631C128.664 48.6816 128.318 48.3143 128.083 47.9613C128.006 47.8275 127.938 47.6993 127.88 47.5768C127.822 47.4543 127.784 47.3188 127.767 47.1704C127.745 46.9725 127.727 46.7162 127.714 46.4015C127.703 46.0771 127.729 45.7069 127.793 45.2909C127.818 45.1166 127.862 44.9978 127.926 44.9346C128.001 44.8625 128.118 44.8135 128.277 44.7877C128.565 44.7433 128.934 44.7156 129.386 44.7047C129.848 44.6848 130.177 44.683 130.371 44.6994C130.576 44.7166 130.738 44.7695 130.858 44.8579C130.978 44.9464 131.118 45.0905 131.277 45.2901C131.455 45.5109 131.768 45.8019 132.218 46.1631C132.669 46.5147 133.39 46.7322 134.383 46.8158C135.337 46.896 136.073 46.7572 136.594 46.3991C137.114 46.0411 137.404 45.5069 137.464 44.7965C137.495 44.417 137.409 44.052 137.203 43.7015C137.008 43.342 136.622 42.9715 136.047 42.5899C135.472 42.1985 134.641 41.7708 133.553 41.3068C131.756 40.5284 130.488 39.6426 129.749 38.6493C129.009 37.656 128.709 36.3371 128.847 34.6925C128.962 33.3302 129.388 32.2195 130.127 31.3604C130.866 30.5014 131.839 29.8875 133.046 29.5186C134.253 29.1498 135.62 29.0297 137.148 29.1583C138.326 29.2574 139.287 29.4804 140.032 29.8273C140.787 30.1653 141.364 30.5275 141.763 30.9139C142.163 31.2905 142.417 31.5912 142.525 31.8159C142.592 31.949 142.633 32.0504 142.647 32.1201C142.671 32.181 142.683 32.2653 142.684 32.3732C142.688 32.6773 142.669 33.0139 142.628 33.3828C142.588 33.7518 142.518 34.1674 142.421 34.6296C142.378 34.7828 142.316 34.8854 142.233 34.9372C142.161 34.9801 142.052 34.9954 141.906 34.9831C140.96 34.9232 140.234 34.8131 139.729 34.6529C139.528 34.587 139.396 34.5269 139.332 34.4725C139.268 34.4181 139.187 34.3329 139.089 34.2169C138.949 34.0189 138.719 33.7839 138.399 33.5119C138.089 33.2311 137.564 33.0595 136.825 32.9973C135.803 32.9113 135.058 33.0838 134.591 33.5149C134.124 33.9362 133.867 34.4339 133.819 35.0081C133.761 35.6893 134.032 36.2511 134.632 36.6936C135.233 37.1263 136.194 37.6433 137.515 38.2446C138.62 38.7394 139.562 39.2547 140.34 39.7906C141.118 40.3265 141.69 40.9774 142.057 41.7433C142.434 42.51 142.571 43.4918 142.471 44.6887C142.345 46.1776 141.896 47.3844 141.122 48.3091C140.358 49.2346 139.362 49.8907 138.134 50.2773C136.917 50.6551 135.558 50.7809 134.06 50.6547ZM146.226 31.3336C146.237 31.2071 146.285 31.0985 146.371 31.0077C146.457 30.917 146.57 30.7991 146.71 30.654C147.008 30.3655 147.352 30.0662 147.741 29.7559C148.13 29.4359 148.523 29.1308 148.92 28.8408C149.169 28.6756 149.352 28.5979 149.469 28.6077C149.586 28.6176 149.758 28.7252 149.986 28.9305C150.717 29.678 151.332 30.3963 151.833 31.0852C151.947 31.2418 152.039 31.377 152.108 31.4906C152.187 31.5952 152.221 31.7108 152.211 31.8373C152.2 31.9638 152.147 32.0721 152.051 32.162C151.965 32.2528 151.847 32.3751 151.697 32.5291C151.409 32.8086 151.075 33.1088 150.695 33.4297C150.316 33.7408 149.928 34.0365 149.532 34.3167C149.386 34.4221 149.273 34.4909 149.192 34.5233C149.111 34.5459 149.037 34.5544 148.969 34.5486C148.901 34.5429 148.829 34.5222 148.754 34.4864C148.689 34.4418 148.584 34.3545 148.438 34.2246C148.075 33.8804 147.737 33.5237 147.425 33.1545C147.114 32.7755 146.836 32.414 146.59 32.0699C146.477 31.9035 146.385 31.7733 146.315 31.6792C146.245 31.5753 146.215 31.4601 146.226 31.3336ZM149.904 50.8564C149.88 51.1483 149.799 51.3474 149.663 51.4535C149.537 51.5507 149.328 51.587 149.036 51.5625L146.029 51.3094C145.738 51.2848 145.533 51.2137 145.415 51.096C145.308 50.9694 145.267 50.7601 145.292 50.4682L146.42 37.0683C146.444 36.7764 146.519 36.5818 146.645 36.4846C146.781 36.3784 146.996 36.3377 147.288 36.3622L150.295 36.6153C150.586 36.6399 150.786 36.7155 150.893 36.8421C151.01 36.9598 151.057 37.1646 151.032 37.4565L149.904 50.8564ZM169.401 39.6347L168.404 51.4727C168.165 54.3142 167.17 56.411 165.42 57.7631C163.679 59.116 161.398 59.6737 158.576 59.4362C157.408 59.3379 156.491 59.1725 155.824 58.94C155.157 58.7172 154.655 58.5133 154.318 58.3281C154.103 58.2022 153.966 58.078 153.908 57.9555C153.824 57.7916 153.731 57.5535 153.63 57.2412C153.539 56.9297 153.455 56.5894 153.378 56.2203C153.36 56.0817 153.364 55.9791 153.389 55.9126C153.436 55.8186 153.518 55.7225 153.634 55.6245C153.824 55.4641 154.089 55.2806 154.43 55.0741C154.78 54.8684 155.046 54.7388 155.227 54.6855C155.418 54.6329 155.587 54.657 155.735 54.7577C155.977 54.9152 156.324 55.0963 156.777 55.3011C157.24 55.5164 157.899 55.6601 158.755 55.7321C160.118 55.8468 161.256 55.5898 162.172 54.9613C163.087 54.3327 163.606 53.2886 163.729 51.8289L163.773 51.3034L163.715 51.2985C163.478 51.5529 163.177 51.8069 162.813 52.0605C162.448 52.314 161.986 52.5152 161.424 52.6639C160.873 52.8135 160.174 52.8527 159.327 52.7814C157.857 52.6577 156.677 52.2399 155.787 51.5279C154.907 50.807 154.29 49.8682 153.936 48.7114C153.593 47.5555 153.481 46.2623 153.601 44.8318C153.733 43.2651 154.11 41.8806 154.73 40.6784C155.351 39.4762 156.299 38.5663 157.577 37.9485C158.854 37.3211 160.549 37.0962 162.661 37.274C163.926 37.3804 164.979 37.5622 165.82 37.8191C166.67 38.0769 167.376 38.3666 167.937 38.6882C168.498 39.0099 168.986 39.3253 169.401 39.6347ZM162.203 40.7929C161.074 40.6979 160.181 41.0049 159.523 41.714C158.866 42.423 158.47 43.5755 158.336 45.1715C158.125 47.6724 159.051 49.0097 161.114 49.1833C161.922 49.2513 162.554 49.1379 163.01 48.843C163.466 48.5482 163.822 48.1568 164.079 47.6688L164.586 41.6403C164.386 41.4666 164.096 41.2952 163.718 41.1262C163.341 40.9572 162.835 40.8461 162.203 40.7929ZM187.435 45.4303L186.718 53.9549C186.693 54.2468 186.613 54.4459 186.476 54.552C186.35 54.6492 186.142 54.6855 185.85 54.661L182.843 54.4079C182.551 54.3833 182.346 54.3122 182.229 54.1945C182.122 54.0679 182.08 53.8586 182.105 53.5667L182.759 45.8012C182.848 44.7405 182.689 43.948 182.282 43.4237C181.876 42.8995 181.288 42.605 180.519 42.5403C179.751 42.4756 179.143 42.5911 178.697 42.8867C178.26 43.1832 177.909 43.575 177.642 44.0622L176.879 53.1268C176.855 53.4188 176.774 53.6178 176.638 53.7239C176.512 53.8211 176.303 53.8575 176.011 53.8329L173.004 53.5798C172.712 53.5552 172.508 53.4841 172.39 53.3664C172.283 53.2398 172.242 53.0305 172.267 52.7386L173.296 40.5065C173.316 40.2729 173.38 40.097 173.488 39.9787C173.715 39.7234 173.982 39.4665 174.288 39.2081C174.603 38.9504 174.984 38.6787 175.429 38.3928C175.564 38.3061 175.69 38.2677 175.807 38.2775C175.914 38.2865 176.031 38.3454 176.159 38.4542C176.541 38.8097 176.865 39.1457 177.133 39.4622C177.4 39.7788 177.633 40.1021 177.83 40.4324L177.903 40.4385C178.087 40.2383 178.356 40.0111 178.71 39.7567C179.066 39.4926 179.55 39.2737 180.162 39.0998C180.784 38.9268 181.562 38.8796 182.497 38.9582C183.411 39.0352 184.267 39.2934 185.063 39.7328C185.859 40.1722 186.483 40.8519 186.934 41.772C187.396 42.6928 187.563 43.9123 187.435 45.4303ZM204.036 56.5591C200.571 56.2676 199.016 54.0247 199.369 49.8305L199.978 42.4141C199.998 42.1806 200.062 42.0046 200.17 41.8863C200.624 41.3855 201.271 40.8569 202.111 40.3004C202.256 40.2146 202.382 40.1762 202.489 40.1852C202.615 40.1958 202.733 40.2547 202.841 40.3618C203.233 40.7182 203.558 41.0494 203.816 41.3553C204.084 41.6621 204.309 41.9603 204.49 42.25C204.577 42.3847 204.611 42.5688 204.591 42.8024L204.001 49.8088C203.823 51.9205 204.571 53.0468 206.245 53.1877C207.072 53.2573 207.758 53.0259 208.303 52.4935C208.848 51.9514 209.163 51.1841 209.246 50.1915L209.831 43.2434C209.851 43.0099 209.915 42.8339 210.023 42.7156C210.476 42.2148 211.124 41.6862 211.964 41.1297C212.109 41.0439 212.234 41.0054 212.341 41.0145C212.468 41.0251 212.585 41.084 212.694 41.1911C213.085 41.5475 213.41 41.8786 213.669 42.1846C213.937 42.4914 214.162 42.7896 214.343 43.0793C214.43 43.214 214.463 43.3981 214.444 43.6316L213.377 56.3017C213.362 56.4866 213.285 56.6418 213.147 56.7674C213.01 56.8833 212.844 56.933 212.649 56.9166L210.46 56.7323C210.304 56.7192 210.165 56.6879 210.041 56.6383C209.929 56.5798 209.824 56.4828 209.728 56.3473L208.921 55.1034L208.819 55.0948C208.644 55.3055 208.379 55.5429 208.024 55.807C207.678 56.0719 207.185 56.2852 206.544 56.4469C205.913 56.6094 205.077 56.6468 204.036 56.5591ZM227.864 42.7766C229.284 42.8962 230.425 43.3156 231.286 44.0349C232.157 44.7452 232.769 45.6788 233.123 46.8355C233.487 47.9834 233.608 49.2774 233.487 50.7176C233.356 52.2746 232.97 53.6534 232.33 54.854C231.7 56.0553 230.838 56.9775 229.745 57.6205C228.652 58.2636 227.342 58.5208 225.814 58.3922C225.026 58.3258 224.382 58.1785 223.882 57.9502C223.39 57.7325 222.999 57.4888 222.708 57.2194C222.428 56.941 222.209 56.6922 222.051 56.4731L221.992 56.4682L221.469 62.6864C221.449 62.92 221.386 63.0959 221.278 63.2142C220.824 63.7151 220.177 64.2437 219.336 64.8001C219.192 64.886 219.066 64.9244 218.959 64.9154C218.842 64.9056 218.724 64.8467 218.606 64.7387C218.215 64.3824 217.885 64.0508 217.617 63.744C217.358 63.4381 217.138 63.1402 216.957 62.8506C216.87 62.7159 216.837 62.5318 216.856 62.2982L218.371 44.3003C218.391 44.0668 218.455 43.8908 218.563 43.7725C218.79 43.5173 219.057 43.2604 219.363 43.0019C219.678 42.7443 220.059 42.4725 220.504 42.1866C220.639 42.1 220.774 42.0624 220.911 42.0738C221.037 42.0845 221.164 42.1442 221.293 42.253C221.674 42.6085 221.999 42.9445 222.266 43.261C222.533 43.5775 222.766 43.9009 222.964 44.2311L223.037 44.2373C223.219 44.0468 223.493 43.82 223.858 43.5567C224.223 43.2935 224.727 43.0761 225.368 42.9047C226.02 42.7341 226.852 42.6914 227.864 42.7766ZM225.062 54.5803C226.113 54.6688 226.956 54.3722 227.592 53.6907C228.238 53.0003 228.619 51.9593 228.737 50.5677C228.958 47.9403 227.988 46.5357 225.828 46.3538C224.913 46.2769 224.221 46.4097 223.751 46.7524C223.282 47.0853 222.937 47.4532 222.717 47.8561L222.451 51.0236C222.371 51.9675 222.548 52.7762 222.981 53.4497C223.415 54.1232 224.108 54.5 225.062 54.5803Z" fill="white"/>
</svg>
