<svg width="60" height="61" viewBox="0 0 60 61" fill="none" xmlns="http://www.w3.org/2000/svg">
<mask id="mask0_309_29955" style="mask-type:alpha" maskUnits="userSpaceOnUse" x="2" y="2" width="56" height="57">
<circle cx="30" cy="30.5" r="28" fill="#D9D9D9"/>
</mask>
<g mask="url(#mask0_309_29955)">
<circle cx="29.5" cy="31" r="37.5" fill="#A59D9D"/>
<path fill-rule="evenodd" clip-rule="evenodd" d="M37.5095 33.4042C39.1881 31.3681 40.2183 28.6138 40.2183 25.5818C40.2183 19.3126 35.8138 14.2305 30.3805 14.2305C24.9472 14.2305 20.5426 19.3126 20.5426 25.5818C20.5426 28.5711 21.544 31.2905 23.1809 33.3177C16.2007 35.2395 11.2685 39.9457 11.2685 45.4465C11.2685 46.3144 11.2193 47.1626 11.1717 47.9832C10.8241 53.9786 10.5619 58.5005 30.1921 58.5005C49.8223 58.5005 49.5601 53.9786 49.2124 47.9832C49.1648 47.1626 49.1157 46.3144 49.1157 45.4465C49.1157 40.0265 44.3273 35.3779 37.5095 33.4042Z" fill="#BFBFBF"/>
<path opacity="0.3" d="M28.4753 32.157C28.4753 31.7197 28.6292 31.3467 28.937 31.038C29.2449 30.7164 29.604 30.5556 30.0145 30.5556C30.4249 30.5556 30.7327 30.6714 30.938 30.9029C31.156 31.1216 31.265 31.4496 31.265 31.8869C31.265 32.3242 31.1175 32.7101 30.8225 33.0445C30.5275 33.3661 30.1748 33.5269 29.7643 33.5269C29.3667 33.5269 29.0525 33.4047 28.8216 33.1603C28.5907 32.9159 28.4753 32.5815 28.4753 32.157ZM31.2073 24.1886C31.2073 22.838 29.7964 22.1305 26.9746 22.0662L27.9366 19.9053C29.8349 20.0725 31.2843 20.4777 32.2847 21.1208C33.2852 21.7639 33.7854 22.6193 33.7854 23.6869C33.7854 25.1661 32.5733 26.819 30.1491 28.6455L28.6677 27.3142C30.3608 26.2209 31.2073 25.179 31.2073 24.1886Z" fill="black"/>
</g>
<circle cx="30" cy="30.5" r="29" stroke="#7A3F3E" stroke-width="2"/>
</svg>
