<svg width="180" height="150" viewBox="0 0 180 150" fill="none" xmlns="http://www.w3.org/2000/svg">
<path d="M16 101L30.5 130L38 102.311L16 101Z" fill="#A60001"/>
<path d="M6.95792 84.6546C15.1923 46.1732 62.7994 42.193 85.5737 45.0131C152.636 59.3634 153.248 86.8941 142.817 113.726C129.317 148.456 -3.33509 132.756 6.95792 84.6546Z" fill="#FFEEE2" stroke="#7A3F3E" stroke-width="5"/>
<path d="M56.4096 90.0133C56.1574 89.9839 55.9514 89.896 55.7914 89.7496C55.6218 89.602 55.4244 89.3972 55.1993 89.135C54.9742 88.8729 54.7262 88.554 54.4553 88.1784C54.3547 88.029 54.3106 87.901 54.3231 87.7943C54.3355 87.6876 54.4078 87.5731 54.54 87.4508C55.2204 86.8418 55.8266 86.4061 56.3586 86.1435C56.484 86.0795 56.6534 86.0599 56.8668 86.0847C57.5265 86.1615 58.1227 85.9802 58.6556 85.5408C59.1982 85.1025 59.5241 84.3293 59.6334 83.2213C59.7626 82.027 59.5638 81.1584 59.0371 80.6153C58.5201 80.0734 57.7621 79.7443 56.7629 79.628L56.0645 79.5468C55.4243 79.4722 54.972 79.5572 54.7076 79.8018C54.4432 80.0463 54.2726 80.4983 54.1958 81.1579L52.4872 95.8391C52.4533 96.1301 52.3666 96.3265 52.2269 96.4282C52.0981 96.5214 51.8882 96.551 51.5972 96.5171L48.498 96.1564C48.207 96.1226 48.0046 96.045 47.8909 95.9236C47.7881 95.7936 47.7536 95.5831 47.7875 95.2921L49.6722 79.0977C49.7851 78.1277 49.9616 77.3716 50.2017 76.8293C50.4526 76.2784 50.8492 75.9117 51.3915 75.729C51.9447 75.5378 52.7208 75.5003 53.72 75.6166L57.1829 76.0196C59.9669 76.3436 61.9644 77.1315 63.1754 78.3835C64.3876 79.6257 64.8627 81.372 64.6008 83.6224C64.4044 85.3102 63.89 86.6465 63.0577 87.6311C62.2351 88.6168 61.2319 89.2964 60.0479 89.6698C58.8737 90.0444 57.6609 90.1589 56.4096 90.0133ZM67.5087 98.6787C67.2948 98.7423 67.1442 98.769 67.0569 98.7588C66.9696 98.7487 66.8814 98.704 66.7923 98.6248C66.5873 98.4436 66.3742 98.0354 66.1532 97.4001C65.9431 96.7563 65.9113 95.8038 66.0581 94.5428L68.0191 77.6937C68.0462 77.4608 68.1155 77.287 68.2272 77.1722C68.6967 76.6861 69.3605 76.1784 70.2184 75.649C70.3655 75.5678 70.4924 75.5335 70.5991 75.5459C70.7252 75.5605 70.8408 75.6232 70.9459 75.7337C71.3258 76.1024 71.64 76.4437 71.8886 76.7577C72.1468 77.0729 72.362 77.3782 72.5341 77.6735C72.6164 77.8109 72.644 77.996 72.6169 78.2288L70.7593 94.1904C70.6848 94.8306 70.6743 95.3848 70.728 95.8532C70.7827 96.3118 70.8671 96.6854 70.981 96.9739C71.1086 97.3132 71.019 97.5338 70.7122 97.6358L67.5087 98.6787ZM78.0363 99.9629C76.6103 99.7969 75.5217 99.2671 74.7704 98.3735C74.0298 97.4713 73.7414 96.3169 73.9051 94.9104C73.9898 94.1829 74.1992 93.524 74.5334 92.9337C74.8784 92.3348 75.4083 91.836 76.1232 91.4375C76.849 91.0304 77.8254 90.7508 79.0524 90.5986C80.289 90.4476 81.8414 90.4562 83.7095 90.6245C83.8122 89.7418 83.6631 89.0804 83.262 88.6405C82.8707 88.2017 82.2336 87.9309 81.3509 87.8282C80.5555 87.7356 79.8898 87.7958 79.3538 88.0087C78.8178 88.2216 78.4811 88.3692 78.3437 88.4515C78.1943 88.5521 78.0243 88.5766 77.8337 88.5249C77.5763 88.4556 77.3029 88.355 77.0135 88.223C76.7338 88.0921 76.4315 87.9439 76.1067 87.7783C76.0605 87.7532 76.0105 87.7179 75.9568 87.6723C75.9043 87.617 75.8782 87.5452 75.8787 87.4568C75.8843 87.4083 75.8959 87.3506 75.9135 87.2839C75.9323 87.2074 75.9723 87.0744 76.0337 86.8849C76.0951 86.6954 76.1809 86.4645 76.2913 86.1923C76.4027 85.9103 76.5015 85.6957 76.5874 85.5484C76.6939 85.3936 76.8575 85.2554 77.0781 85.1336C77.2588 85.017 77.7838 84.8568 78.653 84.6532C79.5222 84.4496 80.7474 84.4398 82.3285 84.6238C86.6839 85.1307 88.6149 87.5036 88.1215 91.7426L87.1631 99.978C87.1416 100.162 87.0696 100.316 86.9471 100.439C86.8355 100.554 86.6584 100.597 86.4159 100.569L84.2333 100.315C84.0781 100.297 83.9397 100.261 83.8181 100.208C83.7074 100.146 83.606 100.046 83.514 99.9073L82.7473 98.6383L82.6455 98.6264C82.1236 99.2244 81.4675 99.6249 80.677 99.8278C79.8962 100.032 79.016 100.077 78.0363 99.9629ZM80.0296 96.7735C80.9221 96.8774 81.6227 96.7279 82.1317 96.325C82.6407 95.9222 82.9864 95.4856 83.169 95.0153L83.357 93.4002C82.0086 93.2433 80.9826 93.232 80.2787 93.3664C79.5857 93.4922 79.1079 93.7119 78.8453 94.0254C78.5838 94.3292 78.4304 94.6752 78.3853 95.0632C78.3198 95.6258 78.4487 96.0389 78.7719 96.3027C79.0963 96.5567 79.5155 96.7137 80.0296 96.7735ZM90.6648 108.157C90.3059 108.115 90.0388 108.045 89.8636 107.946C89.6872 107.857 89.5421 107.751 89.4284 107.63C89.2044 107.358 88.9724 106.987 88.7322 106.517C88.6767 106.402 88.6186 106.267 88.5579 106.113C88.4961 105.968 88.4709 105.847 88.4822 105.75C88.4946 105.643 88.5301 105.549 88.5888 105.468C88.6474 105.386 88.7152 105.31 88.7922 105.241C88.9711 105.055 89.1851 104.863 89.4341 104.666C89.6821 104.479 89.891 104.331 90.0609 104.223C90.1777 104.148 90.2718 104.1 90.3431 104.079C90.4133 104.068 90.4726 104.065 90.5211 104.07C90.5696 104.076 90.6412 104.094 90.736 104.125C90.8307 104.155 90.9751 104.182 91.1691 104.205C91.8384 104.283 92.5622 104.146 93.3405 103.794C94.1188 103.442 94.932 102.706 95.7801 101.585C95.1219 100.821 94.4932 99.8873 93.8939 98.7853C93.3055 97.6746 92.7945 96.4895 92.3611 95.2297C91.9288 93.9603 91.6074 92.7087 91.3971 91.4749C91.1965 90.2423 91.1548 89.1216 91.2722 88.1128C91.2971 87.8994 91.3702 87.7358 91.4916 87.6221C92.0021 87.1212 92.7047 86.618 93.5992 86.1125C93.756 86.0324 93.8925 85.9992 94.009 86.0127C94.1351 86.0274 94.2604 86.0911 94.3849 86.2039C94.7938 86.576 95.1323 86.9202 95.4002 87.2365C95.6779 87.5539 95.9076 87.8608 96.0894 88.1573C96.1815 88.2958 96.2139 88.4814 96.1868 88.7142L96.1936 88.656C96.1044 89.4224 96.1023 90.243 96.1873 91.1181C96.2722 91.9932 96.4273 92.8567 96.6526 93.7088C96.879 94.5512 97.1527 95.3253 97.4736 96.0312C97.7957 96.7274 98.1475 97.2943 98.5292 97.732L98.6019 97.7405C98.8389 97.3945 99.1138 96.8906 99.4267 96.229C99.7505 95.5588 100.068 94.8142 100.38 93.9951C100.693 93.1663 100.965 92.3428 101.198 91.5243C101.432 90.6962 101.587 89.9572 101.663 89.3073L101.658 89.351C101.685 89.1182 101.754 88.9444 101.866 88.8295C102.121 88.5839 102.415 88.3379 102.748 88.0916C103.082 87.8453 103.48 87.5869 103.944 87.3165C104.091 87.2353 104.223 87.2015 104.34 87.215C104.475 87.2308 104.596 87.294 104.701 87.4046C105.1 87.7755 105.434 88.1191 105.702 88.4354C105.97 88.7517 106.195 89.0581 106.376 89.3545C106.459 89.4919 106.487 89.6721 106.461 89.8952C106.349 90.7768 106.044 91.9114 105.549 93.2989C105.054 94.6768 104.395 96.1584 103.571 97.7437C102.748 99.329 101.792 100.864 100.705 102.35C99.078 104.589 97.4198 106.166 95.7305 107.08C94.0412 107.995 92.3526 108.354 90.6648 108.157ZM106.464 89.8661L106.459 89.9098L106.461 89.8952C106.462 89.8855 106.463 89.8758 106.464 89.8661ZM91.2739 88.0982L91.2722 88.1128L91.2689 88.1419L91.2739 88.0982Z" fill="#7A3F3E"/>
<mask id="mask0_531_253" style="mask-type:luminance" maskUnits="userSpaceOnUse" x="106" y="30" width="62" height="61">
<path d="M167.633 30.5059H106.633V90.5059H167.633V30.5059Z" fill="white"/>
</mask>
<g mask="url(#mask0_531_253)">
<path d="M142.566 40.7882C144.015 47.3055 140.997 55.7468 135.239 57.0079C129.48 58.269 123.156 51.8529 121.716 45.3448C120.267 38.8275 124.242 34.6759 130 33.424C135.759 32.172 141.127 34.2801 142.576 40.7882H142.566Z" fill="white" stroke="#7A3F3E" stroke-width="5.57" stroke-linecap="round" stroke-linejoin="round"/>
<path d="M119.673 50.8219C126.397 51.1256 133.846 56.1977 133.576 62.0339C133.307 67.87 125.431 72.261 118.707 71.9664C111.983 71.6626 108.964 66.793 109.234 60.9477C109.503 55.1115 112.949 50.5181 119.673 50.8219Z" fill="white" stroke="#7A3F3E" stroke-width="5.57" stroke-linecap="round" stroke-linejoin="round"/>
<path d="M122.32 74.6633C124.354 68.3025 131.227 62.4848 136.845 64.2522C142.464 66.0196 144.712 74.7002 142.678 81.061C140.644 87.4219 135.109 89.042 129.49 87.2838C123.871 85.5256 120.286 81.0334 122.32 74.6725V74.6633Z" fill="white" stroke="#7A3F3E" stroke-width="5.57" stroke-linecap="round" stroke-linejoin="round"/>
<path d="M148.817 80.6193C143.142 77.0292 139.251 68.9378 142.427 64.013C145.603 59.0881 154.64 59.1894 160.315 62.7795C165.989 66.3695 166.138 72.086 162.962 77.02C159.785 81.9541 154.482 84.2093 148.817 80.6193Z" fill="white" stroke="#7A3F3E" stroke-width="5.57" stroke-linecap="round" stroke-linejoin="round"/>
<path d="M159.99 57.2839C155.021 61.7852 146.133 63.4146 142.158 59.0973C138.183 54.78 140.616 46.1547 145.585 41.6533C150.554 37.1519 156.163 38.4867 160.148 42.804C164.123 47.1212 164.959 52.7825 159.999 57.2839H159.99Z" fill="white" stroke="#7A3F3E" stroke-width="5.57" stroke-linecap="round" stroke-linejoin="round"/>
<path d="M137.848 69.7663C142.203 69.7663 145.733 66.2673 145.733 61.951C145.733 57.6348 142.203 54.1357 137.848 54.1357C133.494 54.1357 129.963 57.6348 129.963 61.951C129.963 66.2673 133.494 69.7663 137.848 69.7663Z" fill="#FCBB21" stroke="#7A3F3E" stroke-width="4.18" stroke-linecap="round" stroke-linejoin="round"/>
</g>
<rect x="33.2266" y="106.663" width="100" height="25" rx="5" transform="rotate(8 33.2266 106.663)" fill="#FC010E"/>
<path d="M43.8835 125.509C43.0638 125.394 42.3451 125.096 41.7277 124.617C41.1201 124.139 40.6708 123.501 40.3798 122.705C40.1001 121.9 40.0352 120.965 40.1851 119.898C40.2962 119.108 40.509 118.418 40.8236 117.827C41.1396 117.227 41.5306 116.738 41.9967 116.361C42.4726 115.984 42.9931 115.72 43.5584 115.568C44.1237 115.416 44.7125 115.383 45.3248 115.469C45.9372 115.555 46.4631 115.754 46.9024 116.068C47.3432 116.372 47.6931 116.713 47.9521 117.092L46.8857 118.015C46.6749 117.723 46.4254 117.492 46.1373 117.32C45.8604 117.14 45.5343 117.024 45.159 116.971C44.6454 116.899 44.1611 116.977 43.706 117.205C43.2608 117.435 42.8829 117.794 42.5723 118.285C42.2617 118.775 42.0557 119.38 41.9544 120.101C41.8503 120.842 41.8743 121.495 42.0265 122.06C42.1801 122.616 42.4442 123.066 42.8188 123.411C43.1947 123.745 43.6593 123.952 44.2124 124.029C44.6272 124.088 45.0093 124.056 45.3589 123.934C45.7084 123.812 46.0359 123.631 46.3415 123.392L47.0719 124.537C46.613 124.936 46.1199 125.219 45.5928 125.387C45.0656 125.554 44.4959 125.595 43.8835 125.509ZM51.3529 126.559C50.7504 126.474 50.2082 126.247 49.7264 125.877C49.246 125.497 48.8824 125.003 48.6355 124.394C48.3901 123.776 48.3236 123.066 48.4361 122.266C48.5499 121.456 48.8093 120.793 49.2144 120.276C49.6208 119.749 50.1066 119.374 50.6717 119.151C51.2382 118.918 51.8227 118.844 52.4252 118.929C53.0375 119.015 53.5839 119.248 54.0643 119.628C54.5462 119.998 54.9098 120.492 55.1552 121.111C55.402 121.719 55.4685 122.429 55.3547 123.239C55.2422 124.039 54.9828 124.702 54.5764 125.229C54.1713 125.746 53.6855 126.121 53.1191 126.354C52.5539 126.577 51.9652 126.645 51.3529 126.559ZM51.5486 125.166C51.9041 125.216 52.2242 125.16 52.5088 124.999C52.7933 124.838 53.0304 124.584 53.22 124.238C53.4097 123.892 53.5385 123.477 53.6065 122.993C53.6745 122.509 53.6651 122.074 53.5782 121.69C53.4912 121.305 53.3333 120.995 53.1042 120.762C52.8766 120.518 52.585 120.372 52.2294 120.322C51.8739 120.272 51.5531 120.332 51.2672 120.504C50.9925 120.667 50.7603 120.921 50.5707 121.267C50.3811 121.613 50.2523 122.028 50.1842 122.512C50.1162 122.996 50.1257 123.43 50.2126 123.815C50.2995 124.2 50.4525 124.509 50.6717 124.741C50.9007 124.974 51.193 125.116 51.5486 125.166ZM56.5309 127.105L57.5532 119.831L58.9607 120.029L58.9397 121.038L58.999 121.046C59.3509 120.764 59.7207 120.533 60.1082 120.356C60.5055 120.18 60.9314 120.125 61.3857 120.188C61.9289 120.265 62.3426 120.439 62.6267 120.71C62.9108 120.982 63.1077 121.337 63.2173 121.775C63.6157 121.449 64.02 121.188 64.43 120.994C64.84 120.8 65.2771 120.735 65.7413 120.801C66.5117 120.909 67.0442 121.24 67.3389 121.796C67.6335 122.351 67.7163 123.087 67.5872 124.006L66.9459 128.569L65.2274 128.327L65.8374 123.987C65.9221 123.384 65.8929 122.947 65.7498 122.675C65.6067 122.403 65.3426 122.24 64.9574 122.186C64.7204 122.153 64.468 122.193 64.2002 122.306C63.9325 122.42 63.6339 122.609 63.3044 122.875L62.5903 127.957L60.8866 127.717L61.4966 123.377C61.5813 122.774 61.5471 122.336 61.3942 122.063C61.2511 121.791 60.987 121.628 60.6018 121.574C60.1475 121.51 59.5965 121.74 58.9488 122.263L58.2347 127.345L56.5309 127.105ZM69.0166 128.86L70.039 121.586L71.7427 121.825L70.7204 129.099L69.0166 128.86ZM71.0625 120.43C70.7662 120.389 70.5318 120.265 70.3592 120.06C70.1965 119.855 70.136 119.605 70.1777 119.309C70.2193 119.013 70.3458 118.794 70.557 118.652C70.7795 118.502 71.0389 118.448 71.3352 118.49C71.6414 118.533 71.8758 118.656 72.0385 118.86C72.2026 119.055 72.2638 119.3 72.2221 119.596C72.1805 119.893 72.0534 120.116 71.8407 120.268C71.6281 120.419 71.3687 120.473 71.0625 120.43ZM72.894 129.405L73.9163 122.131L75.3238 122.329L75.3049 123.323L75.3641 123.331C75.7345 123.061 76.1282 122.839 76.5453 122.666C76.9624 122.493 77.4179 122.442 77.9118 122.511C78.692 122.621 79.2245 122.952 79.5093 123.506C79.7941 124.06 79.8719 124.796 79.7428 125.714L79.1015 130.277L77.3978 130.038L78.0079 125.697C78.0925 125.095 78.0633 124.657 77.9202 124.386C77.7772 124.114 77.5032 123.949 77.0982 123.892C76.7822 123.848 76.4896 123.887 76.2204 124.011C75.9626 124.125 75.6597 124.31 75.3119 124.563L74.5977 129.644L72.894 129.405ZM83.2656 134.141C82.6829 134.059 82.1741 133.917 81.7392 133.715C81.3043 133.513 80.9736 133.25 80.7472 132.926C80.5293 132.613 80.4502 132.245 80.5099 131.82C80.5529 131.514 80.682 131.24 80.8973 130.998C81.121 130.768 81.4105 130.572 81.7655 130.41L81.7739 130.351C81.6127 130.207 81.4819 130.028 81.3812 129.812C81.2806 129.597 81.2511 129.341 81.2927 129.044C81.3316 128.768 81.4467 128.522 81.6381 128.307C81.8393 128.094 82.054 127.928 82.2822 127.809L82.2906 127.749C82.07 127.527 81.8846 127.234 81.7342 126.87C81.5938 126.508 81.5534 126.115 81.6131 125.69C81.6908 125.137 81.8901 124.687 82.2109 124.339C82.5331 123.981 82.9253 123.734 83.3877 123.598C83.8514 123.451 84.3401 123.414 84.8536 123.487C85.0512 123.514 85.2417 123.556 85.4252 123.612C85.6087 123.668 85.7654 123.736 85.8953 123.814L88.5028 124.181L88.3258 125.44L86.9628 125.248L86.9545 125.308C87.0719 125.475 87.1563 125.663 87.2075 125.872C87.2602 126.071 87.2685 126.299 87.2324 126.555C87.1574 127.089 86.9708 127.521 86.6725 127.851C86.3742 128.182 86.0045 128.412 85.5633 128.542C85.1221 128.671 84.6447 128.7 84.1311 128.627C83.9731 128.605 83.8122 128.567 83.6485 128.514C83.4848 128.461 83.3238 128.388 83.1656 128.295C83.053 128.38 82.9551 128.467 82.8721 128.556C82.7891 128.645 82.7358 128.774 82.7122 128.942C82.683 129.149 82.749 129.325 82.9101 129.468C83.0713 129.612 83.3691 129.714 83.8037 129.775L85.0926 129.956C85.9716 130.08 86.6132 130.316 87.0174 130.665C87.4329 131.005 87.5962 131.491 87.5074 132.123C87.4407 132.598 87.2223 133.005 86.8521 133.346C86.4806 133.696 85.9875 133.944 85.3728 134.09C84.7582 134.235 84.0558 134.252 83.2656 134.141ZM84.2811 127.561C84.5082 127.593 84.7233 127.567 84.9262 127.485C85.1404 127.394 85.3171 127.248 85.4562 127.046C85.6067 126.836 85.7034 126.577 85.7465 126.271C85.8117 125.807 85.7382 125.434 85.526 125.152C85.3237 124.872 85.0447 124.707 84.6892 124.657C84.3336 124.607 84.015 124.688 83.7334 124.9C83.4518 125.113 83.2783 125.451 83.2131 125.915C83.1701 126.221 83.1918 126.496 83.2784 126.74C83.3664 126.974 83.4959 127.163 83.6669 127.308C83.8393 127.443 84.044 127.527 84.2811 127.561ZM83.6885 133.067C84.0736 133.121 84.422 133.115 84.7336 133.048C85.0438 132.991 85.296 132.88 85.4903 132.716C85.6832 132.562 85.7942 132.381 85.8233 132.174C85.8636 131.887 85.7771 131.679 85.5638 131.548C85.3604 131.419 85.0513 131.325 84.6365 131.267L83.6438 131.127C83.4463 131.099 83.2699 131.065 83.1147 131.023C82.9594 130.981 82.8098 130.934 82.6658 130.884C82.4573 131.006 82.2926 131.139 82.1716 131.283C82.0605 131.428 81.9925 131.59 81.9675 131.768C81.9217 132.094 82.0542 132.369 82.365 132.594C82.6745 132.829 83.1156 132.987 83.6885 133.067ZM93.8515 132.532C93.3478 132.461 92.8622 132.297 92.3948 132.04C91.9372 131.784 91.5542 131.463 91.2458 131.078L92.1388 130.206C92.4273 130.519 92.7311 130.758 93.0502 130.923C93.3694 131.089 93.7166 131.198 94.0919 131.251C94.487 131.307 94.7902 131.264 95.0014 131.122C95.2127 130.98 95.3356 130.786 95.3703 130.539C95.3981 130.342 95.3476 130.163 95.2189 130.004C95.1001 129.847 94.934 129.702 94.7207 129.572C94.5074 129.441 94.2695 129.307 94.0068 129.169C93.6693 128.991 93.3599 128.791 93.0787 128.571C92.7989 128.34 92.579 128.077 92.4189 127.783C92.2702 127.48 92.2228 127.136 92.277 126.751C92.3672 126.109 92.6778 125.619 93.2088 125.28C93.7398 124.942 94.4102 124.83 95.2201 124.943C95.7139 125.013 96.1565 125.161 96.5477 125.387C96.9403 125.603 97.2667 125.861 97.5269 126.159L96.636 127.016C96.4056 126.792 96.1633 126.617 95.9091 126.491C95.655 126.364 95.3797 126.28 95.0834 126.239C94.718 126.187 94.4353 126.228 94.2353 126.361C94.0353 126.494 93.92 126.669 93.8895 126.887C93.8645 127.064 93.8973 127.225 93.9879 127.369C94.0898 127.504 94.2424 127.636 94.4458 127.766C94.6506 127.885 94.8991 128.016 95.1914 128.157C95.5487 128.339 95.8771 128.546 96.1767 128.779C96.4776 129.003 96.7018 129.271 96.8492 129.584C97.0079 129.888 97.0574 130.253 96.9977 130.677C96.9394 131.092 96.7773 131.457 96.5114 131.772C96.2469 132.078 95.8878 132.304 95.4339 132.452C94.9913 132.591 94.4639 132.618 93.8515 132.532ZM101.18 133.562C100.578 133.477 100.035 133.25 99.5535 132.88C99.0731 132.5 98.7095 132.006 98.4627 131.397C98.2172 130.778 98.1508 130.069 98.2632 129.269C98.377 128.459 98.6364 127.796 99.0415 127.278C99.4479 126.751 99.9337 126.376 100.499 126.154C101.065 125.921 101.65 125.847 102.252 125.932C102.865 126.018 103.411 126.251 103.891 126.631C104.373 127 104.737 127.495 104.982 128.113C105.229 128.722 105.296 129.431 105.182 130.241C105.069 131.041 104.81 131.705 104.404 132.232C103.998 132.749 103.513 133.124 102.946 133.357C102.381 133.579 101.792 133.648 101.18 133.562ZM101.376 132.169C101.731 132.219 102.051 132.163 102.336 132.002C102.62 131.84 102.858 131.587 103.047 131.241C103.237 130.895 103.366 130.48 103.434 129.996C103.502 129.512 103.492 129.077 103.405 128.692C103.318 128.307 103.16 127.998 102.931 127.765C102.704 127.521 102.412 127.374 102.057 127.324C101.701 127.274 101.38 127.335 101.094 127.506C100.82 127.669 100.587 127.924 100.398 128.27C100.208 128.616 100.079 129.031 100.011 129.515C99.9433 129.999 99.9528 130.433 100.04 130.818C100.127 131.203 100.28 131.511 100.499 131.744C100.728 131.977 101.02 132.119 101.376 132.169ZM109.311 134.704C108.708 134.62 108.166 134.392 107.684 134.022C107.204 133.643 106.84 133.148 106.594 132.54C106.348 131.921 106.282 131.212 106.394 130.412C106.508 129.602 106.767 128.938 107.172 128.421C107.579 127.894 108.065 127.519 108.63 127.296C109.196 127.064 109.781 126.99 110.383 127.075C110.996 127.161 111.542 127.393 112.022 127.773C112.504 128.143 112.868 128.637 113.113 129.256C113.36 129.865 113.427 130.574 113.313 131.384C113.2 132.184 112.941 132.848 112.534 133.375C112.129 133.892 111.644 134.267 111.077 134.499C110.512 134.722 109.923 134.79 109.311 134.704ZM109.507 133.312C109.862 133.362 110.182 133.306 110.467 133.144C110.751 132.983 110.988 132.729 111.178 132.383C111.368 132.037 111.497 131.622 111.565 131.138C111.633 130.654 111.623 130.22 111.536 129.835C111.449 129.45 111.291 129.141 111.062 128.907C110.835 128.664 110.543 128.517 110.187 128.467C109.832 128.417 109.511 128.478 109.225 128.649C108.951 128.812 108.718 129.066 108.529 129.412C108.339 129.758 108.21 130.173 108.142 130.657C108.074 131.141 108.084 131.576 108.171 131.961C108.258 132.345 108.411 132.654 108.63 132.886C108.859 133.12 109.151 133.262 109.507 133.312ZM114.489 135.251L115.511 127.977L116.919 128.174L116.9 129.169L116.959 129.177C117.329 128.907 117.723 128.685 118.14 128.512C118.557 128.339 119.013 128.287 119.507 128.357C120.287 128.466 120.819 128.798 121.104 129.352C121.389 129.905 121.467 130.642 121.338 131.56L120.696 136.123L118.993 135.884L119.603 131.543C119.687 130.94 119.658 130.503 119.515 130.231C119.372 129.959 119.098 129.795 118.693 129.738C118.377 129.694 118.085 129.733 117.815 129.856C117.558 129.971 117.255 130.155 116.907 130.409L116.193 135.49L114.489 135.251Z" fill="white"/>
</svg>
