<svg width="180" height="150" viewBox="0 0 180 150" fill="none" xmlns="http://www.w3.org/2000/svg">
<path d="M6.9581 84.6544C15.1925 46.173 62.7996 42.1928 85.5739 45.0129C152.636 59.3632 153.248 86.8939 142.817 113.726C129.317 148.456 -3.33491 132.756 6.9581 84.6544Z" fill="#FFEEE2" stroke="#7A3F3E" stroke-width="5"/>
<path d="M56.4096 90.0131C56.1574 89.9837 55.9514 89.8958 55.7914 89.7494C55.6218 89.6018 55.4244 89.397 55.1993 89.1348C54.9742 88.8727 54.7262 88.5538 54.4553 88.1782C54.3547 88.0288 54.3106 87.9008 54.3231 87.7941C54.3355 87.6874 54.4078 87.5729 54.54 87.4506C55.2204 86.8416 55.8266 86.4059 56.3586 86.1433C56.484 86.0793 56.6534 86.0597 56.8668 86.0845C57.5265 86.1613 58.1227 85.98 58.6556 85.5406C59.1982 85.1023 59.5241 84.3291 59.6334 83.2211C59.7626 82.0268 59.5638 81.1582 59.0371 80.6151C58.5201 80.0732 57.7621 79.7441 56.7629 79.6278L56.0645 79.5466C55.4243 79.472 54.972 79.557 54.7076 79.8016C54.4432 80.0461 54.2726 80.4981 54.1958 81.1577L52.4872 95.8389C52.4533 96.1299 52.3666 96.3263 52.2269 96.428C52.0981 96.5212 51.8882 96.5508 51.5972 96.5169L48.498 96.1562C48.207 96.1224 48.0046 96.0448 47.8909 95.9234C47.7881 95.7934 47.7536 95.5829 47.7875 95.2919L49.6722 79.0975C49.7851 78.1275 49.9616 77.3714 50.2017 76.8291C50.4526 76.2782 50.8492 75.9115 51.3915 75.7288C51.9447 75.5376 52.7208 75.5001 53.72 75.6164L57.1829 76.0194C59.9669 76.3434 61.9644 77.1313 63.1754 78.3833C64.3876 79.6255 64.8627 81.3718 64.6008 83.6222C64.4044 85.31 63.89 86.6463 63.0577 87.6309C62.2351 88.6166 61.2319 89.2962 60.0479 89.6696C58.8737 90.0442 57.6609 90.1587 56.4096 90.0131ZM67.5087 98.6785C67.2948 98.7421 67.1442 98.7688 67.0569 98.7586C66.9696 98.7485 66.8814 98.7038 66.7923 98.6246C66.5873 98.4434 66.3742 98.0352 66.1532 97.3999C65.9431 96.7561 65.9113 95.8036 66.0581 94.5426L68.0191 77.6935C68.0462 77.4606 68.1155 77.2868 68.2272 77.172C68.6967 76.6859 69.3605 76.1782 70.2184 75.6488C70.3655 75.5676 70.4924 75.5333 70.5991 75.5457C70.7252 75.5603 70.8408 75.623 70.9459 75.7335C71.3258 76.1022 71.64 76.4435 71.8886 76.7575C72.1468 77.0727 72.362 77.378 72.5341 77.6733C72.6164 77.8107 72.644 77.9958 72.6169 78.2286L70.7593 94.1902C70.6848 94.8304 70.6743 95.3846 70.728 95.853C70.7827 96.3116 70.8671 96.6852 70.981 96.9737C71.1086 97.313 71.019 97.5336 70.7122 97.6356L67.5087 98.6785ZM78.0363 99.9627C76.6103 99.7967 75.5217 99.2669 74.7704 98.3733C74.0298 97.4711 73.7414 96.3167 73.9051 94.9102C73.9898 94.1827 74.1992 93.5238 74.5334 92.9335C74.8784 92.3346 75.4083 91.8358 76.1232 91.4373C76.849 91.0302 77.8254 90.7506 79.0524 90.5984C80.289 90.4474 81.8414 90.456 83.7095 90.6243C83.8122 89.7416 83.6631 89.0802 83.262 88.6403C82.8707 88.2015 82.2336 87.9307 81.3509 87.828C80.5555 87.7354 79.8898 87.7956 79.3538 88.0085C78.8178 88.2214 78.4811 88.369 78.3437 88.4513C78.1943 88.5519 78.0243 88.5764 77.8337 88.5247C77.5763 88.4554 77.3029 88.3548 77.0135 88.2228C76.7338 88.0919 76.4315 87.9437 76.1067 87.7781C76.0605 87.753 76.0105 87.7177 75.9568 87.6721C75.9043 87.6168 75.8782 87.545 75.8787 87.4566C75.8843 87.4081 75.8959 87.3504 75.9135 87.2837C75.9323 87.2072 75.9723 87.0742 76.0337 86.8847C76.0951 86.6952 76.1809 86.4643 76.2913 86.1921C76.4027 85.9101 76.5015 85.6955 76.5874 85.5482C76.6939 85.3934 76.8575 85.2552 77.0781 85.1334C77.2588 85.0168 77.7838 84.8566 78.653 84.653C79.5222 84.4494 80.7474 84.4396 82.3285 84.6236C86.6839 85.1305 88.6149 87.5034 88.1215 91.7424L87.1631 99.9778C87.1416 100.162 87.0696 100.316 86.9471 100.439C86.8355 100.554 86.6584 100.597 86.4159 100.569L84.2333 100.315C84.0781 100.297 83.9397 100.261 83.8181 100.208C83.7074 100.146 83.606 100.046 83.514 99.9071L82.7473 98.6381L82.6455 98.6262C82.1236 99.2242 81.4675 99.6247 80.677 99.8276C79.8962 100.032 79.016 100.077 78.0363 99.9627ZM80.0296 96.7733C80.9221 96.8772 81.6227 96.7277 82.1317 96.3248C82.6407 95.922 82.9864 95.4854 83.169 95.0151L83.357 93.4C82.0086 93.2431 80.9826 93.2318 80.2787 93.3662C79.5857 93.492 79.1079 93.7117 78.8453 94.0252C78.5838 94.329 78.4304 94.675 78.3853 95.063C78.3198 95.6256 78.4487 96.0387 78.7719 96.3025C79.0963 96.5565 79.5155 96.7135 80.0296 96.7733ZM90.6648 108.157C90.3059 108.115 90.0388 108.045 89.8636 107.946C89.6872 107.857 89.5421 107.751 89.4284 107.63C89.2044 107.358 88.9724 106.987 88.7322 106.517C88.6767 106.402 88.6186 106.267 88.5579 106.113C88.4961 105.968 88.4709 105.847 88.4822 105.75C88.4946 105.643 88.5301 105.549 88.5888 105.468C88.6474 105.386 88.7152 105.31 88.7922 105.241C88.9711 105.055 89.1851 104.863 89.4341 104.666C89.6821 104.479 89.891 104.331 90.0609 104.223C90.1777 104.148 90.2718 104.1 90.3431 104.079C90.4133 104.068 90.4726 104.065 90.5211 104.07C90.5696 104.076 90.6412 104.094 90.736 104.125C90.8307 104.155 90.9751 104.182 91.1691 104.205C91.8384 104.283 92.5622 104.146 93.3405 103.794C94.1188 103.442 94.932 102.706 95.7801 101.585C95.1219 100.821 94.4932 99.8871 93.8939 98.7851C93.3055 97.6744 92.7945 96.4893 92.3611 95.2295C91.9288 93.9601 91.6074 92.7085 91.3971 91.4747C91.1965 90.2421 91.1548 89.1214 91.2722 88.1126C91.2971 87.8992 91.3702 87.7356 91.4916 87.6219C92.0021 87.121 92.7047 86.6178 93.5992 86.1123C93.756 86.0322 93.8925 85.999 94.009 86.0125C94.1351 86.0272 94.2604 86.0909 94.3849 86.2037C94.7938 86.5758 95.1323 86.92 95.4002 87.2363C95.6779 87.5537 95.9076 87.8606 96.0894 88.1571C96.1815 88.2956 96.2139 88.4812 96.1868 88.714L96.1936 88.6558C96.1044 89.4222 96.1023 90.2428 96.1873 91.1179C96.2722 91.993 96.4273 92.8565 96.6526 93.7086C96.879 94.551 97.1527 95.3251 97.4736 96.031C97.7957 96.7272 98.1475 97.2941 98.5292 97.7318L98.6019 97.7403C98.8389 97.3943 99.1138 96.8904 99.4267 96.2288C99.7505 95.5586 100.068 94.814 100.38 93.9949C100.693 93.1661 100.965 92.3426 101.198 91.5241C101.432 90.696 101.587 89.957 101.663 89.3071L101.658 89.3508C101.685 89.118 101.754 88.9442 101.866 88.8293C102.121 88.5837 102.415 88.3377 102.748 88.0914C103.082 87.8451 103.48 87.5867 103.944 87.3163C104.091 87.2351 104.223 87.2013 104.34 87.2148C104.475 87.2306 104.596 87.2938 104.701 87.4044C105.1 87.7753 105.434 88.1189 105.702 88.4352C105.97 88.7515 106.195 89.0579 106.376 89.3543C106.459 89.4917 106.487 89.6719 106.461 89.895C106.349 90.7766 106.044 91.9112 105.549 93.2987C105.054 94.6766 104.395 96.1582 103.571 97.7435C102.748 99.3288 101.792 100.864 100.705 102.35C99.078 104.589 97.4198 106.166 95.7305 107.08C94.0412 107.995 92.3526 108.354 90.6648 108.157ZM106.464 89.8659L106.459 89.9096L106.461 89.895C106.462 89.8853 106.463 89.8756 106.464 89.8659ZM91.2739 88.098L91.2722 88.1126L91.2689 88.1417L91.2739 88.098Z" fill="#7A3F3E"/>
<g clip-path="url(#clip0_215_9716)">
<path d="M142.566 40.7882C144.015 47.3055 140.997 55.7468 135.239 57.0079C129.48 58.269 123.156 51.8529 121.716 45.3448C120.267 38.8275 124.242 34.6759 130 33.424C135.759 32.172 141.127 34.2801 142.576 40.7882H142.566Z" fill="white" stroke="#7A3F3E" stroke-width="5.57" stroke-linecap="round" stroke-linejoin="round"/>
<path d="M119.673 50.8219C126.397 51.1256 133.846 56.1977 133.576 62.0339C133.307 67.87 125.431 72.261 118.707 71.9664C111.983 71.6626 108.964 66.793 109.234 60.9477C109.503 55.1115 112.949 50.5181 119.673 50.8219Z" fill="white" stroke="#7A3F3E" stroke-width="5.57" stroke-linecap="round" stroke-linejoin="round"/>
<path d="M122.32 74.6633C124.354 68.3025 131.227 62.4848 136.845 64.2522C142.464 66.0196 144.712 74.7002 142.678 81.061C140.644 87.4219 135.109 89.042 129.49 87.2838C123.871 85.5256 120.286 81.0334 122.32 74.6725V74.6633Z" fill="white" stroke="#7A3F3E" stroke-width="5.57" stroke-linecap="round" stroke-linejoin="round"/>
<path d="M148.817 80.6193C143.142 77.0292 139.251 68.9378 142.427 64.013C145.603 59.0881 154.64 59.1894 160.315 62.7795C165.989 66.3695 166.138 72.086 162.962 77.02C159.785 81.9541 154.482 84.2093 148.817 80.6193Z" fill="white" stroke="#7A3F3E" stroke-width="5.57" stroke-linecap="round" stroke-linejoin="round"/>
<path d="M159.99 57.2839C155.021 61.7852 146.133 63.4146 142.158 59.0973C138.183 54.78 140.616 46.1547 145.585 41.6533C150.554 37.1519 156.163 38.4867 160.148 42.804C164.123 47.1212 164.959 52.7825 159.999 57.2839H159.99Z" fill="white" stroke="#7A3F3E" stroke-width="5.57" stroke-linecap="round" stroke-linejoin="round"/>
<path d="M137.848 69.7663C142.203 69.7663 145.733 66.2673 145.733 61.951C145.733 57.6348 142.203 54.1357 137.848 54.1357C133.494 54.1357 129.963 57.6348 129.963 61.951C129.963 66.2673 133.494 69.7663 137.848 69.7663Z" fill="#FCBB21" stroke="#7A3F3E" stroke-width="4.18" stroke-linecap="round" stroke-linejoin="round"/>
</g>
<defs>
<clipPath id="clip0_215_9716">
<rect width="61" height="60" fill="white" transform="translate(106.633 30.5059)"/>
</clipPath>
</defs>
</svg>
