<svg width="156" height="115" viewBox="0 0 156 115" fill="none" xmlns="http://www.w3.org/2000/svg">
<path d="M6.78114 53.9918C15.0155 15.5104 62.6227 11.5302 85.3969 14.3503C152.459 28.7006 153.071 56.2313 142.64 83.0635C129.14 117.793 -3.51187 102.094 6.78114 53.9918Z" fill="#D0946C" stroke="#7A3F3E" stroke-width="5"/>
<path d="M40.1968 57.4135C39.9446 57.3841 39.7386 57.2962 39.5786 57.1498C39.409 57.0022 39.2116 56.7974 38.9865 56.5352C38.7614 56.2731 38.5134 55.9542 38.2425 55.5785C38.1419 55.4292 38.0978 55.3012 38.1103 55.1945C38.1227 55.0878 38.195 54.9733 38.3272 54.851C39.0076 54.242 39.6138 53.8062 40.1458 53.5437C40.2712 53.4797 40.4406 53.4601 40.654 53.4849C41.3137 53.5617 41.9099 53.3804 42.4428 52.941C42.9854 52.5027 43.3113 51.7295 43.4206 50.6215C43.5498 49.4272 43.351 48.5586 42.8243 48.0155C42.3073 47.4736 41.5493 47.1445 40.5501 47.0282L39.8517 46.9469C39.2115 46.8724 38.7592 46.9574 38.4948 47.2019C38.2304 47.4465 38.0598 47.8985 37.983 48.5581L36.2744 63.2393C36.2405 63.5303 36.1538 63.7267 36.0141 63.8284C35.8853 63.9216 35.6754 63.9512 35.3844 63.9173L32.2852 63.5566C31.9942 63.5228 31.7918 63.4451 31.6781 63.3238C31.5753 63.1938 31.5408 62.9833 31.5747 62.6923L33.4594 46.4979C33.5723 45.5279 33.7488 44.7718 33.9889 44.2295C34.2398 43.6786 34.6364 43.3119 35.1787 43.1292C35.7319 42.9379 36.508 42.9005 37.5072 43.0167L40.9701 43.4198C43.7541 43.7438 45.7516 44.5317 46.9626 45.7836C48.1748 47.0259 48.6499 48.7722 48.388 51.0226C48.1916 52.7104 47.6772 54.0467 46.8449 55.0313C46.0223 56.017 45.0191 56.6966 43.8351 57.07C42.6609 57.4446 41.4481 57.5591 40.1968 57.4135ZM54.999 53.9009L55.0572 53.9077C56.0195 51.9747 57.4465 51.1183 59.338 51.3384C59.5805 51.3667 59.7777 51.4043 59.9295 51.4515C60.0824 51.489 60.1869 51.5208 60.2428 51.547C60.3827 51.6124 60.4424 51.7324 60.4221 51.907L60.014 55.4136C59.979 55.7143 59.7948 55.7765 59.4614 55.6C59.3506 55.538 59.1865 55.4697 58.9691 55.3952C58.7625 55.3122 58.4651 55.2481 58.0771 55.203C57.078 55.0867 56.2543 55.3644 55.6058 56.0361C54.9586 56.6982 54.5615 57.6597 54.4148 58.9207L53.6765 65.2646C53.6426 65.5556 53.5558 65.752 53.4162 65.8537C53.2874 65.9469 53.0774 65.9765 52.7864 65.9426L49.7891 65.5938C49.4981 65.5599 49.2957 65.4823 49.1821 65.3609C49.0792 65.231 49.0447 65.0205 49.0786 64.7295L50.4977 52.5364C50.5248 52.3036 50.5941 52.1298 50.7058 52.015C50.9411 51.7671 51.2158 51.5189 51.5299 51.2703C51.8536 51.0229 52.2426 50.7634 52.697 50.4918C52.7814 50.4426 52.8635 50.4129 52.9434 50.4025C53.0232 50.3921 53.0922 50.3903 53.1505 50.3971C53.2863 50.4129 53.4164 50.4772 53.5409 50.59C54.2727 51.3142 54.7726 51.9181 55.0408 52.4015C55.1145 52.5281 55.1424 52.669 55.1243 52.8242L54.999 53.9009ZM67.9927 68.0811C65.5483 67.7966 63.6888 66.9215 62.4141 65.4557C61.1395 63.9899 60.6517 61.9718 60.9509 59.4012C61.258 56.7628 62.2244 54.8794 63.8501 53.7512C65.4866 52.6144 67.5416 52.19 70.0152 52.4778C72.4014 52.7556 74.2373 53.623 75.5227 55.0802C76.8093 56.5277 77.307 58.5028 77.0157 61.0054C76.7121 63.6148 75.7628 65.5198 74.168 66.7204C72.5732 67.921 70.5148 68.3746 67.9927 68.0811ZM68.5481 64.5769C69.6151 64.701 70.4586 64.4649 71.0785 63.8685C71.6996 63.2625 72.1039 62.1543 72.2913 60.5441C72.4697 59.0115 72.3185 57.9026 71.8379 57.2174C71.3681 56.5237 70.5948 56.1142 69.5181 55.9888C68.4801 55.868 67.621 56.1122 66.9405 56.7212C66.2709 57.3216 65.8481 58.3784 65.672 59.8917C65.4879 61.4728 65.64 62.6162 66.1281 63.3219C66.6259 64.0287 67.4325 64.447 68.5481 64.5769ZM84.8285 68.8902C84.7946 69.1812 84.7079 69.3776 84.5682 69.4793C84.4394 69.5724 84.2295 69.6021 83.9385 69.5682L80.9411 69.2194C80.6501 69.1855 80.4478 69.1079 80.3341 68.9865C80.2312 68.8566 80.1968 68.6461 80.2306 68.3551L81.4804 57.617L79.7634 57.4172C79.4724 57.3833 79.2755 57.3014 79.1726 57.1715C79.0806 57.0329 79.0515 56.8182 79.0854 56.5272L79.2937 54.7375C79.3276 54.4465 79.4046 54.249 79.5249 54.145C79.6559 54.0325 79.867 53.9931 80.158 54.027L81.8749 54.2268L82.09 52.3789C82.2266 51.2052 82.5768 50.2235 83.1406 49.4338C83.7141 48.6452 84.4251 48.0692 85.2736 47.7059C86.1318 47.3437 87.0507 47.2196 88.0304 47.3336C88.4864 47.3867 88.8285 47.4461 89.0567 47.512C89.2947 47.579 89.4674 47.6581 89.5748 47.7493C89.9282 48.0067 90.4013 48.5042 90.9938 49.2417C91.0869 49.3705 91.1268 49.4931 91.1132 49.6095C91.0985 49.7356 90.9991 49.8715 90.815 50.0172C90.489 50.2841 90.1827 50.509 89.8959 50.6919C89.6103 50.8651 89.3789 50.9955 89.2015 51.083C89.0459 51.1533 88.9087 51.1915 88.7901 51.1973C88.6822 51.1946 88.5313 51.1819 88.3373 51.1594C87.3867 51.0487 86.8267 51.7209 86.6574 53.1759L86.4728 54.7619L89.1064 55.0684C89.3974 55.1023 89.5889 55.1885 89.6809 55.327C89.7838 55.457 89.8183 55.6674 89.7844 55.9584L89.5761 57.7481C89.5422 58.0391 89.4598 58.2409 89.3287 58.3535C89.2084 58.4574 89.0028 58.4925 88.7118 58.4586L86.0782 58.1521L84.8285 68.8902ZM91.9743 50.4471C91.989 50.321 92.0408 50.214 92.1296 50.126C92.2185 50.038 92.3351 49.9238 92.4792 49.7833C92.787 49.5045 93.14 49.2162 93.5385 48.9185C93.938 48.611 94.3407 48.3187 94.7466 48.0415C95.0008 47.8843 95.1861 47.8125 95.3025 47.826C95.419 47.8396 95.5877 47.9526 95.8087 48.1651C96.5154 48.9356 97.108 49.6731 97.5864 50.3776C97.6955 50.5378 97.7827 50.6758 97.8479 50.7915C97.9239 50.8987 97.9546 51.0153 97.9399 51.1414C97.9252 51.2675 97.8686 51.374 97.77 51.4608C97.6811 51.5488 97.5592 51.6673 97.4042 51.8164C97.1073 52.0866 96.7639 52.376 96.374 52.6846C95.9853 52.9835 95.5886 53.2666 95.1839 53.5342C95.0345 53.6347 94.9188 53.6999 94.8367 53.7297C94.7557 53.7498 94.6812 53.7559 94.6133 53.748C94.5454 53.74 94.4744 53.717 94.4002 53.6789C94.3368 53.6322 94.2343 53.5416 94.0926 53.4071C93.7407 53.0516 93.4148 52.6843 93.1148 52.3053C92.8159 51.9166 92.5493 51.5463 92.315 51.1946C92.2069 51.0247 92.1192 50.8916 92.0518 50.7953C91.9854 50.6893 91.9596 50.5732 91.9743 50.4471ZM95.0282 70.0773C94.9943 70.3683 94.9076 70.5646 94.7679 70.6664C94.6391 70.7595 94.4292 70.7892 94.1382 70.7553L91.1408 70.4064C90.8498 70.3726 90.6475 70.295 90.5338 70.1736C90.431 70.0436 90.3965 69.8332 90.4303 69.5422L91.9849 56.185C92.0187 55.894 92.1001 55.702 92.2289 55.6088C92.3686 55.5071 92.5839 55.4731 92.8749 55.507L95.8722 55.8559C96.1632 55.8897 96.3602 55.9716 96.463 56.1016C96.5767 56.223 96.6166 56.4292 96.5827 56.7202L95.0282 70.0773ZM100.767 71.8364C100.553 71.9 100.402 71.9267 100.315 71.9166C100.228 71.9064 100.139 71.8617 100.05 71.7825C99.8452 71.6014 99.6322 71.1932 99.4112 70.5579C99.201 69.914 99.1693 68.9616 99.3161 67.7006L101.277 50.8514C101.304 50.6186 101.374 50.4448 101.485 50.33C101.955 49.8439 102.618 49.3362 103.476 48.8068C103.623 48.7256 103.75 48.6912 103.857 48.7036C103.983 48.7183 104.099 48.7809 104.204 48.8915C104.584 49.2601 104.898 49.6015 105.147 49.9155C105.405 50.2307 105.62 50.5359 105.792 50.8312C105.874 50.9686 105.902 51.1537 105.875 51.3865L104.017 67.3481C103.943 67.9883 103.932 68.5426 103.986 69.0109C104.041 69.4696 104.125 69.8431 104.239 70.1317C104.367 70.471 104.277 70.6916 103.97 70.7935L100.767 71.8364ZM114.743 73.522C113.103 73.3312 111.708 72.9033 110.556 72.2384C109.406 71.5638 108.561 70.6298 108.021 69.4364C107.482 68.2429 107.315 66.7635 107.52 64.9981C107.829 62.35 108.741 60.4259 110.257 59.2259C111.773 58.026 113.656 57.5569 115.907 57.8188C117.371 57.9893 118.578 58.3952 119.525 59.0364C120.483 59.6787 121.17 60.4911 121.587 61.4736C122.013 62.4572 122.157 63.5407 122.019 64.7241C121.885 65.8785 121.496 66.6491 120.851 67.0362C120.206 67.4232 119.316 67.5507 118.181 67.4186L111.939 66.6921C111.9 67.7003 112.176 68.5041 112.765 69.1035C113.363 69.7041 114.225 70.0699 115.35 70.2008C116.243 70.3047 116.971 70.2567 117.535 70.0569C118.11 69.8485 118.513 69.6792 118.744 69.5488C118.945 69.4344 119.16 69.3957 119.392 69.4324C119.576 69.4539 119.834 69.5232 120.164 69.6403C120.506 69.7488 120.835 69.9199 121.152 70.1534C121.379 70.3077 121.48 70.4964 121.454 70.7195C121.44 70.8456 121.395 71.0223 121.319 71.2494C121.274 71.3818 121.202 71.575 121.104 71.829C121.007 72.0733 120.892 72.3008 120.759 72.5115C120.689 72.6114 120.585 72.7026 120.447 72.7849C120.237 72.8981 119.901 73.0409 119.439 73.2132C118.986 73.3866 118.377 73.5123 117.61 73.5903C116.843 73.678 115.887 73.6552 114.743 73.522ZM112.257 63.706L117.001 64.258C117.495 64.3156 117.769 64.1164 117.822 63.6605C117.902 62.9718 117.751 62.3692 117.369 61.8528C116.998 61.3279 116.38 61.0151 115.517 60.9147C114.576 60.8051 113.847 61.0251 113.331 61.5746C112.825 62.1252 112.467 62.8357 112.257 63.706Z" fill="#7A3F3E"/>
</svg>
