<svg width="40" height="41" viewBox="0 0 40 41" fill="none" xmlns="http://www.w3.org/2000/svg">
<path d="M34.2559 10.4896L34.2559 25.3239C34.2559 26.7861 33.0727 27.9693 31.6105 27.9693L16.8766 27.9693L16.8766 29.186C16.8766 31.4407 14.2424 32.6629 12.5235 31.2119L5.09517 24.9556C3.5883 23.6831 3.64411 21.3447 5.21237 20.1503L12.3393 14.72C14.1141 13.3694 16.659 14.681 16.592 16.9078L16.5306 18.8221L22.7646 18.6658C24.1989 18.6267 25.343 17.4547 25.343 16.0204L25.343 10.4896C25.343 9.02741 26.5262 7.84424 27.9884 7.84424L31.5993 7.84424C33.0727 7.84424 34.2559 9.02741 34.2559 10.4896Z" fill="#CA5000" stroke="#7A3F3E" stroke-width="2" stroke-miterlimit="10"/>
</svg>
