<svg width="1920" height="1080" viewBox="0 0 1920 1080" fill="none" xmlns="http://www.w3.org/2000/svg">
<g clip-path="url(#clip0_63_100)">
<rect x="33" y="33" width="1859" height="1014" stroke="#D0E591" stroke-width="66"/>
<g clip-path="url(#clip1_63_100)">
<path d="M862.16 1084.11C862.16 1084.11 855.38 1048.18 830.95 1040.56C830.95 1040.56 822.61 1039.17 829.69 1048.58C829.69 1048.58 814.11 1041.06 824.71 1056.64C824.71 1056.64 830.17 1070.23 829.73 1077.08C829.29 1083.94 831.4 1087.8 831.4 1087.8" fill="#FFC199"/>
<g style="mix-blend-mode:multiply" opacity="0.3">
<path d="M830.06 1070.02C830.06 1070.02 849.61 1071.96 851.34 1060.23C851.34 1060.23 842.83 1040.01 826.25 1042.04L826.44 1047.15L820.51 1047.49L830.06 1070.03V1070.02Z" fill="#75778F"/>
</g>
<path d="M862.16 1084.11C862.16 1084.11 855.38 1048.18 830.95 1040.56C830.95 1040.56 822.61 1039.17 829.69 1048.58C829.69 1048.58 814.11 1041.06 824.71 1056.64C824.71 1056.64 830.17 1070.23 829.73 1077.08C829.29 1083.94 831.4 1087.8 831.4 1087.8" stroke="#7A3F3E" stroke-width="6.05" stroke-linecap="round" stroke-linejoin="round"/>
<mask id="mask0_63_100" style="mask-type:luminance" maskUnits="userSpaceOnUse" x="823" y="890" width="259" height="195">
<path d="M1081.45 890H823.62V1084.6H1081.45V890Z" fill="white"/>
</mask>
<g mask="url(#mask0_63_100)">
<path d="M959.32 1058.64C920.01 1088.5 870.04 1067.17 870.04 1067.17C825.85 1052.24 859.98 999.22 859.98 999.22C878.26 955.03 905.08 949.55 905.08 949.55C905.08 949.55 943.35 934.53 972.08 957.26C972.08 957.26 987.86 967.68 1002.7 1007.45C1002.7 1007.45 1007.44 1015.97 1003.65 1019.76C1003.65 1019.76 1009.65 1025.13 1007.12 1032.39C1007.12 1032.39 1011.13 1039.99 1006.18 1043.75C1012.6 1038.88 1013.81 1099.27 1018.89 1103.31C1039.16 1119.43 1042.9 1108.95 1043.41 1132.18C1043.74 1147.17 1030.32 1161 1019.25 1172.72C996.24 1197.09 958.67 1201.6 926.94 1199.38C926.94 1199.38 869.05 1205.06 877.89 1136.87C877.89 1136.87 852.26 1143.91 859.52 1122.44C859.52 1122.44 857.63 1105.93 867.73 1084.46L871.41 1067.16" fill="#FFC199"/>
<path d="M885.22 1041.33C885.22 1041.33 879.41 1041.99 875.87 1047.15" stroke="#7A3F3E" stroke-width="4.23" stroke-miterlimit="10" stroke-linecap="round"/>
<path d="M871.41 1050.99V1067.17" stroke="#7A3F3E" stroke-width="3.95" stroke-miterlimit="10" stroke-linecap="round"/>
<g style="mix-blend-mode:multiply" opacity="0.3">
<path d="M921.52 1053.34C920.11 1066.97 909.52 1076.62 877.97 1071.42C857.67 1068.07 845.44 1049.12 849.65 1033.71C853.86 1018.3 865.85 1005.66 893.2 1015.63C912.53 1022.67 923.17 1037.45 921.52 1053.34Z" fill="#75778F"/>
</g>
<path d="M836.18 1031.58L847.53 1037.26" stroke="#7A3F3E" stroke-width="3.95" stroke-miterlimit="10" stroke-linecap="round"/>
<path d="M834.87 1042.93H847.09" stroke="#7A3F3E" stroke-width="3.95" stroke-miterlimit="10" stroke-linecap="round"/>
<path d="M836.18 1054.28L849.27 1048.17" stroke="#7A3F3E" stroke-width="3.95" stroke-miterlimit="10" stroke-linecap="round"/>
<path d="M926 1033.42L914.65 1039.09" stroke="#7A3F3E" stroke-width="3.95" stroke-miterlimit="10" stroke-linecap="round"/>
<path d="M927.3 1044.77H915.08" stroke="#7A3F3E" stroke-width="3.95" stroke-miterlimit="10" stroke-linecap="round"/>
<path d="M926 1056.12L912.9 1050.01" stroke="#7A3F3E" stroke-width="3.95" stroke-miterlimit="10" stroke-linecap="round"/>
<path d="M859.31 1039.44C859.31 1039.44 864.25 1040.84 866.73 1046.42" stroke="#7A3F3E" stroke-width="3.95" stroke-miterlimit="10" stroke-linecap="round"/>
<path d="M931.49 1009.2C931.49 1009.2 941.21 1001.91 949.12 1000.69L931.49 1009.2Z" fill="#FFC199"/>
<path d="M931.49 1009.2C931.49 1009.2 941.21 1001.91 949.12 1000.69" stroke="#7A3F3E" stroke-width="5.22" stroke-linecap="round" stroke-linejoin="round"/>
<path d="M959.32 1058.64C920.01 1088.5 870.04 1067.17 870.04 1067.17C825.85 1052.24 859.98 999.22 859.98 999.22C878.26 955.03 905.08 949.55 905.08 949.55C905.08 949.55 943.35 934.53 972.08 957.26C972.08 957.26 987.86 967.68 1002.7 1007.45C1002.7 1007.45 1007.44 1015.97 1003.65 1019.76C1003.65 1019.76 1009.65 1025.13 1007.12 1032.39C1007.12 1032.39 1011.13 1039.99 1006.18 1043.75C1012.6 1038.88 1009.41 1086.95 1014.5 1091C1034.77 1107.12 1042.91 1108.96 1043.41 1132.19C1043.74 1147.18 1030.32 1161.01 1019.25 1172.73C996.24 1197.1 958.67 1201.61 926.94 1199.39C926.94 1199.39 869.05 1205.07 877.89 1136.88C877.89 1136.88 852.26 1143.92 859.52 1122.45C859.52 1122.45 857.63 1105.94 867.73 1084.47L871.41 1067.17" stroke="#7A3F3E" stroke-width="6.05" stroke-linecap="round" stroke-linejoin="round"/>
</g>
<path d="M984.89 1084.11C984.89 1084.11 991.67 1048.18 1016.1 1040.56C1016.1 1040.56 1024.44 1039.17 1017.36 1048.58C1017.36 1048.58 1032.94 1041.06 1022.34 1056.64C1022.34 1056.64 1016.88 1070.23 1017.32 1077.08C1017.76 1083.94 1015.65 1087.8 1015.65 1087.8" fill="#FFC199"/>
<g style="mix-blend-mode:multiply" opacity="0.3">
<path d="M1016.99 1070.02C1016.99 1070.02 997.44 1071.96 995.71 1060.23C995.71 1060.23 1004.22 1040.01 1020.8 1042.04L1020.61 1047.15L1026.54 1047.49L1016.99 1070.03V1070.02Z" fill="#75778F"/>
</g>
<path d="M984.89 1084.11C984.89 1084.11 991.67 1048.18 1016.1 1040.56C1016.1 1040.56 1024.44 1039.17 1017.36 1048.58C1017.36 1048.58 1032.94 1041.06 1022.34 1056.64C1022.34 1056.64 1016.88 1070.23 1017.32 1077.08C1017.76 1083.94 1015.65 1087.8 1015.65 1087.8" stroke="#7A3F3E" stroke-width="6.05" stroke-linecap="round" stroke-linejoin="round"/>
<path d="M889.67 957.14C889.67 957.14 881.25 933.27 864.72 946.49C864.72 946.49 851.83 960.7 864.72 964.34C864.72 964.34 877.28 965.33 877.28 966.98L889.67 957.14Z" fill="#A3836F" stroke="#7A3F3E" stroke-width="5.29" stroke-miterlimit="10" stroke-linecap="round"/>
<path d="M890.26 957.66C890.26 957.66 881.31 932.28 863.73 946.33C863.73 946.33 850.02 961.44 863.73 965.31C863.73 965.31 877.08 966.36 877.08 968.12L890.25 957.66H890.26Z" fill="#876A58"/>
<path d="M869.39 951.97C869.39 951.97 878.1 947.75 883.82 959.73" stroke="#7A3F3E" stroke-width="3.45" stroke-miterlimit="10" stroke-linecap="round"/>
<path d="M967.84 962.04C967.84 962.04 977.49 946.26 992.98 948.89C999.21 949.95 1006.23 952.82 1008.37 959.49C1010.55 966.3 1007.15 974.46 1000.31 976.99C988.23 981.47 990.28 972.24 982.41 977.17" fill="#A3836F"/>
<path d="M963.33 959.28C962.57 960.53 962.96 962.15 964.21 962.91C965.46 963.67 967.08 963.28 967.84 962.03C967.84 962.03 977.49 946.25 992.98 948.88C999.21 949.94 1006.23 952.81 1008.37 959.48C1010.55 966.29 1007.15 974.45 1000.31 976.98C993.98 979.32 991.53 977.91 989.5 976.74C988.98 976.44 988.48 976.15 987.96 975.95L986.07 980.89C986.2 980.94 986.58 981.16 986.86 981.32C990.07 983.17 994.16 984.9 1002.15 981.94C1011.5 978.48 1016.55 967.68 1013.41 957.87C1011.04 950.45 1004.1 945.41 993.87 943.67C975.07 940.47 963.81 958.51 963.34 959.28M986.6 980.95L985.54 975.77C984.69 975.94 983.67 976.37 982.4 977.17C981.16 977.95 980.79 979.58 981.56 980.81C982.34 982.05 983.97 982.42 985.2 981.65C986.17 981.04 986.57 980.96 986.59 980.95M986.45 975.67C986.17 975.67 985.86 975.7 985.54 975.77L986.4 980L987.95 975.97C987.49 975.79 987 975.68 986.45 975.68V975.67ZM986.41 980L986.06 980.9C986.16 980.94 986.33 980.96 986.46 980.96C986.51 980.96 986.56 980.96 986.6 980.95L986.41 980Z" fill="#7A3F3E"/>
<path d="M889.67 957.14C889.67 957.14 881.25 933.27 864.72 946.49C864.72 946.49 851.83 960.7 864.72 964.34C864.72 964.34 877.28 965.33 877.28 966.98L889.67 957.14Z" stroke="#7A3F3E" stroke-width="5.29" stroke-miterlimit="10" stroke-linecap="round"/>
<path d="M967.84 962.04C967.84 962.04 977.49 946.26 992.98 948.89C999.21 949.95 1006.23 952.82 1008.37 959.49C1010.55 966.3 1007.15 974.46 1000.31 976.99C988.23 981.47 990.28 972.24 982.41 977.17" fill="#876A58"/>
<path d="M973.33 966.85C973.33 966.85 981.43 951.12 994.62 955.74" stroke="#7A3F3E" stroke-width="3.45" stroke-miterlimit="10" stroke-linecap="round"/>
</g>
<path d="M1765.64 951.878C1765.64 951.878 1757.97 930.148 1742.9 942.18C1742.9 942.18 1731.16 955.123 1742.9 958.426C1742.9 958.426 1754.35 959.329 1754.35 960.836L1765.64 951.878Z" fill="#FFC199" stroke="#7A3F3E" stroke-width="7.02" stroke-miterlimit="10" stroke-linecap="round"/>
<g style="mix-blend-mode:multiply" opacity="0.3">
<path d="M1766.18 952.355C1766.18 952.355 1758.02 929.246 1742 942.044C1742 942.044 1729.5 955.804 1742 959.32C1742 959.32 1754.18 960.283 1754.18 961.883L1766.18 952.355Z" fill="#75778F"/>
</g>
<path d="M1747.15 947.17C1747.15 947.17 1755.1 943.329 1760.31 954.237" stroke="#7A3F3E" stroke-width="4.58" stroke-miterlimit="10" stroke-linecap="round"/>
<path d="M1836.91 956.34C1836.91 956.34 1845.7 941.967 1859.83 944.368C1865.51 945.33 1871.91 947.944 1873.85 954.016C1875.84 960.215 1872.75 967.648 1866.5 969.956C1855.49 974.034 1857.36 965.63 1850.19 970.117" fill="#FFC199"/>
<path d="M1831.8 953.224C1830.94 954.629 1831.39 956.468 1832.79 957.328C1834.2 958.188 1836.04 957.745 1836.9 956.34C1836.9 956.34 1839.1 952.747 1843.07 949.452C1847.03 946.156 1852.76 943.168 1859.82 944.36C1865.5 945.322 1871.9 947.936 1873.84 954.007C1875.83 960.206 1872.74 967.64 1866.5 969.947C1860.72 972.084 1858.49 970.79 1856.64 969.726C1856.26 969.504 1855.89 969.291 1855.51 969.121L1853.06 974.571C1853.16 974.613 1853.44 974.775 1853.65 974.894C1857.03 976.844 1861.18 978.275 1868.57 975.541C1877.66 972.178 1882.58 961.696 1879.54 952.185C1877.24 944.998 1870.59 940.128 1860.82 938.467C1853.27 937.19 1845.8 939.395 1839.24 944.853C1834.64 948.668 1832.08 952.764 1831.8 953.215M1854.3 974.681L1852.56 968.968C1851.89 969.172 1851.11 969.538 1850.19 970.117C1848.8 970.994 1848.37 972.842 1849.25 974.239C1850.13 975.635 1851.98 976.061 1853.37 975.184C1854.02 974.784 1854.3 974.69 1854.31 974.69M1853.88 968.755C1853.48 968.755 1853.05 968.815 1852.56 968.968L1853.79 972.987L1855.52 969.13C1855.02 968.908 1854.49 968.755 1853.89 968.755H1853.88ZM1853.78 972.987L1853.07 974.579C1853.28 974.673 1853.6 974.724 1853.89 974.724C1854.05 974.724 1854.19 974.707 1854.3 974.673L1853.78 972.978V972.987Z" fill="#7A3F3E"/>
<path d="M1841.92 960.717C1841.92 960.717 1849.3 946.395 1861.32 950.61" stroke="#7A3F3E" stroke-width="4.58" stroke-miterlimit="10" stroke-linecap="round"/>
<g style="mix-blend-mode:multiply" opacity="0.3">
<path d="M1836.91 956.34C1836.91 956.34 1845.7 941.967 1859.83 944.368C1865.51 945.33 1871.91 947.944 1873.85 954.016C1875.84 960.214 1872.74 967.648 1866.5 969.956C1855.49 974.034 1857.36 965.63 1850.19 970.117" fill="#75778F"/>
</g>
<path d="M1765.64 951.878C1765.64 951.878 1757.97 930.148 1742.9 942.18C1742.9 942.18 1731.16 955.123 1742.9 958.426C1742.9 958.426 1754.35 959.329 1754.35 960.836L1765.64 951.878Z" stroke="#7A3F3E" stroke-width="7.02" stroke-miterlimit="10" stroke-linecap="round"/>
<mask id="mask1_63_100" style="mask-type:luminance" maskUnits="userSpaceOnUse" x="1694" y="890" width="212" height="207">
<path d="M1905.4 890H1694V1096.52H1905.4V890Z" fill="white"/>
</mask>
<g mask="url(#mask1_63_100)">
<path d="M1828.17 1056.53C1789.3 1086.01 1739.89 1064.95 1739.89 1064.95C1696.21 1050.2 1729.95 997.842 1729.95 997.842C1748.03 954.211 1774.54 948.796 1774.54 948.796C1774.54 948.796 1812.38 933.963 1840.79 956.408C1840.79 956.408 1856.39 966.694 1871.07 1005.97C1871.07 1005.97 1875.75 1014.39 1872 1018.13C1872 1018.13 1877.94 1023.43 1875.44 1030.6C1875.44 1030.6 1879.4 1038.11 1874.5 1041.82C1875.52 1041.06 1909.82 1052.65 1910.2 1053.59C1918.67 1074.47 1921.53 1097.48 1922.02 1119.84C1922.34 1134.64 1898.38 1157.59 1887.43 1169.17C1864.68 1193.24 1827.52 1197.69 1796.15 1195.5C1796.15 1195.5 1738.91 1201.11 1747.65 1133.78C1747.65 1133.78 1740.79 1129.72 1747.97 1108.53C1747.97 1108.53 1744.23 1104.79 1754.21 1083.59L1761.31 1070.99" fill="#FFC199"/>
<path d="M1828.17 1056.53C1789.3 1086.01 1739.89 1064.95 1739.89 1064.95C1696.21 1050.2 1729.95 997.842 1729.95 997.842C1748.03 954.211 1774.54 948.796 1774.54 948.796C1774.54 948.796 1812.38 933.963 1840.79 956.408C1840.79 956.408 1856.39 966.694 1871.07 1005.97C1871.07 1005.97 1875.75 1014.39 1872 1018.13C1872 1018.13 1877.94 1023.43 1875.44 1030.6C1875.44 1030.6 1879.4 1038.11 1874.5 1041.82C1875.52 1041.06 1909.82 1052.65 1910.2 1053.59C1918.67 1074.47 1921.53 1097.48 1922.02 1119.84C1922.34 1134.64 1898.38 1157.59 1887.43 1169.17C1864.68 1193.24 1827.52 1197.69 1796.15 1195.5C1796.15 1195.5 1738.91 1201.11 1747.65 1133.78C1747.65 1133.78 1740.79 1129.72 1747.97 1108.53C1747.97 1108.53 1744.23 1104.79 1754.21 1083.59L1761.31 1070.99" stroke="#7A3F3E" stroke-width="7.02" stroke-linecap="round" stroke-linejoin="round"/>
<path d="M1754.9 1039.44C1754.9 1039.44 1749.15 1040.08 1745.65 1045.19" stroke="#7A3F3E" stroke-width="4.9" stroke-miterlimit="10" stroke-linecap="round"/>
<path d="M1741.25 1048.97V1064.96" stroke="#7A3F3E" stroke-width="4.58" stroke-miterlimit="10" stroke-linecap="round"/>
<path d="M1850.66 1059.29C1852.05 1060.84 1859.38 1069.11 1859.73 1063.38C1859.56 1059.88 1857.78 1057.66 1856.45 1054.26" stroke="#7A3F3E" stroke-width="4.58" stroke-miterlimit="10" stroke-linecap="round"/>
<path d="M1845.09 1064.51C1846.48 1066.06 1853.8 1074.33 1854.16 1068.6C1853.99 1065.1 1852.21 1062.88 1850.88 1059.48" stroke="#7A3F3E" stroke-width="4.58" stroke-miterlimit="10" stroke-linecap="round"/>
<g style="mix-blend-mode:multiply" opacity="0.3">
<path d="M1790.79 1051.29C1789.4 1064.74 1778.93 1074.28 1747.73 1069.15C1727.66 1065.84 1715.57 1047.13 1719.72 1031.91C1723.88 1016.69 1735.73 1004.21 1762.79 1014.05C1781.9 1021.01 1792.41 1035.61 1790.79 1051.29Z" fill="#75778F"/>
</g>
<path d="M1706.41 1029.81L1717.63 1035.41" stroke="#7A3F3E" stroke-width="4.58" stroke-miterlimit="10" stroke-linecap="round"/>
<path d="M1705.12 1041.01H1717.2" stroke="#7A3F3E" stroke-width="4.58" stroke-miterlimit="10" stroke-linecap="round"/>
<path d="M1706.41 1052.22L1719.36 1046.19" stroke="#7A3F3E" stroke-width="4.58" stroke-miterlimit="10" stroke-linecap="round"/>
<path d="M1795.22 1031.63L1784 1037.23" stroke="#7A3F3E" stroke-width="4.58" stroke-miterlimit="10" stroke-linecap="round"/>
<path d="M1796.52 1042.84H1784.43" stroke="#7A3F3E" stroke-width="4.58" stroke-miterlimit="10" stroke-linecap="round"/>
<path d="M1795.22 1054.03L1782.28 1048" stroke="#7A3F3E" stroke-width="4.58" stroke-miterlimit="10" stroke-linecap="round"/>
<path d="M1824.58 933.392C1824.58 943.815 1815.51 951.282 1804.32 951.282C1793.12 951.282 1784.05 943.815 1784.05 933.392C1784.05 922.97 1793.12 913.535 1804.32 913.535C1815.51 913.535 1824.58 922.97 1824.58 933.392Z" fill="#F7931E" stroke="#7A3F3E" stroke-width="6.1" stroke-linecap="round" stroke-linejoin="round"/>
<path d="M1803.29 918.644C1803.29 918.644 1805.04 896.837 1826.88 905.846C1826.88 905.846 1824.55 925.908 1803.29 918.644Z" fill="#8CC63F" stroke="#7A3F3E" stroke-width="6.1" stroke-linecap="round" stroke-linejoin="round"/>
<path d="M1803.29 918.644L1826.88 905.846" stroke="#7A3F3E" stroke-width="3.05" stroke-linecap="round" stroke-linejoin="round"/>
<path d="M1804.79 938.799C1805.11 938.799 1805.37 938.536 1805.37 938.212C1805.37 937.887 1805.11 937.624 1804.79 937.624C1804.46 937.624 1804.2 937.887 1804.2 938.212C1804.2 938.536 1804.46 938.799 1804.79 938.799Z" stroke="#7A3F3E" stroke-width="3.05" stroke-linecap="round" stroke-linejoin="round"/>
<path d="M1811 935.751C1811.33 935.751 1811.59 935.488 1811.59 935.163C1811.59 934.839 1811.33 934.576 1811 934.576C1810.68 934.576 1810.41 934.839 1810.41 935.163C1810.41 935.488 1810.68 935.751 1811 935.751Z" stroke="#7A3F3E" stroke-width="3.05" stroke-linecap="round" stroke-linejoin="round"/>
<path d="M1810.3 942.078C1810.63 942.078 1810.89 941.814 1810.89 941.49C1810.89 941.166 1810.63 940.902 1810.3 940.902C1809.98 940.902 1809.71 941.166 1809.71 941.49C1809.71 941.814 1809.98 942.078 1810.3 942.078Z" stroke="#7A3F3E" stroke-width="3.05" stroke-linecap="round" stroke-linejoin="round"/>
<path d="M1806.89 1013.88C1811.39 1013.88 1815.04 1009.77 1815.04 1004.7C1815.04 999.622 1811.39 995.509 1806.89 995.509C1802.39 995.509 1798.74 999.622 1798.74 1004.7C1798.74 1009.77 1802.39 1013.88 1806.89 1013.88Z" fill="#7A3F3E"/>
<path d="M1800.74 1000.65C1800.74 1000.65 1803.86 995.492 1809.53 995.994C1814.21 996.412 1817.99 998.268 1818.7 1005.31" stroke="#7A3F3E" stroke-width="2.76" stroke-linecap="round" stroke-linejoin="round"/>
<path d="M1803.15 999.29L1797.54 994.215" stroke="#7A3F3E" stroke-width="5.77" stroke-linecap="round" stroke-linejoin="round"/>
<path d="M1727.93 999.29L1722.32 994.215" stroke="#7A3F3E" stroke-width="5.77" stroke-linecap="round" stroke-linejoin="round"/>
<path d="M1804.9 1004.21C1805.93 1004.21 1806.77 1003.19 1806.77 1001.94C1806.77 1000.68 1805.93 999.664 1804.9 999.664C1803.86 999.664 1803.02 1000.68 1803.02 1001.94C1803.02 1003.19 1803.86 1004.21 1804.9 1004.21Z" fill="white"/>
<path d="M1729.28 1037.57C1729.28 1037.57 1734.17 1038.96 1736.61 1044.47" stroke="#7A3F3E" stroke-width="4.58" stroke-miterlimit="10" stroke-linecap="round"/>
</g>
<g clip-path="url(#clip2_63_100)">
<path d="M315.357 951.878C315.357 951.878 323.03 930.148 338.096 942.18C338.096 942.18 349.844 955.123 338.096 958.426C338.096 958.426 326.645 959.329 326.645 960.836L315.357 951.878Z" fill="#FFC199" stroke="#7A3F3E" stroke-width="7.02" stroke-miterlimit="10" stroke-linecap="round"/>
<g style="mix-blend-mode:multiply" opacity="0.3">
<path d="M314.82 952.355C314.82 952.355 322.979 929.246 338.999 942.044C338.999 942.044 351.498 955.804 338.999 959.32C338.999 959.32 326.824 960.283 326.824 961.883L314.82 952.355Z" fill="#75778F"/>
</g>
<path d="M333.85 947.17C333.85 947.17 325.904 943.329 320.694 954.237" stroke="#7A3F3E" stroke-width="4.58" stroke-miterlimit="10" stroke-linecap="round"/>
<path d="M244.089 956.34C244.089 956.34 235.299 941.967 221.172 944.368C215.494 945.33 209.091 947.944 207.147 954.016C205.16 960.215 208.255 967.648 214.496 969.956C225.511 974.034 223.644 965.63 230.815 970.117" fill="#FFC199"/>
<path d="M249.196 953.224C250.057 954.629 249.614 956.468 248.207 957.328C246.801 958.188 244.959 957.745 244.098 956.34C244.098 956.34 241.898 952.747 237.934 949.452C233.969 946.156 228.24 943.168 221.18 944.36C215.502 945.322 209.099 947.936 207.155 954.007C205.169 960.206 208.264 967.64 214.505 969.947C220.277 972.084 222.51 970.79 224.36 969.726C224.744 969.504 225.111 969.291 225.494 969.121L227.941 974.571C227.839 974.613 227.558 974.775 227.353 974.894C223.968 976.844 219.816 978.275 212.433 975.541C203.336 972.178 198.416 961.696 201.46 952.185C203.762 944.998 210.412 940.128 220.183 938.467C227.728 937.19 235.197 939.395 241.762 944.853C246.357 948.668 248.923 952.764 249.205 953.215M226.697 974.681L228.436 968.968C229.109 969.172 229.885 969.538 230.806 970.117C232.204 970.994 232.631 972.842 231.752 974.239C230.874 975.635 229.024 976.061 227.626 975.184C226.978 974.784 226.697 974.69 226.688 974.69M227.123 968.755C227.524 968.755 227.95 968.815 228.436 968.968L227.208 972.987L225.477 969.13C225.98 968.908 226.509 968.755 227.114 968.755H227.123ZM227.217 972.987L227.933 974.579C227.72 974.673 227.396 974.724 227.106 974.724C226.952 974.724 226.807 974.707 226.697 974.673L227.217 972.978V972.987Z" fill="#7A3F3E"/>
<path d="M239.085 960.717C239.085 960.717 231.701 946.395 219.68 950.61" stroke="#7A3F3E" stroke-width="4.58" stroke-miterlimit="10" stroke-linecap="round"/>
<g style="mix-blend-mode:multiply" opacity="0.3">
<path d="M244.089 956.34C244.089 956.34 235.299 941.967 221.172 944.368C215.494 945.33 209.091 947.944 207.147 954.016C205.16 960.215 208.255 967.648 214.496 969.956C225.511 974.034 223.644 965.63 230.815 970.117" fill="#75778F"/>
</g>
<path d="M315.357 951.878C315.357 951.878 323.03 930.148 338.096 942.18C338.096 942.18 349.844 955.123 338.096 958.426C338.096 958.426 326.645 959.329 326.645 960.836L315.357 951.878Z" stroke="#7A3F3E" stroke-width="7.02" stroke-miterlimit="10" stroke-linecap="round"/>
<path d="M252.828 1056.53C291.698 1086.01 341.105 1064.95 341.105 1064.95C384.792 1050.2 351.046 997.842 351.046 997.842C332.972 954.211 306.456 948.796 306.456 948.796C306.456 948.796 268.618 933.963 240.21 956.408C240.21 956.408 224.608 966.694 209.935 1005.97C209.935 1005.97 205.254 1014.39 208.997 1018.13C208.997 1018.13 203.063 1023.43 205.561 1030.6C205.561 1030.6 201.596 1038.11 206.499 1041.82C205.484 1041.06 166.5 1056.53 163.5 1086.5C155.034 1107.38 159.47 1097.48 158.984 1119.84C158.66 1134.64 182.618 1157.59 193.574 1169.17C216.321 1193.24 253.476 1197.69 284.852 1195.5C284.852 1195.5 342.086 1201.11 333.347 1133.78C333.347 1133.78 340.21 1129.72 333.031 1108.53C333.031 1108.53 336.774 1104.79 326.79 1083.59L319.688 1070.99" fill="#FFC199"/>
<path d="M252.828 1056.53C291.698 1086.01 341.105 1064.95 341.105 1064.95C384.792 1050.2 351.046 997.842 351.046 997.842C332.972 954.211 306.456 948.796 306.456 948.796C306.456 948.796 268.618 933.963 240.21 956.408C240.21 956.408 224.608 966.694 209.935 1005.97C209.935 1005.97 205.254 1014.39 208.997 1018.13C208.997 1018.13 203.063 1023.43 205.561 1030.6C205.561 1030.6 201.596 1038.11 206.499 1041.82C205.484 1041.06 166.5 1056.53 163.5 1086.5C155.034 1107.38 159.47 1097.48 158.984 1119.84C158.66 1134.64 182.618 1157.59 193.574 1169.17C216.321 1193.24 253.476 1197.69 284.852 1195.5C284.852 1195.5 342.086 1201.11 333.347 1133.78C333.347 1133.78 340.21 1129.72 333.031 1108.53C333.031 1108.53 336.774 1104.79 326.79 1083.59L319.688 1070.99" stroke="#7A3F3E" stroke-width="7.02" stroke-linecap="round" stroke-linejoin="round"/>
<path d="M326.1 1039.44C326.1 1039.44 331.846 1040.09 335.35 1045.19" stroke="#7A3F3E" stroke-width="4.9" stroke-miterlimit="10" stroke-linecap="round"/>
<path d="M339.75 1048.97V1064.96" stroke="#7A3F3E" stroke-width="4.58" stroke-miterlimit="10" stroke-linecap="round"/>
<path d="M230.337 1059.29C228.947 1060.84 221.624 1069.11 221.266 1063.38C221.436 1059.88 223.218 1057.66 224.548 1054.26" stroke="#7A3F3E" stroke-width="4.58" stroke-miterlimit="10" stroke-linecap="round"/>
<path d="M235.913 1064.51C234.523 1066.06 227.2 1074.33 226.841 1068.6C227.012 1065.1 228.794 1062.88 230.124 1059.48" stroke="#7A3F3E" stroke-width="4.58" stroke-miterlimit="10" stroke-linecap="round"/>
<g style="mix-blend-mode:multiply" opacity="0.3">
<path d="M290.206 1051.29C291.604 1064.74 302.074 1074.28 333.27 1069.15C353.34 1065.84 365.43 1047.13 361.277 1031.91C357.117 1016.69 345.266 1004.21 318.213 1014.05C299.098 1021.01 288.586 1035.61 290.206 1051.29Z" fill="#75778F"/>
</g>
<path d="M374.586 1029.81L363.366 1035.41" stroke="#7A3F3E" stroke-width="4.58" stroke-miterlimit="10" stroke-linecap="round"/>
<path d="M375.882 1041.01H363.801" stroke="#7A3F3E" stroke-width="4.58" stroke-miterlimit="10" stroke-linecap="round"/>
<path d="M374.586 1052.22L361.644 1046.19" stroke="#7A3F3E" stroke-width="4.58" stroke-miterlimit="10" stroke-linecap="round"/>
<path d="M285.781 1031.63L297.001 1037.23" stroke="#7A3F3E" stroke-width="4.58" stroke-miterlimit="10" stroke-linecap="round"/>
<path d="M284.485 1042.84H296.566" stroke="#7A3F3E" stroke-width="4.58" stroke-miterlimit="10" stroke-linecap="round"/>
<path d="M285.781 1054.03L298.723 1048" stroke="#7A3F3E" stroke-width="4.58" stroke-miterlimit="10" stroke-linecap="round"/>
<path d="M274.109 1013.88C269.607 1013.88 265.958 1009.77 265.958 1004.7C265.958 999.622 269.607 995.509 274.109 995.509C278.61 995.509 282.26 999.622 282.26 1004.7C282.26 1009.77 278.61 1013.88 274.109 1013.88Z" fill="#7A3F3E"/>
<path d="M280.256 1000.65C280.256 1000.65 277.144 995.492 271.466 995.994C266.794 996.412 263.008 998.268 262.301 1005.31" stroke="#7A3F3E" stroke-width="2.76" stroke-linecap="round" stroke-linejoin="round"/>
<path d="M276.104 1004.21C275.068 1004.21 274.228 1003.19 274.228 1001.94C274.228 1000.68 275.068 999.664 276.104 999.664C277.14 999.664 277.98 1000.68 277.98 1001.94C277.98 1003.19 277.14 1004.21 276.104 1004.21Z" fill="white"/>
<path d="M351.72 1037.57C351.72 1037.57 346.835 1038.96 344.388 1044.47" stroke="#7A3F3E" stroke-width="4.58" stroke-miterlimit="10" stroke-linecap="round"/>
<path d="M355.5 1022C346.94 1022 340 1011.7 340 999C340 986.297 346.94 976 355.5 976C364.06 976 371 986.297 371 999C371 1011.7 364.06 1022 355.5 1022Z" stroke="#7A3F3E" stroke-width="6" stroke-linecap="round" stroke-linejoin="round"/>
<path d="M295.5 1029C281.969 1029 271 1017.81 271 1004C271 990.193 281.969 979 295.5 979C309.031 979 320 990.193 320 1004C320 1017.81 309.031 1029 295.5 1029Z" stroke="#7A3F3E" stroke-width="6" stroke-linecap="round" stroke-linejoin="round"/>
<path d="M340 999C340 999 333.401 990 322 999H340Z" fill="#B56A3A"/>
<path d="M340 999C340 999 333.401 990 322 999" stroke="#7A3F3E" stroke-width="6" stroke-linecap="round" stroke-linejoin="round"/>
<path d="M276 988L222 978" stroke="#7A3F3E" stroke-width="6" stroke-linecap="round" stroke-linejoin="round"/>
<path d="M335 968L374.442 979.521C374.442 979.521 377.843 985 367.853 985" stroke="#7A3F3E" stroke-width="6" stroke-linecap="round" stroke-linejoin="round"/>
</g>
<g clip-path="url(#clip3_63_100)">
<mask id="mask2_63_100" style="mask-type:luminance" maskUnits="userSpaceOnUse" x="1254" y="909" width="318" height="172">
<path d="M1571.61 909H1254V1080.44H1571.61V909Z" fill="white"/>
</mask>
<g mask="url(#mask2_63_100)">
<path d="M1423.7 1215.61C1482.32 1215.61 1529.84 1177.54 1529.84 1130.58C1529.84 1083.62 1482.32 1045.55 1423.7 1045.55C1365.08 1045.55 1317.56 1083.62 1317.56 1130.58C1317.56 1177.54 1365.08 1215.61 1423.7 1215.61Z" fill="#FFC199" stroke="#7A3F3E" stroke-width="7.02" stroke-linecap="round" stroke-linejoin="round"/>
<path d="M1460.78 1022.37C1455.66 1006.64 1456.02 989.89 1444.78 975.18C1432.59 959.22 1413.54 949.3 1393.37 949.3C1370.59 949.3 1350.17 961.81 1338.53 981.17C1332.7 990.87 1329.16 1001.9 1328.06 1013.15C1327.34 1020.5 1327.18 1022.81 1323.46 1029.24C1319.97 1035.27 1317.96 1042.11 1317.96 1049.1C1317.96 1078.3 1351.72 1101.96 1393.37 1101.96C1435.02 1101.96 1468.78 1078.29 1468.78 1049.1C1468.78 1043.12 1467.36 1036.88 1464.58 1031.56C1463.01 1028.55 1461.78 1025.48 1460.77 1022.37H1460.78Z" fill="#FFC199" stroke="#7A3F3E" stroke-width="5.97" stroke-linecap="round" stroke-linejoin="round"/>
<g style="mix-blend-mode:multiply" opacity="0.3">
<path d="M1428.73 1041.13C1440.82 1070.3 1412.6 1090.98 1383.76 1086.08C1364.55 1083.35 1347.92 1069.08 1352.16 1049.26C1355.89 1032.25 1372 1015.64 1390.49 1014.88C1407.22 1014.39 1422.33 1026.7 1428.66 1040.98L1428.73 1041.13Z" fill="#75778F"/>
</g>
<path d="M1375.17 1036.11C1375.17 1036.11 1380.91 1037.74 1383.78 1044.21" stroke="#7A3F3E" stroke-width="4.58" stroke-miterlimit="10" stroke-linecap="round"/>
<path d="M1352.53 1003.64C1352.53 1003.64 1358.27 1005.27 1361.14 1011.74" stroke="#7A3F3E" stroke-width="4.58" stroke-miterlimit="10" stroke-linecap="round"/>
<path d="M1404.78 1036.11C1404.78 1036.11 1399.04 1037.74 1396.17 1044.21" stroke="#7A3F3E" stroke-width="4.58" stroke-miterlimit="10" stroke-linecap="round"/>
<path d="M1431.4 1004.16C1431.4 1004.16 1425.66 1005.79 1422.79 1012.26" stroke="#7A3F3E" stroke-width="4.58" stroke-miterlimit="10" stroke-linecap="round"/>
<path d="M1375.34 1082.14C1375.34 1082.14 1390.6 1084.01 1389.78 1053.79" stroke="#7A3F3E" stroke-width="4.58" stroke-miterlimit="10" stroke-linecap="round"/>
<path d="M1405.19 1082.14C1405.19 1082.14 1389.93 1084.01 1390.75 1053.79" stroke="#7A3F3E" stroke-width="4.58" stroke-miterlimit="10" stroke-linecap="round"/>
<path d="M1378.45 955.48C1374.9 951.05 1369.45 938.47 1378.18 936.38C1385.01 934.75 1392.1 945.87 1391.77 951.94" fill="#FFC199"/>
<path d="M1378.45 955.48C1374.9 951.05 1369.45 938.47 1378.18 936.38C1385.01 934.75 1392.1 945.87 1391.77 951.94" stroke="#7A3F3E" stroke-width="5" stroke-linecap="round" stroke-linejoin="round"/>
<path d="M1405.53 955.48C1409.08 951.05 1414.53 938.47 1405.8 936.38C1398.97 934.75 1391.88 945.87 1392.21 951.94" fill="#FFC199"/>
<path d="M1405.53 955.48C1409.08 951.05 1414.53 938.47 1405.8 936.38C1398.97 934.75 1391.88 945.87 1392.21 951.94" stroke="#7A3F3E" stroke-width="5" stroke-linecap="round" stroke-linejoin="round"/>
<path d="M1357.28 961.25C1357.28 961.25 1348.86 937.37 1332.33 950.6C1332.33 950.6 1319.44 964.82 1332.33 968.45C1332.33 968.45 1344.89 969.44 1344.89 971.09L1357.28 961.25Z" fill="#A3836F" stroke="#7A3F3E" stroke-width="5.29" stroke-miterlimit="10" stroke-linecap="round"/>
<path d="M1357.87 961.77C1357.87 961.77 1348.91 936.38 1331.33 950.44C1331.33 950.44 1317.62 965.56 1331.33 969.42C1331.33 969.42 1344.69 970.47 1344.69 972.23L1357.87 961.76V961.77Z" fill="#876A58"/>
<path d="M1336.99 956.08C1336.99 956.08 1345.71 951.86 1351.43 963.84" stroke="#7A3F3E" stroke-width="3.45" stroke-miterlimit="10" stroke-linecap="round"/>
<path d="M1357.28 961.25C1357.28 961.25 1348.86 937.37 1332.33 950.6C1332.33 950.6 1319.44 964.82 1332.33 968.45C1332.33 968.45 1344.89 969.44 1344.89 971.09L1357.28 961.25Z" stroke="#7A3F3E" stroke-width="5.29" stroke-miterlimit="10" stroke-linecap="round"/>
<path d="M1433.16 961.25C1433.16 961.25 1441.58 937.37 1458.11 950.6C1458.11 950.6 1471 964.82 1458.11 968.45C1458.11 968.45 1445.55 969.44 1445.55 971.09L1433.16 961.25Z" fill="#A3836F" stroke="#7A3F3E" stroke-width="5.29" stroke-miterlimit="10" stroke-linecap="round"/>
<path d="M1432.58 961.77C1432.58 961.77 1441.54 936.38 1459.12 950.44C1459.12 950.44 1472.83 965.56 1459.12 969.42C1459.12 969.42 1445.76 970.47 1445.76 972.23L1432.58 961.76V961.77Z" fill="#876A58"/>
<path d="M1453.45 956.08C1453.45 956.08 1444.73 951.86 1439.01 963.84" stroke="#7A3F3E" stroke-width="3.45" stroke-miterlimit="10" stroke-linecap="round"/>
<path d="M1433.16 961.25C1433.16 961.25 1441.58 937.37 1458.11 950.6C1458.11 950.6 1471 964.82 1458.11 968.45C1458.11 968.45 1445.55 969.44 1445.55 971.09L1433.16 961.25Z" stroke="#7A3F3E" stroke-width="5.29" stroke-miterlimit="10" stroke-linecap="round"/>
</g>
</g>
<g clip-path="url(#clip4_63_100)">
<path d="M623.65 1088.62C622.8 1070.67 608.86 1046.2 579.32 1013.95C579.32 1013.95 569.75 996.11 606.31 1026.4C651.58 1063.9 653.4 1085.7 650.64 1085.07" fill="#94BD62"/>
<path d="M623.65 1088.62C622.8 1070.67 608.86 1046.2 579.32 1013.95C579.32 1013.95 569.75 996.11 606.31 1026.4C651.58 1063.9 653.4 1085.7 650.64 1085.07" stroke="#7A3F3E" stroke-width="4.88" stroke-miterlimit="10"/>
<path d="M658.79 1088.62C649.01 1059.1 635.11 1029.55 614.46 999.93C614.46 999.93 608.23 976.11 641.45 1014.71C682.98 1062.98 688.66 1086.25 685.78 1084.39" fill="#94BD62"/>
<path d="M658.79 1088.62C649.01 1059.1 635.11 1029.55 614.46 999.93C614.46 999.93 608.23 976.11 641.45 1014.71C682.98 1062.98 688.66 1086.25 685.78 1084.39" stroke="#7A3F3E" stroke-width="5.32" stroke-miterlimit="10"/>
<path d="M682.97 1086.98C684.15 1062.69 681.39 1037.55 672.23 1011.02C672.23 1011.02 674.76 991.76 692.71 1027.61C715.16 1072.44 712.3 1091.19 710.21 1089.2" fill="#94BD62"/>
<path d="M682.97 1086.98C684.15 1062.69 681.39 1037.55 672.23 1011.02C672.23 1011.02 674.76 991.76 692.71 1027.61C715.16 1072.44 712.3 1091.19 710.21 1089.2" stroke="#7A3F3E" stroke-width="4.74" stroke-miterlimit="10"/>
<path d="M713.75 1087.73C713.75 1087.73 723.86 1063.58 722.74 1055.53C721.62 1047.48 739.59 1056.26 737.35 1087" fill="#94BD62"/>
<path d="M713.75 1087.73C713.75 1087.73 723.86 1063.58 722.74 1055.53C721.62 1047.48 739.59 1056.26 737.35 1087" stroke="#7A3F3E" stroke-width="5.32" stroke-miterlimit="10"/>
<path d="M597.87 1089.23C597.87 1089.23 588.49 1072.25 579.75 1065.4C571.01 1058.55 595.79 1058.85 623.2 1087.79" fill="#94BD62"/>
<path d="M597.87 1089.23C597.87 1089.23 588.49 1072.25 579.75 1065.4C571.01 1058.55 595.79 1058.85 623.2 1087.79" stroke="#7A3F3E" stroke-width="5.92" stroke-miterlimit="10"/>
</g>
<g clip-path="url(#clip5_63_100)">
<path d="M1205.55 1085.62C1206.4 1067.67 1220.34 1043.2 1249.88 1010.95C1249.88 1010.95 1259.45 993.11 1222.89 1023.4C1177.62 1060.9 1175.8 1082.7 1178.56 1082.07" fill="#94BD62"/>
<path d="M1205.55 1085.62C1206.4 1067.67 1220.34 1043.2 1249.88 1010.95C1249.88 1010.95 1259.45 993.11 1222.89 1023.4C1177.62 1060.9 1175.8 1082.7 1178.56 1082.07" stroke="#7A3F3E" stroke-width="4.88" stroke-miterlimit="10"/>
<path d="M1170.41 1085.62C1180.19 1056.1 1194.09 1026.55 1214.74 996.93C1214.74 996.93 1220.97 973.11 1187.75 1011.71C1146.22 1059.98 1140.54 1083.25 1143.42 1081.39" fill="#94BD62"/>
<path d="M1170.41 1085.62C1180.19 1056.1 1194.09 1026.55 1214.74 996.93C1214.74 996.93 1220.97 973.11 1187.75 1011.71C1146.22 1059.98 1140.54 1083.25 1143.42 1081.39" stroke="#7A3F3E" stroke-width="5.32" stroke-miterlimit="10"/>
<path d="M1146.23 1083.98C1145.05 1059.69 1147.81 1034.55 1156.97 1008.02C1156.97 1008.02 1154.44 988.76 1136.49 1024.61C1114.04 1069.44 1116.9 1088.19 1118.99 1086.2" fill="#94BD62"/>
<path d="M1146.23 1083.98C1145.05 1059.69 1147.81 1034.55 1156.97 1008.02C1156.97 1008.02 1154.44 988.76 1136.49 1024.61C1114.04 1069.44 1116.9 1088.19 1118.99 1086.2" stroke="#7A3F3E" stroke-width="4.74" stroke-miterlimit="10"/>
<path d="M1115.45 1084.73C1115.45 1084.73 1105.34 1060.58 1106.46 1052.53C1107.58 1044.48 1089.61 1053.26 1091.85 1084" fill="#94BD62"/>
<path d="M1115.45 1084.73C1115.45 1084.73 1105.34 1060.58 1106.46 1052.53C1107.58 1044.48 1089.61 1053.26 1091.85 1084" stroke="#7A3F3E" stroke-width="5.32" stroke-miterlimit="10"/>
<path d="M1231.33 1086.23C1231.33 1086.23 1240.71 1069.25 1249.45 1062.4C1258.19 1055.55 1233.41 1055.85 1206 1084.79" fill="#94BD62"/>
<path d="M1231.33 1086.23C1231.33 1086.23 1240.71 1069.25 1249.45 1062.4C1258.19 1055.55 1233.41 1055.85 1206 1084.79" stroke="#7A3F3E" stroke-width="5.92" stroke-miterlimit="10"/>
</g>
<g clip-path="url(#clip6_63_100)">
<path d="M1635.56 1002.11C1632.06 999.13 1621.67 1005.44 1615.49 1011.55C1615.31 1011.17 1615.13 1010.79 1614.93 1010.41C1609.78 1000.42 1596.51 986.39 1590.62 989.42C1584.73 992.45 1588.46 1011.4 1593.61 1021.39C1593.81 1021.79 1594.03 1022.17 1594.24 1022.56C1585.69 1024.07 1574.61 1028.85 1575 1033.41C1575.44 1038.52 1590.12 1041.42 1598.79 1040.66C1604.59 1040.16 1611.33 1041.14 1616.42 1038.92C1621.89 1036.53 1623.5 1030.56 1627.64 1025.7C1633.28 1019.08 1639.44 1005.44 1635.54 1002.12L1635.56 1002.11Z" fill="#94BD62" stroke="#7A3F3E" stroke-width="6" stroke-miterlimit="10"/>
<path d="M1626.07 1054.03C1617.31 1051.95 1616.36 1040.12 1616.36 1040.12L1601.47 1009" stroke="#7A3F3E" stroke-width="6" stroke-miterlimit="10" stroke-linecap="round"/>
</g>
<g clip-path="url(#clip7_63_100)">
<path d="M1891.56 83.11C1888.06 80.13 1877.67 86.44 1871.49 92.55C1871.31 92.17 1871.13 91.79 1870.93 91.41C1865.78 81.42 1852.51 67.39 1846.62 70.42C1840.73 73.45 1844.46 92.4 1849.61 102.39C1849.81 102.79 1850.03 103.17 1850.24 103.56C1841.69 105.07 1830.61 109.85 1831 114.41C1831.44 119.52 1846.12 122.42 1854.79 121.66C1860.59 121.16 1867.33 122.14 1872.42 119.92C1877.89 117.53 1879.5 111.56 1883.64 106.7C1889.28 100.08 1895.44 86.44 1891.54 83.12L1891.56 83.11Z" fill="#94BD62" stroke="#7A3F3E" stroke-width="6" stroke-miterlimit="10"/>
<path d="M1882.07 135.03C1873.31 132.95 1872.36 121.12 1872.36 121.12L1857.47 90" stroke="#7A3F3E" stroke-width="6" stroke-miterlimit="10" stroke-linecap="round"/>
</g>
<g clip-path="url(#clip8_63_100)">
<path d="M448.23 1002.11C451.73 999.13 462.12 1005.44 468.3 1011.55C468.48 1011.17 468.66 1010.79 468.86 1010.41C474.01 1000.42 487.28 986.39 493.17 989.42C499.06 992.45 495.33 1011.4 490.18 1021.39C489.98 1021.79 489.76 1022.17 489.55 1022.56C498.1 1024.07 509.18 1028.85 508.79 1033.41C508.35 1038.52 493.67 1041.42 485 1040.66C479.2 1040.16 472.46 1041.14 467.37 1038.92C461.9 1036.53 460.29 1030.56 456.15 1025.7C450.51 1019.08 444.35 1005.44 448.25 1002.12L448.23 1002.11Z" fill="#94BD62" stroke="#7A3F3E" stroke-width="6" stroke-miterlimit="10"/>
<path d="M457.72 1054.03C466.48 1051.95 467.43 1040.12 467.43 1040.12L482.32 1009" stroke="#7A3F3E" stroke-width="6" stroke-miterlimit="10" stroke-linecap="round"/>
</g>
<g clip-path="url(#clip9_63_100)">
<path d="M41.0759 366.059C39.5779 370.808 39.0234 377.245 43.6993 377.755C46.2648 378.106 50.0552 376.693 52.5545 377.638C54.1683 378.19 55.3352 379.661 56.5848 381.049C58.7779 383.841 62.3779 384.761 65.6055 383.348C69.9752 381.55 71.0428 376.342 71.4317 372.07C71.9283 366.786 70.5214 361.72 68.7834 356.763C68.229 355.233 67.5917 353.669 66.6897 352.332C62.1959 345.41 51.6855 352.566 47.2828 356.621C44.6428 359.179 42.4165 362.264 41.1338 365.917L41.0841 366.059H41.0759Z" fill="#7A3F3E"/>
<path d="M45.2883 327.034C43.6745 331.967 43.2772 337.367 45.8262 341.965C48.9297 347.742 54.4662 348.394 56.8166 341.731C58.0993 337.618 56.4028 333.137 55.3848 329.007C54.4662 326.273 53.8124 322.344 51.04 321.015C48.0441 320.379 46.3559 324.259 45.3379 326.884L45.2883 327.034Z" fill="#7A3F3E"/>
<path d="M63.9834 330.997C62.9407 334.291 62.4855 338.847 64.7945 341.648C67.2855 344.574 71.5559 342.534 73.4262 339.867C75.7848 336.74 76.0165 332.652 76.4634 328.723C76.6207 326.959 76.8359 325.178 76.7614 323.406C76.7283 321.466 75.9834 318.9 73.7655 319C71.1669 319.176 68.9903 322.645 67.4676 324.794C66.0938 326.767 64.7697 328.664 64.0248 330.855L63.9752 330.997H63.9834Z" fill="#7A3F3E"/>
<path d="M93.8758 341.714C94.8276 336.958 90.1269 337.192 86.9986 338.479C81.3296 340.293 71.5393 348.11 75.6276 354.79C77.2993 357.147 80.7255 358.042 83.3241 356.771C85.7572 355.659 87.4786 353.134 89.0345 350.785C90.7641 347.934 93.0317 345.134 93.851 341.857L93.8758 341.723V341.714Z" fill="#7A3F3E"/>
</g>
<g clip-path="url(#clip10_63_100)">
<path d="M1850.98 769.715C1849.62 774.025 1849.11 779.869 1853.36 780.331C1855.68 780.65 1859.12 779.368 1861.39 780.225C1862.86 780.726 1863.92 782.062 1865.05 783.321C1867.04 785.856 1870.31 786.691 1873.23 785.408C1877.2 783.777 1878.17 779.049 1878.52 775.171C1878.97 770.375 1877.7 765.777 1876.12 761.277C1875.62 759.888 1875.04 758.469 1874.22 757.255C1870.14 750.972 1860.6 757.468 1856.61 761.148C1854.21 763.47 1852.19 766.27 1851.03 769.586L1850.98 769.715H1850.98Z" fill="#7A3F3E"/>
<path d="M1854.8 734.292C1853.33 738.77 1852.97 743.672 1855.29 747.845C1858.1 753.089 1863.13 753.681 1865.26 747.633C1866.42 743.899 1864.88 739.832 1863.96 736.083C1863.13 733.602 1862.53 730.035 1860.02 728.829C1857.3 728.252 1855.77 731.773 1854.84 734.156L1854.8 734.292Z" fill="#7A3F3E"/>
<path d="M1871.76 737.889C1870.82 740.879 1870.4 745.015 1872.5 747.557C1874.76 750.213 1878.63 748.361 1880.33 745.941C1882.47 743.103 1882.68 739.392 1883.09 735.825C1883.23 734.224 1883.43 732.608 1883.36 730.999C1883.33 729.239 1882.65 726.909 1880.64 727C1878.28 727.159 1876.31 730.309 1874.92 732.259C1873.68 734.05 1872.48 735.772 1871.8 737.76L1871.76 737.889H1871.76Z" fill="#7A3F3E"/>
<path d="M1898.89 747.618C1899.75 743.3 1895.49 743.512 1892.65 744.681C1887.5 746.328 1878.62 753.423 1882.33 759.486C1883.85 761.626 1886.95 762.438 1889.31 761.284C1891.52 760.275 1893.08 757.983 1894.49 755.851C1896.06 753.263 1898.12 750.721 1898.86 747.747L1898.89 747.625V747.618Z" fill="#7A3F3E"/>
</g>
<g clip-path="url(#clip11_63_100)">
<path d="M1880.92 318.059C1882.42 322.808 1882.98 329.245 1878.3 329.755C1875.74 330.106 1871.94 328.693 1869.45 329.638C1867.83 330.19 1866.66 331.661 1865.42 333.049C1863.22 335.841 1859.62 336.761 1856.39 335.348C1852.02 333.55 1850.96 328.342 1850.57 324.07C1850.07 318.786 1851.48 313.72 1853.22 308.763C1853.77 307.233 1854.41 305.669 1855.31 304.332C1859.8 297.41 1870.31 304.566 1874.72 308.621C1877.36 311.179 1879.58 314.264 1880.87 317.917L1880.92 318.059H1880.92Z" fill="#7A3F3E"/>
<path d="M1876.71 279.034C1878.33 283.967 1878.72 289.367 1876.17 293.965C1873.07 299.742 1867.53 300.394 1865.18 293.731C1863.9 289.618 1865.6 285.137 1866.62 281.007C1867.53 278.273 1868.19 274.344 1870.96 273.015C1873.96 272.379 1875.64 276.259 1876.66 278.884L1876.71 279.034Z" fill="#7A3F3E"/>
<path d="M1858.02 282.997C1859.06 286.291 1859.51 290.847 1857.21 293.648C1854.71 296.574 1850.44 294.534 1848.57 291.867C1846.22 288.74 1845.98 284.652 1845.54 280.723C1845.38 278.959 1845.16 277.178 1845.24 275.406C1845.27 273.466 1846.02 270.9 1848.23 271C1850.83 271.176 1853.01 274.645 1854.53 276.794C1855.91 278.767 1857.23 280.664 1857.98 282.855L1858.02 282.997H1858.02Z" fill="#7A3F3E"/>
<path d="M1828.12 293.714C1827.17 288.958 1831.87 289.192 1835 290.479C1840.67 292.293 1850.46 300.11 1846.37 306.79C1844.7 309.147 1841.27 310.042 1838.68 308.771C1836.24 307.659 1834.52 305.134 1832.97 302.785C1831.24 299.934 1828.97 297.134 1828.15 293.857L1828.12 293.723V293.714Z" fill="#7A3F3E"/>
</g>
<g clip-path="url(#clip12_63_100)">
<path d="M79.9241 831.059C81.4221 835.808 81.9766 842.245 77.3007 842.755C74.7352 843.106 70.9448 841.693 68.4455 842.638C66.8317 843.19 65.6648 844.661 64.4152 846.049C62.2221 848.841 58.6221 849.761 55.3945 848.348C51.0248 846.551 49.9572 841.342 49.5683 837.07C49.0717 831.787 50.4786 826.72 52.2166 821.763C52.771 820.233 53.4083 818.67 54.3103 817.332C58.8041 810.41 69.3145 817.566 73.7172 821.621C76.3572 824.179 78.5835 827.264 79.8662 830.917L79.9159 831.059H79.9241Z" fill="#7A3F3E"/>
<path d="M75.7117 792.034C77.3255 796.967 77.7228 802.367 75.1738 806.965C72.0703 812.742 66.5338 813.394 64.1834 806.731C62.9007 802.618 64.5972 798.137 65.6152 794.007C66.5338 791.273 67.1876 787.344 69.96 786.015C72.9559 785.379 74.6441 789.259 75.6621 791.884L75.7117 792.034Z" fill="#7A3F3E"/>
<path d="M57.0166 795.997C58.0593 799.291 58.5145 803.847 56.2055 806.648C53.7145 809.574 49.4441 807.534 47.5738 804.867C45.2152 801.74 44.9835 797.652 44.5366 793.723C44.3793 791.959 44.1641 790.178 44.2386 788.406C44.2717 786.466 45.0166 783.9 47.2345 784C49.8331 784.176 52.0097 787.645 53.5324 789.794C54.9062 791.767 56.2303 793.664 56.9752 795.855L57.0248 795.997H57.0166Z" fill="#7A3F3E"/>
<path d="M27.1242 806.714C26.1724 801.958 30.8731 802.192 34.0014 803.479C39.6704 805.293 49.4607 813.11 45.3724 819.79C43.7007 822.147 40.2745 823.042 37.6759 821.771C35.2428 820.659 33.5214 818.134 31.9655 815.785C30.2359 812.934 27.9683 810.134 27.149 806.857L27.1242 806.723V806.714Z" fill="#7A3F3E"/>
</g>
<g clip-path="url(#clip13_63_100)">
<path d="M1867.69 517.17C1869.25 524.25 1866 533.42 1859.8 534.79C1853.6 536.16 1846.79 529.19 1845.24 522.12C1843.68 515.04 1847.96 510.53 1854.16 509.17C1860.36 507.81 1866.14 510.1 1867.7 517.17H1867.69Z" fill="white" stroke="#7A3F3E" stroke-width="5.57" stroke-linecap="round" stroke-linejoin="round"/>
<path d="M1843.04 528.07C1850.28 528.4 1858.3 533.91 1858.01 540.25C1857.72 546.59 1849.24 551.36 1842 551.04C1834.76 550.72 1831.51 545.42 1831.8 539.07C1832.09 532.73 1835.8 527.74 1843.04 528.07Z" fill="white" stroke="#7A3F3E" stroke-width="5.57" stroke-linecap="round" stroke-linejoin="round"/>
<path d="M1845.89 553.97C1848.08 547.06 1855.48 540.74 1861.53 542.66C1867.58 544.58 1870 554.01 1867.81 560.92C1865.62 567.83 1859.66 569.59 1853.61 567.68C1847.56 565.77 1843.7 560.89 1845.89 553.98V553.97Z" fill="white" stroke="#7A3F3E" stroke-width="5.57" stroke-linecap="round" stroke-linejoin="round"/>
<path d="M1874.42 560.44C1868.31 556.54 1864.12 547.75 1867.54 542.4C1870.96 537.05 1880.69 537.16 1886.8 541.06C1892.91 544.96 1893.07 551.17 1889.65 556.53C1886.23 561.89 1880.52 564.34 1874.42 560.44Z" fill="white" stroke="#7A3F3E" stroke-width="5.57" stroke-linecap="round" stroke-linejoin="round"/>
<path d="M1886.45 535.09C1881.1 539.98 1871.53 541.75 1867.25 537.06C1862.97 532.37 1865.59 523 1870.94 518.11C1876.29 513.22 1882.33 514.67 1886.62 519.36C1890.9 524.05 1891.8 530.2 1886.46 535.09H1886.45Z" fill="white" stroke="#7A3F3E" stroke-width="5.57" stroke-linecap="round" stroke-linejoin="round"/>
<path d="M1862.61 548.65C1867.3 548.65 1871.1 544.849 1871.1 540.16C1871.1 535.471 1867.3 531.67 1862.61 531.67C1857.92 531.67 1854.12 535.471 1854.12 540.16C1854.12 544.849 1857.92 548.65 1862.61 548.65Z" fill="#FCBB21" stroke="#7A3F3E" stroke-width="4.18" stroke-linecap="round" stroke-linejoin="round"/>
</g>
<g clip-path="url(#clip14_63_100)">
<path d="M42.48 568.87C41.97 567.11 41.69 565.25 41.69 563.33C41.69 552.38 50.56 543.51 61.51 543.51C71.14 543.51 79.16 550.38 80.95 559.48C81.79 559.37 82.65 559.31 83.52 559.31C94.47 559.31 103.34 568.18 103.34 579.13C103.34 589.15 95.91 597.43 86.26 598.76H86.21C85.33 598.88 84.43 598.94 83.52 598.94C82.61 598.94 81.71 598.88 80.83 598.76H45.62C37.27 598.76 30.51 591.99 30.51 583.65C30.51 576.38 35.64 570.31 42.48 568.86V568.87Z" fill="white" stroke="#7A3F3E" stroke-width="7.02" stroke-linecap="round" stroke-linejoin="round"/>
</g>
<g clip-path="url(#clip15_63_100)">
<path d="M870.45 45.79C876.713 45.79 881.79 40.7129 881.79 34.45C881.79 28.1871 876.713 23.11 870.45 23.11C864.187 23.11 859.11 28.1871 859.11 34.45C859.11 40.7129 864.187 45.79 870.45 45.79Z" fill="#FF0000" stroke="#7A3F3E" stroke-width="6.21" stroke-miterlimit="10" stroke-linecap="round"/>
</g>
<g clip-path="url(#clip16_63_100)">
<path d="M900.89 26.72C900.89 25.46 901.85 24.5 903.11 24.5C904.37 24.5 905.36 25.46 905.36 26.72V41.18H911.72C912.8 41.18 913.7 42.08 913.7 43.16C913.7 44.24 912.8 45.14 911.72 45.14H903.11C901.85 45.14 900.89 44.18 900.89 42.92V26.72Z" fill="#7A3F3E"/>
<path d="M916.82 41.48H918.74V33.98H916.88C915.86 33.98 915.08 33.2 915.08 32.18C915.08 31.16 915.86 30.32 916.88 30.32H921.38C922.4 30.32 923.18 31.13 923.18 32.15V41.48H925.07C926.09 41.48 926.87 42.29 926.87 43.31C926.87 44.33 926.09 45.14 925.07 45.14H916.82C915.8 45.14 915.02 44.33 915.02 43.31C915.02 42.29 915.8 41.48 916.82 41.48ZM917.78 25.91C917.78 24.53 918.86 23.45 920.24 23.45C921.62 23.45 922.7 24.53 922.7 25.91C922.7 27.29 921.62 28.37 920.24 28.37C918.86 28.37 917.78 27.29 917.78 25.91Z" fill="#7A3F3E"/>
<path d="M927.5 33.26C927.44 33.02 927.35 32.6 927.35 32.33C927.35 31.1 928.31 30.11 929.54 30.11C930.53 30.11 931.43 30.77 931.67 31.67L934.28 41.39H934.34L936.95 31.67C937.19 30.77 938.09 30.11 939.08 30.11C940.31 30.11 941.27 31.1 941.27 32.33C941.27 32.6 941.18 33.02 941.12 33.26L938.63 42.02C938.21 43.46 937.16 45.35 934.31 45.35C931.46 45.35 930.44 43.46 930.02 42.02L927.5 33.26Z" fill="#7A3F3E"/>
<path d="M950.3 41.9C950.9 41.9 951.5 41.81 952.04 41.72C952.79 41.6 953.51 41.33 954.23 41.33C955.43 41.33 955.97 42.11 955.97 42.92C955.97 43.67 955.49 44.18 954.86 44.54C953.75 45.17 951.74 45.44 950.27 45.44C945.26 45.44 943.01 42.23 943.01 37.67C943.01 33.11 945.32 30.02 949.91 30.02C954.5 30.02 956.27 33.35 956.27 36.83C956.27 38.96 955.58 39.23 954.62 39.23H947.48C947.48 40.67 948.05 41.9 950.3 41.9ZM952.22 36.41C952.22 34.85 951.65 33.65 949.91 33.65C948.5 33.65 947.63 34.4 947.48 36.41H952.22Z" fill="#7A3F3E"/>
<path d="M969.62 34.46C969.62 35.33 970.79 35.69 972.5 36.17C974.69 36.8 977.66 37.73 977.66 40.82C977.66 43.91 974.6 45.44 971.36 45.44C969.98 45.44 967.55 45.17 966.26 44.54C965.57 44.21 965.06 43.73 965.06 42.92C965.06 42.02 965.66 41.12 966.86 41.12C967.52 41.12 968.27 41.39 969.02 41.6C969.86 41.84 970.67 42.02 971.39 42.02C972.59 42.02 973.22 41.54 973.22 41C973.22 40.28 972.14 39.86 970.34 39.38C968.69 38.93 965.18 37.97 965.18 34.7C965.18 31.43 968.24 30.02 971.21 30.02C972.77 30.02 974.93 30.44 976.01 31.01C976.64 31.34 977.18 31.85 977.18 32.66C977.18 33.47 976.64 34.34 975.53 34.34C974.9 34.34 974.27 34.07 973.61 33.86C972.89 33.62 972.23 33.44 971.42 33.44C970.13 33.44 969.62 33.89 969.62 34.46Z" fill="#7A3F3E"/>
<path d="M980.84 33.98C979.82 33.98 979.04 33.2 979.04 32.18C979.04 31.16 979.82 30.32 980.84 30.32H982.16V27.47C982.16 26.21 983.12 25.25 984.38 25.25C985.64 25.25 986.6 26.21 986.6 27.47V30.32H989.66C990.68 30.32 991.46 31.16 991.46 32.18C991.46 33.2 990.68 33.98 989.66 33.98H986.6V39.92C986.6 40.97 986.96 41.69 987.89 41.69C988.7 41.69 988.94 41.18 989.75 41.18C990.65 41.18 991.46 41.78 991.46 42.89C991.46 43.58 991.13 44.15 990.44 44.6C989.39 45.29 987.98 45.44 987.17 45.44C983.69 45.44 982.16 42.59 982.16 39.95V33.98H980.84Z" fill="#7A3F3E"/>
<path d="M995 41.48H996.92V33.98H995.06C994.04 33.98 993.26 33.2 993.26 32.18C993.26 31.16 994.04 30.32 995.06 30.32H998.69C999.35 30.32 999.89 30.8 1000.04 31.37L1000.22 32.03C1001.78 30.83 1003.79 30.02 1005.47 30.02C1006.76 30.02 1007.66 30.68 1007.75 31.7L1008.02 34.94C1008.11 36.11 1007.21 36.95 1006.19 36.95C1005.02 36.95 1004.45 36.23 1004.3 35.36L1004.06 33.98C1003.19 34.16 1002.14 34.76 1001.36 35.33V41.48H1003.25C1004.27 41.48 1005.05 42.29 1005.05 43.31C1005.05 44.33 1004.27 45.14 1003.25 45.14H995C993.98 45.14 993.2 44.3 993.2 43.28C993.2 42.26 993.98 41.48 995 41.48Z" fill="#7A3F3E"/>
<path d="M1016.99 41.9C1017.59 41.9 1018.19 41.81 1018.73 41.72C1019.48 41.6 1020.2 41.33 1020.92 41.33C1022.12 41.33 1022.66 42.11 1022.66 42.92C1022.66 43.67 1022.18 44.18 1021.55 44.54C1020.44 45.17 1018.43 45.44 1016.96 45.44C1011.95 45.44 1009.7 42.23 1009.7 37.67C1009.7 33.11 1012.01 30.02 1016.6 30.02C1021.19 30.02 1022.96 33.35 1022.96 36.83C1022.96 38.96 1022.27 39.23 1021.31 39.23H1014.17C1014.17 40.67 1014.74 41.9 1016.99 41.9ZM1018.91 36.41C1018.91 34.85 1018.34 33.65 1016.6 33.65C1015.19 33.65 1014.32 34.4 1014.17 36.41H1018.91Z" fill="#7A3F3E"/>
<path d="M1033.58 35.66C1033.58 34.67 1033.28 33.65 1031.33 33.65C1031 33.65 1030.52 33.68 1029.92 33.83C1029.29 33.98 1028.48 34.22 1027.88 34.22C1026.68 34.22 1026.08 33.35 1026.08 32.45C1026.08 31.91 1026.29 31.37 1027.1 30.92C1028.18 30.32 1030.16 30.02 1031.78 30.02C1037.45 30.02 1038.02 33.62 1038.02 35.69V40.04C1038.02 41.72 1038.41 42.5 1038.41 43.31C1038.41 44.39 1037.75 45.35 1036.4 45.35C1035.17 45.35 1034.57 44.57 1034.42 44.03L1034.27 43.49C1032.95 44.9 1031.42 45.44 1029.89 45.44C1026.86 45.44 1025.06 43.37 1025.06 40.82C1025.06 37.91 1027.4 36.26 1031.24 36.26H1033.58V35.66ZM1033.58 39.23H1031.42C1030.1 39.23 1029.38 39.65 1029.38 40.49C1029.38 41.33 1030.07 41.81 1031.09 41.81C1031.99 41.81 1032.83 41.42 1033.58 40.79V39.23Z" fill="#7A3F3E"/>
<path d="M1042.01 35.45C1042.01 33.77 1041.62 33.08 1041.62 32.27C1041.62 31.13 1042.22 30.14 1043.6 30.14C1044.8 30.14 1045.37 30.68 1045.61 31.46L1045.76 31.97C1047.08 30.56 1048.73 30.02 1049.84 30.02C1051.4 30.02 1052.81 30.65 1053.86 31.94C1055.06 30.74 1056.65 30.02 1058.33 30.02C1061.78 30.02 1063.61 32.21 1063.61 35.24V43.13C1063.61 44.39 1062.65 45.35 1061.39 45.35C1060.13 45.35 1059.17 44.39 1059.17 43.13V35.81C1059.17 34.4 1058.57 33.65 1057.46 33.65C1056.8 33.65 1056.02 33.77 1054.88 34.64C1055.03 35.24 1055.03 36.26 1055.03 36.65V43.13C1055.03 44.39 1054.07 45.35 1052.81 45.35C1051.55 45.35 1050.59 44.39 1050.59 43.13V35.81C1050.59 34.4 1050.02 33.65 1048.82 33.65C1048.07 33.65 1047.11 34.1 1046.45 34.67V43.13C1046.45 44.39 1045.49 45.35 1044.23 45.35C1042.97 45.35 1042.01 44.39 1042.01 43.13V35.45Z" fill="#7A3F3E"/>
</g>
<g clip-path="url(#clip17_63_100)">
<path d="M436.991 108.438L37.1238 124.607C32.6512 124.819 28.8165 121.321 28.5993 116.829L25.3823 49.2387C25.1719 44.7463 28.6536 40.8947 33.1263 40.6766L433 24.5C437.473 24.2887 441.307 27.7858 441.525 32.2782L444.742 99.8686C444.952 104.361 441.47 108.213 436.998 108.431L436.991 108.438Z" fill="#FFD5BB" stroke="#7A3F3E" stroke-width="7" stroke-miterlimit="10" stroke-linecap="round"/>
<g clip-path="url(#clip18_63_100)">
<path d="M415.156 62.5989C414.703 62.6231 414.269 62.6462 413.836 62.6694C412.953 62.7126 412.276 62.1369 412.24 61.3154C412.2 60.5056 412.809 59.8652 413.676 59.8189C416.965 59.6434 420.253 59.4641 423.538 59.2927C425.172 59.2054 426.474 60.3827 426.577 62.0164C426.634 62.9446 426.676 63.8735 426.727 64.8289C427.512 64.8294 428.201 65.0466 428.783 65.5658C429.361 66.0852 429.669 66.746 429.739 67.5426C430.188 67.5187 430.621 67.4955 431.055 67.4724C431.941 67.4289 432.618 67.997 432.662 68.8181C432.706 69.6392 432.093 70.276 431.207 70.3233C428.989 70.4417 426.771 70.56 424.553 70.6784L424.185 70.698C424.211 71.1815 424.239 71.6494 424.261 72.1215C424.284 72.7783 423.903 73.345 423.306 73.5462C422.41 73.848 421.489 73.2468 421.415 72.3042C421.379 71.8328 421.365 71.3564 421.339 70.8691L418.511 71.02L418.662 73.8556C419.134 73.8304 419.617 73.7931 420.097 73.779C421.042 73.7555 421.738 74.6111 421.53 75.5303C421.386 76.1537 420.859 76.5897 420.18 76.6297C418.883 76.7028 417.586 76.7682 416.289 76.8374C416.181 76.8431 416.074 76.8488 415.94 76.856C415.964 77.3164 415.987 77.7462 416.01 78.1798C416.058 79.0661 415.486 79.7392 414.661 79.7833C413.839 79.8271 413.206 79.2144 413.155 78.3244C413.132 77.8985 413.11 77.4764 413.086 77.0275L410.231 77.1799C410.257 77.6633 410.29 78.1464 410.308 78.6264C410.327 79.2603 409.925 79.8166 409.339 80.0095C408.723 80.2117 408.073 80.004 407.713 79.4652C407.604 79.3055 407.502 79.1109 407.488 78.9231C407.436 78.2333 407.36 77.5332 407.412 76.8493C407.519 75.466 408.651 74.4013 410.039 74.308C410.89 74.251 411.743 74.2171 412.595 74.1716C412.702 74.1659 412.806 74.1604 412.909 74.1548C412.94 72.4216 414.074 71.3107 415.604 71.1328C415.63 70.9006 415.636 70.6655 415.686 70.4358C415.955 69.1401 417.015 68.2293 418.338 68.1433C419.178 68.0908 420.022 68.0534 420.863 68.0086C420.959 68.0035 421.058 67.9981 421.174 67.992C421.17 67.1995 421.395 66.5103 421.914 65.9323C422.43 65.3622 423.08 65.062 423.861 64.9819L423.71 62.1579L420.89 62.3084C420.895 63.2123 420.587 63.9945 419.895 64.5932C419.351 65.0686 418.71 65.3068 417.986 65.2954C416.661 65.2737 415.34 64.313 415.163 62.5947L415.156 62.5989Z" fill="#7A3F3E"/>
<path d="M392.039 58.1107L391.671 58.1304C387.43 58.3566 383.19 58.5829 378.954 58.8089C375.631 58.9863 372.81 56.955 371.93 53.7466C371.816 53.3295 371.742 52.8909 371.719 52.4573C371.476 48.1221 371.249 43.7822 371.017 39.4426C371.013 39.3735 371.01 39.3083 371.004 39.2085L371.373 39.1889C375.602 38.9632 379.83 38.7376 384.063 38.5117C387.551 38.3256 390.438 40.5111 391.201 43.9181C391.272 44.2376 391.312 44.5625 391.333 44.8884C391.568 49.2048 391.794 53.5255 392.029 57.8419C392.033 57.9187 392.037 57.9954 392.043 58.1105L392.039 58.1107ZM374.446 47.4595L374.454 47.4591C374.538 49.0323 374.61 50.6061 374.706 52.1825C374.84 54.334 376.557 55.9239 378.66 55.8194C381.976 55.6578 385.294 55.4654 388.61 55.3C388.837 55.2879 388.89 55.2119 388.879 54.9971C388.696 51.7092 388.532 48.4241 388.341 45.1366C388.212 42.9386 386.46 41.3891 384.268 41.5021C381.003 41.6764 377.734 41.8508 374.468 42.0174C374.218 42.0307 374.153 42.1073 374.17 42.3527C374.272 44.0557 374.355 45.7559 374.446 47.4595Z" fill="#7A3F3E"/>
<path d="M412.008 57.045C412 56.8954 411.994 56.7841 411.988 56.6767C411.765 52.4867 411.541 48.2967 411.318 44.1067C411.182 41.5589 412.103 39.4973 414.153 37.9641C415.126 37.235 416.239 36.8062 417.451 36.7377C421.878 36.4822 426.307 36.2574 430.731 36.0175C430.777 36.015 430.827 36.0201 430.893 36.0204C430.902 36.1276 430.919 36.223 430.924 36.3189C431.152 40.5895 431.383 44.856 431.608 49.1268C431.778 52.3846 429.769 55.2084 426.631 56.107C426.195 56.2303 425.737 56.3047 425.284 56.3289C420.937 56.5724 416.59 56.8005 412.238 57.0327C412.169 57.0364 412.104 57.0399 412 57.0454L412.008 57.045ZM414.558 48.4435L414.551 48.4439C414.642 50.1552 414.737 51.8702 414.821 53.5819C414.834 53.8274 414.907 53.8967 415.153 53.8835C418.429 53.701 421.707 53.5415 424.983 53.3398C425.504 53.3081 426.059 53.1823 426.52 52.946C427.981 52.1947 428.687 50.9411 428.615 49.3057C428.467 46.0198 428.272 42.7325 428.105 39.4438C428.091 39.1867 427.986 39.1615 427.775 39.1728C424.498 39.3515 421.221 39.5225 417.944 39.7051C417.687 39.7188 417.427 39.748 417.18 39.8151C415.374 40.2924 414.226 41.8582 414.312 43.7507C414.38 45.317 414.479 46.8778 414.562 48.4433L414.558 48.4435Z" fill="#7A3F3E"/>
<path d="M374.201 99.1117C374.193 98.962 374.187 98.8507 374.181 98.7433C373.958 94.5533 373.734 90.3633 373.511 86.1733C373.375 83.6255 374.296 81.5639 376.346 80.0308C377.319 79.3016 378.431 78.8729 379.644 78.8043C384.071 78.5488 388.5 78.3241 392.924 78.0841C392.97 78.0817 393.02 78.0867 393.086 78.087C393.095 78.1943 393.112 78.2896 393.117 78.3855C393.345 82.6561 393.576 86.9226 393.8 91.1934C393.97 94.4512 391.962 97.275 388.824 98.1736C388.388 98.2969 387.93 98.3714 387.477 98.3955C383.13 98.639 378.783 98.8672 374.431 99.0994L374.201 99.1117ZM376.753 90.5523L376.746 90.5528C376.837 92.2564 376.928 93.96 377.014 95.66C377.027 95.8864 377.081 95.9643 377.326 95.9512C380.622 95.7676 383.919 95.5956 387.214 95.4159C388.051 95.3712 388.802 95.0964 389.442 94.5466C390.425 93.7015 390.875 92.6193 390.806 91.334C390.64 88.0683 390.458 84.7995 390.295 81.5336C390.281 81.2766 390.19 81.2314 389.952 81.2441C386.695 81.4256 383.437 81.5956 380.183 81.7731C379.907 81.7878 379.628 81.8181 379.362 81.89C377.563 82.3669 376.423 83.9208 376.504 85.8019C376.573 87.3874 376.673 88.9713 376.757 90.5521L376.753 90.5523Z" fill="#7A3F3E"/>
<path d="M409.614 65.7652C408.798 65.7664 408.101 65.5342 407.522 64.9956C406.967 64.4788 406.66 63.8411 406.612 63.0856C406.559 62.2457 406.522 61.4011 406.477 60.5608C406.471 60.4534 406.466 60.346 406.458 60.204C406.32 60.2114 406.205 60.2175 406.09 60.2237C403.377 60.3684 400.664 60.517 397.951 60.658C396.593 60.7304 395.446 59.9489 395.036 58.6779C394.954 58.4283 394.912 58.1573 394.898 57.8926C394.669 53.6644 394.443 49.436 394.221 45.2075C394.175 44.3441 394.751 43.6708 395.565 43.6274C396.378 43.584 397.026 44.1882 397.072 45.0477C397.292 49.1763 397.512 53.3049 397.733 57.4373L397.752 57.798L400.607 57.6457C400.582 57.166 400.544 56.6832 400.53 56.203C400.504 55.1308 401.593 54.4108 402.56 54.8672C403.069 55.1093 403.342 55.5258 403.379 56.0856C403.412 56.5494 403.429 57.0103 403.454 57.4899L406.286 57.3388L405.983 51.66C405.225 51.6582 404.536 51.441 403.954 50.9256C403.372 50.4064 403.068 49.7492 402.991 48.9453C402.496 48.9717 402.016 49.0088 401.532 49.0231C400.852 49.0402 400.286 48.5971 400.112 47.9407C399.953 47.3258 400.24 46.6487 400.816 46.3524C401.015 46.2533 401.247 46.1986 401.469 46.1752C401.913 46.1284 402.359 46.12 402.85 46.0938C402.824 45.6103 402.795 45.1424 402.774 44.6703C402.747 44.0137 403.132 43.4468 403.729 43.2456C404.625 42.94 405.546 43.5411 405.62 44.4876C405.656 44.959 405.67 45.4354 405.696 45.915C405.951 45.9437 406.187 45.9542 406.416 45.9997C407.747 46.2789 408.635 47.3397 408.71 48.744C408.955 53.3369 409.2 57.9336 409.445 62.5265L409.465 62.8949C410.038 62.8951 410.567 63.0015 411.044 63.2877C411.891 63.7967 412.37 64.5484 412.461 65.5325C412.507 66.0341 412.526 66.541 412.542 67.0481C412.569 67.8431 411.968 68.4908 411.189 68.5324C410.41 68.574 409.752 67.9858 409.694 67.1923C409.662 66.7285 409.645 66.2638 409.618 65.765L409.614 65.7652Z" fill="#7A3F3E"/>
<path d="M411.124 94.2824L410.767 94.3014C407.586 94.4712 404.409 94.6407 401.228 94.8105C400.422 94.8535 399.784 94.3565 399.663 93.6126C399.53 92.777 400.144 92.017 401.018 91.9626C402.315 91.8857 403.612 91.8242 404.909 91.755C405.017 91.7493 405.124 91.7435 405.255 91.7366L405.103 88.901L399.42 89.2043C399.444 89.6494 399.467 90.0791 399.49 90.5127C399.533 91.3954 398.962 92.0724 398.136 92.1126C397.327 92.1558 396.686 91.5435 396.64 90.6763C396.515 88.3473 396.388 86.0223 396.267 83.693C396.182 82.0237 397.355 80.7182 399.02 80.6217C400.397 80.5443 401.775 80.4747 403.149 80.4014C404.016 80.3551 404.689 80.9233 404.74 81.7325C404.788 82.5572 404.179 83.1977 403.297 83.2525C402.864 83.2756 402.43 83.2987 401.981 83.3227L402.133 86.1736C402.233 86.1683 402.337 86.1627 402.44 86.1572C403.254 86.1138 404.063 86.0706 404.877 86.0272C406.504 85.9442 407.745 86.9823 407.966 88.6059C407.967 88.6328 407.981 88.6628 407.991 88.7123C408.757 88.7099 409.45 88.9308 410.028 89.4502C410.609 89.9694 410.906 90.6308 410.987 91.4153C411.768 91.4121 412.461 91.6368 413.039 92.1562C413.609 92.6722 413.909 93.3219 413.99 94.1256C414.474 94.0998 414.953 94.0627 415.437 94.0484C416.386 94.0208 417.09 94.8722 416.873 95.7918C416.741 96.353 416.387 96.7759 415.825 96.8405C415.041 96.9324 414.233 97.0025 413.458 96.9053C412.226 96.7479 411.337 95.7448 411.152 94.5079C411.14 94.4393 411.133 94.3743 411.12 94.2749L411.124 94.2824Z" fill="#7A3F3E"/>
<path d="M381.072 67.2767L380.92 64.4219C380.436 64.4477 379.957 64.4849 379.473 64.4991C378.451 64.5229 377.732 63.53 378.097 62.5794C378.32 61.9941 378.769 61.6854 379.394 61.6482C380.89 61.5645 382.387 61.4885 383.88 61.4088C386.159 61.2872 388.435 61.1658 390.714 61.0442C391.723 60.9903 392.45 61.8443 392.228 62.7989C392.086 63.399 391.571 63.842 390.931 63.8877C390.46 63.9244 389.983 63.9383 389.5 63.9641C389.5 64.5528 389.391 65.0935 389.089 65.5752C388.568 66.4111 387.813 66.8939 386.824 66.9621C385.877 67.028 384.924 67.0634 383.961 67.1148C383.935 67.3548 383.928 67.5783 383.886 67.7999C383.642 69.075 382.581 70.0206 381.285 70.1166C380.802 70.1539 380.315 70.1761 379.831 70.1942C379.009 70.2265 378.351 69.6421 378.305 68.8519C378.262 68.05 378.858 67.3948 379.694 67.3425C380.139 67.3149 380.584 67.295 381.064 67.2694L381.072 67.2767Z" fill="#7A3F3E"/>
<path d="M387.083 72.6778C386.614 72.7028 386.169 72.7265 385.724 72.7503C384.88 72.7876 384.214 72.2113 384.167 71.4134C384.12 70.6002 384.724 69.9485 385.584 69.9026C386.167 69.8715 386.756 69.7977 387.336 69.8476C388.735 69.9653 389.743 70.9659 389.936 72.3562C389.942 72.402 389.953 72.4515 389.96 72.5127L392.692 72.3669C392.852 71.8389 392.933 71.3228 393.159 70.8759C393.629 69.9543 394.434 69.4649 395.465 69.3753C395.947 69.3342 396.435 69.3159 396.919 69.2977C397.737 69.2656 398.392 69.8579 398.43 70.6524C398.473 71.4428 397.88 72.0939 397.06 72.1492C396.607 72.1811 396.15 72.1978 395.69 72.2223C395.65 72.4976 395.634 72.7602 395.578 73.0171C395.301 74.2402 394.263 75.1344 393.014 75.2203C392.055 75.2868 391.096 75.3342 390.132 75.3741C388.569 75.4459 387.312 74.3855 387.106 72.8266C387.104 72.7882 387.094 72.7503 387.083 72.6778Z" fill="#7A3F3E"/>
<path d="M375.225 64.7297C375.713 64.7036 376.158 64.6799 376.603 64.6561C377.444 64.619 378.11 65.1953 378.156 65.997C378.199 66.7989 377.606 67.4501 376.767 67.5064C376.314 67.5344 375.861 67.5547 375.393 67.5797L375.545 70.4345C376.025 70.4089 376.504 70.3756 376.984 70.3577C377.618 70.3354 378.182 70.7286 378.378 71.3145C378.652 72.1157 378.208 73.0282 377.368 73.1462C376.562 73.2623 375.721 73.2995 374.919 73.1884C373.701 73.0186 372.765 71.9219 372.692 70.6983C372.544 68.2743 372.422 65.8489 372.3 63.4235C372.258 62.6331 372.878 61.9844 373.661 61.9503C374.429 61.9132 375.087 62.4937 375.147 63.2678C375.184 63.7391 375.198 64.2155 375.225 64.7258L375.225 64.7297Z" fill="#7A3F3E"/>
<path d="M405.393 40.2478L399.687 40.5522C399.711 40.9973 399.734 41.4309 399.757 41.8607C399.804 42.747 399.233 43.424 398.411 43.464C397.59 43.5078 396.949 42.8955 396.909 42.0049C396.877 41.4025 396.822 40.7937 396.871 40.1946C396.978 38.8921 398.078 37.7907 399.381 37.7019C401.39 37.5639 403.401 37.4527 405.41 37.3802C406.838 37.3309 408.093 38.4914 408.227 39.9195C408.279 40.4632 408.305 41.0082 408.315 41.5541C408.333 42.3304 407.728 42.9668 406.957 43.0041C406.189 43.0451 405.531 42.4645 405.466 41.6868C405.43 41.2155 405.416 40.7391 405.389 40.2403L405.393 40.2478Z" fill="#7A3F3E"/>
<path d="M424.79 82.1171C424.816 82.5929 424.839 83.0342 424.863 83.4793C424.9 84.32 424.328 84.9854 423.526 85.0359C422.713 85.0832 422.061 84.4792 422.011 83.6199C421.981 83.0559 421.913 82.49 421.948 81.9263C422.041 80.4976 423.063 79.458 424.496 79.2623C424.534 79.2603 424.572 79.2467 424.637 79.2355L424.619 78.9132C424.551 77.6355 424.483 76.3616 424.415 75.0839C424.368 74.1976 424.936 73.5208 425.757 73.4731C426.582 73.4291 427.218 74.0378 427.27 74.9239C427.293 75.3575 427.316 75.7911 427.34 76.2515C427.801 76.2269 428.234 76.2038 428.668 76.1807C429.551 76.1374 430.228 76.7092 430.268 77.5306C430.312 78.3517 429.695 78.981 428.809 79.0322C428.383 79.0549 427.961 79.0774 427.508 79.1016C427.503 79.8753 427.294 80.5675 426.774 81.1493C426.255 81.7311 425.598 82.0356 424.794 82.1169L424.79 82.1171Z" fill="#7A3F3E"/>
<path d="M425.399 93.5284C425.424 93.9965 425.448 94.4416 425.472 94.8828C425.509 95.7389 424.926 96.4088 424.112 96.4445C423.313 96.4795 422.669 95.8789 422.62 95.035C422.542 93.6308 422.463 92.2267 422.395 90.8181C422.328 89.3403 423.335 88.0975 424.792 87.8389C426.156 87.5968 427.521 88.4436 427.967 89.8051C428.514 91.4728 427.385 93.2454 425.609 93.4979C425.552 93.5048 425.491 93.512 425.395 93.5247L425.399 93.5284Z" fill="#7A3F3E"/>
<path d="M413.377 82.6992C414.875 82.7886 415.903 83.4494 416.224 84.7021C416.423 85.4842 416.449 86.3293 416.42 87.1467C416.397 87.8751 415.689 88.3823 414.967 88.3477C414.246 88.3131 413.666 87.7477 413.611 87.0156C413.574 86.5443 413.561 86.0679 413.535 85.5806C412.872 85.5774 412.276 85.4323 411.752 85.0562C411.036 84.5442 410.621 83.8467 410.54 82.966C410.493 82.4529 410.469 81.9385 410.457 81.4197C410.43 80.6246 411.031 79.9769 411.814 79.939C412.592 79.8974 413.247 80.4859 413.305 81.2831C413.338 81.747 413.355 82.2117 413.381 82.6952L413.377 82.6992Z" fill="#7A3F3E"/>
<path d="M404.364 74.6147C404.39 75.0981 404.414 75.5432 404.437 75.9845C404.475 76.8367 403.887 77.5068 403.073 77.5425C402.275 77.5775 401.627 76.9733 401.586 76.1328C401.553 75.5112 401.496 74.8831 401.544 74.2649C401.648 72.9665 402.757 71.8953 404.059 71.7758C404.603 71.7275 405.147 71.6985 405.69 71.6888C406.451 71.6713 407.086 72.2645 407.134 73.0162C407.183 73.787 406.622 74.4595 405.849 74.5316C405.366 74.5766 404.882 74.5832 404.356 74.6112L404.364 74.6147Z" fill="#7A3F3E"/>
<path d="M430.644 84.656C430.18 84.6808 429.716 84.7094 429.247 84.7306C428.414 84.7635 427.751 84.1716 427.716 83.3655C427.682 82.5746 428.278 81.931 429.099 81.8795C430.027 81.8223 430.96 81.7725 431.889 81.7306C432.71 81.6945 433.372 82.2748 433.418 83.065C433.469 83.8666 432.873 84.5256 432.037 84.5817C431.573 84.6142 431.108 84.6313 430.64 84.6563L430.644 84.656Z" fill="#7A3F3E"/>
<path d="M401.129 67.6379C401.171 68.4283 400.56 69.1035 399.766 69.142C398.987 69.1759 398.319 68.5727 398.278 67.7938C398.236 67.0034 398.846 66.3282 399.641 66.2897C400.42 66.2558 401.087 66.859 401.129 67.6379Z" fill="#7A3F3E"/>
<path d="M405.343 65.9854C406.122 65.9438 406.793 66.5506 406.834 67.3257C406.877 68.1161 406.27 68.7949 405.476 68.8335C404.685 68.8756 404.013 68.2535 403.982 67.4625C403.952 66.6829 404.56 66.0233 405.343 65.9854Z" fill="#7A3F3E"/>
<path d="M392.571 68.0829C392.621 68.8768 392.015 69.5556 391.22 69.598C390.441 69.6395 389.771 69.0404 389.721 68.2619C389.672 67.4719 390.282 66.7891 391.072 66.7469C391.851 66.7053 392.526 67.3042 392.571 68.0829Z" fill="#7A3F3E"/>
<path d="M381.465 74.4205C381.499 75.2113 380.881 75.8831 380.09 75.9099C379.314 75.9398 378.65 75.3287 378.613 74.5496C378.574 73.759 379.193 73.0911 379.988 73.0602C380.763 73.0304 381.427 73.6414 381.465 74.4205Z" fill="#7A3F3E"/>
<path d="M397.395 77.8494C396.616 77.8987 395.938 77.3038 395.881 76.5296C395.827 75.7359 396.425 75.0498 397.216 75.0038C397.994 74.9584 398.673 75.5494 398.729 76.3237C398.783 77.1173 398.185 77.8034 397.395 77.8494Z" fill="#7A3F3E"/>
<path d="M431.474 73.1718C432.254 73.1341 432.921 73.7373 432.966 74.516C433.008 75.3064 432.398 75.9854 431.607 76.0238C430.817 76.0621 430.145 75.44 430.114 74.6489C430.084 73.8694 430.695 73.2096 431.474 73.1718Z" fill="#7A3F3E"/>
<path d="M432.358 63.1163C432.4 63.9067 431.782 64.5823 430.991 64.6129C430.211 64.6468 429.548 64.0396 429.51 63.2605C429.468 62.4701 430.086 61.7983 430.877 61.7638C431.657 61.7299 432.32 62.3371 432.358 63.1163Z" fill="#7A3F3E"/>
<path d="M402.32 63.2839C403.099 63.2423 403.777 63.8333 403.826 64.608C403.88 65.4016 403.278 66.0841 402.484 66.1303C401.693 66.1763 401.014 65.5661 400.976 64.7755C400.934 63.9966 401.538 63.3295 402.316 63.2841L402.32 63.2839Z" fill="#7A3F3E"/>
<path d="M398.126 64.943C398.168 65.7334 397.55 66.4051 396.755 66.4398C395.979 66.4697 395.312 65.8627 395.274 65.0836C395.232 64.2932 395.85 63.6214 396.645 63.5867C397.424 63.5528 398.088 64.1638 398.126 64.943Z" fill="#7A3F3E"/>
<path d="M422.164 86.5516C422.202 87.3422 421.584 88.0139 420.789 88.0448C420.013 88.0747 419.35 87.4636 419.312 86.6845C419.273 85.8939 419.892 85.2221 420.687 85.1912C421.462 85.1614 422.126 85.7724 422.164 86.5516Z" fill="#7A3F3E"/>
<path d="M418.129 91.0496C418.908 91.0157 419.575 91.6189 419.617 92.3978C419.659 93.1882 419.048 93.8634 418.254 93.902C417.463 93.9365 416.795 93.318 416.764 92.5231C416.738 91.7472 417.346 91.0876 418.129 91.0496Z" fill="#7A3F3E"/>
<path d="M399.8 96.3181C399.842 97.1085 399.228 97.7839 398.433 97.8186C397.654 97.8525 396.99 97.2453 396.949 96.4664C396.907 95.676 397.521 95.0006 398.316 94.9659C399.095 94.932 399.762 95.539 399.8 96.3181Z" fill="#7A3F3E"/>
<path d="M431.182 94.6666C431.213 95.4576 430.586 96.1221 429.791 96.1453C429.015 96.1675 428.359 95.5484 428.328 94.7689C428.298 93.9778 428.924 93.3172 429.72 93.294C430.496 93.2718 431.152 93.8909 431.182 94.6704L431.182 94.6666Z" fill="#7A3F3E"/>
<path d="M386.032 52.7054C383.864 52.8211 381.747 52.9572 379.627 53.0356C378.498 53.0767 377.462 52.1238 377.376 50.9471C377.226 48.8503 377.141 46.75 377.026 44.6051C377.137 44.5992 377.241 44.5936 377.345 44.5881C379.256 44.4861 381.167 44.3842 383.081 44.282C384.566 44.2028 385.621 45.1431 385.704 46.6201C385.81 48.5499 385.914 50.4838 386.02 52.4136C386.025 52.5018 386.03 52.5863 386.036 52.7014L386.032 52.7054Z" fill="#7A3F3E"/>
<path d="M425.507 42.0297C425.549 42.8239 425.59 43.5836 425.63 44.3472C425.696 45.5866 425.762 46.8221 425.828 48.0614C425.91 49.5847 424.973 50.6313 423.457 50.7122C421.546 50.8142 419.635 50.9161 417.72 51.0183C417.632 51.023 417.544 51.0277 417.433 51.0337C417.42 50.9458 417.401 50.8738 417.397 50.797C417.292 48.8248 417.179 46.8568 417.081 44.8842C417.02 43.6638 417.76 42.6777 418.911 42.4008C419.018 42.3759 419.125 42.3625 419.236 42.3566C421.258 42.2487 423.277 42.141 425.299 42.033C425.357 42.03 425.414 42.0307 425.503 42.0299L425.507 42.0297Z" fill="#7A3F3E"/>
<path d="M379.629 93.1001C379.615 93.0393 379.601 93.0093 379.6 92.9824C379.491 90.9334 379.366 88.8815 379.279 86.8313C379.226 85.5336 380.224 84.4875 381.521 84.4183C383.482 84.3137 385.443 84.209 387.404 84.1044L387.688 84.0893C387.698 84.2042 387.714 84.2995 387.719 84.3954C387.821 86.2985 387.918 88.1981 388.016 90.1014C388.1 91.6669 387.174 92.7014 385.616 92.7845C383.724 92.8855 381.832 92.9864 379.94 93.0874L379.626 93.1042L379.629 93.1001Z" fill="#7A3F3E"/>
</g>
<path d="M71.3236 109.501C87.0593 109.501 99.8156 96.6882 99.8156 80.883C99.8156 65.0779 87.0593 52.2653 71.3236 52.2653C55.588 52.2653 42.8317 65.0779 42.8317 80.883C42.8317 96.6882 55.588 109.501 71.3236 109.501Z" fill="#DB7713" stroke="#7A3F3E" stroke-width="6.21" stroke-miterlimit="10" stroke-linecap="round"/>
<path d="M86.0515 76.6497L64.6995 68.6534C62.3241 67.7672 59.8332 69.635 60.0097 72.171L61.3196 91.054C61.496 93.59 64.2244 95.0965 66.4506 93.8899L86.4927 83.0032C89.126 81.5716 88.8546 77.6995 86.0515 76.6497Z" fill="#7A3F3E"/>
<path d="M123.679 68.8443C119.573 69.0351 118.222 73.3571 118.439 78.1767C118.656 82.9963 120.374 86.6434 125.016 86.4321C126.319 86.3707 127.486 86.0299 128.362 85.6618C129.319 85.2459 130.113 84.8028 131.05 84.7619C132.678 84.6869 133.669 85.8731 133.737 87.2979C133.778 88.1159 133.534 89.0294 132.509 89.8133C130.778 91.1631 127.099 91.8652 124.738 91.9743C116.641 92.3492 112.772 86.139 112.412 78.2994C112.053 70.4599 115.086 63.7247 123.183 63.3498C125.505 63.2407 127.724 63.7111 129.136 64.2632C131.212 65.0676 132.495 66.4856 132.78 69.0897L132.916 70.3099C133.187 72.6686 131.973 73.6707 130.466 73.7389C129.081 73.8002 127.826 73.0026 127.452 71.1348L127.133 69.5123C126.217 69.0624 124.819 68.8034 123.679 68.8511V68.8443Z" fill="#7A3F3E"/>
<path d="M147.399 77.5768C147.338 76.2271 146.87 74.8569 144.223 74.9796C143.775 75 143.124 75.0682 142.323 75.3136C141.481 75.559 140.395 75.9339 139.581 75.9748C137.952 76.0498 137.083 74.9046 137.029 73.6775C136.995 72.9413 137.246 72.1914 138.318 71.5302C139.744 70.644 142.411 70.1122 144.61 70.01C152.3 69.6555 153.297 74.5228 153.426 77.3382L153.698 83.2622C153.8 85.5527 154.383 86.5889 154.431 87.6933C154.499 89.1657 153.664 90.5155 151.831 90.5973C150.162 90.6723 149.3 89.6497 149.062 88.9271L148.825 88.1977C147.121 90.2019 145.085 91.0336 143.008 91.129C138.902 91.3199 136.33 88.6136 136.174 85.1369C135.99 81.1762 139.065 78.7834 144.271 78.538L147.447 78.3881L147.406 77.57L147.399 77.5768ZM147.617 82.4374L144.685 82.5737C142.893 82.6555 141.943 83.2758 141.997 84.4143C142.051 85.5527 143.015 86.1663 144.4 86.1049C145.621 86.0504 146.734 85.4641 147.712 84.5574L147.617 82.4305V82.4374Z" fill="#7A3F3E"/>
<path d="M163.722 71.7824C165.426 69.7782 167.218 68.9602 169.213 68.8647C174.093 68.6398 177.181 72.7981 177.459 78.8448C177.751 85.2596 174.69 89.5747 168.711 89.8542C167.53 89.9088 166.749 89.7792 165.473 89.4316L165.738 95.151C165.82 96.8689 164.618 98.2323 162.867 98.3141C161.116 98.3959 159.799 97.1484 159.718 95.4305L158.863 76.7588C158.754 74.4274 158.191 73.6366 158.137 72.4096C158.069 70.8962 158.781 69.5123 160.77 69.4237C162.277 69.3555 163.125 70.0509 163.498 71.1007L163.736 71.7824H163.722ZM165.249 84.5711C166.166 84.9801 167.469 85.0414 168.12 85.0142C170.686 84.8983 171.568 82.8873 171.412 79.4174C171.242 75.7022 170.055 73.7866 168.059 73.882C166.919 73.9366 165.731 74.6046 164.829 75.4227L165.249 84.5779V84.5711Z" fill="#7A3F3E"/>
<path d="M187.015 89.9088L179.631 72.8118C179.495 72.4914 179.387 71.9188 179.366 71.5166C179.292 69.8805 180.534 68.4762 182.197 68.3944C183.54 68.333 184.762 69.1783 185.183 70.3849L189.561 82.3419H189.723L192.988 70.0236C193.3 68.7829 194.434 67.8286 195.777 67.7672C197.447 67.6922 198.811 68.9806 198.886 70.6099C198.906 71.0189 198.852 71.5915 198.743 71.9256L193.253 89.0908C191.793 93.665 189.818 95.9623 187.049 96.8689C186.208 97.1553 185.115 97.2848 184.586 97.3121C182.183 97.4211 181.457 95.8191 181.403 94.633C181.335 93.1605 182.346 92.1311 184.043 91.8107C184.891 91.6471 186.316 91.5858 187.015 89.9156V89.9088Z" fill="#7A3F3E"/>
<path d="M202.978 72.7095C201.594 72.7709 200.488 71.762 200.427 70.3713C200.365 68.9806 201.37 67.7877 202.748 67.7263L204.54 67.6445L204.363 63.7656C204.282 62.0478 205.524 60.6844 207.234 60.6026C208.944 60.5208 210.302 61.7683 210.383 63.4861L210.56 67.365L214.706 67.1741C216.091 67.1128 217.197 68.2035 217.265 69.5942C217.333 70.9848 216.322 72.096 214.937 72.1574L210.79 72.3482L211.164 80.44C211.232 81.8716 211.761 82.8259 213.023 82.7714C214.123 82.7237 214.415 82.0079 215.514 81.9602C216.736 81.9056 217.869 82.6692 217.937 84.1825C217.978 85.1233 217.571 85.9209 216.661 86.5753C215.283 87.5842 213.376 87.8705 212.277 87.9251C207.56 88.1432 205.306 84.3598 205.144 80.7604L204.77 72.6277L202.978 72.7095Z" fill="#7A3F3E"/>
<path d="M232.78 69.0829C232.699 67.365 233.941 66.0016 235.651 65.9198C237.362 65.838 238.719 67.0855 238.8 68.8034L239.282 79.3016C239.384 81.5921 239.961 82.5056 240.009 83.6099C240.076 85.1642 239.33 86.548 237.457 86.6367C235.828 86.7116 235.142 85.9686 234.647 84.9665L234.409 84.2371C232.706 86.2413 230.751 87.0661 228.511 87.1684C224.12 87.3729 221.446 85.0415 221.195 79.6083L220.74 69.6419C220.659 67.924 221.901 66.5606 223.611 66.4788C225.362 66.397 226.679 67.6445 226.76 69.3624L227.215 79.3288C227.33 81.8648 228.572 82.2124 230.154 82.1374C231.172 82.0897 232.441 81.4148 233.303 80.6036L232.774 69.0829H232.78Z" fill="#7A3F3E"/>
<path d="M250.237 65.7766C251.2 65.4017 252.246 65.1086 253.182 65.0677C259.487 64.7745 262.854 68.7966 263.139 75.0886C263.478 82.4851 259.671 85.73 255.768 85.914C254.465 85.9754 251.954 85.4368 250.114 83.5144L249.979 84.0939C249.666 85.2528 249.008 86.1049 247.386 86.1799C245.513 86.2685 244.556 84.9597 244.488 83.4054C244.44 82.301 244.922 81.3398 244.821 79.0493L243.897 58.8642C243.816 57.1463 245.058 55.7829 246.768 55.7011C248.479 55.6193 249.836 56.8668 249.918 58.5847L250.25 65.7766H250.237ZM250.881 79.7924C251.852 80.5627 253.141 81.0808 254.159 81.0331C256.236 80.9376 257.241 78.9266 257.078 75.3681C256.915 71.8097 255.883 69.8123 253.325 69.935C252.632 69.9691 251.336 70.1531 250.461 70.644L250.881 79.7992V79.7924Z" fill="#7A3F3E"/>
<path d="M276.658 80.1127C277.473 80.0718 278.281 79.9151 279.007 79.7583C280.018 79.5469 280.975 79.1379 281.952 79.0902C283.581 79.0152 284.362 80.0446 284.409 81.1489C284.457 82.1715 283.839 82.8941 283.004 83.4258C281.538 84.3529 278.83 84.8437 276.835 84.9392C270.041 85.2528 266.79 81.0262 266.505 74.8159C266.22 68.5239 269.159 64.2496 275.383 63.9633C281.891 63.6634 284.212 68.1012 284.43 72.839C284.565 75.7431 283.642 76.1521 282.339 76.2134L272.661 76.6634C272.749 78.6266 273.598 80.2627 276.652 80.1196L276.658 80.1127ZM278.919 72.5186C278.824 70.3917 277.975 68.7965 275.613 68.9056C273.699 68.9942 272.566 70.0713 272.491 72.8186L278.919 72.5186Z" fill="#7A3F3E"/>
<path d="M291.434 77.0179C293.389 76.9292 295.045 78.4085 295.133 80.365C295.221 82.3215 293.708 83.9507 291.753 84.0394C289.798 84.128 288.183 82.6487 288.095 80.6854C288.006 78.7221 289.52 77.0997 291.434 77.011V77.0179Z" fill="#7A3F3E"/>
<path d="M307.112 68.633L310.512 63.6429C311.082 62.7976 311.924 62.3886 312.82 62.3477C314.489 62.2727 315.813 63.5611 315.881 65.1563C315.915 65.8517 315.698 66.472 315.317 67.0242L311.15 72.989L315.996 78.2109C316.471 78.7221 316.743 79.4038 316.777 80.0583C316.851 81.6943 315.528 83.0236 313.98 83.0918C313.044 83.1327 312.168 82.7237 311.523 82.0147L307.234 77.3383L303.793 82.3692C303.223 83.2145 302.381 83.6235 301.485 83.6644C299.857 83.7394 298.458 82.5737 298.384 80.9445C298.35 80.2082 298.608 79.5402 298.988 78.9948L303.196 72.989L298.391 67.8081C297.963 67.3378 297.685 66.697 297.658 66.0016C297.583 64.4065 298.784 63.0021 300.413 62.9272C301.35 62.8863 302.225 63.2953 302.87 63.9974L307.119 68.633H307.112Z" fill="#7A3F3E"/>
<path d="M325.932 83.4872L318.548 66.3902C318.412 66.0698 318.304 65.4971 318.283 65.0949C318.209 63.4588 319.451 62.0545 321.114 61.9727C322.457 61.9114 323.679 62.7567 324.1 63.9633L328.477 75.9203H328.64L331.905 63.602C332.217 62.3613 333.351 61.4069 334.694 61.3456C336.364 61.2706 337.728 62.559 337.803 64.1883C337.823 64.5973 337.769 65.1699 337.66 65.5039L332.17 82.6691C330.71 87.2433 328.735 89.5407 325.966 90.4473C325.125 90.7336 324.032 90.8631 323.503 90.8904C321.1 90.9995 320.374 89.3975 320.319 88.2113C320.252 86.7389 321.263 85.7095 322.96 85.3891C323.808 85.2255 325.233 85.1641 325.932 83.494V83.4872Z" fill="#7A3F3E"/>
<path d="M341.753 75.5454L349.544 65.9334L342.791 66.247C341.407 66.3084 340.3 65.2586 340.239 63.8679C340.178 62.4772 341.183 61.3252 342.567 61.2638L353.142 60.773C355.259 60.6775 356.868 62.0341 356.956 63.9156C356.997 64.8564 356.766 65.9744 355.951 66.9492L348.587 76.2135L355.137 75.9135C356.521 75.8522 357.628 76.902 357.689 78.2927C357.75 79.6833 356.745 80.8354 355.361 80.8967L344.298 81.408C342.547 81.4898 340.715 80.59 340.619 78.504C340.579 77.6859 340.823 76.6498 341.746 75.5454H341.753Z" fill="#7A3F3E"/>
</g>
</g>
<defs>
<clipPath id="clip0_63_100">
<rect width="1920" height="1080" fill="white"/>
</clipPath>
<clipPath id="clip1_63_100">
<rect width="263.45" height="312.91" fill="white" transform="translate(818 890)"/>
</clipPath>
<clipPath id="clip2_63_100">
<rect width="231" height="309" fill="white" transform="matrix(-1 0 0 1 387 890)"/>
</clipPath>
<clipPath id="clip3_63_100">
<rect width="317.61" height="171.44" fill="white" transform="translate(1254 909)"/>
</clipPath>
<clipPath id="clip4_63_100">
<rect width="165.2" height="101.71" fill="white" transform="translate(575 990)"/>
</clipPath>
<clipPath id="clip5_63_100">
<rect width="165.2" height="101.71" fill="white" transform="matrix(-1 0 0 1 1254.2 987)"/>
</clipPath>
<clipPath id="clip6_63_100">
<rect width="67.79" height="71.03" fill="white" transform="translate(1572 986)"/>
</clipPath>
<clipPath id="clip7_63_100">
<rect width="67.79" height="71.03" fill="white" transform="translate(1828 67)"/>
</clipPath>
<clipPath id="clip8_63_100">
<rect width="67.79" height="71.03" fill="white" transform="matrix(-1 0 0 1 511.79 986)"/>
</clipPath>
<clipPath id="clip9_63_100">
<rect width="54" height="65" fill="white" transform="translate(40 319)"/>
</clipPath>
<clipPath id="clip10_63_100">
<rect width="49" height="59" fill="white" transform="translate(1850 727)"/>
</clipPath>
<clipPath id="clip11_63_100">
<rect width="54" height="65" fill="white" transform="matrix(-1 0 0 1 1882 271)"/>
</clipPath>
<clipPath id="clip12_63_100">
<rect width="54" height="65" fill="white" transform="matrix(-1 0 0 1 81 784)"/>
</clipPath>
<clipPath id="clip13_63_100">
<rect width="65.68" height="65.18" fill="white" transform="translate(1829 506)"/>
</clipPath>
<clipPath id="clip14_63_100">
<rect width="79.85" height="62.46" fill="white" transform="translate(27 540)"/>
</clipPath>
<clipPath id="clip15_63_100">
<rect width="28.89" height="28.89" fill="white" transform="translate(856 20)"/>
</clipPath>
<clipPath id="clip16_63_100">
<rect width="162.72" height="21.99" fill="white" transform="translate(900.89 23.45)"/>
</clipPath>
<clipPath id="clip17_63_100">
<rect width="457" height="118" fill="white" transform="translate(23 9)"/>
</clipPath>
<clipPath id="clip18_63_100">
<rect width="60" height="60" fill="white" transform="translate(371 39.1971) rotate(-3.05445)"/>
</clipPath>
</defs>
</svg>
