<svg width="146" height="94" viewBox="0 0 146 94" fill="none" xmlns="http://www.w3.org/2000/svg">
<path d="M3.08984 58.1418C3.08984 18.7892 48.8102 4.93552 71.6704 2.92773C140.251 2.92773 146.61 29.7211 142.025 58.1418C136.09 94.9277 3.08984 107.333 3.08984 58.1418Z" fill="#FFEEE2" stroke="#7A3F3E" stroke-width="5"/>
<path d="M39.7382 60.0973C39.2452 59.3497 38.7226 58.3939 38.1703 57.2301C37.6171 56.0566 37.075 54.7937 36.544 53.4414C36.0131 52.0892 35.5277 50.7522 35.0879 49.4306C34.6472 48.0991 34.2817 46.8881 33.9915 45.7974C33.7109 44.7058 33.5411 43.8489 33.4818 43.2267C33.4577 42.974 33.4922 42.7696 33.5853 42.6136C33.7793 42.2812 34.0209 41.9345 34.3102 41.5734C34.6084 41.2016 34.9635 40.8098 35.3755 40.3978C35.5102 40.2672 35.6407 40.1959 35.7671 40.1839C35.8935 40.1719 36.0254 40.2182 36.1629 40.3228C36.655 40.6487 37.0777 40.9665 37.4309 41.2762C37.7832 41.5762 38.0859 41.8711 38.3392 42.1609C38.46 42.2965 38.5338 42.5053 38.5607 42.7872L38.5551 42.7289C38.6162 43.3705 38.7817 44.2327 39.0516 45.3156C39.3303 46.3877 39.6677 47.5622 40.064 48.839C40.4691 50.1051 40.8922 51.3548 41.3333 52.5881C41.7833 53.8107 42.2154 54.8976 42.6298 55.849L42.7172 55.8406C43.1182 54.488 43.4744 53.0267 43.786 51.4569C44.0975 49.8871 44.3767 48.286 44.6235 46.6537C44.8702 45.0214 45.0968 43.4352 45.3033 41.895C45.3686 41.4473 45.5198 41.1288 45.7568 40.9395C46.0026 40.7395 46.4026 40.6131 46.9567 40.5604L48.7066 40.3937C49.2024 40.3465 49.5788 40.3842 49.8357 40.5069C50.0926 40.6296 50.2977 40.9289 50.4509 41.4048C50.8111 42.5084 51.2113 43.672 51.6515 44.8956C52.0918 46.1191 52.5413 47.3369 53 48.5488C53.4676 49.7501 53.9277 50.8737 54.3805 51.9195C54.8429 52.9643 55.2716 53.8603 55.6665 54.6075L55.754 54.5992C56.0743 53.6367 56.3352 52.5132 56.5366 51.2286C56.7477 49.943 56.903 48.6382 57.0026 47.3142C57.1109 45.9796 57.1702 44.7477 57.1804 43.6186C57.2003 42.4886 57.1797 41.6027 57.1186 40.9611L57.1241 41.0195C57.0973 40.7375 57.1255 40.519 57.2089 40.3639C57.6144 39.6779 58.1917 38.9411 58.9407 38.1537C59.0852 38.0222 59.2157 37.9509 59.3324 37.9398C59.4393 37.9296 59.5713 37.9759 59.7282 38.0787C60.2008 38.4064 60.6089 38.7256 60.9524 39.0363C61.295 39.3372 61.5929 39.6325 61.8461 39.9223C61.9581 40.0686 62.0266 40.273 62.0516 40.5355C62.1294 41.3521 62.1305 42.3428 62.0551 43.5075C61.9796 44.6723 61.8435 45.9213 61.6467 47.2545C61.4588 48.5771 61.2271 49.9039 60.9516 51.2348C60.6859 52.5649 60.388 53.8145 60.0579 54.9839C59.7366 56.1426 59.404 57.1308 59.06 57.9483C58.772 58.633 58.4982 59.1054 58.2385 59.3656C57.9876 59.6151 57.6045 59.7644 57.0893 59.8135L55.2956 59.9843C54.8581 60.0259 54.4795 59.9639 54.1596 59.7982C53.8494 59.6315 53.5085 59.2961 53.1367 58.792C52.8548 58.4068 52.5183 57.8601 52.1271 57.1518C51.7456 56.4425 51.3533 55.6706 50.9501 54.8359C50.5557 53.9906 50.1932 53.1717 49.8627 52.3791C49.5322 51.5866 49.2817 50.9139 49.1114 50.3612C48.9141 49.7325 48.7387 49.1263 48.585 48.5425C48.4401 47.9481 48.3418 47.4817 48.2899 47.1433L48.1732 47.1544C48.1862 47.4965 48.1679 47.974 48.1184 48.587C48.0776 49.1892 48.0149 49.8181 47.9302 50.4737C47.8455 51.1292 47.7209 51.8817 47.5566 52.7312C47.3922 53.5806 47.204 54.4373 46.992 55.3011C46.78 56.165 46.5619 56.9656 46.3378 57.7031C46.1138 58.4405 45.8953 59.0303 45.6823 59.4724C45.4457 59.9756 45.1684 60.3601 44.8504 60.6258C44.5421 60.8906 44.0914 61.0512 43.4984 61.1077L41.8506 61.2646C41.3353 61.3137 40.9377 61.2584 40.6576 61.0986C40.3775 60.9389 40.0711 60.6052 39.7382 60.0973ZM62.0475 40.4917L62.053 40.5501L62.0516 40.5355C62.0498 40.5161 62.0484 40.5015 62.0475 40.4917ZM33.4804 43.2122L33.4818 43.2267L33.486 43.2705L33.4804 43.2122ZM69.5628 58.9935C68.1337 59.1296 66.9583 58.8393 66.0367 58.1227C65.1238 57.3954 64.6002 56.3269 64.4659 54.9173C64.3965 54.1882 64.4634 53.5 64.6666 52.8528C64.8787 52.195 65.2925 51.5964 65.9083 51.0571C66.5328 50.5072 67.429 50.0294 68.597 49.6239C69.7747 49.2174 71.2945 48.901 73.1564 48.6747C73.0722 47.79 72.788 47.1745 72.3037 46.8283C71.8292 46.4811 71.1496 46.3496 70.265 46.4338C69.4678 46.5097 68.8294 46.7079 68.3498 47.0282C67.8702 47.3486 67.5718 47.5634 67.4547 47.6726C67.3297 47.8022 67.1686 47.8617 66.9714 47.8511C66.7052 47.8372 66.4168 47.796 66.1062 47.7275C65.8053 47.658 65.4787 47.5763 65.1264 47.4823C65.0759 47.4675 65.0197 47.4434 64.9576 47.4101C64.8947 47.3671 64.8542 47.3022 64.8361 47.2157C64.8315 47.1671 64.8308 47.1083 64.834 47.0393C64.8364 46.9606 64.8477 46.8222 64.8681 46.624C64.8884 46.4259 64.9241 46.1822 64.975 45.8928C65.025 45.5938 65.0766 45.3632 65.1299 45.2012C65.2016 45.0276 65.3326 44.8582 65.5229 44.6929C65.6752 44.5411 66.1551 44.2747 66.9624 43.8937C67.7698 43.5127 68.9658 43.2467 70.5504 43.0958C74.9154 42.6802 77.3002 44.5965 77.7048 48.8449L78.4908 57.0985C78.5084 57.2832 78.4702 57.4487 78.3762 57.595C78.291 57.7307 78.1269 57.8101 77.8839 57.8332L75.6965 58.0415C75.5409 58.0563 75.3981 58.0503 75.268 58.0234C75.1468 57.986 75.0266 57.9091 74.9076 57.7929L73.8924 56.7124L73.7904 56.7221C73.4052 57.4161 72.8474 57.945 72.1168 58.3088C71.396 58.6718 70.5447 58.9 69.5628 58.9935ZM70.8447 55.4576C71.7391 55.3724 72.393 55.0796 72.8064 54.5792C73.2198 54.0788 73.4666 53.5795 73.5467 53.0814L73.3925 51.4627C72.0412 51.5914 71.0355 51.7951 70.3753 52.0738C69.724 52.3418 69.3027 52.6566 69.1115 53.0181C68.9194 53.37 68.8418 53.7403 68.8789 54.1292C68.9326 54.693 69.1451 55.0701 69.5163 55.2604C69.8867 55.4409 70.3295 55.5067 70.8447 55.4576ZM88.1409 57.2243C84.8939 57.5335 83.1097 56.0014 82.7885 52.628L82.1372 45.7888L80.4894 45.9458C80.1977 45.9735 79.988 45.9346 79.8602 45.8291C79.7413 45.7129 79.6679 45.509 79.6401 45.2173L79.4693 43.4237C79.4415 43.132 79.4756 42.9228 79.5714 42.7959C79.676 42.6584 79.8742 42.5758 80.1658 42.548L81.8136 42.3911L81.59 40.0433C81.5678 39.81 81.5993 39.6255 81.6845 39.4899C82.0419 38.9163 82.5847 38.281 83.3129 37.5838C83.4397 37.4736 83.5566 37.4134 83.6636 37.4032C83.7802 37.3921 83.9015 37.4296 84.0274 37.5157C84.476 37.7967 84.8547 38.0648 85.1635 38.3199C85.482 38.574 85.7562 38.8275 85.9863 39.0802C86.0956 39.1974 86.1613 39.3726 86.1835 39.6059L86.4071 41.9537L88.9882 41.7079C89.2798 41.6801 89.4852 41.7243 89.6041 41.8405C89.7319 41.9461 89.8097 42.1447 89.8374 42.4363L90.0082 44.23C90.036 44.5216 89.9976 44.7362 89.893 44.8737C89.7971 45.0005 89.6034 45.0778 89.3118 45.1056L86.7307 45.3514L87.3056 51.3885C87.4537 52.944 88.0916 53.668 89.2193 53.5606C89.3943 53.544 89.5533 53.5141 89.6964 53.4711C89.8385 53.4183 89.9612 53.3674 90.0644 53.3183C90.2612 53.2211 90.3993 53.1785 90.479 53.1905C90.5683 53.2017 90.6563 53.3012 90.7428 53.4891L91.8039 55.6689C91.9145 55.9036 91.8728 56.0841 91.6789 56.2105C91.5395 56.2924 91.1967 56.4526 90.6505 56.691C90.1148 56.9382 89.2783 57.116 88.1409 57.2243ZM100.022 40.2893C101.178 40.1792 102.029 40.1963 102.572 40.3407C103.115 40.4755 103.459 40.5898 103.605 40.6838C103.832 40.7995 104.014 40.9588 104.151 41.1615C104.229 41.262 104.325 41.4393 104.437 41.6934C104.55 41.9476 104.64 42.2284 104.709 42.5358C104.781 42.7742 104.802 42.9487 104.773 43.0593C104.744 43.1603 104.634 43.2934 104.443 43.4586C104.225 43.6364 103.981 43.8019 103.711 43.9551C103.45 44.0977 103.234 44.2016 103.064 44.2669C102.922 44.3197 102.811 44.34 102.731 44.328C102.651 44.316 102.539 44.2678 102.394 44.1836C102.228 44.0914 101.998 43.9956 101.704 43.8961C101.409 43.7868 101.014 43.7558 100.518 43.803C99.8861 43.8632 99.2982 44.0761 98.7542 44.4418C98.22 44.8066 97.8027 45.3172 97.5022 45.9737C97.2115 46.6292 97.1106 47.4236 97.1994 48.3569C97.3328 49.7568 97.8005 50.806 98.6028 51.5046C99.4148 52.2023 100.438 52.4923 101.673 52.3747C102.305 52.3145 102.824 52.2014 103.23 52.0352C103.635 51.8593 103.952 51.6917 104.182 51.5324C104.367 51.407 104.51 51.3688 104.613 51.4179C104.724 51.4563 104.816 51.5408 104.887 51.6713L106.181 53.9761C106.312 54.2186 106.271 54.404 106.057 54.5323C105.715 54.7512 105.142 55.0167 104.338 55.3287C103.534 55.6407 102.524 55.8546 101.309 55.9703C98.8687 56.2027 96.858 55.7418 95.2766 54.5877C93.6943 53.4239 92.78 51.549 92.5337 48.963C92.3764 47.3104 92.5771 45.8639 93.1358 44.6237C93.6946 43.3835 94.5617 42.3935 95.7371 41.6538C96.9116 40.9043 98.3397 40.4495 100.022 40.2893ZM113.216 53.6886C113.244 53.9803 113.201 54.1905 113.085 54.3192C112.979 54.4372 112.78 54.5101 112.488 54.5379L109.484 54.8239C109.192 54.8517 108.978 54.8182 108.842 54.7233C108.714 54.6177 108.636 54.4191 108.608 54.1275L106.73 34.3974C106.707 34.1641 106.739 33.9796 106.824 33.8439C107.181 33.2704 107.724 32.635 108.452 31.9378C108.579 31.8276 108.696 31.7675 108.803 31.7573C108.929 31.7452 109.056 31.7823 109.182 31.8684C109.63 32.1494 110.009 32.4174 110.318 32.6725C110.636 32.9267 110.91 33.1801 111.14 33.4329C111.25 33.55 111.315 33.7252 111.338 33.9586L112.011 41.0311L112.069 41.0255C112.256 40.7232 112.507 40.4149 112.82 40.1006C113.133 39.7765 113.561 39.4904 114.107 39.2423C114.662 38.9932 115.382 38.8266 116.266 38.7423C117.161 38.6572 118.039 38.7599 118.9 39.0507C119.762 39.3414 120.497 39.8993 121.105 40.7242C121.713 41.5492 122.09 42.7199 122.234 44.2365L123.045 52.7527C123.073 53.0443 123.029 53.2545 122.914 53.3832C122.807 53.5012 122.608 53.5741 122.317 53.6019L119.313 53.888C119.021 53.9158 118.807 53.8822 118.67 53.7873C118.543 53.6817 118.465 53.4831 118.437 53.1915L117.702 45.4774C117.6 44.3983 117.302 43.637 116.808 43.1935C116.314 42.7402 115.682 42.5502 114.914 42.6233C114.156 42.6956 113.584 42.9168 113.197 43.2872C112.811 43.6575 112.53 44.1061 112.354 44.6329L113.216 53.6886Z" fill="#7A3F3E"/>
</svg>
